G04 #@! TF.FileFunction,Legend,Bot*
%FSLAX46Y46*%
G04 Gerber Fmt 4.6, Leading zero omitted, Abs format (unit mm)*
G04 Created by KiCad (PCBNEW 4.0.1-stable) date 2016-02-27 01:30:11*
%MOMM*%
G01*
G04 APERTURE LIST*
%ADD10C,0.050800*%
%ADD11C,0.254000*%
%ADD12C,0.190500*%
%ADD13C,0.158750*%
%ADD14C,0.002540*%
%ADD15C,1.854200*%
%ADD16R,1.854200X1.854200*%
G04 APERTURE END LIST*
D10*
D11*
X24166284Y-18826238D02*
X24021141Y-18874619D01*
X23779237Y-18874619D01*
X23682475Y-18826238D01*
X23634094Y-18777857D01*
X23585713Y-18681095D01*
X23585713Y-18584333D01*
X23634094Y-18487571D01*
X23682475Y-18439190D01*
X23779237Y-18390810D01*
X23972760Y-18342429D01*
X24069522Y-18294048D01*
X24117903Y-18245667D01*
X24166284Y-18148905D01*
X24166284Y-18052143D01*
X24117903Y-17955381D01*
X24069522Y-17907000D01*
X23972760Y-17858619D01*
X23730856Y-17858619D01*
X23585713Y-17907000D01*
X23150284Y-18874619D02*
X23150284Y-17858619D01*
X22763237Y-17858619D01*
X22666475Y-17907000D01*
X22618094Y-17955381D01*
X22569713Y-18052143D01*
X22569713Y-18197286D01*
X22618094Y-18294048D01*
X22666475Y-18342429D01*
X22763237Y-18390810D01*
X23150284Y-18390810D01*
X22134284Y-18874619D02*
X22134284Y-17858619D01*
X20295808Y-18777857D02*
X20344189Y-18826238D01*
X20489332Y-18874619D01*
X20586094Y-18874619D01*
X20731236Y-18826238D01*
X20827998Y-18729476D01*
X20876379Y-18632714D01*
X20924760Y-18439190D01*
X20924760Y-18294048D01*
X20876379Y-18100524D01*
X20827998Y-18003762D01*
X20731236Y-17907000D01*
X20586094Y-17858619D01*
X20489332Y-17858619D01*
X20344189Y-17907000D01*
X20295808Y-17955381D01*
X19860379Y-18874619D02*
X19860379Y-17858619D01*
X19424951Y-18874619D02*
X19424951Y-18342429D01*
X19473332Y-18245667D01*
X19570094Y-18197286D01*
X19715236Y-18197286D01*
X19811998Y-18245667D01*
X19860379Y-18294048D01*
X18941141Y-18874619D02*
X18941141Y-18197286D01*
X18941141Y-17858619D02*
X18989522Y-17907000D01*
X18941141Y-17955381D01*
X18892760Y-17907000D01*
X18941141Y-17858619D01*
X18941141Y-17955381D01*
X18457331Y-18197286D02*
X18457331Y-19213286D01*
X18457331Y-18245667D02*
X18360569Y-18197286D01*
X18167046Y-18197286D01*
X18070284Y-18245667D01*
X18021903Y-18294048D01*
X17973522Y-18390810D01*
X17973522Y-18681095D01*
X18021903Y-18777857D01*
X18070284Y-18826238D01*
X18167046Y-18874619D01*
X18360569Y-18874619D01*
X18457331Y-18826238D01*
X16812379Y-18826238D02*
X16667236Y-18874619D01*
X16425332Y-18874619D01*
X16328570Y-18826238D01*
X16280189Y-18777857D01*
X16231808Y-18681095D01*
X16231808Y-18584333D01*
X16280189Y-18487571D01*
X16328570Y-18439190D01*
X16425332Y-18390810D01*
X16618855Y-18342429D01*
X16715617Y-18294048D01*
X16763998Y-18245667D01*
X16812379Y-18148905D01*
X16812379Y-18052143D01*
X16763998Y-17955381D01*
X16715617Y-17907000D01*
X16618855Y-17858619D01*
X16376951Y-17858619D01*
X16231808Y-17907000D01*
X15409332Y-18826238D02*
X15506094Y-18874619D01*
X15699617Y-18874619D01*
X15796379Y-18826238D01*
X15844760Y-18729476D01*
X15844760Y-18342429D01*
X15796379Y-18245667D01*
X15699617Y-18197286D01*
X15506094Y-18197286D01*
X15409332Y-18245667D01*
X15360951Y-18342429D01*
X15360951Y-18439190D01*
X15844760Y-18535952D01*
X14780379Y-18874619D02*
X14877141Y-18826238D01*
X14925522Y-18729476D01*
X14925522Y-17858619D01*
X14006285Y-18826238D02*
X14103047Y-18874619D01*
X14296570Y-18874619D01*
X14393332Y-18826238D01*
X14441713Y-18729476D01*
X14441713Y-18342429D01*
X14393332Y-18245667D01*
X14296570Y-18197286D01*
X14103047Y-18197286D01*
X14006285Y-18245667D01*
X13957904Y-18342429D01*
X13957904Y-18439190D01*
X14441713Y-18535952D01*
X13087047Y-18826238D02*
X13183809Y-18874619D01*
X13377332Y-18874619D01*
X13474094Y-18826238D01*
X13522475Y-18777857D01*
X13570856Y-18681095D01*
X13570856Y-18390810D01*
X13522475Y-18294048D01*
X13474094Y-18245667D01*
X13377332Y-18197286D01*
X13183809Y-18197286D01*
X13087047Y-18245667D01*
X12796761Y-18197286D02*
X12409713Y-18197286D01*
X12651618Y-17858619D02*
X12651618Y-18729476D01*
X12603237Y-18826238D01*
X12506475Y-18874619D01*
X12409713Y-18874619D01*
X11345333Y-18826238D02*
X11200190Y-18874619D01*
X10958286Y-18874619D01*
X10861524Y-18826238D01*
X10813143Y-18777857D01*
X10764762Y-18681095D01*
X10764762Y-18584333D01*
X10813143Y-18487571D01*
X10861524Y-18439190D01*
X10958286Y-18390810D01*
X11151809Y-18342429D01*
X11248571Y-18294048D01*
X11296952Y-18245667D01*
X11345333Y-18148905D01*
X11345333Y-18052143D01*
X11296952Y-17955381D01*
X11248571Y-17907000D01*
X11151809Y-17858619D01*
X10909905Y-17858619D01*
X10764762Y-17907000D01*
X10329333Y-18874619D02*
X10329333Y-17858619D01*
X9893905Y-18874619D02*
X9893905Y-18342429D01*
X9942286Y-18245667D01*
X10039048Y-18197286D01*
X10184190Y-18197286D01*
X10280952Y-18245667D01*
X10329333Y-18294048D01*
X9410095Y-18874619D02*
X9410095Y-18197286D01*
X9410095Y-17858619D02*
X9458476Y-17907000D01*
X9410095Y-17955381D01*
X9361714Y-17907000D01*
X9410095Y-17858619D01*
X9410095Y-17955381D01*
X9071428Y-18197286D02*
X8684380Y-18197286D01*
X8926285Y-18874619D02*
X8926285Y-18003762D01*
X8877904Y-17907000D01*
X8781142Y-17858619D01*
X8684380Y-17858619D01*
X8490857Y-18197286D02*
X8103809Y-18197286D01*
X8345714Y-17858619D02*
X8345714Y-18729476D01*
X8297333Y-18826238D01*
X8200571Y-18874619D01*
X8103809Y-18874619D01*
X6410477Y-18874619D02*
X6749143Y-18390810D01*
X6991048Y-18874619D02*
X6991048Y-17858619D01*
X6604001Y-17858619D01*
X6507239Y-17907000D01*
X6458858Y-17955381D01*
X6410477Y-18052143D01*
X6410477Y-18197286D01*
X6458858Y-18294048D01*
X6507239Y-18342429D01*
X6604001Y-18390810D01*
X6991048Y-18390810D01*
X5588001Y-18826238D02*
X5684763Y-18874619D01*
X5878286Y-18874619D01*
X5975048Y-18826238D01*
X6023429Y-18729476D01*
X6023429Y-18342429D01*
X5975048Y-18245667D01*
X5878286Y-18197286D01*
X5684763Y-18197286D01*
X5588001Y-18245667D01*
X5539620Y-18342429D01*
X5539620Y-18439190D01*
X6023429Y-18535952D01*
X4668763Y-18197286D02*
X4668763Y-19019762D01*
X4717144Y-19116524D01*
X4765525Y-19164905D01*
X4862286Y-19213286D01*
X5007429Y-19213286D01*
X5104191Y-19164905D01*
X4668763Y-18826238D02*
X4765525Y-18874619D01*
X4959048Y-18874619D01*
X5055810Y-18826238D01*
X5104191Y-18777857D01*
X5152572Y-18681095D01*
X5152572Y-18390810D01*
X5104191Y-18294048D01*
X5055810Y-18245667D01*
X4959048Y-18197286D01*
X4765525Y-18197286D01*
X4668763Y-18245667D01*
X4184953Y-18874619D02*
X4184953Y-18197286D01*
X4184953Y-17858619D02*
X4233334Y-17907000D01*
X4184953Y-17955381D01*
X4136572Y-17907000D01*
X4184953Y-17858619D01*
X4184953Y-17955381D01*
X3749524Y-18826238D02*
X3652762Y-18874619D01*
X3459238Y-18874619D01*
X3362477Y-18826238D01*
X3314096Y-18729476D01*
X3314096Y-18681095D01*
X3362477Y-18584333D01*
X3459238Y-18535952D01*
X3604381Y-18535952D01*
X3701143Y-18487571D01*
X3749524Y-18390810D01*
X3749524Y-18342429D01*
X3701143Y-18245667D01*
X3604381Y-18197286D01*
X3459238Y-18197286D01*
X3362477Y-18245667D01*
X3023810Y-18197286D02*
X2636762Y-18197286D01*
X2878667Y-17858619D02*
X2878667Y-18729476D01*
X2830286Y-18826238D01*
X2733524Y-18874619D01*
X2636762Y-18874619D01*
X1911049Y-18826238D02*
X2007811Y-18874619D01*
X2201334Y-18874619D01*
X2298096Y-18826238D01*
X2346477Y-18729476D01*
X2346477Y-18342429D01*
X2298096Y-18245667D01*
X2201334Y-18197286D01*
X2007811Y-18197286D01*
X1911049Y-18245667D01*
X1862668Y-18342429D01*
X1862668Y-18439190D01*
X2346477Y-18535952D01*
X1427239Y-18874619D02*
X1427239Y-18197286D01*
X1427239Y-18390810D02*
X1378858Y-18294048D01*
X1330477Y-18245667D01*
X1233715Y-18197286D01*
X1136954Y-18197286D01*
D12*
X13516427Y-21878169D02*
X13516427Y-20862169D01*
X13226142Y-20862169D01*
X13153570Y-20910550D01*
X13117285Y-20958931D01*
X13080999Y-21055693D01*
X13080999Y-21200836D01*
X13117285Y-21297598D01*
X13153570Y-21345979D01*
X13226142Y-21394360D01*
X13516427Y-21394360D01*
X12318999Y-21781407D02*
X12355285Y-21829788D01*
X12464142Y-21878169D01*
X12536713Y-21878169D01*
X12645570Y-21829788D01*
X12718142Y-21733026D01*
X12754427Y-21636264D01*
X12790713Y-21442740D01*
X12790713Y-21297598D01*
X12754427Y-21104074D01*
X12718142Y-21007312D01*
X12645570Y-20910550D01*
X12536713Y-20862169D01*
X12464142Y-20862169D01*
X12355285Y-20910550D01*
X12318999Y-20958931D01*
X11738427Y-21345979D02*
X11629570Y-21394360D01*
X11593285Y-21442740D01*
X11556999Y-21539502D01*
X11556999Y-21684645D01*
X11593285Y-21781407D01*
X11629570Y-21829788D01*
X11702142Y-21878169D01*
X11992427Y-21878169D01*
X11992427Y-20862169D01*
X11738427Y-20862169D01*
X11665856Y-20910550D01*
X11629570Y-20958931D01*
X11593285Y-21055693D01*
X11593285Y-21152455D01*
X11629570Y-21249217D01*
X11665856Y-21297598D01*
X11738427Y-21345979D01*
X11992427Y-21345979D01*
X10214428Y-21878169D02*
X10468428Y-21394360D01*
X10649856Y-21878169D02*
X10649856Y-20862169D01*
X10359571Y-20862169D01*
X10286999Y-20910550D01*
X10250714Y-20958931D01*
X10214428Y-21055693D01*
X10214428Y-21200836D01*
X10250714Y-21297598D01*
X10286999Y-21345979D01*
X10359571Y-21394360D01*
X10649856Y-21394360D01*
X9597571Y-21829788D02*
X9670142Y-21878169D01*
X9815285Y-21878169D01*
X9887856Y-21829788D01*
X9924142Y-21733026D01*
X9924142Y-21345979D01*
X9887856Y-21249217D01*
X9815285Y-21200836D01*
X9670142Y-21200836D01*
X9597571Y-21249217D01*
X9561285Y-21345979D01*
X9561285Y-21442740D01*
X9924142Y-21539502D01*
X9307285Y-21200836D02*
X9125856Y-21878169D01*
X8944428Y-21200836D01*
X8109857Y-20958931D02*
X8073571Y-20910550D01*
X8001000Y-20862169D01*
X7819571Y-20862169D01*
X7747000Y-20910550D01*
X7710714Y-20958931D01*
X7674429Y-21055693D01*
X7674429Y-21152455D01*
X7710714Y-21297598D01*
X8146143Y-21878169D01*
X7674429Y-21878169D01*
X7347857Y-21781407D02*
X7311572Y-21829788D01*
X7347857Y-21878169D01*
X7384143Y-21829788D01*
X7347857Y-21781407D01*
X7347857Y-21878169D01*
X6839858Y-20862169D02*
X6767286Y-20862169D01*
X6694715Y-20910550D01*
X6658429Y-20958931D01*
X6622143Y-21055693D01*
X6585858Y-21249217D01*
X6585858Y-21491121D01*
X6622143Y-21684645D01*
X6658429Y-21781407D01*
X6694715Y-21829788D01*
X6767286Y-21878169D01*
X6839858Y-21878169D01*
X6912429Y-21829788D01*
X6948715Y-21781407D01*
X6985000Y-21684645D01*
X7021286Y-21491121D01*
X7021286Y-21249217D01*
X6985000Y-21055693D01*
X6948715Y-20958931D01*
X6912429Y-20910550D01*
X6839858Y-20862169D01*
X6259286Y-21781407D02*
X6223001Y-21829788D01*
X6259286Y-21878169D01*
X6295572Y-21829788D01*
X6259286Y-21781407D01*
X6259286Y-21878169D01*
X5497287Y-21878169D02*
X5932715Y-21878169D01*
X5715001Y-21878169D02*
X5715001Y-20862169D01*
X5787572Y-21007312D01*
X5860144Y-21104074D01*
X5932715Y-21152455D01*
X13552713Y-23442688D02*
X13443856Y-23491069D01*
X13262427Y-23491069D01*
X13189856Y-23442688D01*
X13153570Y-23394307D01*
X13117285Y-23297545D01*
X13117285Y-23200783D01*
X13153570Y-23104021D01*
X13189856Y-23055640D01*
X13262427Y-23007260D01*
X13407570Y-22958879D01*
X13480142Y-22910498D01*
X13516427Y-22862117D01*
X13552713Y-22765355D01*
X13552713Y-22668593D01*
X13516427Y-22571831D01*
X13480142Y-22523450D01*
X13407570Y-22475069D01*
X13226142Y-22475069D01*
X13117285Y-22523450D01*
X12355285Y-23394307D02*
X12391571Y-23442688D01*
X12500428Y-23491069D01*
X12572999Y-23491069D01*
X12681856Y-23442688D01*
X12754428Y-23345926D01*
X12790713Y-23249164D01*
X12826999Y-23055640D01*
X12826999Y-22910498D01*
X12790713Y-22716974D01*
X12754428Y-22620212D01*
X12681856Y-22523450D01*
X12572999Y-22475069D01*
X12500428Y-22475069D01*
X12391571Y-22523450D01*
X12355285Y-22571831D01*
X12028713Y-23491069D02*
X12028713Y-22475069D01*
X12028713Y-22958879D02*
X11593285Y-22958879D01*
X11593285Y-23491069D02*
X11593285Y-22475069D01*
X10214428Y-23491069D02*
X10468428Y-23007260D01*
X10649856Y-23491069D02*
X10649856Y-22475069D01*
X10359571Y-22475069D01*
X10286999Y-22523450D01*
X10250714Y-22571831D01*
X10214428Y-22668593D01*
X10214428Y-22813736D01*
X10250714Y-22910498D01*
X10286999Y-22958879D01*
X10359571Y-23007260D01*
X10649856Y-23007260D01*
X9597571Y-23442688D02*
X9670142Y-23491069D01*
X9815285Y-23491069D01*
X9887856Y-23442688D01*
X9924142Y-23345926D01*
X9924142Y-22958879D01*
X9887856Y-22862117D01*
X9815285Y-22813736D01*
X9670142Y-22813736D01*
X9597571Y-22862117D01*
X9561285Y-22958879D01*
X9561285Y-23055640D01*
X9924142Y-23152402D01*
X9307285Y-22813736D02*
X9125856Y-23491069D01*
X8944428Y-22813736D01*
X8109857Y-22571831D02*
X8073571Y-22523450D01*
X8001000Y-22475069D01*
X7819571Y-22475069D01*
X7747000Y-22523450D01*
X7710714Y-22571831D01*
X7674429Y-22668593D01*
X7674429Y-22765355D01*
X7710714Y-22910498D01*
X8146143Y-23491069D01*
X7674429Y-23491069D01*
X7347857Y-23394307D02*
X7311572Y-23442688D01*
X7347857Y-23491069D01*
X7384143Y-23442688D01*
X7347857Y-23394307D01*
X7347857Y-23491069D01*
X6839858Y-22475069D02*
X6767286Y-22475069D01*
X6694715Y-22523450D01*
X6658429Y-22571831D01*
X6622143Y-22668593D01*
X6585858Y-22862117D01*
X6585858Y-23104021D01*
X6622143Y-23297545D01*
X6658429Y-23394307D01*
X6694715Y-23442688D01*
X6767286Y-23491069D01*
X6839858Y-23491069D01*
X6912429Y-23442688D01*
X6948715Y-23394307D01*
X6985000Y-23297545D01*
X7021286Y-23104021D01*
X7021286Y-22862117D01*
X6985000Y-22668593D01*
X6948715Y-22571831D01*
X6912429Y-22523450D01*
X6839858Y-22475069D01*
X6259286Y-23394307D02*
X6223001Y-23442688D01*
X6259286Y-23491069D01*
X6295572Y-23442688D01*
X6259286Y-23394307D01*
X6259286Y-23491069D01*
X5751287Y-22475069D02*
X5678715Y-22475069D01*
X5606144Y-22523450D01*
X5569858Y-22571831D01*
X5533572Y-22668593D01*
X5497287Y-22862117D01*
X5497287Y-23104021D01*
X5533572Y-23297545D01*
X5569858Y-23394307D01*
X5606144Y-23442688D01*
X5678715Y-23491069D01*
X5751287Y-23491069D01*
X5823858Y-23442688D01*
X5860144Y-23394307D01*
X5896429Y-23297545D01*
X5932715Y-23104021D01*
X5932715Y-22862117D01*
X5896429Y-22668593D01*
X5860144Y-22571831D01*
X5823858Y-22523450D01*
X5751287Y-22475069D01*
D13*
X24887843Y-24387024D02*
X24800908Y-24417262D01*
X24649718Y-24417262D01*
X24585462Y-24387024D01*
X24551445Y-24356786D01*
X24513646Y-24296310D01*
X24506087Y-24235833D01*
X24528766Y-24175357D01*
X24555224Y-24145119D01*
X24611921Y-24114881D01*
X24729093Y-24084643D01*
X24785789Y-24054405D01*
X24812248Y-24024167D01*
X24834927Y-23963690D01*
X24827367Y-23903214D01*
X24789570Y-23842738D01*
X24755551Y-23812500D01*
X24691295Y-23782262D01*
X24540105Y-23782262D01*
X24453170Y-23812500D01*
X24010938Y-24387024D02*
X24075194Y-24417262D01*
X24196146Y-24417262D01*
X24252843Y-24387024D01*
X24275522Y-24326548D01*
X24245284Y-24084643D01*
X24207486Y-24024167D01*
X24143230Y-23993929D01*
X24022278Y-23993929D01*
X23965581Y-24024167D01*
X23942903Y-24084643D01*
X23950462Y-24145119D01*
X24260403Y-24205595D01*
X23712337Y-24417262D02*
X23659421Y-23993929D01*
X23666980Y-24054405D02*
X23632961Y-24024167D01*
X23568706Y-23993929D01*
X23477992Y-23993929D01*
X23421295Y-24024167D01*
X23398617Y-24084643D01*
X23440194Y-24417262D01*
X23398617Y-24084643D02*
X23360819Y-24024167D01*
X23296563Y-23993929D01*
X23205849Y-23993929D01*
X23149152Y-24024167D01*
X23126474Y-24084643D01*
X23168051Y-24417262D01*
X22865670Y-24417262D02*
X22786295Y-23782262D01*
X22816533Y-24024167D02*
X22752277Y-23993929D01*
X22631325Y-23993929D01*
X22574628Y-24024167D01*
X22548170Y-24054405D01*
X22525492Y-24114881D01*
X22548170Y-24296310D01*
X22585968Y-24356786D01*
X22619985Y-24387024D01*
X22684241Y-24417262D01*
X22805193Y-24417262D01*
X22861890Y-24387024D01*
X22019003Y-24417262D02*
X21977426Y-24084643D01*
X22000104Y-24024167D01*
X22056801Y-23993929D01*
X22177753Y-23993929D01*
X22242009Y-24024167D01*
X22015223Y-24387024D02*
X22079479Y-24417262D01*
X22230669Y-24417262D01*
X22287366Y-24387024D01*
X22310045Y-24326548D01*
X22302485Y-24266071D01*
X22264688Y-24205595D01*
X22200431Y-24175357D01*
X22049241Y-24175357D01*
X21984985Y-24145119D01*
X21724182Y-23993929D02*
X21391563Y-23993929D01*
X21777098Y-24417262D01*
X21444479Y-24417262D01*
X20877515Y-23993929D02*
X20930431Y-24417262D01*
X21149658Y-23993929D02*
X21191235Y-24326548D01*
X21168555Y-24387024D01*
X21111859Y-24417262D01*
X21021145Y-24417262D01*
X20956889Y-24387024D01*
X20922872Y-24356786D01*
X20628050Y-24417262D02*
X20575134Y-23993929D01*
X20590253Y-24114881D02*
X20552454Y-24054405D01*
X20518436Y-24024167D01*
X20454181Y-23993929D01*
X20393705Y-23993929D01*
X19909896Y-23993929D02*
X19962812Y-24417262D01*
X20182039Y-23993929D02*
X20223616Y-24326548D01*
X20200936Y-24387024D01*
X20144240Y-24417262D01*
X20053526Y-24417262D01*
X19989270Y-24387024D01*
X19955253Y-24356786D01*
X18806204Y-24356786D02*
X18840221Y-24387024D01*
X18934716Y-24417262D01*
X18995192Y-24417262D01*
X19082126Y-24387024D01*
X19135043Y-24326548D01*
X19157722Y-24266071D01*
X19172841Y-24145119D01*
X19161502Y-24054405D01*
X19116145Y-23933452D01*
X19078346Y-23872976D01*
X19010311Y-23812500D01*
X18915817Y-23782262D01*
X18855341Y-23782262D01*
X18768406Y-23812500D01*
X18741948Y-23842738D01*
X18541621Y-24417262D02*
X18488705Y-23993929D01*
X18462246Y-23782262D02*
X18496264Y-23812500D01*
X18469806Y-23842738D01*
X18435787Y-23812500D01*
X18462246Y-23782262D01*
X18469806Y-23842738D01*
X18239240Y-24417262D02*
X18186324Y-23993929D01*
X18201443Y-24114881D02*
X18163644Y-24054405D01*
X18129626Y-24024167D01*
X18065371Y-23993929D01*
X18004895Y-23993929D01*
X17570222Y-24387024D02*
X17634478Y-24417262D01*
X17755430Y-24417262D01*
X17812126Y-24387024D01*
X17838586Y-24356786D01*
X17861264Y-24296310D01*
X17838586Y-24114881D01*
X17800788Y-24054405D01*
X17766769Y-24024167D01*
X17702514Y-23993929D01*
X17581562Y-23993929D01*
X17524865Y-24024167D01*
X16976800Y-23993929D02*
X17029716Y-24417262D01*
X17248943Y-23993929D02*
X17290520Y-24326548D01*
X17267840Y-24387024D01*
X17211144Y-24417262D01*
X17120430Y-24417262D01*
X17056174Y-24387024D01*
X17022157Y-24356786D01*
X16727335Y-24417262D02*
X16674419Y-23993929D01*
X16647960Y-23782262D02*
X16681978Y-23812500D01*
X16655520Y-23842738D01*
X16621501Y-23812500D01*
X16647960Y-23782262D01*
X16655520Y-23842738D01*
X16462752Y-23993929D02*
X16220847Y-23993929D01*
X16345579Y-23782262D02*
X16413615Y-24326548D01*
X16390935Y-24387024D01*
X16334239Y-24417262D01*
X16273763Y-24417262D01*
X16088555Y-24387024D02*
X16031858Y-24417262D01*
X15910906Y-24417262D01*
X15846650Y-24387024D01*
X15808853Y-24326548D01*
X15805073Y-24296310D01*
X15827752Y-24235833D01*
X15884448Y-24205595D01*
X15975162Y-24205595D01*
X16031859Y-24175357D01*
X16054538Y-24114881D01*
X16050758Y-24084643D01*
X16012960Y-24024167D01*
X15948704Y-23993929D01*
X15857990Y-23993929D01*
X15801293Y-24024167D01*
D14*
G36*
X17142460Y-22555200D02*
X17145000Y-22567900D01*
X17162780Y-22570440D01*
X17195800Y-22565360D01*
X17266920Y-22557740D01*
X17358360Y-22552660D01*
X17472660Y-22545040D01*
X17599660Y-22542500D01*
X17739360Y-22537420D01*
X17886680Y-22534880D01*
X18039080Y-22532340D01*
X18191480Y-22534880D01*
X18280380Y-22534880D01*
X18280380Y-22176740D01*
X18290540Y-22166580D01*
X18318480Y-22146260D01*
X18364200Y-22115780D01*
X18420080Y-22077680D01*
X18483580Y-22037040D01*
X18552160Y-21996400D01*
X18618200Y-21955760D01*
X18651220Y-21935440D01*
X18757900Y-21874480D01*
X18864580Y-21821140D01*
X18961100Y-21775420D01*
X19044920Y-21739860D01*
X19072860Y-21732240D01*
X19123660Y-21717000D01*
X19161760Y-21709380D01*
X19199860Y-21709380D01*
X19253200Y-21717000D01*
X19255740Y-21717000D01*
X19337020Y-21734780D01*
X19441160Y-21757640D01*
X19560540Y-21788120D01*
X19687540Y-21821140D01*
X19740880Y-21838920D01*
X19778980Y-21849080D01*
X19812000Y-21859240D01*
X19845020Y-21871940D01*
X19878040Y-21887180D01*
X19913600Y-21907500D01*
X19959320Y-21935440D01*
X19997420Y-21958300D01*
X19997420Y-21600160D01*
X20005040Y-21590000D01*
X20030440Y-21572220D01*
X20068540Y-21549360D01*
X20111720Y-21531580D01*
X20157440Y-21516340D01*
X20170140Y-21511260D01*
X20215860Y-21503640D01*
X20253960Y-21503640D01*
X20279360Y-21511260D01*
X20325080Y-21531580D01*
X20393660Y-21567140D01*
X20474940Y-21612860D01*
X20574000Y-21671280D01*
X20680680Y-21739860D01*
X20703540Y-21755100D01*
X20871180Y-21864320D01*
X20863560Y-21986240D01*
X20855940Y-22082760D01*
X20848320Y-22156420D01*
X20843240Y-22209760D01*
X20838160Y-22245320D01*
X20830540Y-22263100D01*
X20825460Y-22268180D01*
X20805140Y-22260560D01*
X20779740Y-22240240D01*
X20777200Y-22237700D01*
X20759420Y-22222460D01*
X20723860Y-22194520D01*
X20673060Y-22151340D01*
X20609560Y-22100540D01*
X20535900Y-22039580D01*
X20452080Y-21973540D01*
X20370800Y-21907500D01*
X20289520Y-21841460D01*
X20208240Y-21777960D01*
X20139660Y-21719540D01*
X20081240Y-21673820D01*
X20035520Y-21635720D01*
X20007580Y-21610320D01*
X19997420Y-21600160D01*
X19997420Y-21958300D01*
X20015200Y-21971000D01*
X20086320Y-22016720D01*
X20170140Y-22075140D01*
X20238720Y-22120860D01*
X20325080Y-22179280D01*
X20403820Y-22232620D01*
X20472400Y-22280880D01*
X20530820Y-22321520D01*
X20574000Y-22352000D01*
X20599400Y-22369780D01*
X20604480Y-22374860D01*
X20594320Y-22382480D01*
X20563840Y-22387560D01*
X20513040Y-22390100D01*
X20449540Y-22392640D01*
X20375880Y-22392640D01*
X20299680Y-22392640D01*
X20215860Y-22390100D01*
X20137120Y-22385020D01*
X20060920Y-22379940D01*
X19997420Y-22372320D01*
X19961860Y-22367240D01*
X19895820Y-22354540D01*
X19822160Y-22339300D01*
X19748500Y-22324060D01*
X19738340Y-22321520D01*
X19547840Y-22280880D01*
X19347180Y-22245320D01*
X19141440Y-22217380D01*
X18938240Y-22197060D01*
X18745200Y-22184360D01*
X18562320Y-22179280D01*
X18448020Y-22179280D01*
X18384520Y-22181820D01*
X18333720Y-22181820D01*
X18295620Y-22179280D01*
X18280380Y-22179280D01*
X18280380Y-22176740D01*
X18280380Y-22534880D01*
X18326100Y-22534880D01*
X18475960Y-22537420D01*
X18608040Y-22542500D01*
X18722340Y-22545040D01*
X18821400Y-22552660D01*
X18915380Y-22560280D01*
X19006820Y-22570440D01*
X19098260Y-22583140D01*
X19197320Y-22600920D01*
X19309080Y-22621240D01*
X19431000Y-22644100D01*
X19608800Y-22682200D01*
X19682460Y-22910800D01*
X19707860Y-22981920D01*
X19730720Y-23047960D01*
X19748500Y-23098760D01*
X19763740Y-23136860D01*
X19768820Y-23149560D01*
X19791680Y-23159720D01*
X19832320Y-23172420D01*
X19890740Y-23190200D01*
X19959320Y-23205440D01*
X20035520Y-23223220D01*
X20114260Y-23241000D01*
X20190460Y-23253700D01*
X20259040Y-23266400D01*
X20317460Y-23274020D01*
X20355560Y-23276560D01*
X20355560Y-23276560D01*
X20401280Y-23274020D01*
X20441920Y-23266400D01*
X20485100Y-23248620D01*
X20535900Y-23223220D01*
X20637500Y-23172420D01*
X20739100Y-23238460D01*
X20802600Y-23276560D01*
X20876260Y-23324820D01*
X20957540Y-23373080D01*
X21043900Y-23423880D01*
X21125180Y-23474680D01*
X21201380Y-23520400D01*
X21269960Y-23558500D01*
X21320760Y-23586440D01*
X21351240Y-23604220D01*
X21407120Y-23629620D01*
X21445220Y-23644860D01*
X21470620Y-23649940D01*
X21470620Y-21297900D01*
X21470620Y-21285200D01*
X21470620Y-21285200D01*
X21485860Y-21280120D01*
X21521420Y-21275040D01*
X21577300Y-21262340D01*
X21650960Y-21249640D01*
X21737320Y-21234400D01*
X21833840Y-21216620D01*
X21910040Y-21206460D01*
X22085300Y-21175980D01*
X22235160Y-21150580D01*
X22364700Y-21127720D01*
X22471380Y-21109940D01*
X22557740Y-21094700D01*
X22626320Y-21082000D01*
X22679660Y-21071840D01*
X22717760Y-21066760D01*
X22740620Y-21061680D01*
X22748240Y-21059140D01*
X22773640Y-21059140D01*
X22776180Y-21069300D01*
X22768560Y-21082000D01*
X22740620Y-21109940D01*
X22699980Y-21153120D01*
X22644100Y-21211540D01*
X22578060Y-21277580D01*
X22501860Y-21356320D01*
X22418040Y-21440140D01*
X22326600Y-21531580D01*
X22301200Y-21556980D01*
X21828760Y-22021800D01*
X21717000Y-21953220D01*
X21666200Y-21920200D01*
X21620480Y-21889720D01*
X21587460Y-21869400D01*
X21577300Y-21861780D01*
X21562060Y-21849080D01*
X21551900Y-21828760D01*
X21541740Y-21800820D01*
X21534120Y-21755100D01*
X21523960Y-21689060D01*
X21521420Y-21678900D01*
X21503640Y-21556980D01*
X21488400Y-21460460D01*
X21478240Y-21384260D01*
X21473160Y-21330920D01*
X21470620Y-21297900D01*
X21470620Y-23649940D01*
X21473160Y-23649940D01*
X21493480Y-23644860D01*
X21498560Y-23642320D01*
X21516340Y-23622000D01*
X21534120Y-23588980D01*
X21536660Y-23581360D01*
X21546820Y-23545800D01*
X21554440Y-23520400D01*
X21556980Y-23515320D01*
X21567140Y-23510240D01*
X21597620Y-23520400D01*
X21617940Y-23530560D01*
X21617940Y-22362160D01*
X21630640Y-22362160D01*
X21653500Y-22372320D01*
X21683980Y-22392640D01*
X21717000Y-22423120D01*
X21750020Y-22456140D01*
X21777960Y-22491700D01*
X21793200Y-22512020D01*
X21826220Y-22570440D01*
X21785580Y-22730460D01*
X21765260Y-22804120D01*
X21752560Y-22854920D01*
X21742400Y-22890480D01*
X21737320Y-22910800D01*
X21732240Y-22920960D01*
X21727160Y-22923500D01*
X21722080Y-22923500D01*
X21717000Y-22910800D01*
X21709380Y-22877780D01*
X21699220Y-22824440D01*
X21686520Y-22758400D01*
X21671280Y-22679660D01*
X21668740Y-22661880D01*
X21656040Y-22583140D01*
X21643340Y-22509480D01*
X21633180Y-22448520D01*
X21625560Y-22405340D01*
X21620480Y-22382480D01*
X21620480Y-22382480D01*
X21617940Y-22362160D01*
X21617940Y-23530560D01*
X21625560Y-23533100D01*
X21673820Y-23553420D01*
X21719540Y-23566120D01*
X21742400Y-23571200D01*
X21772880Y-23566120D01*
X21795740Y-23553420D01*
X21816060Y-23528020D01*
X21828760Y-23487380D01*
X21838920Y-23426420D01*
X21846540Y-23345140D01*
X21851620Y-23263860D01*
X21854160Y-23185120D01*
X21859240Y-23126700D01*
X21864320Y-23078440D01*
X21874480Y-23032720D01*
X21887180Y-22984460D01*
X21907500Y-22926040D01*
X21920200Y-22890480D01*
X21950680Y-22801580D01*
X21971000Y-22733000D01*
X21983700Y-22679660D01*
X21988780Y-22636480D01*
X21988780Y-22598380D01*
X21981160Y-22562820D01*
X21976080Y-22545040D01*
X21953220Y-22479000D01*
X22009100Y-22369780D01*
X22037040Y-22316440D01*
X22064980Y-22268180D01*
X22087840Y-22232620D01*
X22095460Y-22222460D01*
X22110700Y-22207220D01*
X22141180Y-22174200D01*
X22189440Y-22125940D01*
X22247860Y-22064980D01*
X22318980Y-21991320D01*
X22400260Y-21907500D01*
X22489160Y-21816060D01*
X22585680Y-21717000D01*
X22684740Y-21615400D01*
X22684740Y-21615400D01*
X22826980Y-21473160D01*
X22948900Y-21346160D01*
X23058120Y-21236940D01*
X23149560Y-21142960D01*
X23228300Y-21061680D01*
X23294340Y-20995640D01*
X23347680Y-20939760D01*
X23390860Y-20894040D01*
X23426420Y-20858480D01*
X23451820Y-20830540D01*
X23469600Y-20810220D01*
X23482300Y-20794980D01*
X23487380Y-20784820D01*
X23489920Y-20779740D01*
X23489920Y-20777200D01*
X23489920Y-20774660D01*
X23487380Y-20774660D01*
X23469600Y-20772120D01*
X23434040Y-20774660D01*
X23406100Y-20779740D01*
X23375620Y-20784820D01*
X23322280Y-20792440D01*
X23251160Y-20802600D01*
X23167340Y-20815300D01*
X23070820Y-20828000D01*
X22971760Y-20843240D01*
X22948900Y-20845780D01*
X22760940Y-20871180D01*
X22575520Y-20896580D01*
X22400260Y-20921980D01*
X22235160Y-20944840D01*
X22082760Y-20967700D01*
X21943060Y-20988020D01*
X21823680Y-21005800D01*
X21722080Y-21021040D01*
X21643340Y-21033740D01*
X21602700Y-21041360D01*
X21541740Y-21048980D01*
X21490940Y-21056600D01*
X21457920Y-21059140D01*
X21442680Y-21056600D01*
X21437600Y-21041360D01*
X21432520Y-21005800D01*
X21424900Y-20957540D01*
X21417280Y-20904200D01*
X21409660Y-20853400D01*
X21407120Y-20807680D01*
X21404580Y-20782280D01*
X21407120Y-20769580D01*
X21412200Y-20761960D01*
X21422360Y-20759420D01*
X21445220Y-20761960D01*
X21483320Y-20774660D01*
X21539200Y-20792440D01*
X21615400Y-20817840D01*
X21628100Y-20820380D01*
X21709380Y-20845780D01*
X21790660Y-20866100D01*
X21856700Y-20878800D01*
X21871940Y-20881340D01*
X21922740Y-20883880D01*
X21950680Y-20883880D01*
X21963380Y-20878800D01*
X21968460Y-20868640D01*
X21968460Y-20863560D01*
X21958300Y-20845780D01*
X21930360Y-20820380D01*
X21882100Y-20787360D01*
X21826220Y-20749260D01*
X21767800Y-20713700D01*
X21722080Y-20683220D01*
X21686520Y-20657820D01*
X21653500Y-20629880D01*
X21623020Y-20599400D01*
X21587460Y-20558760D01*
X21541740Y-20507960D01*
X21501100Y-20459700D01*
X21452840Y-20401280D01*
X21407120Y-20347940D01*
X21366480Y-20304760D01*
X21336000Y-20271740D01*
X21328380Y-20264120D01*
X21287740Y-20226020D01*
X21140420Y-20253960D01*
X21059140Y-20271740D01*
X20998180Y-20289520D01*
X20962620Y-20304760D01*
X20942300Y-20325080D01*
X20939760Y-20345400D01*
X20939760Y-20353020D01*
X20947380Y-20378420D01*
X20952460Y-20408900D01*
X20955000Y-20447000D01*
X20955000Y-20492720D01*
X20955000Y-20548600D01*
X20949920Y-20619720D01*
X20944840Y-20706080D01*
X20934680Y-20812760D01*
X20921980Y-20939760D01*
X20909280Y-21061680D01*
X20901660Y-21153120D01*
X20835620Y-21168360D01*
X20787360Y-21178520D01*
X20728940Y-21188680D01*
X20675600Y-21198840D01*
X20634960Y-21203920D01*
X20609560Y-21211540D01*
X20589240Y-21221700D01*
X20579080Y-21239480D01*
X20568920Y-21272500D01*
X20561300Y-21320760D01*
X20553680Y-21391880D01*
X20546060Y-21445220D01*
X20538440Y-21485860D01*
X20533360Y-21508720D01*
X20530820Y-21513800D01*
X20518120Y-21506180D01*
X20487640Y-21488400D01*
X20444460Y-21465540D01*
X20419060Y-21450300D01*
X20360640Y-21419820D01*
X20317460Y-21399500D01*
X20274280Y-21386800D01*
X20241260Y-21384260D01*
X20162520Y-21379180D01*
X20043140Y-21231860D01*
X19997420Y-21178520D01*
X19941540Y-21107400D01*
X19878040Y-21028660D01*
X19809460Y-20944840D01*
X19745960Y-20863560D01*
X19725640Y-20840700D01*
X19565620Y-20640040D01*
X19423380Y-20459700D01*
X19293840Y-20297140D01*
X19179540Y-20154900D01*
X19077940Y-20027900D01*
X18991580Y-19921220D01*
X18915380Y-19827240D01*
X18851880Y-19751040D01*
X18801080Y-19687540D01*
X18760440Y-19636740D01*
X18727420Y-19601180D01*
X18707100Y-19578320D01*
X18694400Y-19565620D01*
X18689320Y-19563080D01*
X18691860Y-19580860D01*
X18707100Y-19621500D01*
X18729960Y-19687540D01*
X18765520Y-19773900D01*
X18808700Y-19880580D01*
X18862040Y-20010120D01*
X18923000Y-20159980D01*
X18994120Y-20327620D01*
X19019520Y-20386040D01*
X19050000Y-20459700D01*
X19093180Y-20553680D01*
X19146520Y-20660360D01*
X19207480Y-20782280D01*
X19273520Y-20914360D01*
X19344640Y-21051520D01*
X19418300Y-21191220D01*
X19491960Y-21330920D01*
X19522440Y-21386800D01*
X19558000Y-21452840D01*
X19585940Y-21511260D01*
X19608800Y-21554440D01*
X19624040Y-21584920D01*
X19626580Y-21592540D01*
X19616420Y-21600160D01*
X19596100Y-21600160D01*
X19580860Y-21590000D01*
X19563080Y-21582380D01*
X19524980Y-21564600D01*
X19471640Y-21544280D01*
X19410680Y-21521420D01*
X19344640Y-21496020D01*
X19281140Y-21475700D01*
X19268440Y-21470620D01*
X19174460Y-21447760D01*
X19075400Y-21440140D01*
X19070320Y-21440140D01*
X19027140Y-21440140D01*
X18991580Y-21445220D01*
X18958560Y-21450300D01*
X18920460Y-21465540D01*
X18872200Y-21485860D01*
X18813780Y-21513800D01*
X18740120Y-21551900D01*
X18658840Y-21595080D01*
X18580100Y-21638260D01*
X18534380Y-21666200D01*
X18442940Y-21722080D01*
X18336260Y-21790660D01*
X18214340Y-21866860D01*
X18082260Y-21950680D01*
X17945100Y-22037040D01*
X17805400Y-22125940D01*
X17665700Y-22212300D01*
X17533620Y-22296120D01*
X17482820Y-22329140D01*
X17399000Y-22379940D01*
X17322800Y-22430740D01*
X17256760Y-22473920D01*
X17203420Y-22509480D01*
X17165320Y-22537420D01*
X17145000Y-22552660D01*
X17142460Y-22555200D01*
X17142460Y-22555200D01*
X17142460Y-22555200D01*
G37*
X17142460Y-22555200D02*
X17145000Y-22567900D01*
X17162780Y-22570440D01*
X17195800Y-22565360D01*
X17266920Y-22557740D01*
X17358360Y-22552660D01*
X17472660Y-22545040D01*
X17599660Y-22542500D01*
X17739360Y-22537420D01*
X17886680Y-22534880D01*
X18039080Y-22532340D01*
X18191480Y-22534880D01*
X18280380Y-22534880D01*
X18280380Y-22176740D01*
X18290540Y-22166580D01*
X18318480Y-22146260D01*
X18364200Y-22115780D01*
X18420080Y-22077680D01*
X18483580Y-22037040D01*
X18552160Y-21996400D01*
X18618200Y-21955760D01*
X18651220Y-21935440D01*
X18757900Y-21874480D01*
X18864580Y-21821140D01*
X18961100Y-21775420D01*
X19044920Y-21739860D01*
X19072860Y-21732240D01*
X19123660Y-21717000D01*
X19161760Y-21709380D01*
X19199860Y-21709380D01*
X19253200Y-21717000D01*
X19255740Y-21717000D01*
X19337020Y-21734780D01*
X19441160Y-21757640D01*
X19560540Y-21788120D01*
X19687540Y-21821140D01*
X19740880Y-21838920D01*
X19778980Y-21849080D01*
X19812000Y-21859240D01*
X19845020Y-21871940D01*
X19878040Y-21887180D01*
X19913600Y-21907500D01*
X19959320Y-21935440D01*
X19997420Y-21958300D01*
X19997420Y-21600160D01*
X20005040Y-21590000D01*
X20030440Y-21572220D01*
X20068540Y-21549360D01*
X20111720Y-21531580D01*
X20157440Y-21516340D01*
X20170140Y-21511260D01*
X20215860Y-21503640D01*
X20253960Y-21503640D01*
X20279360Y-21511260D01*
X20325080Y-21531580D01*
X20393660Y-21567140D01*
X20474940Y-21612860D01*
X20574000Y-21671280D01*
X20680680Y-21739860D01*
X20703540Y-21755100D01*
X20871180Y-21864320D01*
X20863560Y-21986240D01*
X20855940Y-22082760D01*
X20848320Y-22156420D01*
X20843240Y-22209760D01*
X20838160Y-22245320D01*
X20830540Y-22263100D01*
X20825460Y-22268180D01*
X20805140Y-22260560D01*
X20779740Y-22240240D01*
X20777200Y-22237700D01*
X20759420Y-22222460D01*
X20723860Y-22194520D01*
X20673060Y-22151340D01*
X20609560Y-22100540D01*
X20535900Y-22039580D01*
X20452080Y-21973540D01*
X20370800Y-21907500D01*
X20289520Y-21841460D01*
X20208240Y-21777960D01*
X20139660Y-21719540D01*
X20081240Y-21673820D01*
X20035520Y-21635720D01*
X20007580Y-21610320D01*
X19997420Y-21600160D01*
X19997420Y-21958300D01*
X20015200Y-21971000D01*
X20086320Y-22016720D01*
X20170140Y-22075140D01*
X20238720Y-22120860D01*
X20325080Y-22179280D01*
X20403820Y-22232620D01*
X20472400Y-22280880D01*
X20530820Y-22321520D01*
X20574000Y-22352000D01*
X20599400Y-22369780D01*
X20604480Y-22374860D01*
X20594320Y-22382480D01*
X20563840Y-22387560D01*
X20513040Y-22390100D01*
X20449540Y-22392640D01*
X20375880Y-22392640D01*
X20299680Y-22392640D01*
X20215860Y-22390100D01*
X20137120Y-22385020D01*
X20060920Y-22379940D01*
X19997420Y-22372320D01*
X19961860Y-22367240D01*
X19895820Y-22354540D01*
X19822160Y-22339300D01*
X19748500Y-22324060D01*
X19738340Y-22321520D01*
X19547840Y-22280880D01*
X19347180Y-22245320D01*
X19141440Y-22217380D01*
X18938240Y-22197060D01*
X18745200Y-22184360D01*
X18562320Y-22179280D01*
X18448020Y-22179280D01*
X18384520Y-22181820D01*
X18333720Y-22181820D01*
X18295620Y-22179280D01*
X18280380Y-22179280D01*
X18280380Y-22176740D01*
X18280380Y-22534880D01*
X18326100Y-22534880D01*
X18475960Y-22537420D01*
X18608040Y-22542500D01*
X18722340Y-22545040D01*
X18821400Y-22552660D01*
X18915380Y-22560280D01*
X19006820Y-22570440D01*
X19098260Y-22583140D01*
X19197320Y-22600920D01*
X19309080Y-22621240D01*
X19431000Y-22644100D01*
X19608800Y-22682200D01*
X19682460Y-22910800D01*
X19707860Y-22981920D01*
X19730720Y-23047960D01*
X19748500Y-23098760D01*
X19763740Y-23136860D01*
X19768820Y-23149560D01*
X19791680Y-23159720D01*
X19832320Y-23172420D01*
X19890740Y-23190200D01*
X19959320Y-23205440D01*
X20035520Y-23223220D01*
X20114260Y-23241000D01*
X20190460Y-23253700D01*
X20259040Y-23266400D01*
X20317460Y-23274020D01*
X20355560Y-23276560D01*
X20355560Y-23276560D01*
X20401280Y-23274020D01*
X20441920Y-23266400D01*
X20485100Y-23248620D01*
X20535900Y-23223220D01*
X20637500Y-23172420D01*
X20739100Y-23238460D01*
X20802600Y-23276560D01*
X20876260Y-23324820D01*
X20957540Y-23373080D01*
X21043900Y-23423880D01*
X21125180Y-23474680D01*
X21201380Y-23520400D01*
X21269960Y-23558500D01*
X21320760Y-23586440D01*
X21351240Y-23604220D01*
X21407120Y-23629620D01*
X21445220Y-23644860D01*
X21470620Y-23649940D01*
X21470620Y-21297900D01*
X21470620Y-21285200D01*
X21470620Y-21285200D01*
X21485860Y-21280120D01*
X21521420Y-21275040D01*
X21577300Y-21262340D01*
X21650960Y-21249640D01*
X21737320Y-21234400D01*
X21833840Y-21216620D01*
X21910040Y-21206460D01*
X22085300Y-21175980D01*
X22235160Y-21150580D01*
X22364700Y-21127720D01*
X22471380Y-21109940D01*
X22557740Y-21094700D01*
X22626320Y-21082000D01*
X22679660Y-21071840D01*
X22717760Y-21066760D01*
X22740620Y-21061680D01*
X22748240Y-21059140D01*
X22773640Y-21059140D01*
X22776180Y-21069300D01*
X22768560Y-21082000D01*
X22740620Y-21109940D01*
X22699980Y-21153120D01*
X22644100Y-21211540D01*
X22578060Y-21277580D01*
X22501860Y-21356320D01*
X22418040Y-21440140D01*
X22326600Y-21531580D01*
X22301200Y-21556980D01*
X21828760Y-22021800D01*
X21717000Y-21953220D01*
X21666200Y-21920200D01*
X21620480Y-21889720D01*
X21587460Y-21869400D01*
X21577300Y-21861780D01*
X21562060Y-21849080D01*
X21551900Y-21828760D01*
X21541740Y-21800820D01*
X21534120Y-21755100D01*
X21523960Y-21689060D01*
X21521420Y-21678900D01*
X21503640Y-21556980D01*
X21488400Y-21460460D01*
X21478240Y-21384260D01*
X21473160Y-21330920D01*
X21470620Y-21297900D01*
X21470620Y-23649940D01*
X21473160Y-23649940D01*
X21493480Y-23644860D01*
X21498560Y-23642320D01*
X21516340Y-23622000D01*
X21534120Y-23588980D01*
X21536660Y-23581360D01*
X21546820Y-23545800D01*
X21554440Y-23520400D01*
X21556980Y-23515320D01*
X21567140Y-23510240D01*
X21597620Y-23520400D01*
X21617940Y-23530560D01*
X21617940Y-22362160D01*
X21630640Y-22362160D01*
X21653500Y-22372320D01*
X21683980Y-22392640D01*
X21717000Y-22423120D01*
X21750020Y-22456140D01*
X21777960Y-22491700D01*
X21793200Y-22512020D01*
X21826220Y-22570440D01*
X21785580Y-22730460D01*
X21765260Y-22804120D01*
X21752560Y-22854920D01*
X21742400Y-22890480D01*
X21737320Y-22910800D01*
X21732240Y-22920960D01*
X21727160Y-22923500D01*
X21722080Y-22923500D01*
X21717000Y-22910800D01*
X21709380Y-22877780D01*
X21699220Y-22824440D01*
X21686520Y-22758400D01*
X21671280Y-22679660D01*
X21668740Y-22661880D01*
X21656040Y-22583140D01*
X21643340Y-22509480D01*
X21633180Y-22448520D01*
X21625560Y-22405340D01*
X21620480Y-22382480D01*
X21620480Y-22382480D01*
X21617940Y-22362160D01*
X21617940Y-23530560D01*
X21625560Y-23533100D01*
X21673820Y-23553420D01*
X21719540Y-23566120D01*
X21742400Y-23571200D01*
X21772880Y-23566120D01*
X21795740Y-23553420D01*
X21816060Y-23528020D01*
X21828760Y-23487380D01*
X21838920Y-23426420D01*
X21846540Y-23345140D01*
X21851620Y-23263860D01*
X21854160Y-23185120D01*
X21859240Y-23126700D01*
X21864320Y-23078440D01*
X21874480Y-23032720D01*
X21887180Y-22984460D01*
X21907500Y-22926040D01*
X21920200Y-22890480D01*
X21950680Y-22801580D01*
X21971000Y-22733000D01*
X21983700Y-22679660D01*
X21988780Y-22636480D01*
X21988780Y-22598380D01*
X21981160Y-22562820D01*
X21976080Y-22545040D01*
X21953220Y-22479000D01*
X22009100Y-22369780D01*
X22037040Y-22316440D01*
X22064980Y-22268180D01*
X22087840Y-22232620D01*
X22095460Y-22222460D01*
X22110700Y-22207220D01*
X22141180Y-22174200D01*
X22189440Y-22125940D01*
X22247860Y-22064980D01*
X22318980Y-21991320D01*
X22400260Y-21907500D01*
X22489160Y-21816060D01*
X22585680Y-21717000D01*
X22684740Y-21615400D01*
X22684740Y-21615400D01*
X22826980Y-21473160D01*
X22948900Y-21346160D01*
X23058120Y-21236940D01*
X23149560Y-21142960D01*
X23228300Y-21061680D01*
X23294340Y-20995640D01*
X23347680Y-20939760D01*
X23390860Y-20894040D01*
X23426420Y-20858480D01*
X23451820Y-20830540D01*
X23469600Y-20810220D01*
X23482300Y-20794980D01*
X23487380Y-20784820D01*
X23489920Y-20779740D01*
X23489920Y-20777200D01*
X23489920Y-20774660D01*
X23487380Y-20774660D01*
X23469600Y-20772120D01*
X23434040Y-20774660D01*
X23406100Y-20779740D01*
X23375620Y-20784820D01*
X23322280Y-20792440D01*
X23251160Y-20802600D01*
X23167340Y-20815300D01*
X23070820Y-20828000D01*
X22971760Y-20843240D01*
X22948900Y-20845780D01*
X22760940Y-20871180D01*
X22575520Y-20896580D01*
X22400260Y-20921980D01*
X22235160Y-20944840D01*
X22082760Y-20967700D01*
X21943060Y-20988020D01*
X21823680Y-21005800D01*
X21722080Y-21021040D01*
X21643340Y-21033740D01*
X21602700Y-21041360D01*
X21541740Y-21048980D01*
X21490940Y-21056600D01*
X21457920Y-21059140D01*
X21442680Y-21056600D01*
X21437600Y-21041360D01*
X21432520Y-21005800D01*
X21424900Y-20957540D01*
X21417280Y-20904200D01*
X21409660Y-20853400D01*
X21407120Y-20807680D01*
X21404580Y-20782280D01*
X21407120Y-20769580D01*
X21412200Y-20761960D01*
X21422360Y-20759420D01*
X21445220Y-20761960D01*
X21483320Y-20774660D01*
X21539200Y-20792440D01*
X21615400Y-20817840D01*
X21628100Y-20820380D01*
X21709380Y-20845780D01*
X21790660Y-20866100D01*
X21856700Y-20878800D01*
X21871940Y-20881340D01*
X21922740Y-20883880D01*
X21950680Y-20883880D01*
X21963380Y-20878800D01*
X21968460Y-20868640D01*
X21968460Y-20863560D01*
X21958300Y-20845780D01*
X21930360Y-20820380D01*
X21882100Y-20787360D01*
X21826220Y-20749260D01*
X21767800Y-20713700D01*
X21722080Y-20683220D01*
X21686520Y-20657820D01*
X21653500Y-20629880D01*
X21623020Y-20599400D01*
X21587460Y-20558760D01*
X21541740Y-20507960D01*
X21501100Y-20459700D01*
X21452840Y-20401280D01*
X21407120Y-20347940D01*
X21366480Y-20304760D01*
X21336000Y-20271740D01*
X21328380Y-20264120D01*
X21287740Y-20226020D01*
X21140420Y-20253960D01*
X21059140Y-20271740D01*
X20998180Y-20289520D01*
X20962620Y-20304760D01*
X20942300Y-20325080D01*
X20939760Y-20345400D01*
X20939760Y-20353020D01*
X20947380Y-20378420D01*
X20952460Y-20408900D01*
X20955000Y-20447000D01*
X20955000Y-20492720D01*
X20955000Y-20548600D01*
X20949920Y-20619720D01*
X20944840Y-20706080D01*
X20934680Y-20812760D01*
X20921980Y-20939760D01*
X20909280Y-21061680D01*
X20901660Y-21153120D01*
X20835620Y-21168360D01*
X20787360Y-21178520D01*
X20728940Y-21188680D01*
X20675600Y-21198840D01*
X20634960Y-21203920D01*
X20609560Y-21211540D01*
X20589240Y-21221700D01*
X20579080Y-21239480D01*
X20568920Y-21272500D01*
X20561300Y-21320760D01*
X20553680Y-21391880D01*
X20546060Y-21445220D01*
X20538440Y-21485860D01*
X20533360Y-21508720D01*
X20530820Y-21513800D01*
X20518120Y-21506180D01*
X20487640Y-21488400D01*
X20444460Y-21465540D01*
X20419060Y-21450300D01*
X20360640Y-21419820D01*
X20317460Y-21399500D01*
X20274280Y-21386800D01*
X20241260Y-21384260D01*
X20162520Y-21379180D01*
X20043140Y-21231860D01*
X19997420Y-21178520D01*
X19941540Y-21107400D01*
X19878040Y-21028660D01*
X19809460Y-20944840D01*
X19745960Y-20863560D01*
X19725640Y-20840700D01*
X19565620Y-20640040D01*
X19423380Y-20459700D01*
X19293840Y-20297140D01*
X19179540Y-20154900D01*
X19077940Y-20027900D01*
X18991580Y-19921220D01*
X18915380Y-19827240D01*
X18851880Y-19751040D01*
X18801080Y-19687540D01*
X18760440Y-19636740D01*
X18727420Y-19601180D01*
X18707100Y-19578320D01*
X18694400Y-19565620D01*
X18689320Y-19563080D01*
X18691860Y-19580860D01*
X18707100Y-19621500D01*
X18729960Y-19687540D01*
X18765520Y-19773900D01*
X18808700Y-19880580D01*
X18862040Y-20010120D01*
X18923000Y-20159980D01*
X18994120Y-20327620D01*
X19019520Y-20386040D01*
X19050000Y-20459700D01*
X19093180Y-20553680D01*
X19146520Y-20660360D01*
X19207480Y-20782280D01*
X19273520Y-20914360D01*
X19344640Y-21051520D01*
X19418300Y-21191220D01*
X19491960Y-21330920D01*
X19522440Y-21386800D01*
X19558000Y-21452840D01*
X19585940Y-21511260D01*
X19608800Y-21554440D01*
X19624040Y-21584920D01*
X19626580Y-21592540D01*
X19616420Y-21600160D01*
X19596100Y-21600160D01*
X19580860Y-21590000D01*
X19563080Y-21582380D01*
X19524980Y-21564600D01*
X19471640Y-21544280D01*
X19410680Y-21521420D01*
X19344640Y-21496020D01*
X19281140Y-21475700D01*
X19268440Y-21470620D01*
X19174460Y-21447760D01*
X19075400Y-21440140D01*
X19070320Y-21440140D01*
X19027140Y-21440140D01*
X18991580Y-21445220D01*
X18958560Y-21450300D01*
X18920460Y-21465540D01*
X18872200Y-21485860D01*
X18813780Y-21513800D01*
X18740120Y-21551900D01*
X18658840Y-21595080D01*
X18580100Y-21638260D01*
X18534380Y-21666200D01*
X18442940Y-21722080D01*
X18336260Y-21790660D01*
X18214340Y-21866860D01*
X18082260Y-21950680D01*
X17945100Y-22037040D01*
X17805400Y-22125940D01*
X17665700Y-22212300D01*
X17533620Y-22296120D01*
X17482820Y-22329140D01*
X17399000Y-22379940D01*
X17322800Y-22430740D01*
X17256760Y-22473920D01*
X17203420Y-22509480D01*
X17165320Y-22537420D01*
X17145000Y-22552660D01*
X17142460Y-22555200D01*
X17142460Y-22555200D01*
%LPC*%
D15*
X1270000Y-16510000D03*
D16*
X1270000Y-1270000D03*
D15*
X1270000Y-3810000D03*
X1270000Y-6350000D03*
X1270000Y-8890000D03*
X1270000Y-11430000D03*
X1270000Y-13970000D03*
X24130000Y-16510000D03*
D16*
X24130000Y-1270000D03*
D15*
X24130000Y-3810000D03*
X24130000Y-6350000D03*
X24130000Y-8890000D03*
X24130000Y-11430000D03*
X24130000Y-13970000D03*
D16*
X3810000Y-1270000D03*
D15*
X3810000Y-3810000D03*
X3810000Y-6350000D03*
X3810000Y-8890000D03*
X3810000Y-11430000D03*
X3810000Y-13970000D03*
D16*
X6350000Y-1270000D03*
D15*
X6350000Y-3810000D03*
X6350000Y-6350000D03*
X6350000Y-8890000D03*
X6350000Y-11430000D03*
X6350000Y-13970000D03*
D16*
X8890000Y-1270000D03*
D15*
X8890000Y-3810000D03*
X8890000Y-6350000D03*
X8890000Y-8890000D03*
X8890000Y-11430000D03*
X8890000Y-13970000D03*
D16*
X11430000Y-1270000D03*
D15*
X11430000Y-3810000D03*
X11430000Y-6350000D03*
X11430000Y-8890000D03*
X11430000Y-11430000D03*
X11430000Y-13970000D03*
D16*
X13970000Y-1270000D03*
D15*
X13970000Y-3810000D03*
X13970000Y-6350000D03*
X13970000Y-8890000D03*
X13970000Y-11430000D03*
X13970000Y-13970000D03*
D16*
X16510000Y-1270000D03*
D15*
X16510000Y-3810000D03*
X16510000Y-6350000D03*
X16510000Y-8890000D03*
X16510000Y-11430000D03*
X16510000Y-13970000D03*
D16*
X19050000Y-1270000D03*
D15*
X19050000Y-3810000D03*
X19050000Y-6350000D03*
X19050000Y-8890000D03*
X19050000Y-11430000D03*
X19050000Y-13970000D03*
D16*
X21590000Y-1270000D03*
D15*
X21590000Y-3810000D03*
X21590000Y-6350000D03*
X21590000Y-8890000D03*
X21590000Y-11430000D03*
X21590000Y-13970000D03*
M02*
