G04 #@! TF.FileFunction,Copper,L3,Inr,Signal*
%FSLAX46Y46*%
G04 Gerber Fmt 4.6, Leading zero omitted, Abs format (unit mm)*
G04 Created by KiCad (PCBNEW 4.0.1-stable) date 2016-02-27 01:30:11*
%MOMM*%
G01*
G04 APERTURE LIST*
%ADD10C,0.050800*%
%ADD11C,1.600200*%
%ADD12R,1.600200X1.600200*%
%ADD13C,0.787400*%
%ADD14C,0.685800*%
%ADD15C,0.152400*%
G04 APERTURE END LIST*
D10*
D11*
X1270000Y-16510000D03*
D12*
X1270000Y-1270000D03*
D11*
X1270000Y-3810000D03*
X1270000Y-6350000D03*
X1270000Y-8890000D03*
X1270000Y-11430000D03*
X1270000Y-13970000D03*
X24130000Y-16510000D03*
D12*
X24130000Y-1270000D03*
D11*
X24130000Y-3810000D03*
X24130000Y-6350000D03*
X24130000Y-8890000D03*
X24130000Y-11430000D03*
X24130000Y-13970000D03*
D12*
X3810000Y-1270000D03*
D11*
X3810000Y-3810000D03*
X3810000Y-6350000D03*
X3810000Y-8890000D03*
X3810000Y-11430000D03*
X3810000Y-13970000D03*
D12*
X6350000Y-1270000D03*
D11*
X6350000Y-3810000D03*
X6350000Y-6350000D03*
X6350000Y-8890000D03*
X6350000Y-11430000D03*
X6350000Y-13970000D03*
D12*
X8890000Y-1270000D03*
D11*
X8890000Y-3810000D03*
X8890000Y-6350000D03*
X8890000Y-8890000D03*
X8890000Y-11430000D03*
X8890000Y-13970000D03*
D12*
X11430000Y-1270000D03*
D11*
X11430000Y-3810000D03*
X11430000Y-6350000D03*
X11430000Y-8890000D03*
X11430000Y-11430000D03*
X11430000Y-13970000D03*
D12*
X13970000Y-1270000D03*
D11*
X13970000Y-3810000D03*
X13970000Y-6350000D03*
X13970000Y-8890000D03*
X13970000Y-11430000D03*
X13970000Y-13970000D03*
D12*
X16510000Y-1270000D03*
D11*
X16510000Y-3810000D03*
X16510000Y-6350000D03*
X16510000Y-8890000D03*
X16510000Y-11430000D03*
X16510000Y-13970000D03*
D12*
X19050000Y-1270000D03*
D11*
X19050000Y-3810000D03*
X19050000Y-6350000D03*
X19050000Y-8890000D03*
X19050000Y-11430000D03*
X19050000Y-13970000D03*
D12*
X21590000Y-1270000D03*
D11*
X21590000Y-3810000D03*
X21590000Y-6350000D03*
X21590000Y-8890000D03*
X21590000Y-11430000D03*
X21590000Y-13970000D03*
D13*
X4064000Y-21844000D03*
X16764000Y-17068800D03*
X8636000Y-23876000D03*
X12573000Y-17145000D03*
X11430000Y-22225000D03*
X18044395Y-16089014D03*
X21971000Y-24765000D03*
X20320000Y-24765000D03*
X18415000Y-24765000D03*
X15875000Y-19431000D03*
X3810000Y-15875000D03*
X12065000Y-24130000D03*
D14*
X2286306Y-15021779D03*
X3204132Y-19437407D03*
X17815497Y-14571960D03*
X19431000Y-16002000D03*
X4699000Y-20701000D03*
X2603500Y-12700000D03*
X6959175Y-15976621D03*
X5258112Y-15978611D03*
X17423716Y-21598001D03*
X5836504Y-24471938D03*
X3212523Y-21216332D03*
X17551400Y-18948400D03*
X20320000Y-14795500D03*
X21179973Y-15589603D03*
X20320000Y-12255500D03*
D15*
G36*
X2679700Y-404219D02*
X2679700Y-1073150D01*
X2762250Y-1155700D01*
X3695700Y-1155700D01*
X3695700Y-1135700D01*
X3924300Y-1135700D01*
X3924300Y-1155700D01*
X4857750Y-1155700D01*
X4940300Y-1073150D01*
X4940300Y-404219D01*
X4930351Y-380200D01*
X5229649Y-380200D01*
X5219700Y-404219D01*
X5219700Y-1073150D01*
X5302250Y-1155700D01*
X6235700Y-1155700D01*
X6235700Y-1135700D01*
X6464300Y-1135700D01*
X6464300Y-1155700D01*
X7397750Y-1155700D01*
X7480300Y-1073150D01*
X7480300Y-404219D01*
X7470351Y-380200D01*
X7769649Y-380200D01*
X7759700Y-404219D01*
X7759700Y-1073150D01*
X7842250Y-1155700D01*
X8775700Y-1155700D01*
X8775700Y-1135700D01*
X9004300Y-1135700D01*
X9004300Y-1155700D01*
X9937750Y-1155700D01*
X10020300Y-1073150D01*
X10020300Y-404219D01*
X10010351Y-380200D01*
X10309649Y-380200D01*
X10299700Y-404219D01*
X10299700Y-1073150D01*
X10382250Y-1155700D01*
X11315700Y-1155700D01*
X11315700Y-1135700D01*
X11544300Y-1135700D01*
X11544300Y-1155700D01*
X12477750Y-1155700D01*
X12560300Y-1073150D01*
X12560300Y-404219D01*
X12550351Y-380200D01*
X12849649Y-380200D01*
X12839700Y-404219D01*
X12839700Y-1073150D01*
X12922250Y-1155700D01*
X13855700Y-1155700D01*
X13855700Y-1135700D01*
X14084300Y-1135700D01*
X14084300Y-1155700D01*
X15017750Y-1155700D01*
X15100300Y-1073150D01*
X15100300Y-404219D01*
X15090351Y-380200D01*
X15389649Y-380200D01*
X15379700Y-404219D01*
X15379700Y-1073150D01*
X15462250Y-1155700D01*
X16395700Y-1155700D01*
X16395700Y-1135700D01*
X16624300Y-1135700D01*
X16624300Y-1155700D01*
X17557750Y-1155700D01*
X17640300Y-1073150D01*
X17640300Y-404219D01*
X17630351Y-380200D01*
X17929649Y-380200D01*
X17919700Y-404219D01*
X17919700Y-1073150D01*
X18002250Y-1155700D01*
X18935700Y-1155700D01*
X18935700Y-1135700D01*
X19164300Y-1135700D01*
X19164300Y-1155700D01*
X20097750Y-1155700D01*
X20180300Y-1073150D01*
X20180300Y-404219D01*
X20170351Y-380200D01*
X20469649Y-380200D01*
X20459700Y-404219D01*
X20459700Y-1073150D01*
X20542250Y-1155700D01*
X21475700Y-1155700D01*
X21475700Y-1135700D01*
X21704300Y-1135700D01*
X21704300Y-1155700D01*
X22637750Y-1155700D01*
X22720300Y-1073150D01*
X22720300Y-404219D01*
X22710351Y-380200D01*
X23009649Y-380200D01*
X22999700Y-404219D01*
X22999700Y-1073150D01*
X23082250Y-1155700D01*
X24015700Y-1155700D01*
X24015700Y-1135700D01*
X24244300Y-1135700D01*
X24244300Y-1155700D01*
X24264300Y-1155700D01*
X24264300Y-1384300D01*
X24244300Y-1384300D01*
X24244300Y-2317750D01*
X24326850Y-2400300D01*
X24995781Y-2400300D01*
X25019800Y-2390351D01*
X25019800Y-3101471D01*
X24771100Y-2852337D01*
X24355817Y-2679897D01*
X23906156Y-2679504D01*
X23490573Y-2851219D01*
X23172337Y-3168900D01*
X22999897Y-3584183D01*
X22999504Y-4033844D01*
X23171219Y-4449427D01*
X23488900Y-4767663D01*
X23904183Y-4940103D01*
X24353844Y-4940496D01*
X24769427Y-4768781D01*
X25019800Y-4518845D01*
X25019800Y-5641471D01*
X24771100Y-5392337D01*
X24355817Y-5219897D01*
X23906156Y-5219504D01*
X23490573Y-5391219D01*
X23172337Y-5708900D01*
X22999897Y-6124183D01*
X22999504Y-6573844D01*
X23171219Y-6989427D01*
X23488900Y-7307663D01*
X23904183Y-7480103D01*
X24353844Y-7480496D01*
X24769427Y-7308781D01*
X25019800Y-7058845D01*
X25019800Y-8181471D01*
X24771100Y-7932337D01*
X24355817Y-7759897D01*
X23906156Y-7759504D01*
X23490573Y-7931219D01*
X23172337Y-8248900D01*
X22999897Y-8664183D01*
X22999504Y-9113844D01*
X23171219Y-9529427D01*
X23488900Y-9847663D01*
X23904183Y-10020103D01*
X24353844Y-10020496D01*
X24769427Y-9848781D01*
X25019800Y-9598845D01*
X25019800Y-10721471D01*
X24771100Y-10472337D01*
X24355817Y-10299897D01*
X23906156Y-10299504D01*
X23490573Y-10471219D01*
X23172337Y-10788900D01*
X22999897Y-11204183D01*
X22999504Y-11653844D01*
X23171219Y-12069427D01*
X23488900Y-12387663D01*
X23904183Y-12560103D01*
X24353844Y-12560496D01*
X24769427Y-12388781D01*
X25019800Y-12138845D01*
X25019800Y-13261471D01*
X24771100Y-13012337D01*
X24355817Y-12839897D01*
X23906156Y-12839504D01*
X23490573Y-13011219D01*
X23172337Y-13328900D01*
X22999897Y-13744183D01*
X22999504Y-14193844D01*
X23171219Y-14609427D01*
X23488900Y-14927663D01*
X23904183Y-15100103D01*
X24353844Y-15100496D01*
X24769427Y-14928781D01*
X25019800Y-14678845D01*
X25019800Y-15801471D01*
X24771100Y-15552337D01*
X24355817Y-15379897D01*
X23906156Y-15379504D01*
X23490573Y-15551219D01*
X23172337Y-15868900D01*
X22999897Y-16284183D01*
X22999504Y-16733844D01*
X23171219Y-17149427D01*
X23488900Y-17467663D01*
X23904183Y-17640103D01*
X24353844Y-17640496D01*
X24769427Y-17468781D01*
X25019800Y-17218845D01*
X25019800Y-25019800D01*
X22649025Y-25019800D01*
X22694774Y-24909624D01*
X22695025Y-24621639D01*
X22585050Y-24355479D01*
X22381592Y-24151665D01*
X22115624Y-24041226D01*
X21827639Y-24040975D01*
X21561479Y-24150950D01*
X21357665Y-24354408D01*
X21247226Y-24620376D01*
X21246975Y-24908361D01*
X21293021Y-25019800D01*
X20998025Y-25019800D01*
X21043774Y-24909624D01*
X21044025Y-24621639D01*
X20934050Y-24355479D01*
X20730592Y-24151665D01*
X20464624Y-24041226D01*
X20176639Y-24040975D01*
X19910479Y-24150950D01*
X19706665Y-24354408D01*
X19596226Y-24620376D01*
X19595975Y-24908361D01*
X19642021Y-25019800D01*
X19093025Y-25019800D01*
X19138774Y-24909624D01*
X19139025Y-24621639D01*
X19029050Y-24355479D01*
X18825592Y-24151665D01*
X18559624Y-24041226D01*
X18271639Y-24040975D01*
X18005479Y-24150950D01*
X17801665Y-24354408D01*
X17691226Y-24620376D01*
X17690975Y-24908361D01*
X17737021Y-25019800D01*
X6240424Y-25019800D01*
X6406798Y-24853716D01*
X6509487Y-24606413D01*
X6509721Y-24338637D01*
X6482750Y-24273361D01*
X11340975Y-24273361D01*
X11450950Y-24539521D01*
X11654408Y-24743335D01*
X11920376Y-24853774D01*
X12208361Y-24854025D01*
X12474521Y-24744050D01*
X12678335Y-24540592D01*
X12788774Y-24274624D01*
X12789025Y-23986639D01*
X12679050Y-23720479D01*
X12475592Y-23516665D01*
X12209624Y-23406226D01*
X11921639Y-23405975D01*
X11655479Y-23515950D01*
X11451665Y-23719408D01*
X11341226Y-23985376D01*
X11340975Y-24273361D01*
X6482750Y-24273361D01*
X6407463Y-24091155D01*
X6218282Y-23901644D01*
X5970979Y-23798955D01*
X5703203Y-23798721D01*
X5455721Y-23900979D01*
X5266210Y-24090160D01*
X5163521Y-24337463D01*
X5163287Y-24605239D01*
X5265545Y-24852721D01*
X5432333Y-25019800D01*
X380200Y-25019800D01*
X380200Y-21349633D01*
X2539306Y-21349633D01*
X2641564Y-21597115D01*
X2830745Y-21786626D01*
X3078048Y-21889315D01*
X3345824Y-21889549D01*
X3593306Y-21787291D01*
X3649392Y-21731302D01*
X16750499Y-21731302D01*
X16852757Y-21978784D01*
X17041938Y-22168295D01*
X17289241Y-22270984D01*
X17557017Y-22271218D01*
X17804499Y-22168960D01*
X17994010Y-21979779D01*
X18096699Y-21732476D01*
X18096933Y-21464700D01*
X17994675Y-21217218D01*
X17805494Y-21027707D01*
X17558191Y-20925018D01*
X17290415Y-20924784D01*
X17042933Y-21027042D01*
X16853422Y-21216223D01*
X16750733Y-21463526D01*
X16750499Y-21731302D01*
X3649392Y-21731302D01*
X3782817Y-21598110D01*
X3885506Y-21350807D01*
X3885740Y-21083031D01*
X3783482Y-20835549D01*
X3782237Y-20834301D01*
X4025783Y-20834301D01*
X4128041Y-21081783D01*
X4317222Y-21271294D01*
X4564525Y-21373983D01*
X4832301Y-21374217D01*
X5079783Y-21271959D01*
X5269294Y-21082778D01*
X5371983Y-20835475D01*
X5372217Y-20567699D01*
X5269959Y-20320217D01*
X5080778Y-20130706D01*
X4833475Y-20028017D01*
X4565699Y-20027783D01*
X4318217Y-20130041D01*
X4128706Y-20319222D01*
X4026017Y-20566525D01*
X4025783Y-20834301D01*
X3782237Y-20834301D01*
X3594301Y-20646038D01*
X3346998Y-20543349D01*
X3079222Y-20543115D01*
X2831740Y-20645373D01*
X2642229Y-20834554D01*
X2539540Y-21081857D01*
X2539306Y-21349633D01*
X380200Y-21349633D01*
X380200Y-19570708D01*
X2530915Y-19570708D01*
X2633173Y-19818190D01*
X2822354Y-20007701D01*
X3069657Y-20110390D01*
X3337433Y-20110624D01*
X3584915Y-20008366D01*
X3774426Y-19819185D01*
X3876085Y-19574361D01*
X15150975Y-19574361D01*
X15260950Y-19840521D01*
X15464408Y-20044335D01*
X15730376Y-20154774D01*
X16018361Y-20155025D01*
X16284521Y-20045050D01*
X16488335Y-19841592D01*
X16598774Y-19575624D01*
X16599025Y-19287639D01*
X16513934Y-19081701D01*
X16878183Y-19081701D01*
X16980441Y-19329183D01*
X17169622Y-19518694D01*
X17416925Y-19621383D01*
X17684701Y-19621617D01*
X17932183Y-19519359D01*
X18121694Y-19330178D01*
X18224383Y-19082875D01*
X18224617Y-18815099D01*
X18122359Y-18567617D01*
X17933178Y-18378106D01*
X17685875Y-18275417D01*
X17418099Y-18275183D01*
X17170617Y-18377441D01*
X16981106Y-18566622D01*
X16878417Y-18813925D01*
X16878183Y-19081701D01*
X16513934Y-19081701D01*
X16489050Y-19021479D01*
X16285592Y-18817665D01*
X16019624Y-18707226D01*
X15731639Y-18706975D01*
X15465479Y-18816950D01*
X15261665Y-19020408D01*
X15151226Y-19286376D01*
X15150975Y-19574361D01*
X3876085Y-19574361D01*
X3877115Y-19571882D01*
X3877349Y-19304106D01*
X3775091Y-19056624D01*
X3585910Y-18867113D01*
X3338607Y-18764424D01*
X3070831Y-18764190D01*
X2823349Y-18866448D01*
X2633838Y-19055629D01*
X2531149Y-19302932D01*
X2530915Y-19570708D01*
X380200Y-19570708D01*
X380200Y-17218529D01*
X628900Y-17467663D01*
X1044183Y-17640103D01*
X1493844Y-17640496D01*
X1909427Y-17468781D01*
X2227663Y-17151100D01*
X2400103Y-16735817D01*
X2400496Y-16286156D01*
X2289846Y-16018361D01*
X3085975Y-16018361D01*
X3195950Y-16284521D01*
X3399408Y-16488335D01*
X3665376Y-16598774D01*
X3953361Y-16599025D01*
X4219521Y-16489050D01*
X4423335Y-16285592D01*
X4495452Y-16111912D01*
X4584895Y-16111912D01*
X4687153Y-16359394D01*
X4876334Y-16548905D01*
X5123637Y-16651594D01*
X5391413Y-16651828D01*
X5638895Y-16549570D01*
X5828406Y-16360389D01*
X5931095Y-16113086D01*
X5931097Y-16109922D01*
X6285958Y-16109922D01*
X6388216Y-16357404D01*
X6577397Y-16546915D01*
X6824700Y-16649604D01*
X7092476Y-16649838D01*
X7339958Y-16547580D01*
X7529469Y-16358399D01*
X7581798Y-16232375D01*
X17320370Y-16232375D01*
X17430345Y-16498535D01*
X17633803Y-16702349D01*
X17899771Y-16812788D01*
X18187756Y-16813039D01*
X18453916Y-16703064D01*
X18657730Y-16499606D01*
X18768169Y-16233638D01*
X18768233Y-16160591D01*
X18860041Y-16382783D01*
X19049222Y-16572294D01*
X19296525Y-16674983D01*
X19564301Y-16675217D01*
X19811783Y-16572959D01*
X20001294Y-16383778D01*
X20103983Y-16136475D01*
X20104217Y-15868699D01*
X20001959Y-15621217D01*
X19812778Y-15431706D01*
X19565475Y-15329017D01*
X19297699Y-15328783D01*
X19050217Y-15431041D01*
X18860706Y-15620222D01*
X18758017Y-15867525D01*
X18757971Y-15920364D01*
X18658445Y-15679493D01*
X18454987Y-15475679D01*
X18189019Y-15365240D01*
X17901034Y-15364989D01*
X17634874Y-15474964D01*
X17431060Y-15678422D01*
X17320621Y-15944390D01*
X17320370Y-16232375D01*
X7581798Y-16232375D01*
X7632158Y-16111096D01*
X7632392Y-15843320D01*
X7530134Y-15595838D01*
X7340953Y-15406327D01*
X7093650Y-15303638D01*
X6825874Y-15303404D01*
X6578392Y-15405662D01*
X6388881Y-15594843D01*
X6286192Y-15842146D01*
X6285958Y-16109922D01*
X5931097Y-16109922D01*
X5931329Y-15845310D01*
X5829071Y-15597828D01*
X5639890Y-15408317D01*
X5392587Y-15305628D01*
X5124811Y-15305394D01*
X4877329Y-15407652D01*
X4687818Y-15596833D01*
X4585129Y-15844136D01*
X4584895Y-16111912D01*
X4495452Y-16111912D01*
X4533774Y-16019624D01*
X4534025Y-15731639D01*
X4424050Y-15465479D01*
X4220592Y-15261665D01*
X3954624Y-15151226D01*
X3666639Y-15150975D01*
X3400479Y-15260950D01*
X3196665Y-15464408D01*
X3086226Y-15730376D01*
X3085975Y-16018361D01*
X2289846Y-16018361D01*
X2228781Y-15870573D01*
X1983503Y-15624866D01*
X2151831Y-15694762D01*
X2419607Y-15694996D01*
X2667089Y-15592738D01*
X2856600Y-15403557D01*
X2959289Y-15156254D01*
X2959523Y-14888478D01*
X2857265Y-14640996D01*
X2668084Y-14451485D01*
X2420781Y-14348796D01*
X2336611Y-14348722D01*
X2400103Y-14195817D01*
X2400496Y-13746156D01*
X2228781Y-13330573D01*
X1911100Y-13012337D01*
X1495817Y-12839897D01*
X1046156Y-12839504D01*
X630573Y-13011219D01*
X380200Y-13261155D01*
X380200Y-12833301D01*
X1930283Y-12833301D01*
X2032541Y-13080783D01*
X2221722Y-13270294D01*
X2469025Y-13372983D01*
X2736801Y-13373217D01*
X2858186Y-13323062D01*
X2852337Y-13328900D01*
X2679897Y-13744183D01*
X2679504Y-14193844D01*
X2851219Y-14609427D01*
X3168900Y-14927663D01*
X3584183Y-15100103D01*
X4033844Y-15100496D01*
X4449427Y-14928781D01*
X4767663Y-14611100D01*
X4940103Y-14195817D01*
X4940104Y-14193844D01*
X5219504Y-14193844D01*
X5391219Y-14609427D01*
X5708900Y-14927663D01*
X6124183Y-15100103D01*
X6573844Y-15100496D01*
X6989427Y-14928781D01*
X7307663Y-14611100D01*
X7480103Y-14195817D01*
X7480104Y-14193844D01*
X7759504Y-14193844D01*
X7931219Y-14609427D01*
X8248900Y-14927663D01*
X8664183Y-15100103D01*
X9113844Y-15100496D01*
X9529427Y-14928781D01*
X9847663Y-14611100D01*
X10020103Y-14195817D01*
X10020104Y-14193844D01*
X10299504Y-14193844D01*
X10471219Y-14609427D01*
X10788900Y-14927663D01*
X11204183Y-15100103D01*
X11653844Y-15100496D01*
X12069427Y-14928781D01*
X12387663Y-14611100D01*
X12560103Y-14195817D01*
X12560104Y-14193844D01*
X12839504Y-14193844D01*
X13011219Y-14609427D01*
X13328900Y-14927663D01*
X13744183Y-15100103D01*
X14193844Y-15100496D01*
X14609427Y-14928781D01*
X14927663Y-14611100D01*
X15100103Y-14195817D01*
X15100104Y-14193844D01*
X15379504Y-14193844D01*
X15551219Y-14609427D01*
X15868900Y-14927663D01*
X16284183Y-15100103D01*
X16733844Y-15100496D01*
X17149427Y-14928781D01*
X17209754Y-14868559D01*
X17244538Y-14952743D01*
X17433719Y-15142254D01*
X17681022Y-15244943D01*
X17948798Y-15245177D01*
X18196280Y-15142919D01*
X18385791Y-14953738D01*
X18400226Y-14918974D01*
X18408900Y-14927663D01*
X18824183Y-15100103D01*
X19273844Y-15100496D01*
X19652995Y-14943834D01*
X19749041Y-15176283D01*
X19938222Y-15365794D01*
X20185525Y-15468483D01*
X20453301Y-15468717D01*
X20511298Y-15444753D01*
X20506990Y-15455128D01*
X20506756Y-15722904D01*
X20609014Y-15970386D01*
X20798195Y-16159897D01*
X21045498Y-16262586D01*
X21313274Y-16262820D01*
X21560756Y-16160562D01*
X21750267Y-15971381D01*
X21852956Y-15724078D01*
X21853190Y-15456302D01*
X21750932Y-15208820D01*
X21642647Y-15100346D01*
X21813844Y-15100496D01*
X22229427Y-14928781D01*
X22547663Y-14611100D01*
X22720103Y-14195817D01*
X22720496Y-13746156D01*
X22548781Y-13330573D01*
X22231100Y-13012337D01*
X21815817Y-12839897D01*
X21366156Y-12839504D01*
X20950573Y-13011219D01*
X20632337Y-13328900D01*
X20459897Y-13744183D01*
X20459564Y-14124630D01*
X20454475Y-14122517D01*
X20186699Y-14122283D01*
X20180165Y-14124983D01*
X20180496Y-13746156D01*
X20008781Y-13330573D01*
X19691100Y-13012337D01*
X19275817Y-12839897D01*
X18826156Y-12839504D01*
X18410573Y-13011219D01*
X18092337Y-13328900D01*
X17919897Y-13744183D01*
X17919762Y-13898951D01*
X17682196Y-13898743D01*
X17640348Y-13916035D01*
X17640496Y-13746156D01*
X17468781Y-13330573D01*
X17151100Y-13012337D01*
X16735817Y-12839897D01*
X16286156Y-12839504D01*
X15870573Y-13011219D01*
X15552337Y-13328900D01*
X15379897Y-13744183D01*
X15379504Y-14193844D01*
X15100104Y-14193844D01*
X15100496Y-13746156D01*
X14928781Y-13330573D01*
X14611100Y-13012337D01*
X14195817Y-12839897D01*
X13746156Y-12839504D01*
X13330573Y-13011219D01*
X13012337Y-13328900D01*
X12839897Y-13744183D01*
X12839504Y-14193844D01*
X12560104Y-14193844D01*
X12560496Y-13746156D01*
X12388781Y-13330573D01*
X12071100Y-13012337D01*
X11655817Y-12839897D01*
X11206156Y-12839504D01*
X10790573Y-13011219D01*
X10472337Y-13328900D01*
X10299897Y-13744183D01*
X10299504Y-14193844D01*
X10020104Y-14193844D01*
X10020496Y-13746156D01*
X9848781Y-13330573D01*
X9531100Y-13012337D01*
X9115817Y-12839897D01*
X8666156Y-12839504D01*
X8250573Y-13011219D01*
X7932337Y-13328900D01*
X7759897Y-13744183D01*
X7759504Y-14193844D01*
X7480104Y-14193844D01*
X7480496Y-13746156D01*
X7308781Y-13330573D01*
X6991100Y-13012337D01*
X6575817Y-12839897D01*
X6126156Y-12839504D01*
X5710573Y-13011219D01*
X5392337Y-13328900D01*
X5219897Y-13744183D01*
X5219504Y-14193844D01*
X4940104Y-14193844D01*
X4940496Y-13746156D01*
X4768781Y-13330573D01*
X4451100Y-13012337D01*
X4035817Y-12839897D01*
X3586156Y-12839504D01*
X3209828Y-12994999D01*
X3276483Y-12834475D01*
X3276717Y-12566699D01*
X3209749Y-12404625D01*
X3584183Y-12560103D01*
X4033844Y-12560496D01*
X4449427Y-12388781D01*
X4767663Y-12071100D01*
X4940103Y-11655817D01*
X4940104Y-11653844D01*
X5219504Y-11653844D01*
X5391219Y-12069427D01*
X5708900Y-12387663D01*
X6124183Y-12560103D01*
X6573844Y-12560496D01*
X6989427Y-12388781D01*
X7307663Y-12071100D01*
X7480103Y-11655817D01*
X7480104Y-11653844D01*
X7759504Y-11653844D01*
X7931219Y-12069427D01*
X8248900Y-12387663D01*
X8664183Y-12560103D01*
X9113844Y-12560496D01*
X9529427Y-12388781D01*
X9847663Y-12071100D01*
X10020103Y-11655817D01*
X10020104Y-11653844D01*
X10299504Y-11653844D01*
X10471219Y-12069427D01*
X10788900Y-12387663D01*
X11204183Y-12560103D01*
X11653844Y-12560496D01*
X12069427Y-12388781D01*
X12387663Y-12071100D01*
X12560103Y-11655817D01*
X12560104Y-11653844D01*
X12839504Y-11653844D01*
X13011219Y-12069427D01*
X13328900Y-12387663D01*
X13744183Y-12560103D01*
X14193844Y-12560496D01*
X14609427Y-12388781D01*
X14927663Y-12071100D01*
X15100103Y-11655817D01*
X15100104Y-11653844D01*
X15379504Y-11653844D01*
X15551219Y-12069427D01*
X15868900Y-12387663D01*
X16284183Y-12560103D01*
X16733844Y-12560496D01*
X17149427Y-12388781D01*
X17467663Y-12071100D01*
X17640103Y-11655817D01*
X17640104Y-11653844D01*
X17919504Y-11653844D01*
X18091219Y-12069427D01*
X18408900Y-12387663D01*
X18824183Y-12560103D01*
X19273844Y-12560496D01*
X19652995Y-12403834D01*
X19749041Y-12636283D01*
X19938222Y-12825794D01*
X20185525Y-12928483D01*
X20453301Y-12928717D01*
X20700783Y-12826459D01*
X20890294Y-12637278D01*
X20987319Y-12403616D01*
X21364183Y-12560103D01*
X21813844Y-12560496D01*
X22229427Y-12388781D01*
X22547663Y-12071100D01*
X22720103Y-11655817D01*
X22720496Y-11206156D01*
X22548781Y-10790573D01*
X22231100Y-10472337D01*
X21815817Y-10299897D01*
X21366156Y-10299504D01*
X20950573Y-10471219D01*
X20632337Y-10788900D01*
X20459897Y-11204183D01*
X20459564Y-11584630D01*
X20454475Y-11582517D01*
X20186699Y-11582283D01*
X20180165Y-11584983D01*
X20180496Y-11206156D01*
X20008781Y-10790573D01*
X19691100Y-10472337D01*
X19275817Y-10299897D01*
X18826156Y-10299504D01*
X18410573Y-10471219D01*
X18092337Y-10788900D01*
X17919897Y-11204183D01*
X17919504Y-11653844D01*
X17640104Y-11653844D01*
X17640496Y-11206156D01*
X17468781Y-10790573D01*
X17151100Y-10472337D01*
X16735817Y-10299897D01*
X16286156Y-10299504D01*
X15870573Y-10471219D01*
X15552337Y-10788900D01*
X15379897Y-11204183D01*
X15379504Y-11653844D01*
X15100104Y-11653844D01*
X15100496Y-11206156D01*
X14928781Y-10790573D01*
X14611100Y-10472337D01*
X14195817Y-10299897D01*
X13746156Y-10299504D01*
X13330573Y-10471219D01*
X13012337Y-10788900D01*
X12839897Y-11204183D01*
X12839504Y-11653844D01*
X12560104Y-11653844D01*
X12560496Y-11206156D01*
X12388781Y-10790573D01*
X12071100Y-10472337D01*
X11655817Y-10299897D01*
X11206156Y-10299504D01*
X10790573Y-10471219D01*
X10472337Y-10788900D01*
X10299897Y-11204183D01*
X10299504Y-11653844D01*
X10020104Y-11653844D01*
X10020496Y-11206156D01*
X9848781Y-10790573D01*
X9531100Y-10472337D01*
X9115817Y-10299897D01*
X8666156Y-10299504D01*
X8250573Y-10471219D01*
X7932337Y-10788900D01*
X7759897Y-11204183D01*
X7759504Y-11653844D01*
X7480104Y-11653844D01*
X7480496Y-11206156D01*
X7308781Y-10790573D01*
X6991100Y-10472337D01*
X6575817Y-10299897D01*
X6126156Y-10299504D01*
X5710573Y-10471219D01*
X5392337Y-10788900D01*
X5219897Y-11204183D01*
X5219504Y-11653844D01*
X4940104Y-11653844D01*
X4940496Y-11206156D01*
X4768781Y-10790573D01*
X4451100Y-10472337D01*
X4035817Y-10299897D01*
X3586156Y-10299504D01*
X3170573Y-10471219D01*
X2852337Y-10788900D01*
X2679897Y-11204183D01*
X2679504Y-11653844D01*
X2851219Y-12069427D01*
X2859084Y-12077306D01*
X2737975Y-12027017D01*
X2470199Y-12026783D01*
X2222717Y-12129041D01*
X2033206Y-12318222D01*
X1930517Y-12565525D01*
X1930283Y-12833301D01*
X380200Y-12833301D01*
X380200Y-12138529D01*
X628900Y-12387663D01*
X1044183Y-12560103D01*
X1493844Y-12560496D01*
X1909427Y-12388781D01*
X2227663Y-12071100D01*
X2400103Y-11655817D01*
X2400496Y-11206156D01*
X2228781Y-10790573D01*
X1911100Y-10472337D01*
X1495817Y-10299897D01*
X1046156Y-10299504D01*
X630573Y-10471219D01*
X380200Y-10721155D01*
X380200Y-9598529D01*
X628900Y-9847663D01*
X1044183Y-10020103D01*
X1493844Y-10020496D01*
X1909427Y-9848781D01*
X2227663Y-9531100D01*
X2400103Y-9115817D01*
X2400104Y-9113844D01*
X2679504Y-9113844D01*
X2851219Y-9529427D01*
X3168900Y-9847663D01*
X3584183Y-10020103D01*
X4033844Y-10020496D01*
X4449427Y-9848781D01*
X4767663Y-9531100D01*
X4940103Y-9115817D01*
X4940104Y-9113844D01*
X5219504Y-9113844D01*
X5391219Y-9529427D01*
X5708900Y-9847663D01*
X6124183Y-10020103D01*
X6573844Y-10020496D01*
X6989427Y-9848781D01*
X7307663Y-9531100D01*
X7480103Y-9115817D01*
X7480104Y-9113844D01*
X7759504Y-9113844D01*
X7931219Y-9529427D01*
X8248900Y-9847663D01*
X8664183Y-10020103D01*
X9113844Y-10020496D01*
X9529427Y-9848781D01*
X9847663Y-9531100D01*
X10020103Y-9115817D01*
X10020104Y-9113844D01*
X10299504Y-9113844D01*
X10471219Y-9529427D01*
X10788900Y-9847663D01*
X11204183Y-10020103D01*
X11653844Y-10020496D01*
X12069427Y-9848781D01*
X12387663Y-9531100D01*
X12560103Y-9115817D01*
X12560104Y-9113844D01*
X12839504Y-9113844D01*
X13011219Y-9529427D01*
X13328900Y-9847663D01*
X13744183Y-10020103D01*
X14193844Y-10020496D01*
X14609427Y-9848781D01*
X14927663Y-9531100D01*
X15100103Y-9115817D01*
X15100104Y-9113844D01*
X15379504Y-9113844D01*
X15551219Y-9529427D01*
X15868900Y-9847663D01*
X16284183Y-10020103D01*
X16733844Y-10020496D01*
X17149427Y-9848781D01*
X17467663Y-9531100D01*
X17640103Y-9115817D01*
X17640104Y-9113844D01*
X17919504Y-9113844D01*
X18091219Y-9529427D01*
X18408900Y-9847663D01*
X18824183Y-10020103D01*
X19273844Y-10020496D01*
X19689427Y-9848781D01*
X20007663Y-9531100D01*
X20180103Y-9115817D01*
X20180104Y-9113844D01*
X20459504Y-9113844D01*
X20631219Y-9529427D01*
X20948900Y-9847663D01*
X21364183Y-10020103D01*
X21813844Y-10020496D01*
X22229427Y-9848781D01*
X22547663Y-9531100D01*
X22720103Y-9115817D01*
X22720496Y-8666156D01*
X22548781Y-8250573D01*
X22231100Y-7932337D01*
X21815817Y-7759897D01*
X21366156Y-7759504D01*
X20950573Y-7931219D01*
X20632337Y-8248900D01*
X20459897Y-8664183D01*
X20459504Y-9113844D01*
X20180104Y-9113844D01*
X20180496Y-8666156D01*
X20008781Y-8250573D01*
X19691100Y-7932337D01*
X19275817Y-7759897D01*
X18826156Y-7759504D01*
X18410573Y-7931219D01*
X18092337Y-8248900D01*
X17919897Y-8664183D01*
X17919504Y-9113844D01*
X17640104Y-9113844D01*
X17640496Y-8666156D01*
X17468781Y-8250573D01*
X17151100Y-7932337D01*
X16735817Y-7759897D01*
X16286156Y-7759504D01*
X15870573Y-7931219D01*
X15552337Y-8248900D01*
X15379897Y-8664183D01*
X15379504Y-9113844D01*
X15100104Y-9113844D01*
X15100496Y-8666156D01*
X14928781Y-8250573D01*
X14611100Y-7932337D01*
X14195817Y-7759897D01*
X13746156Y-7759504D01*
X13330573Y-7931219D01*
X13012337Y-8248900D01*
X12839897Y-8664183D01*
X12839504Y-9113844D01*
X12560104Y-9113844D01*
X12560496Y-8666156D01*
X12388781Y-8250573D01*
X12071100Y-7932337D01*
X11655817Y-7759897D01*
X11206156Y-7759504D01*
X10790573Y-7931219D01*
X10472337Y-8248900D01*
X10299897Y-8664183D01*
X10299504Y-9113844D01*
X10020104Y-9113844D01*
X10020496Y-8666156D01*
X9848781Y-8250573D01*
X9531100Y-7932337D01*
X9115817Y-7759897D01*
X8666156Y-7759504D01*
X8250573Y-7931219D01*
X7932337Y-8248900D01*
X7759897Y-8664183D01*
X7759504Y-9113844D01*
X7480104Y-9113844D01*
X7480496Y-8666156D01*
X7308781Y-8250573D01*
X6991100Y-7932337D01*
X6575817Y-7759897D01*
X6126156Y-7759504D01*
X5710573Y-7931219D01*
X5392337Y-8248900D01*
X5219897Y-8664183D01*
X5219504Y-9113844D01*
X4940104Y-9113844D01*
X4940496Y-8666156D01*
X4768781Y-8250573D01*
X4451100Y-7932337D01*
X4035817Y-7759897D01*
X3586156Y-7759504D01*
X3170573Y-7931219D01*
X2852337Y-8248900D01*
X2679897Y-8664183D01*
X2679504Y-9113844D01*
X2400104Y-9113844D01*
X2400496Y-8666156D01*
X2228781Y-8250573D01*
X1911100Y-7932337D01*
X1495817Y-7759897D01*
X1046156Y-7759504D01*
X630573Y-7931219D01*
X380200Y-8181155D01*
X380200Y-7058529D01*
X628900Y-7307663D01*
X1044183Y-7480103D01*
X1493844Y-7480496D01*
X1909427Y-7308781D01*
X2227663Y-6991100D01*
X2400103Y-6575817D01*
X2400104Y-6573844D01*
X2679504Y-6573844D01*
X2851219Y-6989427D01*
X3168900Y-7307663D01*
X3584183Y-7480103D01*
X4033844Y-7480496D01*
X4449427Y-7308781D01*
X4767663Y-6991100D01*
X4940103Y-6575817D01*
X4940104Y-6573844D01*
X5219504Y-6573844D01*
X5391219Y-6989427D01*
X5708900Y-7307663D01*
X6124183Y-7480103D01*
X6573844Y-7480496D01*
X6989427Y-7308781D01*
X7307663Y-6991100D01*
X7480103Y-6575817D01*
X7480104Y-6573844D01*
X7759504Y-6573844D01*
X7931219Y-6989427D01*
X8248900Y-7307663D01*
X8664183Y-7480103D01*
X9113844Y-7480496D01*
X9529427Y-7308781D01*
X9847663Y-6991100D01*
X10020103Y-6575817D01*
X10020104Y-6573844D01*
X10299504Y-6573844D01*
X10471219Y-6989427D01*
X10788900Y-7307663D01*
X11204183Y-7480103D01*
X11653844Y-7480496D01*
X12069427Y-7308781D01*
X12387663Y-6991100D01*
X12560103Y-6575817D01*
X12560104Y-6573844D01*
X12839504Y-6573844D01*
X13011219Y-6989427D01*
X13328900Y-7307663D01*
X13744183Y-7480103D01*
X14193844Y-7480496D01*
X14609427Y-7308781D01*
X14927663Y-6991100D01*
X15100103Y-6575817D01*
X15100104Y-6573844D01*
X15379504Y-6573844D01*
X15551219Y-6989427D01*
X15868900Y-7307663D01*
X16284183Y-7480103D01*
X16733844Y-7480496D01*
X17149427Y-7308781D01*
X17467663Y-6991100D01*
X17640103Y-6575817D01*
X17640104Y-6573844D01*
X17919504Y-6573844D01*
X18091219Y-6989427D01*
X18408900Y-7307663D01*
X18824183Y-7480103D01*
X19273844Y-7480496D01*
X19689427Y-7308781D01*
X20007663Y-6991100D01*
X20180103Y-6575817D01*
X20180104Y-6573844D01*
X20459504Y-6573844D01*
X20631219Y-6989427D01*
X20948900Y-7307663D01*
X21364183Y-7480103D01*
X21813844Y-7480496D01*
X22229427Y-7308781D01*
X22547663Y-6991100D01*
X22720103Y-6575817D01*
X22720496Y-6126156D01*
X22548781Y-5710573D01*
X22231100Y-5392337D01*
X21815817Y-5219897D01*
X21366156Y-5219504D01*
X20950573Y-5391219D01*
X20632337Y-5708900D01*
X20459897Y-6124183D01*
X20459504Y-6573844D01*
X20180104Y-6573844D01*
X20180496Y-6126156D01*
X20008781Y-5710573D01*
X19691100Y-5392337D01*
X19275817Y-5219897D01*
X18826156Y-5219504D01*
X18410573Y-5391219D01*
X18092337Y-5708900D01*
X17919897Y-6124183D01*
X17919504Y-6573844D01*
X17640104Y-6573844D01*
X17640496Y-6126156D01*
X17468781Y-5710573D01*
X17151100Y-5392337D01*
X16735817Y-5219897D01*
X16286156Y-5219504D01*
X15870573Y-5391219D01*
X15552337Y-5708900D01*
X15379897Y-6124183D01*
X15379504Y-6573844D01*
X15100104Y-6573844D01*
X15100496Y-6126156D01*
X14928781Y-5710573D01*
X14611100Y-5392337D01*
X14195817Y-5219897D01*
X13746156Y-5219504D01*
X13330573Y-5391219D01*
X13012337Y-5708900D01*
X12839897Y-6124183D01*
X12839504Y-6573844D01*
X12560104Y-6573844D01*
X12560496Y-6126156D01*
X12388781Y-5710573D01*
X12071100Y-5392337D01*
X11655817Y-5219897D01*
X11206156Y-5219504D01*
X10790573Y-5391219D01*
X10472337Y-5708900D01*
X10299897Y-6124183D01*
X10299504Y-6573844D01*
X10020104Y-6573844D01*
X10020496Y-6126156D01*
X9848781Y-5710573D01*
X9531100Y-5392337D01*
X9115817Y-5219897D01*
X8666156Y-5219504D01*
X8250573Y-5391219D01*
X7932337Y-5708900D01*
X7759897Y-6124183D01*
X7759504Y-6573844D01*
X7480104Y-6573844D01*
X7480496Y-6126156D01*
X7308781Y-5710573D01*
X6991100Y-5392337D01*
X6575817Y-5219897D01*
X6126156Y-5219504D01*
X5710573Y-5391219D01*
X5392337Y-5708900D01*
X5219897Y-6124183D01*
X5219504Y-6573844D01*
X4940104Y-6573844D01*
X4940496Y-6126156D01*
X4768781Y-5710573D01*
X4451100Y-5392337D01*
X4035817Y-5219897D01*
X3586156Y-5219504D01*
X3170573Y-5391219D01*
X2852337Y-5708900D01*
X2679897Y-6124183D01*
X2679504Y-6573844D01*
X2400104Y-6573844D01*
X2400496Y-6126156D01*
X2228781Y-5710573D01*
X1911100Y-5392337D01*
X1495817Y-5219897D01*
X1046156Y-5219504D01*
X630573Y-5391219D01*
X380200Y-5641155D01*
X380200Y-4518529D01*
X628900Y-4767663D01*
X1044183Y-4940103D01*
X1493844Y-4940496D01*
X1909427Y-4768781D01*
X2227663Y-4451100D01*
X2400103Y-4035817D01*
X2400104Y-4033844D01*
X2679504Y-4033844D01*
X2851219Y-4449427D01*
X3168900Y-4767663D01*
X3584183Y-4940103D01*
X4033844Y-4940496D01*
X4449427Y-4768781D01*
X4767663Y-4451100D01*
X4940103Y-4035817D01*
X4940104Y-4033844D01*
X5219504Y-4033844D01*
X5391219Y-4449427D01*
X5708900Y-4767663D01*
X6124183Y-4940103D01*
X6573844Y-4940496D01*
X6989427Y-4768781D01*
X7307663Y-4451100D01*
X7480103Y-4035817D01*
X7480104Y-4033844D01*
X7759504Y-4033844D01*
X7931219Y-4449427D01*
X8248900Y-4767663D01*
X8664183Y-4940103D01*
X9113844Y-4940496D01*
X9529427Y-4768781D01*
X9847663Y-4451100D01*
X10020103Y-4035817D01*
X10020104Y-4033844D01*
X10299504Y-4033844D01*
X10471219Y-4449427D01*
X10788900Y-4767663D01*
X11204183Y-4940103D01*
X11653844Y-4940496D01*
X12069427Y-4768781D01*
X12387663Y-4451100D01*
X12560103Y-4035817D01*
X12560104Y-4033844D01*
X12839504Y-4033844D01*
X13011219Y-4449427D01*
X13328900Y-4767663D01*
X13744183Y-4940103D01*
X14193844Y-4940496D01*
X14609427Y-4768781D01*
X14927663Y-4451100D01*
X15100103Y-4035817D01*
X15100104Y-4033844D01*
X15379504Y-4033844D01*
X15551219Y-4449427D01*
X15868900Y-4767663D01*
X16284183Y-4940103D01*
X16733844Y-4940496D01*
X17149427Y-4768781D01*
X17467663Y-4451100D01*
X17640103Y-4035817D01*
X17640104Y-4033844D01*
X17919504Y-4033844D01*
X18091219Y-4449427D01*
X18408900Y-4767663D01*
X18824183Y-4940103D01*
X19273844Y-4940496D01*
X19689427Y-4768781D01*
X20007663Y-4451100D01*
X20180103Y-4035817D01*
X20180104Y-4033844D01*
X20459504Y-4033844D01*
X20631219Y-4449427D01*
X20948900Y-4767663D01*
X21364183Y-4940103D01*
X21813844Y-4940496D01*
X22229427Y-4768781D01*
X22547663Y-4451100D01*
X22720103Y-4035817D01*
X22720496Y-3586156D01*
X22548781Y-3170573D01*
X22231100Y-2852337D01*
X21815817Y-2679897D01*
X21366156Y-2679504D01*
X20950573Y-2851219D01*
X20632337Y-3168900D01*
X20459897Y-3584183D01*
X20459504Y-4033844D01*
X20180104Y-4033844D01*
X20180496Y-3586156D01*
X20008781Y-3170573D01*
X19691100Y-2852337D01*
X19275817Y-2679897D01*
X18826156Y-2679504D01*
X18410573Y-2851219D01*
X18092337Y-3168900D01*
X17919897Y-3584183D01*
X17919504Y-4033844D01*
X17640104Y-4033844D01*
X17640496Y-3586156D01*
X17468781Y-3170573D01*
X17151100Y-2852337D01*
X16735817Y-2679897D01*
X16286156Y-2679504D01*
X15870573Y-2851219D01*
X15552337Y-3168900D01*
X15379897Y-3584183D01*
X15379504Y-4033844D01*
X15100104Y-4033844D01*
X15100496Y-3586156D01*
X14928781Y-3170573D01*
X14611100Y-2852337D01*
X14195817Y-2679897D01*
X13746156Y-2679504D01*
X13330573Y-2851219D01*
X13012337Y-3168900D01*
X12839897Y-3584183D01*
X12839504Y-4033844D01*
X12560104Y-4033844D01*
X12560496Y-3586156D01*
X12388781Y-3170573D01*
X12071100Y-2852337D01*
X11655817Y-2679897D01*
X11206156Y-2679504D01*
X10790573Y-2851219D01*
X10472337Y-3168900D01*
X10299897Y-3584183D01*
X10299504Y-4033844D01*
X10020104Y-4033844D01*
X10020496Y-3586156D01*
X9848781Y-3170573D01*
X9531100Y-2852337D01*
X9115817Y-2679897D01*
X8666156Y-2679504D01*
X8250573Y-2851219D01*
X7932337Y-3168900D01*
X7759897Y-3584183D01*
X7759504Y-4033844D01*
X7480104Y-4033844D01*
X7480496Y-3586156D01*
X7308781Y-3170573D01*
X6991100Y-2852337D01*
X6575817Y-2679897D01*
X6126156Y-2679504D01*
X5710573Y-2851219D01*
X5392337Y-3168900D01*
X5219897Y-3584183D01*
X5219504Y-4033844D01*
X4940104Y-4033844D01*
X4940496Y-3586156D01*
X4768781Y-3170573D01*
X4451100Y-2852337D01*
X4035817Y-2679897D01*
X3586156Y-2679504D01*
X3170573Y-2851219D01*
X2852337Y-3168900D01*
X2679897Y-3584183D01*
X2679504Y-4033844D01*
X2400104Y-4033844D01*
X2400496Y-3586156D01*
X2228781Y-3170573D01*
X1911100Y-2852337D01*
X1495817Y-2679897D01*
X1046156Y-2679504D01*
X630573Y-2851219D01*
X380200Y-3101155D01*
X380200Y-2390351D01*
X404219Y-2400300D01*
X1073150Y-2400300D01*
X1155700Y-2317750D01*
X1155700Y-1384300D01*
X1384300Y-1384300D01*
X1384300Y-2317750D01*
X1466850Y-2400300D01*
X2135781Y-2400300D01*
X2257143Y-2350030D01*
X2350030Y-2257143D01*
X2400300Y-2135781D01*
X2400300Y-1466850D01*
X2679700Y-1466850D01*
X2679700Y-2135781D01*
X2729970Y-2257143D01*
X2822857Y-2350030D01*
X2944219Y-2400300D01*
X3613150Y-2400300D01*
X3695700Y-2317750D01*
X3695700Y-1384300D01*
X3924300Y-1384300D01*
X3924300Y-2317750D01*
X4006850Y-2400300D01*
X4675781Y-2400300D01*
X4797143Y-2350030D01*
X4890030Y-2257143D01*
X4940300Y-2135781D01*
X4940300Y-1466850D01*
X5219700Y-1466850D01*
X5219700Y-2135781D01*
X5269970Y-2257143D01*
X5362857Y-2350030D01*
X5484219Y-2400300D01*
X6153150Y-2400300D01*
X6235700Y-2317750D01*
X6235700Y-1384300D01*
X6464300Y-1384300D01*
X6464300Y-2317750D01*
X6546850Y-2400300D01*
X7215781Y-2400300D01*
X7337143Y-2350030D01*
X7430030Y-2257143D01*
X7480300Y-2135781D01*
X7480300Y-1466850D01*
X7759700Y-1466850D01*
X7759700Y-2135781D01*
X7809970Y-2257143D01*
X7902857Y-2350030D01*
X8024219Y-2400300D01*
X8693150Y-2400300D01*
X8775700Y-2317750D01*
X8775700Y-1384300D01*
X9004300Y-1384300D01*
X9004300Y-2317750D01*
X9086850Y-2400300D01*
X9755781Y-2400300D01*
X9877143Y-2350030D01*
X9970030Y-2257143D01*
X10020300Y-2135781D01*
X10020300Y-1466850D01*
X10299700Y-1466850D01*
X10299700Y-2135781D01*
X10349970Y-2257143D01*
X10442857Y-2350030D01*
X10564219Y-2400300D01*
X11233150Y-2400300D01*
X11315700Y-2317750D01*
X11315700Y-1384300D01*
X11544300Y-1384300D01*
X11544300Y-2317750D01*
X11626850Y-2400300D01*
X12295781Y-2400300D01*
X12417143Y-2350030D01*
X12510030Y-2257143D01*
X12560300Y-2135781D01*
X12560300Y-1466850D01*
X12839700Y-1466850D01*
X12839700Y-2135781D01*
X12889970Y-2257143D01*
X12982857Y-2350030D01*
X13104219Y-2400300D01*
X13773150Y-2400300D01*
X13855700Y-2317750D01*
X13855700Y-1384300D01*
X14084300Y-1384300D01*
X14084300Y-2317750D01*
X14166850Y-2400300D01*
X14835781Y-2400300D01*
X14957143Y-2350030D01*
X15050030Y-2257143D01*
X15100300Y-2135781D01*
X15100300Y-1466850D01*
X15379700Y-1466850D01*
X15379700Y-2135781D01*
X15429970Y-2257143D01*
X15522857Y-2350030D01*
X15644219Y-2400300D01*
X16313150Y-2400300D01*
X16395700Y-2317750D01*
X16395700Y-1384300D01*
X16624300Y-1384300D01*
X16624300Y-2317750D01*
X16706850Y-2400300D01*
X17375781Y-2400300D01*
X17497143Y-2350030D01*
X17590030Y-2257143D01*
X17640300Y-2135781D01*
X17640300Y-1466850D01*
X17919700Y-1466850D01*
X17919700Y-2135781D01*
X17969970Y-2257143D01*
X18062857Y-2350030D01*
X18184219Y-2400300D01*
X18853150Y-2400300D01*
X18935700Y-2317750D01*
X18935700Y-1384300D01*
X19164300Y-1384300D01*
X19164300Y-2317750D01*
X19246850Y-2400300D01*
X19915781Y-2400300D01*
X20037143Y-2350030D01*
X20130030Y-2257143D01*
X20180300Y-2135781D01*
X20180300Y-1466850D01*
X20459700Y-1466850D01*
X20459700Y-2135781D01*
X20509970Y-2257143D01*
X20602857Y-2350030D01*
X20724219Y-2400300D01*
X21393150Y-2400300D01*
X21475700Y-2317750D01*
X21475700Y-1384300D01*
X21704300Y-1384300D01*
X21704300Y-2317750D01*
X21786850Y-2400300D01*
X22455781Y-2400300D01*
X22577143Y-2350030D01*
X22670030Y-2257143D01*
X22720300Y-2135781D01*
X22720300Y-1466850D01*
X22999700Y-1466850D01*
X22999700Y-2135781D01*
X23049970Y-2257143D01*
X23142857Y-2350030D01*
X23264219Y-2400300D01*
X23933150Y-2400300D01*
X24015700Y-2317750D01*
X24015700Y-1384300D01*
X23082250Y-1384300D01*
X22999700Y-1466850D01*
X22720300Y-1466850D01*
X22637750Y-1384300D01*
X21704300Y-1384300D01*
X21475700Y-1384300D01*
X20542250Y-1384300D01*
X20459700Y-1466850D01*
X20180300Y-1466850D01*
X20097750Y-1384300D01*
X19164300Y-1384300D01*
X18935700Y-1384300D01*
X18002250Y-1384300D01*
X17919700Y-1466850D01*
X17640300Y-1466850D01*
X17557750Y-1384300D01*
X16624300Y-1384300D01*
X16395700Y-1384300D01*
X15462250Y-1384300D01*
X15379700Y-1466850D01*
X15100300Y-1466850D01*
X15017750Y-1384300D01*
X14084300Y-1384300D01*
X13855700Y-1384300D01*
X12922250Y-1384300D01*
X12839700Y-1466850D01*
X12560300Y-1466850D01*
X12477750Y-1384300D01*
X11544300Y-1384300D01*
X11315700Y-1384300D01*
X10382250Y-1384300D01*
X10299700Y-1466850D01*
X10020300Y-1466850D01*
X9937750Y-1384300D01*
X9004300Y-1384300D01*
X8775700Y-1384300D01*
X7842250Y-1384300D01*
X7759700Y-1466850D01*
X7480300Y-1466850D01*
X7397750Y-1384300D01*
X6464300Y-1384300D01*
X6235700Y-1384300D01*
X5302250Y-1384300D01*
X5219700Y-1466850D01*
X4940300Y-1466850D01*
X4857750Y-1384300D01*
X3924300Y-1384300D01*
X3695700Y-1384300D01*
X2762250Y-1384300D01*
X2679700Y-1466850D01*
X2400300Y-1466850D01*
X2317750Y-1384300D01*
X1384300Y-1384300D01*
X1155700Y-1384300D01*
X1135700Y-1384300D01*
X1135700Y-1155700D01*
X1155700Y-1155700D01*
X1155700Y-1135700D01*
X1384300Y-1135700D01*
X1384300Y-1155700D01*
X2317750Y-1155700D01*
X2400300Y-1073150D01*
X2400300Y-404219D01*
X2390351Y-380200D01*
X2689649Y-380200D01*
X2679700Y-404219D01*
X2679700Y-404219D01*
G37*
X2679700Y-404219D02*
X2679700Y-1073150D01*
X2762250Y-1155700D01*
X3695700Y-1155700D01*
X3695700Y-1135700D01*
X3924300Y-1135700D01*
X3924300Y-1155700D01*
X4857750Y-1155700D01*
X4940300Y-1073150D01*
X4940300Y-404219D01*
X4930351Y-380200D01*
X5229649Y-380200D01*
X5219700Y-404219D01*
X5219700Y-1073150D01*
X5302250Y-1155700D01*
X6235700Y-1155700D01*
X6235700Y-1135700D01*
X6464300Y-1135700D01*
X6464300Y-1155700D01*
X7397750Y-1155700D01*
X7480300Y-1073150D01*
X7480300Y-404219D01*
X7470351Y-380200D01*
X7769649Y-380200D01*
X7759700Y-404219D01*
X7759700Y-1073150D01*
X7842250Y-1155700D01*
X8775700Y-1155700D01*
X8775700Y-1135700D01*
X9004300Y-1135700D01*
X9004300Y-1155700D01*
X9937750Y-1155700D01*
X10020300Y-1073150D01*
X10020300Y-404219D01*
X10010351Y-380200D01*
X10309649Y-380200D01*
X10299700Y-404219D01*
X10299700Y-1073150D01*
X10382250Y-1155700D01*
X11315700Y-1155700D01*
X11315700Y-1135700D01*
X11544300Y-1135700D01*
X11544300Y-1155700D01*
X12477750Y-1155700D01*
X12560300Y-1073150D01*
X12560300Y-404219D01*
X12550351Y-380200D01*
X12849649Y-380200D01*
X12839700Y-404219D01*
X12839700Y-1073150D01*
X12922250Y-1155700D01*
X13855700Y-1155700D01*
X13855700Y-1135700D01*
X14084300Y-1135700D01*
X14084300Y-1155700D01*
X15017750Y-1155700D01*
X15100300Y-1073150D01*
X15100300Y-404219D01*
X15090351Y-380200D01*
X15389649Y-380200D01*
X15379700Y-404219D01*
X15379700Y-1073150D01*
X15462250Y-1155700D01*
X16395700Y-1155700D01*
X16395700Y-1135700D01*
X16624300Y-1135700D01*
X16624300Y-1155700D01*
X17557750Y-1155700D01*
X17640300Y-1073150D01*
X17640300Y-404219D01*
X17630351Y-380200D01*
X17929649Y-380200D01*
X17919700Y-404219D01*
X17919700Y-1073150D01*
X18002250Y-1155700D01*
X18935700Y-1155700D01*
X18935700Y-1135700D01*
X19164300Y-1135700D01*
X19164300Y-1155700D01*
X20097750Y-1155700D01*
X20180300Y-1073150D01*
X20180300Y-404219D01*
X20170351Y-380200D01*
X20469649Y-380200D01*
X20459700Y-404219D01*
X20459700Y-1073150D01*
X20542250Y-1155700D01*
X21475700Y-1155700D01*
X21475700Y-1135700D01*
X21704300Y-1135700D01*
X21704300Y-1155700D01*
X22637750Y-1155700D01*
X22720300Y-1073150D01*
X22720300Y-404219D01*
X22710351Y-380200D01*
X23009649Y-380200D01*
X22999700Y-404219D01*
X22999700Y-1073150D01*
X23082250Y-1155700D01*
X24015700Y-1155700D01*
X24015700Y-1135700D01*
X24244300Y-1135700D01*
X24244300Y-1155700D01*
X24264300Y-1155700D01*
X24264300Y-1384300D01*
X24244300Y-1384300D01*
X24244300Y-2317750D01*
X24326850Y-2400300D01*
X24995781Y-2400300D01*
X25019800Y-2390351D01*
X25019800Y-3101471D01*
X24771100Y-2852337D01*
X24355817Y-2679897D01*
X23906156Y-2679504D01*
X23490573Y-2851219D01*
X23172337Y-3168900D01*
X22999897Y-3584183D01*
X22999504Y-4033844D01*
X23171219Y-4449427D01*
X23488900Y-4767663D01*
X23904183Y-4940103D01*
X24353844Y-4940496D01*
X24769427Y-4768781D01*
X25019800Y-4518845D01*
X25019800Y-5641471D01*
X24771100Y-5392337D01*
X24355817Y-5219897D01*
X23906156Y-5219504D01*
X23490573Y-5391219D01*
X23172337Y-5708900D01*
X22999897Y-6124183D01*
X22999504Y-6573844D01*
X23171219Y-6989427D01*
X23488900Y-7307663D01*
X23904183Y-7480103D01*
X24353844Y-7480496D01*
X24769427Y-7308781D01*
X25019800Y-7058845D01*
X25019800Y-8181471D01*
X24771100Y-7932337D01*
X24355817Y-7759897D01*
X23906156Y-7759504D01*
X23490573Y-7931219D01*
X23172337Y-8248900D01*
X22999897Y-8664183D01*
X22999504Y-9113844D01*
X23171219Y-9529427D01*
X23488900Y-9847663D01*
X23904183Y-10020103D01*
X24353844Y-10020496D01*
X24769427Y-9848781D01*
X25019800Y-9598845D01*
X25019800Y-10721471D01*
X24771100Y-10472337D01*
X24355817Y-10299897D01*
X23906156Y-10299504D01*
X23490573Y-10471219D01*
X23172337Y-10788900D01*
X22999897Y-11204183D01*
X22999504Y-11653844D01*
X23171219Y-12069427D01*
X23488900Y-12387663D01*
X23904183Y-12560103D01*
X24353844Y-12560496D01*
X24769427Y-12388781D01*
X25019800Y-12138845D01*
X25019800Y-13261471D01*
X24771100Y-13012337D01*
X24355817Y-12839897D01*
X23906156Y-12839504D01*
X23490573Y-13011219D01*
X23172337Y-13328900D01*
X22999897Y-13744183D01*
X22999504Y-14193844D01*
X23171219Y-14609427D01*
X23488900Y-14927663D01*
X23904183Y-15100103D01*
X24353844Y-15100496D01*
X24769427Y-14928781D01*
X25019800Y-14678845D01*
X25019800Y-15801471D01*
X24771100Y-15552337D01*
X24355817Y-15379897D01*
X23906156Y-15379504D01*
X23490573Y-15551219D01*
X23172337Y-15868900D01*
X22999897Y-16284183D01*
X22999504Y-16733844D01*
X23171219Y-17149427D01*
X23488900Y-17467663D01*
X23904183Y-17640103D01*
X24353844Y-17640496D01*
X24769427Y-17468781D01*
X25019800Y-17218845D01*
X25019800Y-25019800D01*
X22649025Y-25019800D01*
X22694774Y-24909624D01*
X22695025Y-24621639D01*
X22585050Y-24355479D01*
X22381592Y-24151665D01*
X22115624Y-24041226D01*
X21827639Y-24040975D01*
X21561479Y-24150950D01*
X21357665Y-24354408D01*
X21247226Y-24620376D01*
X21246975Y-24908361D01*
X21293021Y-25019800D01*
X20998025Y-25019800D01*
X21043774Y-24909624D01*
X21044025Y-24621639D01*
X20934050Y-24355479D01*
X20730592Y-24151665D01*
X20464624Y-24041226D01*
X20176639Y-24040975D01*
X19910479Y-24150950D01*
X19706665Y-24354408D01*
X19596226Y-24620376D01*
X19595975Y-24908361D01*
X19642021Y-25019800D01*
X19093025Y-25019800D01*
X19138774Y-24909624D01*
X19139025Y-24621639D01*
X19029050Y-24355479D01*
X18825592Y-24151665D01*
X18559624Y-24041226D01*
X18271639Y-24040975D01*
X18005479Y-24150950D01*
X17801665Y-24354408D01*
X17691226Y-24620376D01*
X17690975Y-24908361D01*
X17737021Y-25019800D01*
X6240424Y-25019800D01*
X6406798Y-24853716D01*
X6509487Y-24606413D01*
X6509721Y-24338637D01*
X6482750Y-24273361D01*
X11340975Y-24273361D01*
X11450950Y-24539521D01*
X11654408Y-24743335D01*
X11920376Y-24853774D01*
X12208361Y-24854025D01*
X12474521Y-24744050D01*
X12678335Y-24540592D01*
X12788774Y-24274624D01*
X12789025Y-23986639D01*
X12679050Y-23720479D01*
X12475592Y-23516665D01*
X12209624Y-23406226D01*
X11921639Y-23405975D01*
X11655479Y-23515950D01*
X11451665Y-23719408D01*
X11341226Y-23985376D01*
X11340975Y-24273361D01*
X6482750Y-24273361D01*
X6407463Y-24091155D01*
X6218282Y-23901644D01*
X5970979Y-23798955D01*
X5703203Y-23798721D01*
X5455721Y-23900979D01*
X5266210Y-24090160D01*
X5163521Y-24337463D01*
X5163287Y-24605239D01*
X5265545Y-24852721D01*
X5432333Y-25019800D01*
X380200Y-25019800D01*
X380200Y-21349633D01*
X2539306Y-21349633D01*
X2641564Y-21597115D01*
X2830745Y-21786626D01*
X3078048Y-21889315D01*
X3345824Y-21889549D01*
X3593306Y-21787291D01*
X3649392Y-21731302D01*
X16750499Y-21731302D01*
X16852757Y-21978784D01*
X17041938Y-22168295D01*
X17289241Y-22270984D01*
X17557017Y-22271218D01*
X17804499Y-22168960D01*
X17994010Y-21979779D01*
X18096699Y-21732476D01*
X18096933Y-21464700D01*
X17994675Y-21217218D01*
X17805494Y-21027707D01*
X17558191Y-20925018D01*
X17290415Y-20924784D01*
X17042933Y-21027042D01*
X16853422Y-21216223D01*
X16750733Y-21463526D01*
X16750499Y-21731302D01*
X3649392Y-21731302D01*
X3782817Y-21598110D01*
X3885506Y-21350807D01*
X3885740Y-21083031D01*
X3783482Y-20835549D01*
X3782237Y-20834301D01*
X4025783Y-20834301D01*
X4128041Y-21081783D01*
X4317222Y-21271294D01*
X4564525Y-21373983D01*
X4832301Y-21374217D01*
X5079783Y-21271959D01*
X5269294Y-21082778D01*
X5371983Y-20835475D01*
X5372217Y-20567699D01*
X5269959Y-20320217D01*
X5080778Y-20130706D01*
X4833475Y-20028017D01*
X4565699Y-20027783D01*
X4318217Y-20130041D01*
X4128706Y-20319222D01*
X4026017Y-20566525D01*
X4025783Y-20834301D01*
X3782237Y-20834301D01*
X3594301Y-20646038D01*
X3346998Y-20543349D01*
X3079222Y-20543115D01*
X2831740Y-20645373D01*
X2642229Y-20834554D01*
X2539540Y-21081857D01*
X2539306Y-21349633D01*
X380200Y-21349633D01*
X380200Y-19570708D01*
X2530915Y-19570708D01*
X2633173Y-19818190D01*
X2822354Y-20007701D01*
X3069657Y-20110390D01*
X3337433Y-20110624D01*
X3584915Y-20008366D01*
X3774426Y-19819185D01*
X3876085Y-19574361D01*
X15150975Y-19574361D01*
X15260950Y-19840521D01*
X15464408Y-20044335D01*
X15730376Y-20154774D01*
X16018361Y-20155025D01*
X16284521Y-20045050D01*
X16488335Y-19841592D01*
X16598774Y-19575624D01*
X16599025Y-19287639D01*
X16513934Y-19081701D01*
X16878183Y-19081701D01*
X16980441Y-19329183D01*
X17169622Y-19518694D01*
X17416925Y-19621383D01*
X17684701Y-19621617D01*
X17932183Y-19519359D01*
X18121694Y-19330178D01*
X18224383Y-19082875D01*
X18224617Y-18815099D01*
X18122359Y-18567617D01*
X17933178Y-18378106D01*
X17685875Y-18275417D01*
X17418099Y-18275183D01*
X17170617Y-18377441D01*
X16981106Y-18566622D01*
X16878417Y-18813925D01*
X16878183Y-19081701D01*
X16513934Y-19081701D01*
X16489050Y-19021479D01*
X16285592Y-18817665D01*
X16019624Y-18707226D01*
X15731639Y-18706975D01*
X15465479Y-18816950D01*
X15261665Y-19020408D01*
X15151226Y-19286376D01*
X15150975Y-19574361D01*
X3876085Y-19574361D01*
X3877115Y-19571882D01*
X3877349Y-19304106D01*
X3775091Y-19056624D01*
X3585910Y-18867113D01*
X3338607Y-18764424D01*
X3070831Y-18764190D01*
X2823349Y-18866448D01*
X2633838Y-19055629D01*
X2531149Y-19302932D01*
X2530915Y-19570708D01*
X380200Y-19570708D01*
X380200Y-17218529D01*
X628900Y-17467663D01*
X1044183Y-17640103D01*
X1493844Y-17640496D01*
X1909427Y-17468781D01*
X2227663Y-17151100D01*
X2400103Y-16735817D01*
X2400496Y-16286156D01*
X2289846Y-16018361D01*
X3085975Y-16018361D01*
X3195950Y-16284521D01*
X3399408Y-16488335D01*
X3665376Y-16598774D01*
X3953361Y-16599025D01*
X4219521Y-16489050D01*
X4423335Y-16285592D01*
X4495452Y-16111912D01*
X4584895Y-16111912D01*
X4687153Y-16359394D01*
X4876334Y-16548905D01*
X5123637Y-16651594D01*
X5391413Y-16651828D01*
X5638895Y-16549570D01*
X5828406Y-16360389D01*
X5931095Y-16113086D01*
X5931097Y-16109922D01*
X6285958Y-16109922D01*
X6388216Y-16357404D01*
X6577397Y-16546915D01*
X6824700Y-16649604D01*
X7092476Y-16649838D01*
X7339958Y-16547580D01*
X7529469Y-16358399D01*
X7581798Y-16232375D01*
X17320370Y-16232375D01*
X17430345Y-16498535D01*
X17633803Y-16702349D01*
X17899771Y-16812788D01*
X18187756Y-16813039D01*
X18453916Y-16703064D01*
X18657730Y-16499606D01*
X18768169Y-16233638D01*
X18768233Y-16160591D01*
X18860041Y-16382783D01*
X19049222Y-16572294D01*
X19296525Y-16674983D01*
X19564301Y-16675217D01*
X19811783Y-16572959D01*
X20001294Y-16383778D01*
X20103983Y-16136475D01*
X20104217Y-15868699D01*
X20001959Y-15621217D01*
X19812778Y-15431706D01*
X19565475Y-15329017D01*
X19297699Y-15328783D01*
X19050217Y-15431041D01*
X18860706Y-15620222D01*
X18758017Y-15867525D01*
X18757971Y-15920364D01*
X18658445Y-15679493D01*
X18454987Y-15475679D01*
X18189019Y-15365240D01*
X17901034Y-15364989D01*
X17634874Y-15474964D01*
X17431060Y-15678422D01*
X17320621Y-15944390D01*
X17320370Y-16232375D01*
X7581798Y-16232375D01*
X7632158Y-16111096D01*
X7632392Y-15843320D01*
X7530134Y-15595838D01*
X7340953Y-15406327D01*
X7093650Y-15303638D01*
X6825874Y-15303404D01*
X6578392Y-15405662D01*
X6388881Y-15594843D01*
X6286192Y-15842146D01*
X6285958Y-16109922D01*
X5931097Y-16109922D01*
X5931329Y-15845310D01*
X5829071Y-15597828D01*
X5639890Y-15408317D01*
X5392587Y-15305628D01*
X5124811Y-15305394D01*
X4877329Y-15407652D01*
X4687818Y-15596833D01*
X4585129Y-15844136D01*
X4584895Y-16111912D01*
X4495452Y-16111912D01*
X4533774Y-16019624D01*
X4534025Y-15731639D01*
X4424050Y-15465479D01*
X4220592Y-15261665D01*
X3954624Y-15151226D01*
X3666639Y-15150975D01*
X3400479Y-15260950D01*
X3196665Y-15464408D01*
X3086226Y-15730376D01*
X3085975Y-16018361D01*
X2289846Y-16018361D01*
X2228781Y-15870573D01*
X1983503Y-15624866D01*
X2151831Y-15694762D01*
X2419607Y-15694996D01*
X2667089Y-15592738D01*
X2856600Y-15403557D01*
X2959289Y-15156254D01*
X2959523Y-14888478D01*
X2857265Y-14640996D01*
X2668084Y-14451485D01*
X2420781Y-14348796D01*
X2336611Y-14348722D01*
X2400103Y-14195817D01*
X2400496Y-13746156D01*
X2228781Y-13330573D01*
X1911100Y-13012337D01*
X1495817Y-12839897D01*
X1046156Y-12839504D01*
X630573Y-13011219D01*
X380200Y-13261155D01*
X380200Y-12833301D01*
X1930283Y-12833301D01*
X2032541Y-13080783D01*
X2221722Y-13270294D01*
X2469025Y-13372983D01*
X2736801Y-13373217D01*
X2858186Y-13323062D01*
X2852337Y-13328900D01*
X2679897Y-13744183D01*
X2679504Y-14193844D01*
X2851219Y-14609427D01*
X3168900Y-14927663D01*
X3584183Y-15100103D01*
X4033844Y-15100496D01*
X4449427Y-14928781D01*
X4767663Y-14611100D01*
X4940103Y-14195817D01*
X4940104Y-14193844D01*
X5219504Y-14193844D01*
X5391219Y-14609427D01*
X5708900Y-14927663D01*
X6124183Y-15100103D01*
X6573844Y-15100496D01*
X6989427Y-14928781D01*
X7307663Y-14611100D01*
X7480103Y-14195817D01*
X7480104Y-14193844D01*
X7759504Y-14193844D01*
X7931219Y-14609427D01*
X8248900Y-14927663D01*
X8664183Y-15100103D01*
X9113844Y-15100496D01*
X9529427Y-14928781D01*
X9847663Y-14611100D01*
X10020103Y-14195817D01*
X10020104Y-14193844D01*
X10299504Y-14193844D01*
X10471219Y-14609427D01*
X10788900Y-14927663D01*
X11204183Y-15100103D01*
X11653844Y-15100496D01*
X12069427Y-14928781D01*
X12387663Y-14611100D01*
X12560103Y-14195817D01*
X12560104Y-14193844D01*
X12839504Y-14193844D01*
X13011219Y-14609427D01*
X13328900Y-14927663D01*
X13744183Y-15100103D01*
X14193844Y-15100496D01*
X14609427Y-14928781D01*
X14927663Y-14611100D01*
X15100103Y-14195817D01*
X15100104Y-14193844D01*
X15379504Y-14193844D01*
X15551219Y-14609427D01*
X15868900Y-14927663D01*
X16284183Y-15100103D01*
X16733844Y-15100496D01*
X17149427Y-14928781D01*
X17209754Y-14868559D01*
X17244538Y-14952743D01*
X17433719Y-15142254D01*
X17681022Y-15244943D01*
X17948798Y-15245177D01*
X18196280Y-15142919D01*
X18385791Y-14953738D01*
X18400226Y-14918974D01*
X18408900Y-14927663D01*
X18824183Y-15100103D01*
X19273844Y-15100496D01*
X19652995Y-14943834D01*
X19749041Y-15176283D01*
X19938222Y-15365794D01*
X20185525Y-15468483D01*
X20453301Y-15468717D01*
X20511298Y-15444753D01*
X20506990Y-15455128D01*
X20506756Y-15722904D01*
X20609014Y-15970386D01*
X20798195Y-16159897D01*
X21045498Y-16262586D01*
X21313274Y-16262820D01*
X21560756Y-16160562D01*
X21750267Y-15971381D01*
X21852956Y-15724078D01*
X21853190Y-15456302D01*
X21750932Y-15208820D01*
X21642647Y-15100346D01*
X21813844Y-15100496D01*
X22229427Y-14928781D01*
X22547663Y-14611100D01*
X22720103Y-14195817D01*
X22720496Y-13746156D01*
X22548781Y-13330573D01*
X22231100Y-13012337D01*
X21815817Y-12839897D01*
X21366156Y-12839504D01*
X20950573Y-13011219D01*
X20632337Y-13328900D01*
X20459897Y-13744183D01*
X20459564Y-14124630D01*
X20454475Y-14122517D01*
X20186699Y-14122283D01*
X20180165Y-14124983D01*
X20180496Y-13746156D01*
X20008781Y-13330573D01*
X19691100Y-13012337D01*
X19275817Y-12839897D01*
X18826156Y-12839504D01*
X18410573Y-13011219D01*
X18092337Y-13328900D01*
X17919897Y-13744183D01*
X17919762Y-13898951D01*
X17682196Y-13898743D01*
X17640348Y-13916035D01*
X17640496Y-13746156D01*
X17468781Y-13330573D01*
X17151100Y-13012337D01*
X16735817Y-12839897D01*
X16286156Y-12839504D01*
X15870573Y-13011219D01*
X15552337Y-13328900D01*
X15379897Y-13744183D01*
X15379504Y-14193844D01*
X15100104Y-14193844D01*
X15100496Y-13746156D01*
X14928781Y-13330573D01*
X14611100Y-13012337D01*
X14195817Y-12839897D01*
X13746156Y-12839504D01*
X13330573Y-13011219D01*
X13012337Y-13328900D01*
X12839897Y-13744183D01*
X12839504Y-14193844D01*
X12560104Y-14193844D01*
X12560496Y-13746156D01*
X12388781Y-13330573D01*
X12071100Y-13012337D01*
X11655817Y-12839897D01*
X11206156Y-12839504D01*
X10790573Y-13011219D01*
X10472337Y-13328900D01*
X10299897Y-13744183D01*
X10299504Y-14193844D01*
X10020104Y-14193844D01*
X10020496Y-13746156D01*
X9848781Y-13330573D01*
X9531100Y-13012337D01*
X9115817Y-12839897D01*
X8666156Y-12839504D01*
X8250573Y-13011219D01*
X7932337Y-13328900D01*
X7759897Y-13744183D01*
X7759504Y-14193844D01*
X7480104Y-14193844D01*
X7480496Y-13746156D01*
X7308781Y-13330573D01*
X6991100Y-13012337D01*
X6575817Y-12839897D01*
X6126156Y-12839504D01*
X5710573Y-13011219D01*
X5392337Y-13328900D01*
X5219897Y-13744183D01*
X5219504Y-14193844D01*
X4940104Y-14193844D01*
X4940496Y-13746156D01*
X4768781Y-13330573D01*
X4451100Y-13012337D01*
X4035817Y-12839897D01*
X3586156Y-12839504D01*
X3209828Y-12994999D01*
X3276483Y-12834475D01*
X3276717Y-12566699D01*
X3209749Y-12404625D01*
X3584183Y-12560103D01*
X4033844Y-12560496D01*
X4449427Y-12388781D01*
X4767663Y-12071100D01*
X4940103Y-11655817D01*
X4940104Y-11653844D01*
X5219504Y-11653844D01*
X5391219Y-12069427D01*
X5708900Y-12387663D01*
X6124183Y-12560103D01*
X6573844Y-12560496D01*
X6989427Y-12388781D01*
X7307663Y-12071100D01*
X7480103Y-11655817D01*
X7480104Y-11653844D01*
X7759504Y-11653844D01*
X7931219Y-12069427D01*
X8248900Y-12387663D01*
X8664183Y-12560103D01*
X9113844Y-12560496D01*
X9529427Y-12388781D01*
X9847663Y-12071100D01*
X10020103Y-11655817D01*
X10020104Y-11653844D01*
X10299504Y-11653844D01*
X10471219Y-12069427D01*
X10788900Y-12387663D01*
X11204183Y-12560103D01*
X11653844Y-12560496D01*
X12069427Y-12388781D01*
X12387663Y-12071100D01*
X12560103Y-11655817D01*
X12560104Y-11653844D01*
X12839504Y-11653844D01*
X13011219Y-12069427D01*
X13328900Y-12387663D01*
X13744183Y-12560103D01*
X14193844Y-12560496D01*
X14609427Y-12388781D01*
X14927663Y-12071100D01*
X15100103Y-11655817D01*
X15100104Y-11653844D01*
X15379504Y-11653844D01*
X15551219Y-12069427D01*
X15868900Y-12387663D01*
X16284183Y-12560103D01*
X16733844Y-12560496D01*
X17149427Y-12388781D01*
X17467663Y-12071100D01*
X17640103Y-11655817D01*
X17640104Y-11653844D01*
X17919504Y-11653844D01*
X18091219Y-12069427D01*
X18408900Y-12387663D01*
X18824183Y-12560103D01*
X19273844Y-12560496D01*
X19652995Y-12403834D01*
X19749041Y-12636283D01*
X19938222Y-12825794D01*
X20185525Y-12928483D01*
X20453301Y-12928717D01*
X20700783Y-12826459D01*
X20890294Y-12637278D01*
X20987319Y-12403616D01*
X21364183Y-12560103D01*
X21813844Y-12560496D01*
X22229427Y-12388781D01*
X22547663Y-12071100D01*
X22720103Y-11655817D01*
X22720496Y-11206156D01*
X22548781Y-10790573D01*
X22231100Y-10472337D01*
X21815817Y-10299897D01*
X21366156Y-10299504D01*
X20950573Y-10471219D01*
X20632337Y-10788900D01*
X20459897Y-11204183D01*
X20459564Y-11584630D01*
X20454475Y-11582517D01*
X20186699Y-11582283D01*
X20180165Y-11584983D01*
X20180496Y-11206156D01*
X20008781Y-10790573D01*
X19691100Y-10472337D01*
X19275817Y-10299897D01*
X18826156Y-10299504D01*
X18410573Y-10471219D01*
X18092337Y-10788900D01*
X17919897Y-11204183D01*
X17919504Y-11653844D01*
X17640104Y-11653844D01*
X17640496Y-11206156D01*
X17468781Y-10790573D01*
X17151100Y-10472337D01*
X16735817Y-10299897D01*
X16286156Y-10299504D01*
X15870573Y-10471219D01*
X15552337Y-10788900D01*
X15379897Y-11204183D01*
X15379504Y-11653844D01*
X15100104Y-11653844D01*
X15100496Y-11206156D01*
X14928781Y-10790573D01*
X14611100Y-10472337D01*
X14195817Y-10299897D01*
X13746156Y-10299504D01*
X13330573Y-10471219D01*
X13012337Y-10788900D01*
X12839897Y-11204183D01*
X12839504Y-11653844D01*
X12560104Y-11653844D01*
X12560496Y-11206156D01*
X12388781Y-10790573D01*
X12071100Y-10472337D01*
X11655817Y-10299897D01*
X11206156Y-10299504D01*
X10790573Y-10471219D01*
X10472337Y-10788900D01*
X10299897Y-11204183D01*
X10299504Y-11653844D01*
X10020104Y-11653844D01*
X10020496Y-11206156D01*
X9848781Y-10790573D01*
X9531100Y-10472337D01*
X9115817Y-10299897D01*
X8666156Y-10299504D01*
X8250573Y-10471219D01*
X7932337Y-10788900D01*
X7759897Y-11204183D01*
X7759504Y-11653844D01*
X7480104Y-11653844D01*
X7480496Y-11206156D01*
X7308781Y-10790573D01*
X6991100Y-10472337D01*
X6575817Y-10299897D01*
X6126156Y-10299504D01*
X5710573Y-10471219D01*
X5392337Y-10788900D01*
X5219897Y-11204183D01*
X5219504Y-11653844D01*
X4940104Y-11653844D01*
X4940496Y-11206156D01*
X4768781Y-10790573D01*
X4451100Y-10472337D01*
X4035817Y-10299897D01*
X3586156Y-10299504D01*
X3170573Y-10471219D01*
X2852337Y-10788900D01*
X2679897Y-11204183D01*
X2679504Y-11653844D01*
X2851219Y-12069427D01*
X2859084Y-12077306D01*
X2737975Y-12027017D01*
X2470199Y-12026783D01*
X2222717Y-12129041D01*
X2033206Y-12318222D01*
X1930517Y-12565525D01*
X1930283Y-12833301D01*
X380200Y-12833301D01*
X380200Y-12138529D01*
X628900Y-12387663D01*
X1044183Y-12560103D01*
X1493844Y-12560496D01*
X1909427Y-12388781D01*
X2227663Y-12071100D01*
X2400103Y-11655817D01*
X2400496Y-11206156D01*
X2228781Y-10790573D01*
X1911100Y-10472337D01*
X1495817Y-10299897D01*
X1046156Y-10299504D01*
X630573Y-10471219D01*
X380200Y-10721155D01*
X380200Y-9598529D01*
X628900Y-9847663D01*
X1044183Y-10020103D01*
X1493844Y-10020496D01*
X1909427Y-9848781D01*
X2227663Y-9531100D01*
X2400103Y-9115817D01*
X2400104Y-9113844D01*
X2679504Y-9113844D01*
X2851219Y-9529427D01*
X3168900Y-9847663D01*
X3584183Y-10020103D01*
X4033844Y-10020496D01*
X4449427Y-9848781D01*
X4767663Y-9531100D01*
X4940103Y-9115817D01*
X4940104Y-9113844D01*
X5219504Y-9113844D01*
X5391219Y-9529427D01*
X5708900Y-9847663D01*
X6124183Y-10020103D01*
X6573844Y-10020496D01*
X6989427Y-9848781D01*
X7307663Y-9531100D01*
X7480103Y-9115817D01*
X7480104Y-9113844D01*
X7759504Y-9113844D01*
X7931219Y-9529427D01*
X8248900Y-9847663D01*
X8664183Y-10020103D01*
X9113844Y-10020496D01*
X9529427Y-9848781D01*
X9847663Y-9531100D01*
X10020103Y-9115817D01*
X10020104Y-9113844D01*
X10299504Y-9113844D01*
X10471219Y-9529427D01*
X10788900Y-9847663D01*
X11204183Y-10020103D01*
X11653844Y-10020496D01*
X12069427Y-9848781D01*
X12387663Y-9531100D01*
X12560103Y-9115817D01*
X12560104Y-9113844D01*
X12839504Y-9113844D01*
X13011219Y-9529427D01*
X13328900Y-9847663D01*
X13744183Y-10020103D01*
X14193844Y-10020496D01*
X14609427Y-9848781D01*
X14927663Y-9531100D01*
X15100103Y-9115817D01*
X15100104Y-9113844D01*
X15379504Y-9113844D01*
X15551219Y-9529427D01*
X15868900Y-9847663D01*
X16284183Y-10020103D01*
X16733844Y-10020496D01*
X17149427Y-9848781D01*
X17467663Y-9531100D01*
X17640103Y-9115817D01*
X17640104Y-9113844D01*
X17919504Y-9113844D01*
X18091219Y-9529427D01*
X18408900Y-9847663D01*
X18824183Y-10020103D01*
X19273844Y-10020496D01*
X19689427Y-9848781D01*
X20007663Y-9531100D01*
X20180103Y-9115817D01*
X20180104Y-9113844D01*
X20459504Y-9113844D01*
X20631219Y-9529427D01*
X20948900Y-9847663D01*
X21364183Y-10020103D01*
X21813844Y-10020496D01*
X22229427Y-9848781D01*
X22547663Y-9531100D01*
X22720103Y-9115817D01*
X22720496Y-8666156D01*
X22548781Y-8250573D01*
X22231100Y-7932337D01*
X21815817Y-7759897D01*
X21366156Y-7759504D01*
X20950573Y-7931219D01*
X20632337Y-8248900D01*
X20459897Y-8664183D01*
X20459504Y-9113844D01*
X20180104Y-9113844D01*
X20180496Y-8666156D01*
X20008781Y-8250573D01*
X19691100Y-7932337D01*
X19275817Y-7759897D01*
X18826156Y-7759504D01*
X18410573Y-7931219D01*
X18092337Y-8248900D01*
X17919897Y-8664183D01*
X17919504Y-9113844D01*
X17640104Y-9113844D01*
X17640496Y-8666156D01*
X17468781Y-8250573D01*
X17151100Y-7932337D01*
X16735817Y-7759897D01*
X16286156Y-7759504D01*
X15870573Y-7931219D01*
X15552337Y-8248900D01*
X15379897Y-8664183D01*
X15379504Y-9113844D01*
X15100104Y-9113844D01*
X15100496Y-8666156D01*
X14928781Y-8250573D01*
X14611100Y-7932337D01*
X14195817Y-7759897D01*
X13746156Y-7759504D01*
X13330573Y-7931219D01*
X13012337Y-8248900D01*
X12839897Y-8664183D01*
X12839504Y-9113844D01*
X12560104Y-9113844D01*
X12560496Y-8666156D01*
X12388781Y-8250573D01*
X12071100Y-7932337D01*
X11655817Y-7759897D01*
X11206156Y-7759504D01*
X10790573Y-7931219D01*
X10472337Y-8248900D01*
X10299897Y-8664183D01*
X10299504Y-9113844D01*
X10020104Y-9113844D01*
X10020496Y-8666156D01*
X9848781Y-8250573D01*
X9531100Y-7932337D01*
X9115817Y-7759897D01*
X8666156Y-7759504D01*
X8250573Y-7931219D01*
X7932337Y-8248900D01*
X7759897Y-8664183D01*
X7759504Y-9113844D01*
X7480104Y-9113844D01*
X7480496Y-8666156D01*
X7308781Y-8250573D01*
X6991100Y-7932337D01*
X6575817Y-7759897D01*
X6126156Y-7759504D01*
X5710573Y-7931219D01*
X5392337Y-8248900D01*
X5219897Y-8664183D01*
X5219504Y-9113844D01*
X4940104Y-9113844D01*
X4940496Y-8666156D01*
X4768781Y-8250573D01*
X4451100Y-7932337D01*
X4035817Y-7759897D01*
X3586156Y-7759504D01*
X3170573Y-7931219D01*
X2852337Y-8248900D01*
X2679897Y-8664183D01*
X2679504Y-9113844D01*
X2400104Y-9113844D01*
X2400496Y-8666156D01*
X2228781Y-8250573D01*
X1911100Y-7932337D01*
X1495817Y-7759897D01*
X1046156Y-7759504D01*
X630573Y-7931219D01*
X380200Y-8181155D01*
X380200Y-7058529D01*
X628900Y-7307663D01*
X1044183Y-7480103D01*
X1493844Y-7480496D01*
X1909427Y-7308781D01*
X2227663Y-6991100D01*
X2400103Y-6575817D01*
X2400104Y-6573844D01*
X2679504Y-6573844D01*
X2851219Y-6989427D01*
X3168900Y-7307663D01*
X3584183Y-7480103D01*
X4033844Y-7480496D01*
X4449427Y-7308781D01*
X4767663Y-6991100D01*
X4940103Y-6575817D01*
X4940104Y-6573844D01*
X5219504Y-6573844D01*
X5391219Y-6989427D01*
X5708900Y-7307663D01*
X6124183Y-7480103D01*
X6573844Y-7480496D01*
X6989427Y-7308781D01*
X7307663Y-6991100D01*
X7480103Y-6575817D01*
X7480104Y-6573844D01*
X7759504Y-6573844D01*
X7931219Y-6989427D01*
X8248900Y-7307663D01*
X8664183Y-7480103D01*
X9113844Y-7480496D01*
X9529427Y-7308781D01*
X9847663Y-6991100D01*
X10020103Y-6575817D01*
X10020104Y-6573844D01*
X10299504Y-6573844D01*
X10471219Y-6989427D01*
X10788900Y-7307663D01*
X11204183Y-7480103D01*
X11653844Y-7480496D01*
X12069427Y-7308781D01*
X12387663Y-6991100D01*
X12560103Y-6575817D01*
X12560104Y-6573844D01*
X12839504Y-6573844D01*
X13011219Y-6989427D01*
X13328900Y-7307663D01*
X13744183Y-7480103D01*
X14193844Y-7480496D01*
X14609427Y-7308781D01*
X14927663Y-6991100D01*
X15100103Y-6575817D01*
X15100104Y-6573844D01*
X15379504Y-6573844D01*
X15551219Y-6989427D01*
X15868900Y-7307663D01*
X16284183Y-7480103D01*
X16733844Y-7480496D01*
X17149427Y-7308781D01*
X17467663Y-6991100D01*
X17640103Y-6575817D01*
X17640104Y-6573844D01*
X17919504Y-6573844D01*
X18091219Y-6989427D01*
X18408900Y-7307663D01*
X18824183Y-7480103D01*
X19273844Y-7480496D01*
X19689427Y-7308781D01*
X20007663Y-6991100D01*
X20180103Y-6575817D01*
X20180104Y-6573844D01*
X20459504Y-6573844D01*
X20631219Y-6989427D01*
X20948900Y-7307663D01*
X21364183Y-7480103D01*
X21813844Y-7480496D01*
X22229427Y-7308781D01*
X22547663Y-6991100D01*
X22720103Y-6575817D01*
X22720496Y-6126156D01*
X22548781Y-5710573D01*
X22231100Y-5392337D01*
X21815817Y-5219897D01*
X21366156Y-5219504D01*
X20950573Y-5391219D01*
X20632337Y-5708900D01*
X20459897Y-6124183D01*
X20459504Y-6573844D01*
X20180104Y-6573844D01*
X20180496Y-6126156D01*
X20008781Y-5710573D01*
X19691100Y-5392337D01*
X19275817Y-5219897D01*
X18826156Y-5219504D01*
X18410573Y-5391219D01*
X18092337Y-5708900D01*
X17919897Y-6124183D01*
X17919504Y-6573844D01*
X17640104Y-6573844D01*
X17640496Y-6126156D01*
X17468781Y-5710573D01*
X17151100Y-5392337D01*
X16735817Y-5219897D01*
X16286156Y-5219504D01*
X15870573Y-5391219D01*
X15552337Y-5708900D01*
X15379897Y-6124183D01*
X15379504Y-6573844D01*
X15100104Y-6573844D01*
X15100496Y-6126156D01*
X14928781Y-5710573D01*
X14611100Y-5392337D01*
X14195817Y-5219897D01*
X13746156Y-5219504D01*
X13330573Y-5391219D01*
X13012337Y-5708900D01*
X12839897Y-6124183D01*
X12839504Y-6573844D01*
X12560104Y-6573844D01*
X12560496Y-6126156D01*
X12388781Y-5710573D01*
X12071100Y-5392337D01*
X11655817Y-5219897D01*
X11206156Y-5219504D01*
X10790573Y-5391219D01*
X10472337Y-5708900D01*
X10299897Y-6124183D01*
X10299504Y-6573844D01*
X10020104Y-6573844D01*
X10020496Y-6126156D01*
X9848781Y-5710573D01*
X9531100Y-5392337D01*
X9115817Y-5219897D01*
X8666156Y-5219504D01*
X8250573Y-5391219D01*
X7932337Y-5708900D01*
X7759897Y-6124183D01*
X7759504Y-6573844D01*
X7480104Y-6573844D01*
X7480496Y-6126156D01*
X7308781Y-5710573D01*
X6991100Y-5392337D01*
X6575817Y-5219897D01*
X6126156Y-5219504D01*
X5710573Y-5391219D01*
X5392337Y-5708900D01*
X5219897Y-6124183D01*
X5219504Y-6573844D01*
X4940104Y-6573844D01*
X4940496Y-6126156D01*
X4768781Y-5710573D01*
X4451100Y-5392337D01*
X4035817Y-5219897D01*
X3586156Y-5219504D01*
X3170573Y-5391219D01*
X2852337Y-5708900D01*
X2679897Y-6124183D01*
X2679504Y-6573844D01*
X2400104Y-6573844D01*
X2400496Y-6126156D01*
X2228781Y-5710573D01*
X1911100Y-5392337D01*
X1495817Y-5219897D01*
X1046156Y-5219504D01*
X630573Y-5391219D01*
X380200Y-5641155D01*
X380200Y-4518529D01*
X628900Y-4767663D01*
X1044183Y-4940103D01*
X1493844Y-4940496D01*
X1909427Y-4768781D01*
X2227663Y-4451100D01*
X2400103Y-4035817D01*
X2400104Y-4033844D01*
X2679504Y-4033844D01*
X2851219Y-4449427D01*
X3168900Y-4767663D01*
X3584183Y-4940103D01*
X4033844Y-4940496D01*
X4449427Y-4768781D01*
X4767663Y-4451100D01*
X4940103Y-4035817D01*
X4940104Y-4033844D01*
X5219504Y-4033844D01*
X5391219Y-4449427D01*
X5708900Y-4767663D01*
X6124183Y-4940103D01*
X6573844Y-4940496D01*
X6989427Y-4768781D01*
X7307663Y-4451100D01*
X7480103Y-4035817D01*
X7480104Y-4033844D01*
X7759504Y-4033844D01*
X7931219Y-4449427D01*
X8248900Y-4767663D01*
X8664183Y-4940103D01*
X9113844Y-4940496D01*
X9529427Y-4768781D01*
X9847663Y-4451100D01*
X10020103Y-4035817D01*
X10020104Y-4033844D01*
X10299504Y-4033844D01*
X10471219Y-4449427D01*
X10788900Y-4767663D01*
X11204183Y-4940103D01*
X11653844Y-4940496D01*
X12069427Y-4768781D01*
X12387663Y-4451100D01*
X12560103Y-4035817D01*
X12560104Y-4033844D01*
X12839504Y-4033844D01*
X13011219Y-4449427D01*
X13328900Y-4767663D01*
X13744183Y-4940103D01*
X14193844Y-4940496D01*
X14609427Y-4768781D01*
X14927663Y-4451100D01*
X15100103Y-4035817D01*
X15100104Y-4033844D01*
X15379504Y-4033844D01*
X15551219Y-4449427D01*
X15868900Y-4767663D01*
X16284183Y-4940103D01*
X16733844Y-4940496D01*
X17149427Y-4768781D01*
X17467663Y-4451100D01*
X17640103Y-4035817D01*
X17640104Y-4033844D01*
X17919504Y-4033844D01*
X18091219Y-4449427D01*
X18408900Y-4767663D01*
X18824183Y-4940103D01*
X19273844Y-4940496D01*
X19689427Y-4768781D01*
X20007663Y-4451100D01*
X20180103Y-4035817D01*
X20180104Y-4033844D01*
X20459504Y-4033844D01*
X20631219Y-4449427D01*
X20948900Y-4767663D01*
X21364183Y-4940103D01*
X21813844Y-4940496D01*
X22229427Y-4768781D01*
X22547663Y-4451100D01*
X22720103Y-4035817D01*
X22720496Y-3586156D01*
X22548781Y-3170573D01*
X22231100Y-2852337D01*
X21815817Y-2679897D01*
X21366156Y-2679504D01*
X20950573Y-2851219D01*
X20632337Y-3168900D01*
X20459897Y-3584183D01*
X20459504Y-4033844D01*
X20180104Y-4033844D01*
X20180496Y-3586156D01*
X20008781Y-3170573D01*
X19691100Y-2852337D01*
X19275817Y-2679897D01*
X18826156Y-2679504D01*
X18410573Y-2851219D01*
X18092337Y-3168900D01*
X17919897Y-3584183D01*
X17919504Y-4033844D01*
X17640104Y-4033844D01*
X17640496Y-3586156D01*
X17468781Y-3170573D01*
X17151100Y-2852337D01*
X16735817Y-2679897D01*
X16286156Y-2679504D01*
X15870573Y-2851219D01*
X15552337Y-3168900D01*
X15379897Y-3584183D01*
X15379504Y-4033844D01*
X15100104Y-4033844D01*
X15100496Y-3586156D01*
X14928781Y-3170573D01*
X14611100Y-2852337D01*
X14195817Y-2679897D01*
X13746156Y-2679504D01*
X13330573Y-2851219D01*
X13012337Y-3168900D01*
X12839897Y-3584183D01*
X12839504Y-4033844D01*
X12560104Y-4033844D01*
X12560496Y-3586156D01*
X12388781Y-3170573D01*
X12071100Y-2852337D01*
X11655817Y-2679897D01*
X11206156Y-2679504D01*
X10790573Y-2851219D01*
X10472337Y-3168900D01*
X10299897Y-3584183D01*
X10299504Y-4033844D01*
X10020104Y-4033844D01*
X10020496Y-3586156D01*
X9848781Y-3170573D01*
X9531100Y-2852337D01*
X9115817Y-2679897D01*
X8666156Y-2679504D01*
X8250573Y-2851219D01*
X7932337Y-3168900D01*
X7759897Y-3584183D01*
X7759504Y-4033844D01*
X7480104Y-4033844D01*
X7480496Y-3586156D01*
X7308781Y-3170573D01*
X6991100Y-2852337D01*
X6575817Y-2679897D01*
X6126156Y-2679504D01*
X5710573Y-2851219D01*
X5392337Y-3168900D01*
X5219897Y-3584183D01*
X5219504Y-4033844D01*
X4940104Y-4033844D01*
X4940496Y-3586156D01*
X4768781Y-3170573D01*
X4451100Y-2852337D01*
X4035817Y-2679897D01*
X3586156Y-2679504D01*
X3170573Y-2851219D01*
X2852337Y-3168900D01*
X2679897Y-3584183D01*
X2679504Y-4033844D01*
X2400104Y-4033844D01*
X2400496Y-3586156D01*
X2228781Y-3170573D01*
X1911100Y-2852337D01*
X1495817Y-2679897D01*
X1046156Y-2679504D01*
X630573Y-2851219D01*
X380200Y-3101155D01*
X380200Y-2390351D01*
X404219Y-2400300D01*
X1073150Y-2400300D01*
X1155700Y-2317750D01*
X1155700Y-1384300D01*
X1384300Y-1384300D01*
X1384300Y-2317750D01*
X1466850Y-2400300D01*
X2135781Y-2400300D01*
X2257143Y-2350030D01*
X2350030Y-2257143D01*
X2400300Y-2135781D01*
X2400300Y-1466850D01*
X2679700Y-1466850D01*
X2679700Y-2135781D01*
X2729970Y-2257143D01*
X2822857Y-2350030D01*
X2944219Y-2400300D01*
X3613150Y-2400300D01*
X3695700Y-2317750D01*
X3695700Y-1384300D01*
X3924300Y-1384300D01*
X3924300Y-2317750D01*
X4006850Y-2400300D01*
X4675781Y-2400300D01*
X4797143Y-2350030D01*
X4890030Y-2257143D01*
X4940300Y-2135781D01*
X4940300Y-1466850D01*
X5219700Y-1466850D01*
X5219700Y-2135781D01*
X5269970Y-2257143D01*
X5362857Y-2350030D01*
X5484219Y-2400300D01*
X6153150Y-2400300D01*
X6235700Y-2317750D01*
X6235700Y-1384300D01*
X6464300Y-1384300D01*
X6464300Y-2317750D01*
X6546850Y-2400300D01*
X7215781Y-2400300D01*
X7337143Y-2350030D01*
X7430030Y-2257143D01*
X7480300Y-2135781D01*
X7480300Y-1466850D01*
X7759700Y-1466850D01*
X7759700Y-2135781D01*
X7809970Y-2257143D01*
X7902857Y-2350030D01*
X8024219Y-2400300D01*
X8693150Y-2400300D01*
X8775700Y-2317750D01*
X8775700Y-1384300D01*
X9004300Y-1384300D01*
X9004300Y-2317750D01*
X9086850Y-2400300D01*
X9755781Y-2400300D01*
X9877143Y-2350030D01*
X9970030Y-2257143D01*
X10020300Y-2135781D01*
X10020300Y-1466850D01*
X10299700Y-1466850D01*
X10299700Y-2135781D01*
X10349970Y-2257143D01*
X10442857Y-2350030D01*
X10564219Y-2400300D01*
X11233150Y-2400300D01*
X11315700Y-2317750D01*
X11315700Y-1384300D01*
X11544300Y-1384300D01*
X11544300Y-2317750D01*
X11626850Y-2400300D01*
X12295781Y-2400300D01*
X12417143Y-2350030D01*
X12510030Y-2257143D01*
X12560300Y-2135781D01*
X12560300Y-1466850D01*
X12839700Y-1466850D01*
X12839700Y-2135781D01*
X12889970Y-2257143D01*
X12982857Y-2350030D01*
X13104219Y-2400300D01*
X13773150Y-2400300D01*
X13855700Y-2317750D01*
X13855700Y-1384300D01*
X14084300Y-1384300D01*
X14084300Y-2317750D01*
X14166850Y-2400300D01*
X14835781Y-2400300D01*
X14957143Y-2350030D01*
X15050030Y-2257143D01*
X15100300Y-2135781D01*
X15100300Y-1466850D01*
X15379700Y-1466850D01*
X15379700Y-2135781D01*
X15429970Y-2257143D01*
X15522857Y-2350030D01*
X15644219Y-2400300D01*
X16313150Y-2400300D01*
X16395700Y-2317750D01*
X16395700Y-1384300D01*
X16624300Y-1384300D01*
X16624300Y-2317750D01*
X16706850Y-2400300D01*
X17375781Y-2400300D01*
X17497143Y-2350030D01*
X17590030Y-2257143D01*
X17640300Y-2135781D01*
X17640300Y-1466850D01*
X17919700Y-1466850D01*
X17919700Y-2135781D01*
X17969970Y-2257143D01*
X18062857Y-2350030D01*
X18184219Y-2400300D01*
X18853150Y-2400300D01*
X18935700Y-2317750D01*
X18935700Y-1384300D01*
X19164300Y-1384300D01*
X19164300Y-2317750D01*
X19246850Y-2400300D01*
X19915781Y-2400300D01*
X20037143Y-2350030D01*
X20130030Y-2257143D01*
X20180300Y-2135781D01*
X20180300Y-1466850D01*
X20459700Y-1466850D01*
X20459700Y-2135781D01*
X20509970Y-2257143D01*
X20602857Y-2350030D01*
X20724219Y-2400300D01*
X21393150Y-2400300D01*
X21475700Y-2317750D01*
X21475700Y-1384300D01*
X21704300Y-1384300D01*
X21704300Y-2317750D01*
X21786850Y-2400300D01*
X22455781Y-2400300D01*
X22577143Y-2350030D01*
X22670030Y-2257143D01*
X22720300Y-2135781D01*
X22720300Y-1466850D01*
X22999700Y-1466850D01*
X22999700Y-2135781D01*
X23049970Y-2257143D01*
X23142857Y-2350030D01*
X23264219Y-2400300D01*
X23933150Y-2400300D01*
X24015700Y-2317750D01*
X24015700Y-1384300D01*
X23082250Y-1384300D01*
X22999700Y-1466850D01*
X22720300Y-1466850D01*
X22637750Y-1384300D01*
X21704300Y-1384300D01*
X21475700Y-1384300D01*
X20542250Y-1384300D01*
X20459700Y-1466850D01*
X20180300Y-1466850D01*
X20097750Y-1384300D01*
X19164300Y-1384300D01*
X18935700Y-1384300D01*
X18002250Y-1384300D01*
X17919700Y-1466850D01*
X17640300Y-1466850D01*
X17557750Y-1384300D01*
X16624300Y-1384300D01*
X16395700Y-1384300D01*
X15462250Y-1384300D01*
X15379700Y-1466850D01*
X15100300Y-1466850D01*
X15017750Y-1384300D01*
X14084300Y-1384300D01*
X13855700Y-1384300D01*
X12922250Y-1384300D01*
X12839700Y-1466850D01*
X12560300Y-1466850D01*
X12477750Y-1384300D01*
X11544300Y-1384300D01*
X11315700Y-1384300D01*
X10382250Y-1384300D01*
X10299700Y-1466850D01*
X10020300Y-1466850D01*
X9937750Y-1384300D01*
X9004300Y-1384300D01*
X8775700Y-1384300D01*
X7842250Y-1384300D01*
X7759700Y-1466850D01*
X7480300Y-1466850D01*
X7397750Y-1384300D01*
X6464300Y-1384300D01*
X6235700Y-1384300D01*
X5302250Y-1384300D01*
X5219700Y-1466850D01*
X4940300Y-1466850D01*
X4857750Y-1384300D01*
X3924300Y-1384300D01*
X3695700Y-1384300D01*
X2762250Y-1384300D01*
X2679700Y-1466850D01*
X2400300Y-1466850D01*
X2317750Y-1384300D01*
X1384300Y-1384300D01*
X1155700Y-1384300D01*
X1135700Y-1384300D01*
X1135700Y-1155700D01*
X1155700Y-1155700D01*
X1155700Y-1135700D01*
X1384300Y-1135700D01*
X1384300Y-1155700D01*
X2317750Y-1155700D01*
X2400300Y-1073150D01*
X2400300Y-404219D01*
X2390351Y-380200D01*
X2689649Y-380200D01*
X2679700Y-404219D01*
M02*
