G04 #@! TF.FileFunction,Copper,L2,Inr,Signal*
%FSLAX46Y46*%
G04 Gerber Fmt 4.6, Leading zero omitted, Abs format (unit mm)*
G04 Created by KiCad (PCBNEW 4.0.1-stable) date 2016-02-27 01:30:11*
%MOMM*%
G01*
G04 APERTURE LIST*
%ADD10C,0.050800*%
%ADD11C,1.600200*%
%ADD12R,1.600200X1.600200*%
%ADD13C,0.787400*%
%ADD14C,0.685800*%
%ADD15C,0.152400*%
G04 APERTURE END LIST*
D10*
D11*
X1270000Y-16510000D03*
D12*
X1270000Y-1270000D03*
D11*
X1270000Y-3810000D03*
X1270000Y-6350000D03*
X1270000Y-8890000D03*
X1270000Y-11430000D03*
X1270000Y-13970000D03*
X24130000Y-16510000D03*
D12*
X24130000Y-1270000D03*
D11*
X24130000Y-3810000D03*
X24130000Y-6350000D03*
X24130000Y-8890000D03*
X24130000Y-11430000D03*
X24130000Y-13970000D03*
D12*
X3810000Y-1270000D03*
D11*
X3810000Y-3810000D03*
X3810000Y-6350000D03*
X3810000Y-8890000D03*
X3810000Y-11430000D03*
X3810000Y-13970000D03*
D12*
X6350000Y-1270000D03*
D11*
X6350000Y-3810000D03*
X6350000Y-6350000D03*
X6350000Y-8890000D03*
X6350000Y-11430000D03*
X6350000Y-13970000D03*
D12*
X8890000Y-1270000D03*
D11*
X8890000Y-3810000D03*
X8890000Y-6350000D03*
X8890000Y-8890000D03*
X8890000Y-11430000D03*
X8890000Y-13970000D03*
D12*
X11430000Y-1270000D03*
D11*
X11430000Y-3810000D03*
X11430000Y-6350000D03*
X11430000Y-8890000D03*
X11430000Y-11430000D03*
X11430000Y-13970000D03*
D12*
X13970000Y-1270000D03*
D11*
X13970000Y-3810000D03*
X13970000Y-6350000D03*
X13970000Y-8890000D03*
X13970000Y-11430000D03*
X13970000Y-13970000D03*
D12*
X16510000Y-1270000D03*
D11*
X16510000Y-3810000D03*
X16510000Y-6350000D03*
X16510000Y-8890000D03*
X16510000Y-11430000D03*
X16510000Y-13970000D03*
D12*
X19050000Y-1270000D03*
D11*
X19050000Y-3810000D03*
X19050000Y-6350000D03*
X19050000Y-8890000D03*
X19050000Y-11430000D03*
X19050000Y-13970000D03*
D12*
X21590000Y-1270000D03*
D11*
X21590000Y-3810000D03*
X21590000Y-6350000D03*
X21590000Y-8890000D03*
X21590000Y-11430000D03*
X21590000Y-13970000D03*
D13*
X4064000Y-21844000D03*
X16764000Y-17068800D03*
X8636000Y-23876000D03*
X12573000Y-17145000D03*
X11430000Y-22225000D03*
X18044395Y-16089014D03*
X21971000Y-24765000D03*
X20320000Y-24765000D03*
X18415000Y-24765000D03*
X15875000Y-19431000D03*
X3810000Y-15875000D03*
X12065000Y-24130000D03*
D14*
X2286306Y-15021779D03*
X3204132Y-19437407D03*
X17815497Y-14571960D03*
X19431000Y-16002000D03*
X4699000Y-20701000D03*
X2603500Y-12700000D03*
X6959175Y-15976621D03*
X5258112Y-15978611D03*
X17423716Y-21598001D03*
X5836504Y-24471938D03*
X3212523Y-21216332D03*
X17551400Y-18948400D03*
X20320000Y-14795500D03*
X21179973Y-15589603D03*
X20320000Y-12255500D03*
D15*
G36*
X2673231Y-469900D02*
X2673231Y-2070100D01*
X2696256Y-2192465D01*
X2768573Y-2304849D01*
X2878917Y-2380244D01*
X3009900Y-2406769D01*
X4610100Y-2406769D01*
X4732465Y-2383744D01*
X4844849Y-2311427D01*
X4920244Y-2201083D01*
X4946769Y-2070100D01*
X4946769Y-469900D01*
X4929890Y-380200D01*
X5231396Y-380200D01*
X5213231Y-469900D01*
X5213231Y-2070100D01*
X5236256Y-2192465D01*
X5308573Y-2304849D01*
X5418917Y-2380244D01*
X5549900Y-2406769D01*
X7150100Y-2406769D01*
X7272465Y-2383744D01*
X7384849Y-2311427D01*
X7460244Y-2201083D01*
X7486769Y-2070100D01*
X7486769Y-469900D01*
X7469890Y-380200D01*
X7771396Y-380200D01*
X7753231Y-469900D01*
X7753231Y-2070100D01*
X7776256Y-2192465D01*
X7848573Y-2304849D01*
X7958917Y-2380244D01*
X8089900Y-2406769D01*
X9690100Y-2406769D01*
X9812465Y-2383744D01*
X9924849Y-2311427D01*
X10000244Y-2201083D01*
X10026769Y-2070100D01*
X10026769Y-469900D01*
X10009890Y-380200D01*
X10311396Y-380200D01*
X10293231Y-469900D01*
X10293231Y-2070100D01*
X10316256Y-2192465D01*
X10388573Y-2304849D01*
X10498917Y-2380244D01*
X10629900Y-2406769D01*
X12230100Y-2406769D01*
X12352465Y-2383744D01*
X12464849Y-2311427D01*
X12540244Y-2201083D01*
X12566769Y-2070100D01*
X12566769Y-469900D01*
X12549890Y-380200D01*
X12851396Y-380200D01*
X12833231Y-469900D01*
X12833231Y-2070100D01*
X12856256Y-2192465D01*
X12928573Y-2304849D01*
X13038917Y-2380244D01*
X13169900Y-2406769D01*
X14770100Y-2406769D01*
X14892465Y-2383744D01*
X15004849Y-2311427D01*
X15080244Y-2201083D01*
X15106769Y-2070100D01*
X15106769Y-469900D01*
X15089890Y-380200D01*
X15391396Y-380200D01*
X15373231Y-469900D01*
X15373231Y-2070100D01*
X15396256Y-2192465D01*
X15468573Y-2304849D01*
X15578917Y-2380244D01*
X15709900Y-2406769D01*
X17310100Y-2406769D01*
X17432465Y-2383744D01*
X17544849Y-2311427D01*
X17620244Y-2201083D01*
X17646769Y-2070100D01*
X17646769Y-469900D01*
X17629890Y-380200D01*
X17931396Y-380200D01*
X17913231Y-469900D01*
X17913231Y-2070100D01*
X17936256Y-2192465D01*
X18008573Y-2304849D01*
X18118917Y-2380244D01*
X18249900Y-2406769D01*
X19850100Y-2406769D01*
X19972465Y-2383744D01*
X20084849Y-2311427D01*
X20160244Y-2201083D01*
X20186769Y-2070100D01*
X20186769Y-469900D01*
X20169890Y-380200D01*
X20471396Y-380200D01*
X20453231Y-469900D01*
X20453231Y-2070100D01*
X20476256Y-2192465D01*
X20548573Y-2304849D01*
X20658917Y-2380244D01*
X20789900Y-2406769D01*
X22390100Y-2406769D01*
X22512465Y-2383744D01*
X22624849Y-2311427D01*
X22700244Y-2201083D01*
X22726769Y-2070100D01*
X22726769Y-469900D01*
X22709890Y-380200D01*
X23011396Y-380200D01*
X22993231Y-469900D01*
X22993231Y-2070100D01*
X23016256Y-2192465D01*
X23088573Y-2304849D01*
X23198917Y-2380244D01*
X23329900Y-2406769D01*
X24930100Y-2406769D01*
X25019800Y-2389890D01*
X25019800Y-3170113D01*
X24963022Y-3138623D01*
X24291645Y-3810000D01*
X24963022Y-4481377D01*
X25019800Y-4449887D01*
X25019800Y-5641471D01*
X24771100Y-5392337D01*
X24355817Y-5219897D01*
X23906156Y-5219504D01*
X23490573Y-5391219D01*
X23172337Y-5708900D01*
X22999897Y-6124183D01*
X22999504Y-6573844D01*
X23171219Y-6989427D01*
X23488900Y-7307663D01*
X23904183Y-7480103D01*
X24353844Y-7480496D01*
X24769427Y-7308781D01*
X25019800Y-7058845D01*
X25019800Y-8181471D01*
X24771100Y-7932337D01*
X24355817Y-7759897D01*
X23906156Y-7759504D01*
X23490573Y-7931219D01*
X23172337Y-8248900D01*
X22999897Y-8664183D01*
X22999504Y-9113844D01*
X23171219Y-9529427D01*
X23488900Y-9847663D01*
X23904183Y-10020103D01*
X24353844Y-10020496D01*
X24769427Y-9848781D01*
X25019800Y-9598845D01*
X25019800Y-10721471D01*
X24771100Y-10472337D01*
X24355817Y-10299897D01*
X23906156Y-10299504D01*
X23490573Y-10471219D01*
X23172337Y-10788900D01*
X22999897Y-11204183D01*
X22999504Y-11653844D01*
X23171219Y-12069427D01*
X23488900Y-12387663D01*
X23904183Y-12560103D01*
X24353844Y-12560496D01*
X24769427Y-12388781D01*
X25019800Y-12138845D01*
X25019800Y-13261471D01*
X24771100Y-13012337D01*
X24355817Y-12839897D01*
X23906156Y-12839504D01*
X23490573Y-13011219D01*
X23172337Y-13328900D01*
X22999897Y-13744183D01*
X22999504Y-14193844D01*
X23171219Y-14609427D01*
X23488900Y-14927663D01*
X23904183Y-15100103D01*
X24353844Y-15100496D01*
X24769427Y-14928781D01*
X25019800Y-14678845D01*
X25019800Y-15801471D01*
X24771100Y-15552337D01*
X24355817Y-15379897D01*
X23906156Y-15379504D01*
X23490573Y-15551219D01*
X23172337Y-15868900D01*
X22999897Y-16284183D01*
X22999504Y-16733844D01*
X23171219Y-17149427D01*
X23488900Y-17467663D01*
X23904183Y-17640103D01*
X24353844Y-17640496D01*
X24769427Y-17468781D01*
X25019800Y-17218845D01*
X25019800Y-25019800D01*
X6240424Y-25019800D01*
X6406798Y-24853716D01*
X6509487Y-24606413D01*
X6509721Y-24338637D01*
X6407463Y-24091155D01*
X6335795Y-24019361D01*
X7911975Y-24019361D01*
X8021950Y-24285521D01*
X8225408Y-24489335D01*
X8491376Y-24599774D01*
X8779361Y-24600025D01*
X9045521Y-24490050D01*
X9249335Y-24286592D01*
X9359774Y-24020624D01*
X9360025Y-23732639D01*
X9250050Y-23466479D01*
X9046592Y-23262665D01*
X8780624Y-23152226D01*
X8492639Y-23151975D01*
X8226479Y-23261950D01*
X8022665Y-23465408D01*
X7912226Y-23731376D01*
X7911975Y-24019361D01*
X6335795Y-24019361D01*
X6218282Y-23901644D01*
X5970979Y-23798955D01*
X5703203Y-23798721D01*
X5455721Y-23900979D01*
X5266210Y-24090160D01*
X5163521Y-24337463D01*
X5163287Y-24605239D01*
X5265545Y-24852721D01*
X5432333Y-25019800D01*
X380200Y-25019800D01*
X380200Y-21349633D01*
X2539306Y-21349633D01*
X2641564Y-21597115D01*
X2830745Y-21786626D01*
X3078048Y-21889315D01*
X3340060Y-21889544D01*
X3339975Y-21987361D01*
X3449950Y-22253521D01*
X3653408Y-22457335D01*
X3919376Y-22567774D01*
X4207361Y-22568025D01*
X4473521Y-22458050D01*
X4563366Y-22368361D01*
X10705975Y-22368361D01*
X10815950Y-22634521D01*
X11019408Y-22838335D01*
X11285376Y-22948774D01*
X11573361Y-22949025D01*
X11839521Y-22839050D01*
X12043335Y-22635592D01*
X12153774Y-22369624D01*
X12154025Y-22081639D01*
X12044050Y-21815479D01*
X11960021Y-21731302D01*
X16750499Y-21731302D01*
X16852757Y-21978784D01*
X17041938Y-22168295D01*
X17289241Y-22270984D01*
X17557017Y-22271218D01*
X17804499Y-22168960D01*
X17994010Y-21979779D01*
X18096699Y-21732476D01*
X18096933Y-21464700D01*
X17994675Y-21217218D01*
X17805494Y-21027707D01*
X17558191Y-20925018D01*
X17290415Y-20924784D01*
X17042933Y-21027042D01*
X16853422Y-21216223D01*
X16750733Y-21463526D01*
X16750499Y-21731302D01*
X11960021Y-21731302D01*
X11840592Y-21611665D01*
X11574624Y-21501226D01*
X11286639Y-21500975D01*
X11020479Y-21610950D01*
X10816665Y-21814408D01*
X10706226Y-22080376D01*
X10705975Y-22368361D01*
X4563366Y-22368361D01*
X4677335Y-22254592D01*
X4787774Y-21988624D01*
X4788025Y-21700639D01*
X4678050Y-21434479D01*
X4617706Y-21374029D01*
X4832301Y-21374217D01*
X5079783Y-21271959D01*
X5269294Y-21082778D01*
X5371983Y-20835475D01*
X5372217Y-20567699D01*
X5269959Y-20320217D01*
X5080778Y-20130706D01*
X4833475Y-20028017D01*
X4565699Y-20027783D01*
X4318217Y-20130041D01*
X4128706Y-20319222D01*
X4026017Y-20566525D01*
X4025783Y-20834301D01*
X4128041Y-21081783D01*
X4166380Y-21120189D01*
X3920639Y-21119975D01*
X3885695Y-21134414D01*
X3885740Y-21083031D01*
X3783482Y-20835549D01*
X3594301Y-20646038D01*
X3346998Y-20543349D01*
X3079222Y-20543115D01*
X2831740Y-20645373D01*
X2642229Y-20834554D01*
X2539540Y-21081857D01*
X2539306Y-21349633D01*
X380200Y-21349633D01*
X380200Y-19570708D01*
X2530915Y-19570708D01*
X2633173Y-19818190D01*
X2822354Y-20007701D01*
X3069657Y-20110390D01*
X3337433Y-20110624D01*
X3584915Y-20008366D01*
X3774426Y-19819185D01*
X3877115Y-19571882D01*
X3877349Y-19304106D01*
X3785453Y-19081701D01*
X16878183Y-19081701D01*
X16980441Y-19329183D01*
X17169622Y-19518694D01*
X17416925Y-19621383D01*
X17684701Y-19621617D01*
X17932183Y-19519359D01*
X18121694Y-19330178D01*
X18224383Y-19082875D01*
X18224617Y-18815099D01*
X18122359Y-18567617D01*
X17933178Y-18378106D01*
X17685875Y-18275417D01*
X17418099Y-18275183D01*
X17170617Y-18377441D01*
X16981106Y-18566622D01*
X16878417Y-18813925D01*
X16878183Y-19081701D01*
X3785453Y-19081701D01*
X3775091Y-19056624D01*
X3585910Y-18867113D01*
X3338607Y-18764424D01*
X3070831Y-18764190D01*
X2823349Y-18866448D01*
X2633838Y-19055629D01*
X2531149Y-19302932D01*
X2530915Y-19570708D01*
X380200Y-19570708D01*
X380200Y-17218529D01*
X628900Y-17467663D01*
X1044183Y-17640103D01*
X1493844Y-17640496D01*
X1909427Y-17468781D01*
X2090162Y-17288361D01*
X11848975Y-17288361D01*
X11958950Y-17554521D01*
X12162408Y-17758335D01*
X12428376Y-17868774D01*
X12716361Y-17869025D01*
X12982521Y-17759050D01*
X13186335Y-17555592D01*
X13296774Y-17289624D01*
X13296841Y-17212161D01*
X16039975Y-17212161D01*
X16149950Y-17478321D01*
X16353408Y-17682135D01*
X16619376Y-17792574D01*
X16907361Y-17792825D01*
X17173521Y-17682850D01*
X17377335Y-17479392D01*
X17487774Y-17213424D01*
X17488025Y-16925439D01*
X17378050Y-16659279D01*
X17174592Y-16455465D01*
X16908624Y-16345026D01*
X16620639Y-16344775D01*
X16354479Y-16454750D01*
X16150665Y-16658208D01*
X16040226Y-16924176D01*
X16039975Y-17212161D01*
X13296841Y-17212161D01*
X13297025Y-17001639D01*
X13187050Y-16735479D01*
X12983592Y-16531665D01*
X12717624Y-16421226D01*
X12429639Y-16420975D01*
X12163479Y-16530950D01*
X11959665Y-16734408D01*
X11849226Y-17000376D01*
X11848975Y-17288361D01*
X2090162Y-17288361D01*
X2227663Y-17151100D01*
X2400103Y-16735817D01*
X2400496Y-16286156D01*
X2328501Y-16111912D01*
X4584895Y-16111912D01*
X4687153Y-16359394D01*
X4876334Y-16548905D01*
X5123637Y-16651594D01*
X5391413Y-16651828D01*
X5638895Y-16549570D01*
X5828406Y-16360389D01*
X5931095Y-16113086D01*
X5931097Y-16109922D01*
X6285958Y-16109922D01*
X6388216Y-16357404D01*
X6577397Y-16546915D01*
X6824700Y-16649604D01*
X7092476Y-16649838D01*
X7339958Y-16547580D01*
X7529469Y-16358399D01*
X7622107Y-16135301D01*
X18757783Y-16135301D01*
X18860041Y-16382783D01*
X19049222Y-16572294D01*
X19296525Y-16674983D01*
X19564301Y-16675217D01*
X19811783Y-16572959D01*
X20001294Y-16383778D01*
X20103983Y-16136475D01*
X20104217Y-15868699D01*
X20001959Y-15621217D01*
X19812778Y-15431706D01*
X19565475Y-15329017D01*
X19297699Y-15328783D01*
X19050217Y-15431041D01*
X18860706Y-15620222D01*
X18758017Y-15867525D01*
X18757783Y-16135301D01*
X7622107Y-16135301D01*
X7632158Y-16111096D01*
X7632392Y-15843320D01*
X7530134Y-15595838D01*
X7340953Y-15406327D01*
X7093650Y-15303638D01*
X6825874Y-15303404D01*
X6578392Y-15405662D01*
X6388881Y-15594843D01*
X6286192Y-15842146D01*
X6285958Y-16109922D01*
X5931097Y-16109922D01*
X5931329Y-15845310D01*
X5829071Y-15597828D01*
X5639890Y-15408317D01*
X5392587Y-15305628D01*
X5124811Y-15305394D01*
X4877329Y-15407652D01*
X4687818Y-15596833D01*
X4585129Y-15844136D01*
X4584895Y-16111912D01*
X2328501Y-16111912D01*
X2228781Y-15870573D01*
X1983503Y-15624866D01*
X2151831Y-15694762D01*
X2419607Y-15694996D01*
X2667089Y-15592738D01*
X2856600Y-15403557D01*
X2959289Y-15156254D01*
X2959523Y-14888478D01*
X2857265Y-14640996D01*
X2668084Y-14451485D01*
X2420781Y-14348796D01*
X2336611Y-14348722D01*
X2400103Y-14195817D01*
X2400496Y-13746156D01*
X2228781Y-13330573D01*
X1911100Y-13012337D01*
X1495817Y-12839897D01*
X1046156Y-12839504D01*
X630573Y-13011219D01*
X380200Y-13261155D01*
X380200Y-12833301D01*
X1930283Y-12833301D01*
X2032541Y-13080783D01*
X2221722Y-13270294D01*
X2469025Y-13372983D01*
X2736801Y-13373217D01*
X2858186Y-13323062D01*
X2852337Y-13328900D01*
X2679897Y-13744183D01*
X2679504Y-14193844D01*
X2851219Y-14609427D01*
X3168900Y-14927663D01*
X3584183Y-15100103D01*
X4033844Y-15100496D01*
X4449427Y-14928781D01*
X4767663Y-14611100D01*
X4940103Y-14195817D01*
X4940104Y-14193844D01*
X5219504Y-14193844D01*
X5391219Y-14609427D01*
X5708900Y-14927663D01*
X6124183Y-15100103D01*
X6573844Y-15100496D01*
X6989427Y-14928781D01*
X7307663Y-14611100D01*
X7480103Y-14195817D01*
X7480104Y-14193844D01*
X7759504Y-14193844D01*
X7931219Y-14609427D01*
X8248900Y-14927663D01*
X8664183Y-15100103D01*
X9113844Y-15100496D01*
X9529427Y-14928781D01*
X9847663Y-14611100D01*
X10020103Y-14195817D01*
X10020104Y-14193844D01*
X10299504Y-14193844D01*
X10471219Y-14609427D01*
X10788900Y-14927663D01*
X11204183Y-15100103D01*
X11653844Y-15100496D01*
X12069427Y-14928781D01*
X12387663Y-14611100D01*
X12560103Y-14195817D01*
X12560104Y-14193844D01*
X12839504Y-14193844D01*
X13011219Y-14609427D01*
X13328900Y-14927663D01*
X13744183Y-15100103D01*
X14193844Y-15100496D01*
X14609427Y-14928781D01*
X14927663Y-14611100D01*
X15100103Y-14195817D01*
X15100104Y-14193844D01*
X15379504Y-14193844D01*
X15551219Y-14609427D01*
X15868900Y-14927663D01*
X16284183Y-15100103D01*
X16733844Y-15100496D01*
X17149427Y-14928781D01*
X17209754Y-14868559D01*
X17244538Y-14952743D01*
X17433719Y-15142254D01*
X17681022Y-15244943D01*
X17948798Y-15245177D01*
X18196280Y-15142919D01*
X18385791Y-14953738D01*
X18400226Y-14918974D01*
X18408900Y-14927663D01*
X18824183Y-15100103D01*
X19273844Y-15100496D01*
X19652995Y-14943834D01*
X19749041Y-15176283D01*
X19938222Y-15365794D01*
X20185525Y-15468483D01*
X20453301Y-15468717D01*
X20511298Y-15444753D01*
X20506990Y-15455128D01*
X20506756Y-15722904D01*
X20609014Y-15970386D01*
X20798195Y-16159897D01*
X21045498Y-16262586D01*
X21313274Y-16262820D01*
X21560756Y-16160562D01*
X21750267Y-15971381D01*
X21852956Y-15724078D01*
X21853190Y-15456302D01*
X21750932Y-15208820D01*
X21642647Y-15100346D01*
X21813844Y-15100496D01*
X22229427Y-14928781D01*
X22547663Y-14611100D01*
X22720103Y-14195817D01*
X22720496Y-13746156D01*
X22548781Y-13330573D01*
X22231100Y-13012337D01*
X21815817Y-12839897D01*
X21366156Y-12839504D01*
X20950573Y-13011219D01*
X20632337Y-13328900D01*
X20459897Y-13744183D01*
X20459564Y-14124630D01*
X20454475Y-14122517D01*
X20186699Y-14122283D01*
X20180165Y-14124983D01*
X20180496Y-13746156D01*
X20008781Y-13330573D01*
X19691100Y-13012337D01*
X19275817Y-12839897D01*
X18826156Y-12839504D01*
X18410573Y-13011219D01*
X18092337Y-13328900D01*
X17919897Y-13744183D01*
X17919762Y-13898951D01*
X17682196Y-13898743D01*
X17640348Y-13916035D01*
X17640496Y-13746156D01*
X17468781Y-13330573D01*
X17151100Y-13012337D01*
X16735817Y-12839897D01*
X16286156Y-12839504D01*
X15870573Y-13011219D01*
X15552337Y-13328900D01*
X15379897Y-13744183D01*
X15379504Y-14193844D01*
X15100104Y-14193844D01*
X15100496Y-13746156D01*
X14928781Y-13330573D01*
X14611100Y-13012337D01*
X14195817Y-12839897D01*
X13746156Y-12839504D01*
X13330573Y-13011219D01*
X13012337Y-13328900D01*
X12839897Y-13744183D01*
X12839504Y-14193844D01*
X12560104Y-14193844D01*
X12560496Y-13746156D01*
X12388781Y-13330573D01*
X12071100Y-13012337D01*
X11655817Y-12839897D01*
X11206156Y-12839504D01*
X10790573Y-13011219D01*
X10472337Y-13328900D01*
X10299897Y-13744183D01*
X10299504Y-14193844D01*
X10020104Y-14193844D01*
X10020496Y-13746156D01*
X9848781Y-13330573D01*
X9531100Y-13012337D01*
X9115817Y-12839897D01*
X8666156Y-12839504D01*
X8250573Y-13011219D01*
X7932337Y-13328900D01*
X7759897Y-13744183D01*
X7759504Y-14193844D01*
X7480104Y-14193844D01*
X7480496Y-13746156D01*
X7308781Y-13330573D01*
X6991100Y-13012337D01*
X6575817Y-12839897D01*
X6126156Y-12839504D01*
X5710573Y-13011219D01*
X5392337Y-13328900D01*
X5219897Y-13744183D01*
X5219504Y-14193844D01*
X4940104Y-14193844D01*
X4940496Y-13746156D01*
X4768781Y-13330573D01*
X4451100Y-13012337D01*
X4035817Y-12839897D01*
X3586156Y-12839504D01*
X3209828Y-12994999D01*
X3276483Y-12834475D01*
X3276717Y-12566699D01*
X3209749Y-12404625D01*
X3584183Y-12560103D01*
X4033844Y-12560496D01*
X4449427Y-12388781D01*
X4767663Y-12071100D01*
X4940103Y-11655817D01*
X4940104Y-11653844D01*
X5219504Y-11653844D01*
X5391219Y-12069427D01*
X5708900Y-12387663D01*
X6124183Y-12560103D01*
X6573844Y-12560496D01*
X6989427Y-12388781D01*
X7307663Y-12071100D01*
X7480103Y-11655817D01*
X7480104Y-11653844D01*
X7759504Y-11653844D01*
X7931219Y-12069427D01*
X8248900Y-12387663D01*
X8664183Y-12560103D01*
X9113844Y-12560496D01*
X9529427Y-12388781D01*
X9847663Y-12071100D01*
X10020103Y-11655817D01*
X10020104Y-11653844D01*
X10299504Y-11653844D01*
X10471219Y-12069427D01*
X10788900Y-12387663D01*
X11204183Y-12560103D01*
X11653844Y-12560496D01*
X12069427Y-12388781D01*
X12387663Y-12071100D01*
X12560103Y-11655817D01*
X12560104Y-11653844D01*
X12839504Y-11653844D01*
X13011219Y-12069427D01*
X13328900Y-12387663D01*
X13744183Y-12560103D01*
X14193844Y-12560496D01*
X14609427Y-12388781D01*
X14927663Y-12071100D01*
X15100103Y-11655817D01*
X15100104Y-11653844D01*
X15379504Y-11653844D01*
X15551219Y-12069427D01*
X15868900Y-12387663D01*
X16284183Y-12560103D01*
X16733844Y-12560496D01*
X17149427Y-12388781D01*
X17467663Y-12071100D01*
X17640103Y-11655817D01*
X17640104Y-11653844D01*
X17919504Y-11653844D01*
X18091219Y-12069427D01*
X18408900Y-12387663D01*
X18824183Y-12560103D01*
X19273844Y-12560496D01*
X19652995Y-12403834D01*
X19749041Y-12636283D01*
X19938222Y-12825794D01*
X20185525Y-12928483D01*
X20453301Y-12928717D01*
X20700783Y-12826459D01*
X20890294Y-12637278D01*
X20987319Y-12403616D01*
X21364183Y-12560103D01*
X21813844Y-12560496D01*
X22229427Y-12388781D01*
X22547663Y-12071100D01*
X22720103Y-11655817D01*
X22720496Y-11206156D01*
X22548781Y-10790573D01*
X22231100Y-10472337D01*
X21815817Y-10299897D01*
X21366156Y-10299504D01*
X20950573Y-10471219D01*
X20632337Y-10788900D01*
X20459897Y-11204183D01*
X20459564Y-11584630D01*
X20454475Y-11582517D01*
X20186699Y-11582283D01*
X20180165Y-11584983D01*
X20180496Y-11206156D01*
X20008781Y-10790573D01*
X19691100Y-10472337D01*
X19275817Y-10299897D01*
X18826156Y-10299504D01*
X18410573Y-10471219D01*
X18092337Y-10788900D01*
X17919897Y-11204183D01*
X17919504Y-11653844D01*
X17640104Y-11653844D01*
X17640496Y-11206156D01*
X17468781Y-10790573D01*
X17151100Y-10472337D01*
X16735817Y-10299897D01*
X16286156Y-10299504D01*
X15870573Y-10471219D01*
X15552337Y-10788900D01*
X15379897Y-11204183D01*
X15379504Y-11653844D01*
X15100104Y-11653844D01*
X15100496Y-11206156D01*
X14928781Y-10790573D01*
X14611100Y-10472337D01*
X14195817Y-10299897D01*
X13746156Y-10299504D01*
X13330573Y-10471219D01*
X13012337Y-10788900D01*
X12839897Y-11204183D01*
X12839504Y-11653844D01*
X12560104Y-11653844D01*
X12560496Y-11206156D01*
X12388781Y-10790573D01*
X12071100Y-10472337D01*
X11655817Y-10299897D01*
X11206156Y-10299504D01*
X10790573Y-10471219D01*
X10472337Y-10788900D01*
X10299897Y-11204183D01*
X10299504Y-11653844D01*
X10020104Y-11653844D01*
X10020496Y-11206156D01*
X9848781Y-10790573D01*
X9531100Y-10472337D01*
X9115817Y-10299897D01*
X8666156Y-10299504D01*
X8250573Y-10471219D01*
X7932337Y-10788900D01*
X7759897Y-11204183D01*
X7759504Y-11653844D01*
X7480104Y-11653844D01*
X7480496Y-11206156D01*
X7308781Y-10790573D01*
X6991100Y-10472337D01*
X6575817Y-10299897D01*
X6126156Y-10299504D01*
X5710573Y-10471219D01*
X5392337Y-10788900D01*
X5219897Y-11204183D01*
X5219504Y-11653844D01*
X4940104Y-11653844D01*
X4940496Y-11206156D01*
X4768781Y-10790573D01*
X4451100Y-10472337D01*
X4035817Y-10299897D01*
X3586156Y-10299504D01*
X3170573Y-10471219D01*
X2852337Y-10788900D01*
X2679897Y-11204183D01*
X2679504Y-11653844D01*
X2851219Y-12069427D01*
X2859084Y-12077306D01*
X2737975Y-12027017D01*
X2470199Y-12026783D01*
X2222717Y-12129041D01*
X2033206Y-12318222D01*
X1930517Y-12565525D01*
X1930283Y-12833301D01*
X380200Y-12833301D01*
X380200Y-12138529D01*
X628900Y-12387663D01*
X1044183Y-12560103D01*
X1493844Y-12560496D01*
X1909427Y-12388781D01*
X2227663Y-12071100D01*
X2400103Y-11655817D01*
X2400496Y-11206156D01*
X2228781Y-10790573D01*
X1911100Y-10472337D01*
X1495817Y-10299897D01*
X1046156Y-10299504D01*
X630573Y-10471219D01*
X380200Y-10721155D01*
X380200Y-9598529D01*
X628900Y-9847663D01*
X1044183Y-10020103D01*
X1493844Y-10020496D01*
X1909427Y-9848781D01*
X2227663Y-9531100D01*
X2400103Y-9115817D01*
X2400104Y-9113844D01*
X2679504Y-9113844D01*
X2851219Y-9529427D01*
X3168900Y-9847663D01*
X3584183Y-10020103D01*
X4033844Y-10020496D01*
X4449427Y-9848781D01*
X4767663Y-9531100D01*
X4940103Y-9115817D01*
X4940104Y-9113844D01*
X5219504Y-9113844D01*
X5391219Y-9529427D01*
X5708900Y-9847663D01*
X6124183Y-10020103D01*
X6573844Y-10020496D01*
X6989427Y-9848781D01*
X7307663Y-9531100D01*
X7480103Y-9115817D01*
X7480104Y-9113844D01*
X7759504Y-9113844D01*
X7931219Y-9529427D01*
X8248900Y-9847663D01*
X8664183Y-10020103D01*
X9113844Y-10020496D01*
X9529427Y-9848781D01*
X9847663Y-9531100D01*
X10020103Y-9115817D01*
X10020104Y-9113844D01*
X10299504Y-9113844D01*
X10471219Y-9529427D01*
X10788900Y-9847663D01*
X11204183Y-10020103D01*
X11653844Y-10020496D01*
X12069427Y-9848781D01*
X12387663Y-9531100D01*
X12560103Y-9115817D01*
X12560104Y-9113844D01*
X12839504Y-9113844D01*
X13011219Y-9529427D01*
X13328900Y-9847663D01*
X13744183Y-10020103D01*
X14193844Y-10020496D01*
X14609427Y-9848781D01*
X14927663Y-9531100D01*
X15100103Y-9115817D01*
X15100104Y-9113844D01*
X15379504Y-9113844D01*
X15551219Y-9529427D01*
X15868900Y-9847663D01*
X16284183Y-10020103D01*
X16733844Y-10020496D01*
X17149427Y-9848781D01*
X17467663Y-9531100D01*
X17640103Y-9115817D01*
X17640104Y-9113844D01*
X17919504Y-9113844D01*
X18091219Y-9529427D01*
X18408900Y-9847663D01*
X18824183Y-10020103D01*
X19273844Y-10020496D01*
X19689427Y-9848781D01*
X20007663Y-9531100D01*
X20180103Y-9115817D01*
X20180104Y-9113844D01*
X20459504Y-9113844D01*
X20631219Y-9529427D01*
X20948900Y-9847663D01*
X21364183Y-10020103D01*
X21813844Y-10020496D01*
X22229427Y-9848781D01*
X22547663Y-9531100D01*
X22720103Y-9115817D01*
X22720496Y-8666156D01*
X22548781Y-8250573D01*
X22231100Y-7932337D01*
X21815817Y-7759897D01*
X21366156Y-7759504D01*
X20950573Y-7931219D01*
X20632337Y-8248900D01*
X20459897Y-8664183D01*
X20459504Y-9113844D01*
X20180104Y-9113844D01*
X20180496Y-8666156D01*
X20008781Y-8250573D01*
X19691100Y-7932337D01*
X19275817Y-7759897D01*
X18826156Y-7759504D01*
X18410573Y-7931219D01*
X18092337Y-8248900D01*
X17919897Y-8664183D01*
X17919504Y-9113844D01*
X17640104Y-9113844D01*
X17640496Y-8666156D01*
X17468781Y-8250573D01*
X17151100Y-7932337D01*
X16735817Y-7759897D01*
X16286156Y-7759504D01*
X15870573Y-7931219D01*
X15552337Y-8248900D01*
X15379897Y-8664183D01*
X15379504Y-9113844D01*
X15100104Y-9113844D01*
X15100496Y-8666156D01*
X14928781Y-8250573D01*
X14611100Y-7932337D01*
X14195817Y-7759897D01*
X13746156Y-7759504D01*
X13330573Y-7931219D01*
X13012337Y-8248900D01*
X12839897Y-8664183D01*
X12839504Y-9113844D01*
X12560104Y-9113844D01*
X12560496Y-8666156D01*
X12388781Y-8250573D01*
X12071100Y-7932337D01*
X11655817Y-7759897D01*
X11206156Y-7759504D01*
X10790573Y-7931219D01*
X10472337Y-8248900D01*
X10299897Y-8664183D01*
X10299504Y-9113844D01*
X10020104Y-9113844D01*
X10020496Y-8666156D01*
X9848781Y-8250573D01*
X9531100Y-7932337D01*
X9115817Y-7759897D01*
X8666156Y-7759504D01*
X8250573Y-7931219D01*
X7932337Y-8248900D01*
X7759897Y-8664183D01*
X7759504Y-9113844D01*
X7480104Y-9113844D01*
X7480496Y-8666156D01*
X7308781Y-8250573D01*
X6991100Y-7932337D01*
X6575817Y-7759897D01*
X6126156Y-7759504D01*
X5710573Y-7931219D01*
X5392337Y-8248900D01*
X5219897Y-8664183D01*
X5219504Y-9113844D01*
X4940104Y-9113844D01*
X4940496Y-8666156D01*
X4768781Y-8250573D01*
X4451100Y-7932337D01*
X4035817Y-7759897D01*
X3586156Y-7759504D01*
X3170573Y-7931219D01*
X2852337Y-8248900D01*
X2679897Y-8664183D01*
X2679504Y-9113844D01*
X2400104Y-9113844D01*
X2400496Y-8666156D01*
X2228781Y-8250573D01*
X1911100Y-7932337D01*
X1495817Y-7759897D01*
X1046156Y-7759504D01*
X630573Y-7931219D01*
X380200Y-8181155D01*
X380200Y-7058529D01*
X628900Y-7307663D01*
X1044183Y-7480103D01*
X1493844Y-7480496D01*
X1909427Y-7308781D01*
X2227663Y-6991100D01*
X2400103Y-6575817D01*
X2400104Y-6573844D01*
X2679504Y-6573844D01*
X2851219Y-6989427D01*
X3168900Y-7307663D01*
X3584183Y-7480103D01*
X4033844Y-7480496D01*
X4449427Y-7308781D01*
X4767663Y-6991100D01*
X4940103Y-6575817D01*
X4940104Y-6573844D01*
X5219504Y-6573844D01*
X5391219Y-6989427D01*
X5708900Y-7307663D01*
X6124183Y-7480103D01*
X6573844Y-7480496D01*
X6989427Y-7308781D01*
X7307663Y-6991100D01*
X7480103Y-6575817D01*
X7480104Y-6573844D01*
X7759504Y-6573844D01*
X7931219Y-6989427D01*
X8248900Y-7307663D01*
X8664183Y-7480103D01*
X9113844Y-7480496D01*
X9529427Y-7308781D01*
X9847663Y-6991100D01*
X10020103Y-6575817D01*
X10020104Y-6573844D01*
X10299504Y-6573844D01*
X10471219Y-6989427D01*
X10788900Y-7307663D01*
X11204183Y-7480103D01*
X11653844Y-7480496D01*
X12069427Y-7308781D01*
X12387663Y-6991100D01*
X12560103Y-6575817D01*
X12560104Y-6573844D01*
X12839504Y-6573844D01*
X13011219Y-6989427D01*
X13328900Y-7307663D01*
X13744183Y-7480103D01*
X14193844Y-7480496D01*
X14609427Y-7308781D01*
X14927663Y-6991100D01*
X15100103Y-6575817D01*
X15100104Y-6573844D01*
X15379504Y-6573844D01*
X15551219Y-6989427D01*
X15868900Y-7307663D01*
X16284183Y-7480103D01*
X16733844Y-7480496D01*
X17149427Y-7308781D01*
X17467663Y-6991100D01*
X17640103Y-6575817D01*
X17640104Y-6573844D01*
X17919504Y-6573844D01*
X18091219Y-6989427D01*
X18408900Y-7307663D01*
X18824183Y-7480103D01*
X19273844Y-7480496D01*
X19689427Y-7308781D01*
X20007663Y-6991100D01*
X20180103Y-6575817D01*
X20180104Y-6573844D01*
X20459504Y-6573844D01*
X20631219Y-6989427D01*
X20948900Y-7307663D01*
X21364183Y-7480103D01*
X21813844Y-7480496D01*
X22229427Y-7308781D01*
X22547663Y-6991100D01*
X22720103Y-6575817D01*
X22720496Y-6126156D01*
X22548781Y-5710573D01*
X22231100Y-5392337D01*
X21815817Y-5219897D01*
X21366156Y-5219504D01*
X20950573Y-5391219D01*
X20632337Y-5708900D01*
X20459897Y-6124183D01*
X20459504Y-6573844D01*
X20180104Y-6573844D01*
X20180496Y-6126156D01*
X20008781Y-5710573D01*
X19691100Y-5392337D01*
X19275817Y-5219897D01*
X18826156Y-5219504D01*
X18410573Y-5391219D01*
X18092337Y-5708900D01*
X17919897Y-6124183D01*
X17919504Y-6573844D01*
X17640104Y-6573844D01*
X17640496Y-6126156D01*
X17468781Y-5710573D01*
X17151100Y-5392337D01*
X16735817Y-5219897D01*
X16286156Y-5219504D01*
X15870573Y-5391219D01*
X15552337Y-5708900D01*
X15379897Y-6124183D01*
X15379504Y-6573844D01*
X15100104Y-6573844D01*
X15100496Y-6126156D01*
X14928781Y-5710573D01*
X14611100Y-5392337D01*
X14195817Y-5219897D01*
X13746156Y-5219504D01*
X13330573Y-5391219D01*
X13012337Y-5708900D01*
X12839897Y-6124183D01*
X12839504Y-6573844D01*
X12560104Y-6573844D01*
X12560496Y-6126156D01*
X12388781Y-5710573D01*
X12071100Y-5392337D01*
X11655817Y-5219897D01*
X11206156Y-5219504D01*
X10790573Y-5391219D01*
X10472337Y-5708900D01*
X10299897Y-6124183D01*
X10299504Y-6573844D01*
X10020104Y-6573844D01*
X10020496Y-6126156D01*
X9848781Y-5710573D01*
X9531100Y-5392337D01*
X9115817Y-5219897D01*
X8666156Y-5219504D01*
X8250573Y-5391219D01*
X7932337Y-5708900D01*
X7759897Y-6124183D01*
X7759504Y-6573844D01*
X7480104Y-6573844D01*
X7480496Y-6126156D01*
X7308781Y-5710573D01*
X6991100Y-5392337D01*
X6575817Y-5219897D01*
X6126156Y-5219504D01*
X5710573Y-5391219D01*
X5392337Y-5708900D01*
X5219897Y-6124183D01*
X5219504Y-6573844D01*
X4940104Y-6573844D01*
X4940496Y-6126156D01*
X4768781Y-5710573D01*
X4451100Y-5392337D01*
X4035817Y-5219897D01*
X3586156Y-5219504D01*
X3170573Y-5391219D01*
X2852337Y-5708900D01*
X2679897Y-6124183D01*
X2679504Y-6573844D01*
X2400104Y-6573844D01*
X2400496Y-6126156D01*
X2228781Y-5710573D01*
X1911100Y-5392337D01*
X1495817Y-5219897D01*
X1046156Y-5219504D01*
X630573Y-5391219D01*
X380200Y-5641155D01*
X380200Y-4643022D01*
X598623Y-4643022D01*
X688421Y-4804934D01*
X1113435Y-4951760D01*
X1562286Y-4924763D01*
X1851579Y-4804934D01*
X1941377Y-4643022D01*
X3138623Y-4643022D01*
X3228421Y-4804934D01*
X3653435Y-4951760D01*
X4102286Y-4924763D01*
X4391579Y-4804934D01*
X4481377Y-4643022D01*
X5678623Y-4643022D01*
X5768421Y-4804934D01*
X6193435Y-4951760D01*
X6642286Y-4924763D01*
X6931579Y-4804934D01*
X7021377Y-4643022D01*
X8218623Y-4643022D01*
X8308421Y-4804934D01*
X8733435Y-4951760D01*
X9182286Y-4924763D01*
X9471579Y-4804934D01*
X9561377Y-4643022D01*
X10758623Y-4643022D01*
X10848421Y-4804934D01*
X11273435Y-4951760D01*
X11722286Y-4924763D01*
X12011579Y-4804934D01*
X12101377Y-4643022D01*
X13298623Y-4643022D01*
X13388421Y-4804934D01*
X13813435Y-4951760D01*
X14262286Y-4924763D01*
X14551579Y-4804934D01*
X14641377Y-4643022D01*
X15838623Y-4643022D01*
X15928421Y-4804934D01*
X16353435Y-4951760D01*
X16802286Y-4924763D01*
X17091579Y-4804934D01*
X17181377Y-4643022D01*
X18378623Y-4643022D01*
X18468421Y-4804934D01*
X18893435Y-4951760D01*
X19342286Y-4924763D01*
X19631579Y-4804934D01*
X19721377Y-4643022D01*
X20918623Y-4643022D01*
X21008421Y-4804934D01*
X21433435Y-4951760D01*
X21882286Y-4924763D01*
X22171579Y-4804934D01*
X22261377Y-4643022D01*
X23458623Y-4643022D01*
X23548421Y-4804934D01*
X23973435Y-4951760D01*
X24422286Y-4924763D01*
X24711579Y-4804934D01*
X24801377Y-4643022D01*
X24130000Y-3971645D01*
X23458623Y-4643022D01*
X22261377Y-4643022D01*
X21590000Y-3971645D01*
X20918623Y-4643022D01*
X19721377Y-4643022D01*
X19050000Y-3971645D01*
X18378623Y-4643022D01*
X17181377Y-4643022D01*
X16510000Y-3971645D01*
X15838623Y-4643022D01*
X14641377Y-4643022D01*
X13970000Y-3971645D01*
X13298623Y-4643022D01*
X12101377Y-4643022D01*
X11430000Y-3971645D01*
X10758623Y-4643022D01*
X9561377Y-4643022D01*
X8890000Y-3971645D01*
X8218623Y-4643022D01*
X7021377Y-4643022D01*
X6350000Y-3971645D01*
X5678623Y-4643022D01*
X4481377Y-4643022D01*
X3810000Y-3971645D01*
X3138623Y-4643022D01*
X1941377Y-4643022D01*
X1270000Y-3971645D01*
X598623Y-4643022D01*
X380200Y-4643022D01*
X380200Y-4449887D01*
X436978Y-4481377D01*
X1108355Y-3810000D01*
X1431645Y-3810000D01*
X2103022Y-4481377D01*
X2264934Y-4391579D01*
X2411760Y-3966565D01*
X2392927Y-3653435D01*
X2668240Y-3653435D01*
X2695237Y-4102286D01*
X2815066Y-4391579D01*
X2976978Y-4481377D01*
X3648355Y-3810000D01*
X3971645Y-3810000D01*
X4643022Y-4481377D01*
X4804934Y-4391579D01*
X4951760Y-3966565D01*
X4932927Y-3653435D01*
X5208240Y-3653435D01*
X5235237Y-4102286D01*
X5355066Y-4391579D01*
X5516978Y-4481377D01*
X6188355Y-3810000D01*
X6511645Y-3810000D01*
X7183022Y-4481377D01*
X7344934Y-4391579D01*
X7491760Y-3966565D01*
X7472927Y-3653435D01*
X7748240Y-3653435D01*
X7775237Y-4102286D01*
X7895066Y-4391579D01*
X8056978Y-4481377D01*
X8728355Y-3810000D01*
X9051645Y-3810000D01*
X9723022Y-4481377D01*
X9884934Y-4391579D01*
X10031760Y-3966565D01*
X10012927Y-3653435D01*
X10288240Y-3653435D01*
X10315237Y-4102286D01*
X10435066Y-4391579D01*
X10596978Y-4481377D01*
X11268355Y-3810000D01*
X11591645Y-3810000D01*
X12263022Y-4481377D01*
X12424934Y-4391579D01*
X12571760Y-3966565D01*
X12552927Y-3653435D01*
X12828240Y-3653435D01*
X12855237Y-4102286D01*
X12975066Y-4391579D01*
X13136978Y-4481377D01*
X13808355Y-3810000D01*
X14131645Y-3810000D01*
X14803022Y-4481377D01*
X14964934Y-4391579D01*
X15111760Y-3966565D01*
X15092927Y-3653435D01*
X15368240Y-3653435D01*
X15395237Y-4102286D01*
X15515066Y-4391579D01*
X15676978Y-4481377D01*
X16348355Y-3810000D01*
X16671645Y-3810000D01*
X17343022Y-4481377D01*
X17504934Y-4391579D01*
X17651760Y-3966565D01*
X17632927Y-3653435D01*
X17908240Y-3653435D01*
X17935237Y-4102286D01*
X18055066Y-4391579D01*
X18216978Y-4481377D01*
X18888355Y-3810000D01*
X19211645Y-3810000D01*
X19883022Y-4481377D01*
X20044934Y-4391579D01*
X20191760Y-3966565D01*
X20172927Y-3653435D01*
X20448240Y-3653435D01*
X20475237Y-4102286D01*
X20595066Y-4391579D01*
X20756978Y-4481377D01*
X21428355Y-3810000D01*
X21751645Y-3810000D01*
X22423022Y-4481377D01*
X22584934Y-4391579D01*
X22731760Y-3966565D01*
X22712927Y-3653435D01*
X22988240Y-3653435D01*
X23015237Y-4102286D01*
X23135066Y-4391579D01*
X23296978Y-4481377D01*
X23968355Y-3810000D01*
X23296978Y-3138623D01*
X23135066Y-3228421D01*
X22988240Y-3653435D01*
X22712927Y-3653435D01*
X22704763Y-3517714D01*
X22584934Y-3228421D01*
X22423022Y-3138623D01*
X21751645Y-3810000D01*
X21428355Y-3810000D01*
X20756978Y-3138623D01*
X20595066Y-3228421D01*
X20448240Y-3653435D01*
X20172927Y-3653435D01*
X20164763Y-3517714D01*
X20044934Y-3228421D01*
X19883022Y-3138623D01*
X19211645Y-3810000D01*
X18888355Y-3810000D01*
X18216978Y-3138623D01*
X18055066Y-3228421D01*
X17908240Y-3653435D01*
X17632927Y-3653435D01*
X17624763Y-3517714D01*
X17504934Y-3228421D01*
X17343022Y-3138623D01*
X16671645Y-3810000D01*
X16348355Y-3810000D01*
X15676978Y-3138623D01*
X15515066Y-3228421D01*
X15368240Y-3653435D01*
X15092927Y-3653435D01*
X15084763Y-3517714D01*
X14964934Y-3228421D01*
X14803022Y-3138623D01*
X14131645Y-3810000D01*
X13808355Y-3810000D01*
X13136978Y-3138623D01*
X12975066Y-3228421D01*
X12828240Y-3653435D01*
X12552927Y-3653435D01*
X12544763Y-3517714D01*
X12424934Y-3228421D01*
X12263022Y-3138623D01*
X11591645Y-3810000D01*
X11268355Y-3810000D01*
X10596978Y-3138623D01*
X10435066Y-3228421D01*
X10288240Y-3653435D01*
X10012927Y-3653435D01*
X10004763Y-3517714D01*
X9884934Y-3228421D01*
X9723022Y-3138623D01*
X9051645Y-3810000D01*
X8728355Y-3810000D01*
X8056978Y-3138623D01*
X7895066Y-3228421D01*
X7748240Y-3653435D01*
X7472927Y-3653435D01*
X7464763Y-3517714D01*
X7344934Y-3228421D01*
X7183022Y-3138623D01*
X6511645Y-3810000D01*
X6188355Y-3810000D01*
X5516978Y-3138623D01*
X5355066Y-3228421D01*
X5208240Y-3653435D01*
X4932927Y-3653435D01*
X4924763Y-3517714D01*
X4804934Y-3228421D01*
X4643022Y-3138623D01*
X3971645Y-3810000D01*
X3648355Y-3810000D01*
X2976978Y-3138623D01*
X2815066Y-3228421D01*
X2668240Y-3653435D01*
X2392927Y-3653435D01*
X2384763Y-3517714D01*
X2264934Y-3228421D01*
X2103022Y-3138623D01*
X1431645Y-3810000D01*
X1108355Y-3810000D01*
X436978Y-3138623D01*
X380200Y-3170113D01*
X380200Y-2976978D01*
X598623Y-2976978D01*
X1270000Y-3648355D01*
X1941377Y-2976978D01*
X3138623Y-2976978D01*
X3810000Y-3648355D01*
X4481377Y-2976978D01*
X5678623Y-2976978D01*
X6350000Y-3648355D01*
X7021377Y-2976978D01*
X8218623Y-2976978D01*
X8890000Y-3648355D01*
X9561377Y-2976978D01*
X10758623Y-2976978D01*
X11430000Y-3648355D01*
X12101377Y-2976978D01*
X13298623Y-2976978D01*
X13970000Y-3648355D01*
X14641377Y-2976978D01*
X15838623Y-2976978D01*
X16510000Y-3648355D01*
X17181377Y-2976978D01*
X18378623Y-2976978D01*
X19050000Y-3648355D01*
X19721377Y-2976978D01*
X20918623Y-2976978D01*
X21590000Y-3648355D01*
X22261377Y-2976978D01*
X23458623Y-2976978D01*
X24130000Y-3648355D01*
X24801377Y-2976978D01*
X24711579Y-2815066D01*
X24286565Y-2668240D01*
X23837714Y-2695237D01*
X23548421Y-2815066D01*
X23458623Y-2976978D01*
X22261377Y-2976978D01*
X22171579Y-2815066D01*
X21746565Y-2668240D01*
X21297714Y-2695237D01*
X21008421Y-2815066D01*
X20918623Y-2976978D01*
X19721377Y-2976978D01*
X19631579Y-2815066D01*
X19206565Y-2668240D01*
X18757714Y-2695237D01*
X18468421Y-2815066D01*
X18378623Y-2976978D01*
X17181377Y-2976978D01*
X17091579Y-2815066D01*
X16666565Y-2668240D01*
X16217714Y-2695237D01*
X15928421Y-2815066D01*
X15838623Y-2976978D01*
X14641377Y-2976978D01*
X14551579Y-2815066D01*
X14126565Y-2668240D01*
X13677714Y-2695237D01*
X13388421Y-2815066D01*
X13298623Y-2976978D01*
X12101377Y-2976978D01*
X12011579Y-2815066D01*
X11586565Y-2668240D01*
X11137714Y-2695237D01*
X10848421Y-2815066D01*
X10758623Y-2976978D01*
X9561377Y-2976978D01*
X9471579Y-2815066D01*
X9046565Y-2668240D01*
X8597714Y-2695237D01*
X8308421Y-2815066D01*
X8218623Y-2976978D01*
X7021377Y-2976978D01*
X6931579Y-2815066D01*
X6506565Y-2668240D01*
X6057714Y-2695237D01*
X5768421Y-2815066D01*
X5678623Y-2976978D01*
X4481377Y-2976978D01*
X4391579Y-2815066D01*
X3966565Y-2668240D01*
X3517714Y-2695237D01*
X3228421Y-2815066D01*
X3138623Y-2976978D01*
X1941377Y-2976978D01*
X1851579Y-2815066D01*
X1426565Y-2668240D01*
X977714Y-2695237D01*
X688421Y-2815066D01*
X598623Y-2976978D01*
X380200Y-2976978D01*
X380200Y-2388604D01*
X469900Y-2406769D01*
X2070100Y-2406769D01*
X2192465Y-2383744D01*
X2304849Y-2311427D01*
X2380244Y-2201083D01*
X2406769Y-2070100D01*
X2406769Y-469900D01*
X2389890Y-380200D01*
X2691396Y-380200D01*
X2673231Y-469900D01*
X2673231Y-469900D01*
G37*
X2673231Y-469900D02*
X2673231Y-2070100D01*
X2696256Y-2192465D01*
X2768573Y-2304849D01*
X2878917Y-2380244D01*
X3009900Y-2406769D01*
X4610100Y-2406769D01*
X4732465Y-2383744D01*
X4844849Y-2311427D01*
X4920244Y-2201083D01*
X4946769Y-2070100D01*
X4946769Y-469900D01*
X4929890Y-380200D01*
X5231396Y-380200D01*
X5213231Y-469900D01*
X5213231Y-2070100D01*
X5236256Y-2192465D01*
X5308573Y-2304849D01*
X5418917Y-2380244D01*
X5549900Y-2406769D01*
X7150100Y-2406769D01*
X7272465Y-2383744D01*
X7384849Y-2311427D01*
X7460244Y-2201083D01*
X7486769Y-2070100D01*
X7486769Y-469900D01*
X7469890Y-380200D01*
X7771396Y-380200D01*
X7753231Y-469900D01*
X7753231Y-2070100D01*
X7776256Y-2192465D01*
X7848573Y-2304849D01*
X7958917Y-2380244D01*
X8089900Y-2406769D01*
X9690100Y-2406769D01*
X9812465Y-2383744D01*
X9924849Y-2311427D01*
X10000244Y-2201083D01*
X10026769Y-2070100D01*
X10026769Y-469900D01*
X10009890Y-380200D01*
X10311396Y-380200D01*
X10293231Y-469900D01*
X10293231Y-2070100D01*
X10316256Y-2192465D01*
X10388573Y-2304849D01*
X10498917Y-2380244D01*
X10629900Y-2406769D01*
X12230100Y-2406769D01*
X12352465Y-2383744D01*
X12464849Y-2311427D01*
X12540244Y-2201083D01*
X12566769Y-2070100D01*
X12566769Y-469900D01*
X12549890Y-380200D01*
X12851396Y-380200D01*
X12833231Y-469900D01*
X12833231Y-2070100D01*
X12856256Y-2192465D01*
X12928573Y-2304849D01*
X13038917Y-2380244D01*
X13169900Y-2406769D01*
X14770100Y-2406769D01*
X14892465Y-2383744D01*
X15004849Y-2311427D01*
X15080244Y-2201083D01*
X15106769Y-2070100D01*
X15106769Y-469900D01*
X15089890Y-380200D01*
X15391396Y-380200D01*
X15373231Y-469900D01*
X15373231Y-2070100D01*
X15396256Y-2192465D01*
X15468573Y-2304849D01*
X15578917Y-2380244D01*
X15709900Y-2406769D01*
X17310100Y-2406769D01*
X17432465Y-2383744D01*
X17544849Y-2311427D01*
X17620244Y-2201083D01*
X17646769Y-2070100D01*
X17646769Y-469900D01*
X17629890Y-380200D01*
X17931396Y-380200D01*
X17913231Y-469900D01*
X17913231Y-2070100D01*
X17936256Y-2192465D01*
X18008573Y-2304849D01*
X18118917Y-2380244D01*
X18249900Y-2406769D01*
X19850100Y-2406769D01*
X19972465Y-2383744D01*
X20084849Y-2311427D01*
X20160244Y-2201083D01*
X20186769Y-2070100D01*
X20186769Y-469900D01*
X20169890Y-380200D01*
X20471396Y-380200D01*
X20453231Y-469900D01*
X20453231Y-2070100D01*
X20476256Y-2192465D01*
X20548573Y-2304849D01*
X20658917Y-2380244D01*
X20789900Y-2406769D01*
X22390100Y-2406769D01*
X22512465Y-2383744D01*
X22624849Y-2311427D01*
X22700244Y-2201083D01*
X22726769Y-2070100D01*
X22726769Y-469900D01*
X22709890Y-380200D01*
X23011396Y-380200D01*
X22993231Y-469900D01*
X22993231Y-2070100D01*
X23016256Y-2192465D01*
X23088573Y-2304849D01*
X23198917Y-2380244D01*
X23329900Y-2406769D01*
X24930100Y-2406769D01*
X25019800Y-2389890D01*
X25019800Y-3170113D01*
X24963022Y-3138623D01*
X24291645Y-3810000D01*
X24963022Y-4481377D01*
X25019800Y-4449887D01*
X25019800Y-5641471D01*
X24771100Y-5392337D01*
X24355817Y-5219897D01*
X23906156Y-5219504D01*
X23490573Y-5391219D01*
X23172337Y-5708900D01*
X22999897Y-6124183D01*
X22999504Y-6573844D01*
X23171219Y-6989427D01*
X23488900Y-7307663D01*
X23904183Y-7480103D01*
X24353844Y-7480496D01*
X24769427Y-7308781D01*
X25019800Y-7058845D01*
X25019800Y-8181471D01*
X24771100Y-7932337D01*
X24355817Y-7759897D01*
X23906156Y-7759504D01*
X23490573Y-7931219D01*
X23172337Y-8248900D01*
X22999897Y-8664183D01*
X22999504Y-9113844D01*
X23171219Y-9529427D01*
X23488900Y-9847663D01*
X23904183Y-10020103D01*
X24353844Y-10020496D01*
X24769427Y-9848781D01*
X25019800Y-9598845D01*
X25019800Y-10721471D01*
X24771100Y-10472337D01*
X24355817Y-10299897D01*
X23906156Y-10299504D01*
X23490573Y-10471219D01*
X23172337Y-10788900D01*
X22999897Y-11204183D01*
X22999504Y-11653844D01*
X23171219Y-12069427D01*
X23488900Y-12387663D01*
X23904183Y-12560103D01*
X24353844Y-12560496D01*
X24769427Y-12388781D01*
X25019800Y-12138845D01*
X25019800Y-13261471D01*
X24771100Y-13012337D01*
X24355817Y-12839897D01*
X23906156Y-12839504D01*
X23490573Y-13011219D01*
X23172337Y-13328900D01*
X22999897Y-13744183D01*
X22999504Y-14193844D01*
X23171219Y-14609427D01*
X23488900Y-14927663D01*
X23904183Y-15100103D01*
X24353844Y-15100496D01*
X24769427Y-14928781D01*
X25019800Y-14678845D01*
X25019800Y-15801471D01*
X24771100Y-15552337D01*
X24355817Y-15379897D01*
X23906156Y-15379504D01*
X23490573Y-15551219D01*
X23172337Y-15868900D01*
X22999897Y-16284183D01*
X22999504Y-16733844D01*
X23171219Y-17149427D01*
X23488900Y-17467663D01*
X23904183Y-17640103D01*
X24353844Y-17640496D01*
X24769427Y-17468781D01*
X25019800Y-17218845D01*
X25019800Y-25019800D01*
X6240424Y-25019800D01*
X6406798Y-24853716D01*
X6509487Y-24606413D01*
X6509721Y-24338637D01*
X6407463Y-24091155D01*
X6335795Y-24019361D01*
X7911975Y-24019361D01*
X8021950Y-24285521D01*
X8225408Y-24489335D01*
X8491376Y-24599774D01*
X8779361Y-24600025D01*
X9045521Y-24490050D01*
X9249335Y-24286592D01*
X9359774Y-24020624D01*
X9360025Y-23732639D01*
X9250050Y-23466479D01*
X9046592Y-23262665D01*
X8780624Y-23152226D01*
X8492639Y-23151975D01*
X8226479Y-23261950D01*
X8022665Y-23465408D01*
X7912226Y-23731376D01*
X7911975Y-24019361D01*
X6335795Y-24019361D01*
X6218282Y-23901644D01*
X5970979Y-23798955D01*
X5703203Y-23798721D01*
X5455721Y-23900979D01*
X5266210Y-24090160D01*
X5163521Y-24337463D01*
X5163287Y-24605239D01*
X5265545Y-24852721D01*
X5432333Y-25019800D01*
X380200Y-25019800D01*
X380200Y-21349633D01*
X2539306Y-21349633D01*
X2641564Y-21597115D01*
X2830745Y-21786626D01*
X3078048Y-21889315D01*
X3340060Y-21889544D01*
X3339975Y-21987361D01*
X3449950Y-22253521D01*
X3653408Y-22457335D01*
X3919376Y-22567774D01*
X4207361Y-22568025D01*
X4473521Y-22458050D01*
X4563366Y-22368361D01*
X10705975Y-22368361D01*
X10815950Y-22634521D01*
X11019408Y-22838335D01*
X11285376Y-22948774D01*
X11573361Y-22949025D01*
X11839521Y-22839050D01*
X12043335Y-22635592D01*
X12153774Y-22369624D01*
X12154025Y-22081639D01*
X12044050Y-21815479D01*
X11960021Y-21731302D01*
X16750499Y-21731302D01*
X16852757Y-21978784D01*
X17041938Y-22168295D01*
X17289241Y-22270984D01*
X17557017Y-22271218D01*
X17804499Y-22168960D01*
X17994010Y-21979779D01*
X18096699Y-21732476D01*
X18096933Y-21464700D01*
X17994675Y-21217218D01*
X17805494Y-21027707D01*
X17558191Y-20925018D01*
X17290415Y-20924784D01*
X17042933Y-21027042D01*
X16853422Y-21216223D01*
X16750733Y-21463526D01*
X16750499Y-21731302D01*
X11960021Y-21731302D01*
X11840592Y-21611665D01*
X11574624Y-21501226D01*
X11286639Y-21500975D01*
X11020479Y-21610950D01*
X10816665Y-21814408D01*
X10706226Y-22080376D01*
X10705975Y-22368361D01*
X4563366Y-22368361D01*
X4677335Y-22254592D01*
X4787774Y-21988624D01*
X4788025Y-21700639D01*
X4678050Y-21434479D01*
X4617706Y-21374029D01*
X4832301Y-21374217D01*
X5079783Y-21271959D01*
X5269294Y-21082778D01*
X5371983Y-20835475D01*
X5372217Y-20567699D01*
X5269959Y-20320217D01*
X5080778Y-20130706D01*
X4833475Y-20028017D01*
X4565699Y-20027783D01*
X4318217Y-20130041D01*
X4128706Y-20319222D01*
X4026017Y-20566525D01*
X4025783Y-20834301D01*
X4128041Y-21081783D01*
X4166380Y-21120189D01*
X3920639Y-21119975D01*
X3885695Y-21134414D01*
X3885740Y-21083031D01*
X3783482Y-20835549D01*
X3594301Y-20646038D01*
X3346998Y-20543349D01*
X3079222Y-20543115D01*
X2831740Y-20645373D01*
X2642229Y-20834554D01*
X2539540Y-21081857D01*
X2539306Y-21349633D01*
X380200Y-21349633D01*
X380200Y-19570708D01*
X2530915Y-19570708D01*
X2633173Y-19818190D01*
X2822354Y-20007701D01*
X3069657Y-20110390D01*
X3337433Y-20110624D01*
X3584915Y-20008366D01*
X3774426Y-19819185D01*
X3877115Y-19571882D01*
X3877349Y-19304106D01*
X3785453Y-19081701D01*
X16878183Y-19081701D01*
X16980441Y-19329183D01*
X17169622Y-19518694D01*
X17416925Y-19621383D01*
X17684701Y-19621617D01*
X17932183Y-19519359D01*
X18121694Y-19330178D01*
X18224383Y-19082875D01*
X18224617Y-18815099D01*
X18122359Y-18567617D01*
X17933178Y-18378106D01*
X17685875Y-18275417D01*
X17418099Y-18275183D01*
X17170617Y-18377441D01*
X16981106Y-18566622D01*
X16878417Y-18813925D01*
X16878183Y-19081701D01*
X3785453Y-19081701D01*
X3775091Y-19056624D01*
X3585910Y-18867113D01*
X3338607Y-18764424D01*
X3070831Y-18764190D01*
X2823349Y-18866448D01*
X2633838Y-19055629D01*
X2531149Y-19302932D01*
X2530915Y-19570708D01*
X380200Y-19570708D01*
X380200Y-17218529D01*
X628900Y-17467663D01*
X1044183Y-17640103D01*
X1493844Y-17640496D01*
X1909427Y-17468781D01*
X2090162Y-17288361D01*
X11848975Y-17288361D01*
X11958950Y-17554521D01*
X12162408Y-17758335D01*
X12428376Y-17868774D01*
X12716361Y-17869025D01*
X12982521Y-17759050D01*
X13186335Y-17555592D01*
X13296774Y-17289624D01*
X13296841Y-17212161D01*
X16039975Y-17212161D01*
X16149950Y-17478321D01*
X16353408Y-17682135D01*
X16619376Y-17792574D01*
X16907361Y-17792825D01*
X17173521Y-17682850D01*
X17377335Y-17479392D01*
X17487774Y-17213424D01*
X17488025Y-16925439D01*
X17378050Y-16659279D01*
X17174592Y-16455465D01*
X16908624Y-16345026D01*
X16620639Y-16344775D01*
X16354479Y-16454750D01*
X16150665Y-16658208D01*
X16040226Y-16924176D01*
X16039975Y-17212161D01*
X13296841Y-17212161D01*
X13297025Y-17001639D01*
X13187050Y-16735479D01*
X12983592Y-16531665D01*
X12717624Y-16421226D01*
X12429639Y-16420975D01*
X12163479Y-16530950D01*
X11959665Y-16734408D01*
X11849226Y-17000376D01*
X11848975Y-17288361D01*
X2090162Y-17288361D01*
X2227663Y-17151100D01*
X2400103Y-16735817D01*
X2400496Y-16286156D01*
X2328501Y-16111912D01*
X4584895Y-16111912D01*
X4687153Y-16359394D01*
X4876334Y-16548905D01*
X5123637Y-16651594D01*
X5391413Y-16651828D01*
X5638895Y-16549570D01*
X5828406Y-16360389D01*
X5931095Y-16113086D01*
X5931097Y-16109922D01*
X6285958Y-16109922D01*
X6388216Y-16357404D01*
X6577397Y-16546915D01*
X6824700Y-16649604D01*
X7092476Y-16649838D01*
X7339958Y-16547580D01*
X7529469Y-16358399D01*
X7622107Y-16135301D01*
X18757783Y-16135301D01*
X18860041Y-16382783D01*
X19049222Y-16572294D01*
X19296525Y-16674983D01*
X19564301Y-16675217D01*
X19811783Y-16572959D01*
X20001294Y-16383778D01*
X20103983Y-16136475D01*
X20104217Y-15868699D01*
X20001959Y-15621217D01*
X19812778Y-15431706D01*
X19565475Y-15329017D01*
X19297699Y-15328783D01*
X19050217Y-15431041D01*
X18860706Y-15620222D01*
X18758017Y-15867525D01*
X18757783Y-16135301D01*
X7622107Y-16135301D01*
X7632158Y-16111096D01*
X7632392Y-15843320D01*
X7530134Y-15595838D01*
X7340953Y-15406327D01*
X7093650Y-15303638D01*
X6825874Y-15303404D01*
X6578392Y-15405662D01*
X6388881Y-15594843D01*
X6286192Y-15842146D01*
X6285958Y-16109922D01*
X5931097Y-16109922D01*
X5931329Y-15845310D01*
X5829071Y-15597828D01*
X5639890Y-15408317D01*
X5392587Y-15305628D01*
X5124811Y-15305394D01*
X4877329Y-15407652D01*
X4687818Y-15596833D01*
X4585129Y-15844136D01*
X4584895Y-16111912D01*
X2328501Y-16111912D01*
X2228781Y-15870573D01*
X1983503Y-15624866D01*
X2151831Y-15694762D01*
X2419607Y-15694996D01*
X2667089Y-15592738D01*
X2856600Y-15403557D01*
X2959289Y-15156254D01*
X2959523Y-14888478D01*
X2857265Y-14640996D01*
X2668084Y-14451485D01*
X2420781Y-14348796D01*
X2336611Y-14348722D01*
X2400103Y-14195817D01*
X2400496Y-13746156D01*
X2228781Y-13330573D01*
X1911100Y-13012337D01*
X1495817Y-12839897D01*
X1046156Y-12839504D01*
X630573Y-13011219D01*
X380200Y-13261155D01*
X380200Y-12833301D01*
X1930283Y-12833301D01*
X2032541Y-13080783D01*
X2221722Y-13270294D01*
X2469025Y-13372983D01*
X2736801Y-13373217D01*
X2858186Y-13323062D01*
X2852337Y-13328900D01*
X2679897Y-13744183D01*
X2679504Y-14193844D01*
X2851219Y-14609427D01*
X3168900Y-14927663D01*
X3584183Y-15100103D01*
X4033844Y-15100496D01*
X4449427Y-14928781D01*
X4767663Y-14611100D01*
X4940103Y-14195817D01*
X4940104Y-14193844D01*
X5219504Y-14193844D01*
X5391219Y-14609427D01*
X5708900Y-14927663D01*
X6124183Y-15100103D01*
X6573844Y-15100496D01*
X6989427Y-14928781D01*
X7307663Y-14611100D01*
X7480103Y-14195817D01*
X7480104Y-14193844D01*
X7759504Y-14193844D01*
X7931219Y-14609427D01*
X8248900Y-14927663D01*
X8664183Y-15100103D01*
X9113844Y-15100496D01*
X9529427Y-14928781D01*
X9847663Y-14611100D01*
X10020103Y-14195817D01*
X10020104Y-14193844D01*
X10299504Y-14193844D01*
X10471219Y-14609427D01*
X10788900Y-14927663D01*
X11204183Y-15100103D01*
X11653844Y-15100496D01*
X12069427Y-14928781D01*
X12387663Y-14611100D01*
X12560103Y-14195817D01*
X12560104Y-14193844D01*
X12839504Y-14193844D01*
X13011219Y-14609427D01*
X13328900Y-14927663D01*
X13744183Y-15100103D01*
X14193844Y-15100496D01*
X14609427Y-14928781D01*
X14927663Y-14611100D01*
X15100103Y-14195817D01*
X15100104Y-14193844D01*
X15379504Y-14193844D01*
X15551219Y-14609427D01*
X15868900Y-14927663D01*
X16284183Y-15100103D01*
X16733844Y-15100496D01*
X17149427Y-14928781D01*
X17209754Y-14868559D01*
X17244538Y-14952743D01*
X17433719Y-15142254D01*
X17681022Y-15244943D01*
X17948798Y-15245177D01*
X18196280Y-15142919D01*
X18385791Y-14953738D01*
X18400226Y-14918974D01*
X18408900Y-14927663D01*
X18824183Y-15100103D01*
X19273844Y-15100496D01*
X19652995Y-14943834D01*
X19749041Y-15176283D01*
X19938222Y-15365794D01*
X20185525Y-15468483D01*
X20453301Y-15468717D01*
X20511298Y-15444753D01*
X20506990Y-15455128D01*
X20506756Y-15722904D01*
X20609014Y-15970386D01*
X20798195Y-16159897D01*
X21045498Y-16262586D01*
X21313274Y-16262820D01*
X21560756Y-16160562D01*
X21750267Y-15971381D01*
X21852956Y-15724078D01*
X21853190Y-15456302D01*
X21750932Y-15208820D01*
X21642647Y-15100346D01*
X21813844Y-15100496D01*
X22229427Y-14928781D01*
X22547663Y-14611100D01*
X22720103Y-14195817D01*
X22720496Y-13746156D01*
X22548781Y-13330573D01*
X22231100Y-13012337D01*
X21815817Y-12839897D01*
X21366156Y-12839504D01*
X20950573Y-13011219D01*
X20632337Y-13328900D01*
X20459897Y-13744183D01*
X20459564Y-14124630D01*
X20454475Y-14122517D01*
X20186699Y-14122283D01*
X20180165Y-14124983D01*
X20180496Y-13746156D01*
X20008781Y-13330573D01*
X19691100Y-13012337D01*
X19275817Y-12839897D01*
X18826156Y-12839504D01*
X18410573Y-13011219D01*
X18092337Y-13328900D01*
X17919897Y-13744183D01*
X17919762Y-13898951D01*
X17682196Y-13898743D01*
X17640348Y-13916035D01*
X17640496Y-13746156D01*
X17468781Y-13330573D01*
X17151100Y-13012337D01*
X16735817Y-12839897D01*
X16286156Y-12839504D01*
X15870573Y-13011219D01*
X15552337Y-13328900D01*
X15379897Y-13744183D01*
X15379504Y-14193844D01*
X15100104Y-14193844D01*
X15100496Y-13746156D01*
X14928781Y-13330573D01*
X14611100Y-13012337D01*
X14195817Y-12839897D01*
X13746156Y-12839504D01*
X13330573Y-13011219D01*
X13012337Y-13328900D01*
X12839897Y-13744183D01*
X12839504Y-14193844D01*
X12560104Y-14193844D01*
X12560496Y-13746156D01*
X12388781Y-13330573D01*
X12071100Y-13012337D01*
X11655817Y-12839897D01*
X11206156Y-12839504D01*
X10790573Y-13011219D01*
X10472337Y-13328900D01*
X10299897Y-13744183D01*
X10299504Y-14193844D01*
X10020104Y-14193844D01*
X10020496Y-13746156D01*
X9848781Y-13330573D01*
X9531100Y-13012337D01*
X9115817Y-12839897D01*
X8666156Y-12839504D01*
X8250573Y-13011219D01*
X7932337Y-13328900D01*
X7759897Y-13744183D01*
X7759504Y-14193844D01*
X7480104Y-14193844D01*
X7480496Y-13746156D01*
X7308781Y-13330573D01*
X6991100Y-13012337D01*
X6575817Y-12839897D01*
X6126156Y-12839504D01*
X5710573Y-13011219D01*
X5392337Y-13328900D01*
X5219897Y-13744183D01*
X5219504Y-14193844D01*
X4940104Y-14193844D01*
X4940496Y-13746156D01*
X4768781Y-13330573D01*
X4451100Y-13012337D01*
X4035817Y-12839897D01*
X3586156Y-12839504D01*
X3209828Y-12994999D01*
X3276483Y-12834475D01*
X3276717Y-12566699D01*
X3209749Y-12404625D01*
X3584183Y-12560103D01*
X4033844Y-12560496D01*
X4449427Y-12388781D01*
X4767663Y-12071100D01*
X4940103Y-11655817D01*
X4940104Y-11653844D01*
X5219504Y-11653844D01*
X5391219Y-12069427D01*
X5708900Y-12387663D01*
X6124183Y-12560103D01*
X6573844Y-12560496D01*
X6989427Y-12388781D01*
X7307663Y-12071100D01*
X7480103Y-11655817D01*
X7480104Y-11653844D01*
X7759504Y-11653844D01*
X7931219Y-12069427D01*
X8248900Y-12387663D01*
X8664183Y-12560103D01*
X9113844Y-12560496D01*
X9529427Y-12388781D01*
X9847663Y-12071100D01*
X10020103Y-11655817D01*
X10020104Y-11653844D01*
X10299504Y-11653844D01*
X10471219Y-12069427D01*
X10788900Y-12387663D01*
X11204183Y-12560103D01*
X11653844Y-12560496D01*
X12069427Y-12388781D01*
X12387663Y-12071100D01*
X12560103Y-11655817D01*
X12560104Y-11653844D01*
X12839504Y-11653844D01*
X13011219Y-12069427D01*
X13328900Y-12387663D01*
X13744183Y-12560103D01*
X14193844Y-12560496D01*
X14609427Y-12388781D01*
X14927663Y-12071100D01*
X15100103Y-11655817D01*
X15100104Y-11653844D01*
X15379504Y-11653844D01*
X15551219Y-12069427D01*
X15868900Y-12387663D01*
X16284183Y-12560103D01*
X16733844Y-12560496D01*
X17149427Y-12388781D01*
X17467663Y-12071100D01*
X17640103Y-11655817D01*
X17640104Y-11653844D01*
X17919504Y-11653844D01*
X18091219Y-12069427D01*
X18408900Y-12387663D01*
X18824183Y-12560103D01*
X19273844Y-12560496D01*
X19652995Y-12403834D01*
X19749041Y-12636283D01*
X19938222Y-12825794D01*
X20185525Y-12928483D01*
X20453301Y-12928717D01*
X20700783Y-12826459D01*
X20890294Y-12637278D01*
X20987319Y-12403616D01*
X21364183Y-12560103D01*
X21813844Y-12560496D01*
X22229427Y-12388781D01*
X22547663Y-12071100D01*
X22720103Y-11655817D01*
X22720496Y-11206156D01*
X22548781Y-10790573D01*
X22231100Y-10472337D01*
X21815817Y-10299897D01*
X21366156Y-10299504D01*
X20950573Y-10471219D01*
X20632337Y-10788900D01*
X20459897Y-11204183D01*
X20459564Y-11584630D01*
X20454475Y-11582517D01*
X20186699Y-11582283D01*
X20180165Y-11584983D01*
X20180496Y-11206156D01*
X20008781Y-10790573D01*
X19691100Y-10472337D01*
X19275817Y-10299897D01*
X18826156Y-10299504D01*
X18410573Y-10471219D01*
X18092337Y-10788900D01*
X17919897Y-11204183D01*
X17919504Y-11653844D01*
X17640104Y-11653844D01*
X17640496Y-11206156D01*
X17468781Y-10790573D01*
X17151100Y-10472337D01*
X16735817Y-10299897D01*
X16286156Y-10299504D01*
X15870573Y-10471219D01*
X15552337Y-10788900D01*
X15379897Y-11204183D01*
X15379504Y-11653844D01*
X15100104Y-11653844D01*
X15100496Y-11206156D01*
X14928781Y-10790573D01*
X14611100Y-10472337D01*
X14195817Y-10299897D01*
X13746156Y-10299504D01*
X13330573Y-10471219D01*
X13012337Y-10788900D01*
X12839897Y-11204183D01*
X12839504Y-11653844D01*
X12560104Y-11653844D01*
X12560496Y-11206156D01*
X12388781Y-10790573D01*
X12071100Y-10472337D01*
X11655817Y-10299897D01*
X11206156Y-10299504D01*
X10790573Y-10471219D01*
X10472337Y-10788900D01*
X10299897Y-11204183D01*
X10299504Y-11653844D01*
X10020104Y-11653844D01*
X10020496Y-11206156D01*
X9848781Y-10790573D01*
X9531100Y-10472337D01*
X9115817Y-10299897D01*
X8666156Y-10299504D01*
X8250573Y-10471219D01*
X7932337Y-10788900D01*
X7759897Y-11204183D01*
X7759504Y-11653844D01*
X7480104Y-11653844D01*
X7480496Y-11206156D01*
X7308781Y-10790573D01*
X6991100Y-10472337D01*
X6575817Y-10299897D01*
X6126156Y-10299504D01*
X5710573Y-10471219D01*
X5392337Y-10788900D01*
X5219897Y-11204183D01*
X5219504Y-11653844D01*
X4940104Y-11653844D01*
X4940496Y-11206156D01*
X4768781Y-10790573D01*
X4451100Y-10472337D01*
X4035817Y-10299897D01*
X3586156Y-10299504D01*
X3170573Y-10471219D01*
X2852337Y-10788900D01*
X2679897Y-11204183D01*
X2679504Y-11653844D01*
X2851219Y-12069427D01*
X2859084Y-12077306D01*
X2737975Y-12027017D01*
X2470199Y-12026783D01*
X2222717Y-12129041D01*
X2033206Y-12318222D01*
X1930517Y-12565525D01*
X1930283Y-12833301D01*
X380200Y-12833301D01*
X380200Y-12138529D01*
X628900Y-12387663D01*
X1044183Y-12560103D01*
X1493844Y-12560496D01*
X1909427Y-12388781D01*
X2227663Y-12071100D01*
X2400103Y-11655817D01*
X2400496Y-11206156D01*
X2228781Y-10790573D01*
X1911100Y-10472337D01*
X1495817Y-10299897D01*
X1046156Y-10299504D01*
X630573Y-10471219D01*
X380200Y-10721155D01*
X380200Y-9598529D01*
X628900Y-9847663D01*
X1044183Y-10020103D01*
X1493844Y-10020496D01*
X1909427Y-9848781D01*
X2227663Y-9531100D01*
X2400103Y-9115817D01*
X2400104Y-9113844D01*
X2679504Y-9113844D01*
X2851219Y-9529427D01*
X3168900Y-9847663D01*
X3584183Y-10020103D01*
X4033844Y-10020496D01*
X4449427Y-9848781D01*
X4767663Y-9531100D01*
X4940103Y-9115817D01*
X4940104Y-9113844D01*
X5219504Y-9113844D01*
X5391219Y-9529427D01*
X5708900Y-9847663D01*
X6124183Y-10020103D01*
X6573844Y-10020496D01*
X6989427Y-9848781D01*
X7307663Y-9531100D01*
X7480103Y-9115817D01*
X7480104Y-9113844D01*
X7759504Y-9113844D01*
X7931219Y-9529427D01*
X8248900Y-9847663D01*
X8664183Y-10020103D01*
X9113844Y-10020496D01*
X9529427Y-9848781D01*
X9847663Y-9531100D01*
X10020103Y-9115817D01*
X10020104Y-9113844D01*
X10299504Y-9113844D01*
X10471219Y-9529427D01*
X10788900Y-9847663D01*
X11204183Y-10020103D01*
X11653844Y-10020496D01*
X12069427Y-9848781D01*
X12387663Y-9531100D01*
X12560103Y-9115817D01*
X12560104Y-9113844D01*
X12839504Y-9113844D01*
X13011219Y-9529427D01*
X13328900Y-9847663D01*
X13744183Y-10020103D01*
X14193844Y-10020496D01*
X14609427Y-9848781D01*
X14927663Y-9531100D01*
X15100103Y-9115817D01*
X15100104Y-9113844D01*
X15379504Y-9113844D01*
X15551219Y-9529427D01*
X15868900Y-9847663D01*
X16284183Y-10020103D01*
X16733844Y-10020496D01*
X17149427Y-9848781D01*
X17467663Y-9531100D01*
X17640103Y-9115817D01*
X17640104Y-9113844D01*
X17919504Y-9113844D01*
X18091219Y-9529427D01*
X18408900Y-9847663D01*
X18824183Y-10020103D01*
X19273844Y-10020496D01*
X19689427Y-9848781D01*
X20007663Y-9531100D01*
X20180103Y-9115817D01*
X20180104Y-9113844D01*
X20459504Y-9113844D01*
X20631219Y-9529427D01*
X20948900Y-9847663D01*
X21364183Y-10020103D01*
X21813844Y-10020496D01*
X22229427Y-9848781D01*
X22547663Y-9531100D01*
X22720103Y-9115817D01*
X22720496Y-8666156D01*
X22548781Y-8250573D01*
X22231100Y-7932337D01*
X21815817Y-7759897D01*
X21366156Y-7759504D01*
X20950573Y-7931219D01*
X20632337Y-8248900D01*
X20459897Y-8664183D01*
X20459504Y-9113844D01*
X20180104Y-9113844D01*
X20180496Y-8666156D01*
X20008781Y-8250573D01*
X19691100Y-7932337D01*
X19275817Y-7759897D01*
X18826156Y-7759504D01*
X18410573Y-7931219D01*
X18092337Y-8248900D01*
X17919897Y-8664183D01*
X17919504Y-9113844D01*
X17640104Y-9113844D01*
X17640496Y-8666156D01*
X17468781Y-8250573D01*
X17151100Y-7932337D01*
X16735817Y-7759897D01*
X16286156Y-7759504D01*
X15870573Y-7931219D01*
X15552337Y-8248900D01*
X15379897Y-8664183D01*
X15379504Y-9113844D01*
X15100104Y-9113844D01*
X15100496Y-8666156D01*
X14928781Y-8250573D01*
X14611100Y-7932337D01*
X14195817Y-7759897D01*
X13746156Y-7759504D01*
X13330573Y-7931219D01*
X13012337Y-8248900D01*
X12839897Y-8664183D01*
X12839504Y-9113844D01*
X12560104Y-9113844D01*
X12560496Y-8666156D01*
X12388781Y-8250573D01*
X12071100Y-7932337D01*
X11655817Y-7759897D01*
X11206156Y-7759504D01*
X10790573Y-7931219D01*
X10472337Y-8248900D01*
X10299897Y-8664183D01*
X10299504Y-9113844D01*
X10020104Y-9113844D01*
X10020496Y-8666156D01*
X9848781Y-8250573D01*
X9531100Y-7932337D01*
X9115817Y-7759897D01*
X8666156Y-7759504D01*
X8250573Y-7931219D01*
X7932337Y-8248900D01*
X7759897Y-8664183D01*
X7759504Y-9113844D01*
X7480104Y-9113844D01*
X7480496Y-8666156D01*
X7308781Y-8250573D01*
X6991100Y-7932337D01*
X6575817Y-7759897D01*
X6126156Y-7759504D01*
X5710573Y-7931219D01*
X5392337Y-8248900D01*
X5219897Y-8664183D01*
X5219504Y-9113844D01*
X4940104Y-9113844D01*
X4940496Y-8666156D01*
X4768781Y-8250573D01*
X4451100Y-7932337D01*
X4035817Y-7759897D01*
X3586156Y-7759504D01*
X3170573Y-7931219D01*
X2852337Y-8248900D01*
X2679897Y-8664183D01*
X2679504Y-9113844D01*
X2400104Y-9113844D01*
X2400496Y-8666156D01*
X2228781Y-8250573D01*
X1911100Y-7932337D01*
X1495817Y-7759897D01*
X1046156Y-7759504D01*
X630573Y-7931219D01*
X380200Y-8181155D01*
X380200Y-7058529D01*
X628900Y-7307663D01*
X1044183Y-7480103D01*
X1493844Y-7480496D01*
X1909427Y-7308781D01*
X2227663Y-6991100D01*
X2400103Y-6575817D01*
X2400104Y-6573844D01*
X2679504Y-6573844D01*
X2851219Y-6989427D01*
X3168900Y-7307663D01*
X3584183Y-7480103D01*
X4033844Y-7480496D01*
X4449427Y-7308781D01*
X4767663Y-6991100D01*
X4940103Y-6575817D01*
X4940104Y-6573844D01*
X5219504Y-6573844D01*
X5391219Y-6989427D01*
X5708900Y-7307663D01*
X6124183Y-7480103D01*
X6573844Y-7480496D01*
X6989427Y-7308781D01*
X7307663Y-6991100D01*
X7480103Y-6575817D01*
X7480104Y-6573844D01*
X7759504Y-6573844D01*
X7931219Y-6989427D01*
X8248900Y-7307663D01*
X8664183Y-7480103D01*
X9113844Y-7480496D01*
X9529427Y-7308781D01*
X9847663Y-6991100D01*
X10020103Y-6575817D01*
X10020104Y-6573844D01*
X10299504Y-6573844D01*
X10471219Y-6989427D01*
X10788900Y-7307663D01*
X11204183Y-7480103D01*
X11653844Y-7480496D01*
X12069427Y-7308781D01*
X12387663Y-6991100D01*
X12560103Y-6575817D01*
X12560104Y-6573844D01*
X12839504Y-6573844D01*
X13011219Y-6989427D01*
X13328900Y-7307663D01*
X13744183Y-7480103D01*
X14193844Y-7480496D01*
X14609427Y-7308781D01*
X14927663Y-6991100D01*
X15100103Y-6575817D01*
X15100104Y-6573844D01*
X15379504Y-6573844D01*
X15551219Y-6989427D01*
X15868900Y-7307663D01*
X16284183Y-7480103D01*
X16733844Y-7480496D01*
X17149427Y-7308781D01*
X17467663Y-6991100D01*
X17640103Y-6575817D01*
X17640104Y-6573844D01*
X17919504Y-6573844D01*
X18091219Y-6989427D01*
X18408900Y-7307663D01*
X18824183Y-7480103D01*
X19273844Y-7480496D01*
X19689427Y-7308781D01*
X20007663Y-6991100D01*
X20180103Y-6575817D01*
X20180104Y-6573844D01*
X20459504Y-6573844D01*
X20631219Y-6989427D01*
X20948900Y-7307663D01*
X21364183Y-7480103D01*
X21813844Y-7480496D01*
X22229427Y-7308781D01*
X22547663Y-6991100D01*
X22720103Y-6575817D01*
X22720496Y-6126156D01*
X22548781Y-5710573D01*
X22231100Y-5392337D01*
X21815817Y-5219897D01*
X21366156Y-5219504D01*
X20950573Y-5391219D01*
X20632337Y-5708900D01*
X20459897Y-6124183D01*
X20459504Y-6573844D01*
X20180104Y-6573844D01*
X20180496Y-6126156D01*
X20008781Y-5710573D01*
X19691100Y-5392337D01*
X19275817Y-5219897D01*
X18826156Y-5219504D01*
X18410573Y-5391219D01*
X18092337Y-5708900D01*
X17919897Y-6124183D01*
X17919504Y-6573844D01*
X17640104Y-6573844D01*
X17640496Y-6126156D01*
X17468781Y-5710573D01*
X17151100Y-5392337D01*
X16735817Y-5219897D01*
X16286156Y-5219504D01*
X15870573Y-5391219D01*
X15552337Y-5708900D01*
X15379897Y-6124183D01*
X15379504Y-6573844D01*
X15100104Y-6573844D01*
X15100496Y-6126156D01*
X14928781Y-5710573D01*
X14611100Y-5392337D01*
X14195817Y-5219897D01*
X13746156Y-5219504D01*
X13330573Y-5391219D01*
X13012337Y-5708900D01*
X12839897Y-6124183D01*
X12839504Y-6573844D01*
X12560104Y-6573844D01*
X12560496Y-6126156D01*
X12388781Y-5710573D01*
X12071100Y-5392337D01*
X11655817Y-5219897D01*
X11206156Y-5219504D01*
X10790573Y-5391219D01*
X10472337Y-5708900D01*
X10299897Y-6124183D01*
X10299504Y-6573844D01*
X10020104Y-6573844D01*
X10020496Y-6126156D01*
X9848781Y-5710573D01*
X9531100Y-5392337D01*
X9115817Y-5219897D01*
X8666156Y-5219504D01*
X8250573Y-5391219D01*
X7932337Y-5708900D01*
X7759897Y-6124183D01*
X7759504Y-6573844D01*
X7480104Y-6573844D01*
X7480496Y-6126156D01*
X7308781Y-5710573D01*
X6991100Y-5392337D01*
X6575817Y-5219897D01*
X6126156Y-5219504D01*
X5710573Y-5391219D01*
X5392337Y-5708900D01*
X5219897Y-6124183D01*
X5219504Y-6573844D01*
X4940104Y-6573844D01*
X4940496Y-6126156D01*
X4768781Y-5710573D01*
X4451100Y-5392337D01*
X4035817Y-5219897D01*
X3586156Y-5219504D01*
X3170573Y-5391219D01*
X2852337Y-5708900D01*
X2679897Y-6124183D01*
X2679504Y-6573844D01*
X2400104Y-6573844D01*
X2400496Y-6126156D01*
X2228781Y-5710573D01*
X1911100Y-5392337D01*
X1495817Y-5219897D01*
X1046156Y-5219504D01*
X630573Y-5391219D01*
X380200Y-5641155D01*
X380200Y-4643022D01*
X598623Y-4643022D01*
X688421Y-4804934D01*
X1113435Y-4951760D01*
X1562286Y-4924763D01*
X1851579Y-4804934D01*
X1941377Y-4643022D01*
X3138623Y-4643022D01*
X3228421Y-4804934D01*
X3653435Y-4951760D01*
X4102286Y-4924763D01*
X4391579Y-4804934D01*
X4481377Y-4643022D01*
X5678623Y-4643022D01*
X5768421Y-4804934D01*
X6193435Y-4951760D01*
X6642286Y-4924763D01*
X6931579Y-4804934D01*
X7021377Y-4643022D01*
X8218623Y-4643022D01*
X8308421Y-4804934D01*
X8733435Y-4951760D01*
X9182286Y-4924763D01*
X9471579Y-4804934D01*
X9561377Y-4643022D01*
X10758623Y-4643022D01*
X10848421Y-4804934D01*
X11273435Y-4951760D01*
X11722286Y-4924763D01*
X12011579Y-4804934D01*
X12101377Y-4643022D01*
X13298623Y-4643022D01*
X13388421Y-4804934D01*
X13813435Y-4951760D01*
X14262286Y-4924763D01*
X14551579Y-4804934D01*
X14641377Y-4643022D01*
X15838623Y-4643022D01*
X15928421Y-4804934D01*
X16353435Y-4951760D01*
X16802286Y-4924763D01*
X17091579Y-4804934D01*
X17181377Y-4643022D01*
X18378623Y-4643022D01*
X18468421Y-4804934D01*
X18893435Y-4951760D01*
X19342286Y-4924763D01*
X19631579Y-4804934D01*
X19721377Y-4643022D01*
X20918623Y-4643022D01*
X21008421Y-4804934D01*
X21433435Y-4951760D01*
X21882286Y-4924763D01*
X22171579Y-4804934D01*
X22261377Y-4643022D01*
X23458623Y-4643022D01*
X23548421Y-4804934D01*
X23973435Y-4951760D01*
X24422286Y-4924763D01*
X24711579Y-4804934D01*
X24801377Y-4643022D01*
X24130000Y-3971645D01*
X23458623Y-4643022D01*
X22261377Y-4643022D01*
X21590000Y-3971645D01*
X20918623Y-4643022D01*
X19721377Y-4643022D01*
X19050000Y-3971645D01*
X18378623Y-4643022D01*
X17181377Y-4643022D01*
X16510000Y-3971645D01*
X15838623Y-4643022D01*
X14641377Y-4643022D01*
X13970000Y-3971645D01*
X13298623Y-4643022D01*
X12101377Y-4643022D01*
X11430000Y-3971645D01*
X10758623Y-4643022D01*
X9561377Y-4643022D01*
X8890000Y-3971645D01*
X8218623Y-4643022D01*
X7021377Y-4643022D01*
X6350000Y-3971645D01*
X5678623Y-4643022D01*
X4481377Y-4643022D01*
X3810000Y-3971645D01*
X3138623Y-4643022D01*
X1941377Y-4643022D01*
X1270000Y-3971645D01*
X598623Y-4643022D01*
X380200Y-4643022D01*
X380200Y-4449887D01*
X436978Y-4481377D01*
X1108355Y-3810000D01*
X1431645Y-3810000D01*
X2103022Y-4481377D01*
X2264934Y-4391579D01*
X2411760Y-3966565D01*
X2392927Y-3653435D01*
X2668240Y-3653435D01*
X2695237Y-4102286D01*
X2815066Y-4391579D01*
X2976978Y-4481377D01*
X3648355Y-3810000D01*
X3971645Y-3810000D01*
X4643022Y-4481377D01*
X4804934Y-4391579D01*
X4951760Y-3966565D01*
X4932927Y-3653435D01*
X5208240Y-3653435D01*
X5235237Y-4102286D01*
X5355066Y-4391579D01*
X5516978Y-4481377D01*
X6188355Y-3810000D01*
X6511645Y-3810000D01*
X7183022Y-4481377D01*
X7344934Y-4391579D01*
X7491760Y-3966565D01*
X7472927Y-3653435D01*
X7748240Y-3653435D01*
X7775237Y-4102286D01*
X7895066Y-4391579D01*
X8056978Y-4481377D01*
X8728355Y-3810000D01*
X9051645Y-3810000D01*
X9723022Y-4481377D01*
X9884934Y-4391579D01*
X10031760Y-3966565D01*
X10012927Y-3653435D01*
X10288240Y-3653435D01*
X10315237Y-4102286D01*
X10435066Y-4391579D01*
X10596978Y-4481377D01*
X11268355Y-3810000D01*
X11591645Y-3810000D01*
X12263022Y-4481377D01*
X12424934Y-4391579D01*
X12571760Y-3966565D01*
X12552927Y-3653435D01*
X12828240Y-3653435D01*
X12855237Y-4102286D01*
X12975066Y-4391579D01*
X13136978Y-4481377D01*
X13808355Y-3810000D01*
X14131645Y-3810000D01*
X14803022Y-4481377D01*
X14964934Y-4391579D01*
X15111760Y-3966565D01*
X15092927Y-3653435D01*
X15368240Y-3653435D01*
X15395237Y-4102286D01*
X15515066Y-4391579D01*
X15676978Y-4481377D01*
X16348355Y-3810000D01*
X16671645Y-3810000D01*
X17343022Y-4481377D01*
X17504934Y-4391579D01*
X17651760Y-3966565D01*
X17632927Y-3653435D01*
X17908240Y-3653435D01*
X17935237Y-4102286D01*
X18055066Y-4391579D01*
X18216978Y-4481377D01*
X18888355Y-3810000D01*
X19211645Y-3810000D01*
X19883022Y-4481377D01*
X20044934Y-4391579D01*
X20191760Y-3966565D01*
X20172927Y-3653435D01*
X20448240Y-3653435D01*
X20475237Y-4102286D01*
X20595066Y-4391579D01*
X20756978Y-4481377D01*
X21428355Y-3810000D01*
X21751645Y-3810000D01*
X22423022Y-4481377D01*
X22584934Y-4391579D01*
X22731760Y-3966565D01*
X22712927Y-3653435D01*
X22988240Y-3653435D01*
X23015237Y-4102286D01*
X23135066Y-4391579D01*
X23296978Y-4481377D01*
X23968355Y-3810000D01*
X23296978Y-3138623D01*
X23135066Y-3228421D01*
X22988240Y-3653435D01*
X22712927Y-3653435D01*
X22704763Y-3517714D01*
X22584934Y-3228421D01*
X22423022Y-3138623D01*
X21751645Y-3810000D01*
X21428355Y-3810000D01*
X20756978Y-3138623D01*
X20595066Y-3228421D01*
X20448240Y-3653435D01*
X20172927Y-3653435D01*
X20164763Y-3517714D01*
X20044934Y-3228421D01*
X19883022Y-3138623D01*
X19211645Y-3810000D01*
X18888355Y-3810000D01*
X18216978Y-3138623D01*
X18055066Y-3228421D01*
X17908240Y-3653435D01*
X17632927Y-3653435D01*
X17624763Y-3517714D01*
X17504934Y-3228421D01*
X17343022Y-3138623D01*
X16671645Y-3810000D01*
X16348355Y-3810000D01*
X15676978Y-3138623D01*
X15515066Y-3228421D01*
X15368240Y-3653435D01*
X15092927Y-3653435D01*
X15084763Y-3517714D01*
X14964934Y-3228421D01*
X14803022Y-3138623D01*
X14131645Y-3810000D01*
X13808355Y-3810000D01*
X13136978Y-3138623D01*
X12975066Y-3228421D01*
X12828240Y-3653435D01*
X12552927Y-3653435D01*
X12544763Y-3517714D01*
X12424934Y-3228421D01*
X12263022Y-3138623D01*
X11591645Y-3810000D01*
X11268355Y-3810000D01*
X10596978Y-3138623D01*
X10435066Y-3228421D01*
X10288240Y-3653435D01*
X10012927Y-3653435D01*
X10004763Y-3517714D01*
X9884934Y-3228421D01*
X9723022Y-3138623D01*
X9051645Y-3810000D01*
X8728355Y-3810000D01*
X8056978Y-3138623D01*
X7895066Y-3228421D01*
X7748240Y-3653435D01*
X7472927Y-3653435D01*
X7464763Y-3517714D01*
X7344934Y-3228421D01*
X7183022Y-3138623D01*
X6511645Y-3810000D01*
X6188355Y-3810000D01*
X5516978Y-3138623D01*
X5355066Y-3228421D01*
X5208240Y-3653435D01*
X4932927Y-3653435D01*
X4924763Y-3517714D01*
X4804934Y-3228421D01*
X4643022Y-3138623D01*
X3971645Y-3810000D01*
X3648355Y-3810000D01*
X2976978Y-3138623D01*
X2815066Y-3228421D01*
X2668240Y-3653435D01*
X2392927Y-3653435D01*
X2384763Y-3517714D01*
X2264934Y-3228421D01*
X2103022Y-3138623D01*
X1431645Y-3810000D01*
X1108355Y-3810000D01*
X436978Y-3138623D01*
X380200Y-3170113D01*
X380200Y-2976978D01*
X598623Y-2976978D01*
X1270000Y-3648355D01*
X1941377Y-2976978D01*
X3138623Y-2976978D01*
X3810000Y-3648355D01*
X4481377Y-2976978D01*
X5678623Y-2976978D01*
X6350000Y-3648355D01*
X7021377Y-2976978D01*
X8218623Y-2976978D01*
X8890000Y-3648355D01*
X9561377Y-2976978D01*
X10758623Y-2976978D01*
X11430000Y-3648355D01*
X12101377Y-2976978D01*
X13298623Y-2976978D01*
X13970000Y-3648355D01*
X14641377Y-2976978D01*
X15838623Y-2976978D01*
X16510000Y-3648355D01*
X17181377Y-2976978D01*
X18378623Y-2976978D01*
X19050000Y-3648355D01*
X19721377Y-2976978D01*
X20918623Y-2976978D01*
X21590000Y-3648355D01*
X22261377Y-2976978D01*
X23458623Y-2976978D01*
X24130000Y-3648355D01*
X24801377Y-2976978D01*
X24711579Y-2815066D01*
X24286565Y-2668240D01*
X23837714Y-2695237D01*
X23548421Y-2815066D01*
X23458623Y-2976978D01*
X22261377Y-2976978D01*
X22171579Y-2815066D01*
X21746565Y-2668240D01*
X21297714Y-2695237D01*
X21008421Y-2815066D01*
X20918623Y-2976978D01*
X19721377Y-2976978D01*
X19631579Y-2815066D01*
X19206565Y-2668240D01*
X18757714Y-2695237D01*
X18468421Y-2815066D01*
X18378623Y-2976978D01*
X17181377Y-2976978D01*
X17091579Y-2815066D01*
X16666565Y-2668240D01*
X16217714Y-2695237D01*
X15928421Y-2815066D01*
X15838623Y-2976978D01*
X14641377Y-2976978D01*
X14551579Y-2815066D01*
X14126565Y-2668240D01*
X13677714Y-2695237D01*
X13388421Y-2815066D01*
X13298623Y-2976978D01*
X12101377Y-2976978D01*
X12011579Y-2815066D01*
X11586565Y-2668240D01*
X11137714Y-2695237D01*
X10848421Y-2815066D01*
X10758623Y-2976978D01*
X9561377Y-2976978D01*
X9471579Y-2815066D01*
X9046565Y-2668240D01*
X8597714Y-2695237D01*
X8308421Y-2815066D01*
X8218623Y-2976978D01*
X7021377Y-2976978D01*
X6931579Y-2815066D01*
X6506565Y-2668240D01*
X6057714Y-2695237D01*
X5768421Y-2815066D01*
X5678623Y-2976978D01*
X4481377Y-2976978D01*
X4391579Y-2815066D01*
X3966565Y-2668240D01*
X3517714Y-2695237D01*
X3228421Y-2815066D01*
X3138623Y-2976978D01*
X1941377Y-2976978D01*
X1851579Y-2815066D01*
X1426565Y-2668240D01*
X977714Y-2695237D01*
X688421Y-2815066D01*
X598623Y-2976978D01*
X380200Y-2976978D01*
X380200Y-2388604D01*
X469900Y-2406769D01*
X2070100Y-2406769D01*
X2192465Y-2383744D01*
X2304849Y-2311427D01*
X2380244Y-2201083D01*
X2406769Y-2070100D01*
X2406769Y-469900D01*
X2389890Y-380200D01*
X2691396Y-380200D01*
X2673231Y-469900D01*
M02*
