G04 #@! TF.FileFunction,Soldermask,Top*
%FSLAX46Y46*%
G04 Gerber Fmt 4.6, Leading zero omitted, Abs format (unit mm)*
G04 Created by KiCad (PCBNEW 4.0.1-stable) date 2016-02-27 01:30:11*
%MOMM*%
G01*
G04 APERTURE LIST*
%ADD10C,0.050800*%
G04 APERTURE END LIST*
D10*
G36*
X11328400Y-24726900D02*
X10414000Y-24726900D01*
X10414000Y-23533100D01*
X11328400Y-23533100D01*
X11328400Y-24726900D01*
X11328400Y-24726900D01*
G37*
G36*
X9906000Y-24726900D02*
X8991600Y-24726900D01*
X8991600Y-23533100D01*
X9906000Y-23533100D01*
X9906000Y-24726900D01*
X9906000Y-24726900D01*
G37*
G36*
X22301200Y-24104600D02*
X17119600Y-24104600D01*
X17119600Y-22377400D01*
X22301200Y-22377400D01*
X22301200Y-24104600D01*
X22301200Y-24104600D01*
G37*
G36*
X8305800Y-24104600D02*
X3124200Y-24104600D01*
X3124200Y-22377400D01*
X8305800Y-22377400D01*
X8305800Y-24104600D01*
X8305800Y-24104600D01*
G37*
G36*
X14242000Y-22702000D02*
X13188000Y-22702000D01*
X13188000Y-21748000D01*
X14242000Y-21748000D01*
X14242000Y-22702000D01*
X14242000Y-22702000D01*
G37*
G36*
X10942000Y-22702000D02*
X9888000Y-22702000D01*
X9888000Y-21748000D01*
X10942000Y-21748000D01*
X10942000Y-22702000D01*
X10942000Y-22702000D01*
G37*
G36*
X10942000Y-21432000D02*
X9888000Y-21432000D01*
X9888000Y-20478000D01*
X10942000Y-20478000D01*
X10942000Y-21432000D01*
X10942000Y-21432000D01*
G37*
G36*
X14242000Y-21432000D02*
X13188000Y-21432000D01*
X13188000Y-20478000D01*
X14242000Y-20478000D01*
X14242000Y-21432000D01*
X14242000Y-21432000D01*
G37*
G36*
X10942000Y-20162000D02*
X9888000Y-20162000D01*
X9888000Y-19208000D01*
X10942000Y-19208000D01*
X10942000Y-20162000D01*
X10942000Y-20162000D01*
G37*
G36*
X14242000Y-20162000D02*
X13188000Y-20162000D01*
X13188000Y-19208000D01*
X14242000Y-19208000D01*
X14242000Y-20162000D01*
X14242000Y-20162000D01*
G37*
G36*
X16471900Y-18948400D02*
X15278100Y-18948400D01*
X15278100Y-18034000D01*
X16471900Y-18034000D01*
X16471900Y-18948400D01*
X16471900Y-18948400D01*
G37*
G36*
X14242000Y-18892000D02*
X13188000Y-18892000D01*
X13188000Y-17938000D01*
X14242000Y-17938000D01*
X14242000Y-18892000D01*
X14242000Y-18892000D01*
G37*
G36*
X10942000Y-18892000D02*
X9888000Y-18892000D01*
X9888000Y-17938000D01*
X10942000Y-17938000D01*
X10942000Y-18892000D01*
X10942000Y-18892000D01*
G37*
G36*
X22301200Y-18262600D02*
X17119600Y-18262600D01*
X17119600Y-16535400D01*
X22301200Y-16535400D01*
X22301200Y-18262600D01*
X22301200Y-18262600D01*
G37*
G36*
X8305800Y-18262600D02*
X3124200Y-18262600D01*
X3124200Y-16535400D01*
X8305800Y-16535400D01*
X8305800Y-18262600D01*
X8305800Y-18262600D01*
G37*
G36*
X14242000Y-17622000D02*
X13188000Y-17622000D01*
X13188000Y-16668000D01*
X14242000Y-16668000D01*
X14242000Y-17622000D01*
X14242000Y-17622000D01*
G37*
G36*
X10942000Y-17622000D02*
X9888000Y-17622000D01*
X9888000Y-16668000D01*
X10942000Y-16668000D01*
X10942000Y-17622000D01*
X10942000Y-17622000D01*
G37*
G36*
X16471900Y-17526000D02*
X15278100Y-17526000D01*
X15278100Y-16611600D01*
X16471900Y-16611600D01*
X16471900Y-17526000D01*
X16471900Y-17526000D01*
G37*
G36*
X1367376Y-15583516D02*
X1545479Y-15620075D01*
X1713087Y-15690531D01*
X1863812Y-15792196D01*
X1991931Y-15921214D01*
X2092542Y-16072645D01*
X2161827Y-16240744D01*
X2197089Y-16418828D01*
X2197089Y-16418835D01*
X2197140Y-16419093D01*
X2194240Y-16626759D01*
X2194182Y-16627014D01*
X2194182Y-16627021D01*
X2153961Y-16804054D01*
X2080010Y-16970151D01*
X1975209Y-17118716D01*
X1843541Y-17244102D01*
X1690034Y-17341520D01*
X1520519Y-17407270D01*
X1341473Y-17438842D01*
X1159694Y-17435033D01*
X982123Y-17395992D01*
X815519Y-17323205D01*
X666221Y-17219440D01*
X539921Y-17088653D01*
X441430Y-16935824D01*
X374501Y-16766781D01*
X341679Y-16587952D01*
X344218Y-16406157D01*
X382019Y-16228317D01*
X453643Y-16061205D01*
X556363Y-15911186D01*
X686262Y-15783980D01*
X838398Y-15684425D01*
X1006977Y-15616314D01*
X1185567Y-15582247D01*
X1367376Y-15583516D01*
X1367376Y-15583516D01*
G37*
G36*
X24227376Y-15583516D02*
X24405479Y-15620075D01*
X24573087Y-15690531D01*
X24723812Y-15792196D01*
X24851931Y-15921214D01*
X24952542Y-16072645D01*
X25021827Y-16240744D01*
X25057089Y-16418828D01*
X25057089Y-16418835D01*
X25057140Y-16419093D01*
X25054240Y-16626759D01*
X25054182Y-16627014D01*
X25054182Y-16627021D01*
X25013961Y-16804054D01*
X24940010Y-16970151D01*
X24835209Y-17118716D01*
X24703541Y-17244102D01*
X24550034Y-17341520D01*
X24380519Y-17407270D01*
X24201473Y-17438842D01*
X24019694Y-17435033D01*
X23842123Y-17395992D01*
X23675519Y-17323205D01*
X23526221Y-17219440D01*
X23399921Y-17088653D01*
X23301430Y-16935824D01*
X23234501Y-16766781D01*
X23201679Y-16587952D01*
X23204218Y-16406157D01*
X23242019Y-16228317D01*
X23313643Y-16061205D01*
X23416363Y-15911186D01*
X23546262Y-15783980D01*
X23698398Y-15684425D01*
X23866977Y-15616314D01*
X24045567Y-15582247D01*
X24227376Y-15583516D01*
X24227376Y-15583516D01*
G37*
G36*
X21687376Y-13043516D02*
X21865479Y-13080075D01*
X22033087Y-13150531D01*
X22183812Y-13252196D01*
X22311931Y-13381214D01*
X22412542Y-13532645D01*
X22481827Y-13700744D01*
X22517089Y-13878828D01*
X22517089Y-13878835D01*
X22517140Y-13879093D01*
X22514240Y-14086759D01*
X22514182Y-14087014D01*
X22514182Y-14087021D01*
X22473961Y-14264054D01*
X22400010Y-14430151D01*
X22295209Y-14578716D01*
X22163541Y-14704102D01*
X22010034Y-14801520D01*
X21840519Y-14867270D01*
X21661473Y-14898842D01*
X21479694Y-14895033D01*
X21302123Y-14855992D01*
X21135519Y-14783205D01*
X20986221Y-14679440D01*
X20859921Y-14548653D01*
X20761430Y-14395824D01*
X20694501Y-14226781D01*
X20661679Y-14047952D01*
X20664218Y-13866157D01*
X20702019Y-13688317D01*
X20773643Y-13521205D01*
X20876363Y-13371186D01*
X21006262Y-13243980D01*
X21158398Y-13144425D01*
X21326977Y-13076314D01*
X21505567Y-13042247D01*
X21687376Y-13043516D01*
X21687376Y-13043516D01*
G37*
G36*
X1367376Y-13043516D02*
X1545479Y-13080075D01*
X1713087Y-13150531D01*
X1863812Y-13252196D01*
X1991931Y-13381214D01*
X2092542Y-13532645D01*
X2161827Y-13700744D01*
X2197089Y-13878828D01*
X2197089Y-13878835D01*
X2197140Y-13879093D01*
X2194240Y-14086759D01*
X2194182Y-14087014D01*
X2194182Y-14087021D01*
X2153961Y-14264054D01*
X2080010Y-14430151D01*
X1975209Y-14578716D01*
X1843541Y-14704102D01*
X1690034Y-14801520D01*
X1520519Y-14867270D01*
X1341473Y-14898842D01*
X1159694Y-14895033D01*
X982123Y-14855992D01*
X815519Y-14783205D01*
X666221Y-14679440D01*
X539921Y-14548653D01*
X441430Y-14395824D01*
X374501Y-14226781D01*
X341679Y-14047952D01*
X344218Y-13866157D01*
X382019Y-13688317D01*
X453643Y-13521205D01*
X556363Y-13371186D01*
X686262Y-13243980D01*
X838398Y-13144425D01*
X1006977Y-13076314D01*
X1185567Y-13042247D01*
X1367376Y-13043516D01*
X1367376Y-13043516D01*
G37*
G36*
X6447376Y-13043516D02*
X6625479Y-13080075D01*
X6793087Y-13150531D01*
X6943812Y-13252196D01*
X7071931Y-13381214D01*
X7172542Y-13532645D01*
X7241827Y-13700744D01*
X7277089Y-13878828D01*
X7277089Y-13878835D01*
X7277140Y-13879093D01*
X7274240Y-14086759D01*
X7274182Y-14087014D01*
X7274182Y-14087021D01*
X7233961Y-14264054D01*
X7160010Y-14430151D01*
X7055209Y-14578716D01*
X6923541Y-14704102D01*
X6770034Y-14801520D01*
X6600519Y-14867270D01*
X6421473Y-14898842D01*
X6239694Y-14895033D01*
X6062123Y-14855992D01*
X5895519Y-14783205D01*
X5746221Y-14679440D01*
X5619921Y-14548653D01*
X5521430Y-14395824D01*
X5454501Y-14226781D01*
X5421679Y-14047952D01*
X5424218Y-13866157D01*
X5462019Y-13688317D01*
X5533643Y-13521205D01*
X5636363Y-13371186D01*
X5766262Y-13243980D01*
X5918398Y-13144425D01*
X6086977Y-13076314D01*
X6265567Y-13042247D01*
X6447376Y-13043516D01*
X6447376Y-13043516D01*
G37*
G36*
X8987376Y-13043516D02*
X9165479Y-13080075D01*
X9333087Y-13150531D01*
X9483812Y-13252196D01*
X9611931Y-13381214D01*
X9712542Y-13532645D01*
X9781827Y-13700744D01*
X9817089Y-13878828D01*
X9817089Y-13878835D01*
X9817140Y-13879093D01*
X9814240Y-14086759D01*
X9814182Y-14087014D01*
X9814182Y-14087021D01*
X9773961Y-14264054D01*
X9700010Y-14430151D01*
X9595209Y-14578716D01*
X9463541Y-14704102D01*
X9310034Y-14801520D01*
X9140519Y-14867270D01*
X8961473Y-14898842D01*
X8779694Y-14895033D01*
X8602123Y-14855992D01*
X8435519Y-14783205D01*
X8286221Y-14679440D01*
X8159921Y-14548653D01*
X8061430Y-14395824D01*
X7994501Y-14226781D01*
X7961679Y-14047952D01*
X7964218Y-13866157D01*
X8002019Y-13688317D01*
X8073643Y-13521205D01*
X8176363Y-13371186D01*
X8306262Y-13243980D01*
X8458398Y-13144425D01*
X8626977Y-13076314D01*
X8805567Y-13042247D01*
X8987376Y-13043516D01*
X8987376Y-13043516D01*
G37*
G36*
X11527376Y-13043516D02*
X11705479Y-13080075D01*
X11873087Y-13150531D01*
X12023812Y-13252196D01*
X12151931Y-13381214D01*
X12252542Y-13532645D01*
X12321827Y-13700744D01*
X12357089Y-13878828D01*
X12357089Y-13878835D01*
X12357140Y-13879093D01*
X12354240Y-14086759D01*
X12354182Y-14087014D01*
X12354182Y-14087021D01*
X12313961Y-14264054D01*
X12240010Y-14430151D01*
X12135209Y-14578716D01*
X12003541Y-14704102D01*
X11850034Y-14801520D01*
X11680519Y-14867270D01*
X11501473Y-14898842D01*
X11319694Y-14895033D01*
X11142123Y-14855992D01*
X10975519Y-14783205D01*
X10826221Y-14679440D01*
X10699921Y-14548653D01*
X10601430Y-14395824D01*
X10534501Y-14226781D01*
X10501679Y-14047952D01*
X10504218Y-13866157D01*
X10542019Y-13688317D01*
X10613643Y-13521205D01*
X10716363Y-13371186D01*
X10846262Y-13243980D01*
X10998398Y-13144425D01*
X11166977Y-13076314D01*
X11345567Y-13042247D01*
X11527376Y-13043516D01*
X11527376Y-13043516D01*
G37*
G36*
X16607376Y-13043516D02*
X16785479Y-13080075D01*
X16953087Y-13150531D01*
X17103812Y-13252196D01*
X17231931Y-13381214D01*
X17332542Y-13532645D01*
X17401827Y-13700744D01*
X17437089Y-13878828D01*
X17437089Y-13878835D01*
X17437140Y-13879093D01*
X17434240Y-14086759D01*
X17434182Y-14087014D01*
X17434182Y-14087021D01*
X17393961Y-14264054D01*
X17320010Y-14430151D01*
X17215209Y-14578716D01*
X17083541Y-14704102D01*
X16930034Y-14801520D01*
X16760519Y-14867270D01*
X16581473Y-14898842D01*
X16399694Y-14895033D01*
X16222123Y-14855992D01*
X16055519Y-14783205D01*
X15906221Y-14679440D01*
X15779921Y-14548653D01*
X15681430Y-14395824D01*
X15614501Y-14226781D01*
X15581679Y-14047952D01*
X15584218Y-13866157D01*
X15622019Y-13688317D01*
X15693643Y-13521205D01*
X15796363Y-13371186D01*
X15926262Y-13243980D01*
X16078398Y-13144425D01*
X16246977Y-13076314D01*
X16425567Y-13042247D01*
X16607376Y-13043516D01*
X16607376Y-13043516D01*
G37*
G36*
X19147376Y-13043516D02*
X19325479Y-13080075D01*
X19493087Y-13150531D01*
X19643812Y-13252196D01*
X19771931Y-13381214D01*
X19872542Y-13532645D01*
X19941827Y-13700744D01*
X19977089Y-13878828D01*
X19977089Y-13878835D01*
X19977140Y-13879093D01*
X19974240Y-14086759D01*
X19974182Y-14087014D01*
X19974182Y-14087021D01*
X19933961Y-14264054D01*
X19860010Y-14430151D01*
X19755209Y-14578716D01*
X19623541Y-14704102D01*
X19470034Y-14801520D01*
X19300519Y-14867270D01*
X19121473Y-14898842D01*
X18939694Y-14895033D01*
X18762123Y-14855992D01*
X18595519Y-14783205D01*
X18446221Y-14679440D01*
X18319921Y-14548653D01*
X18221430Y-14395824D01*
X18154501Y-14226781D01*
X18121679Y-14047952D01*
X18124218Y-13866157D01*
X18162019Y-13688317D01*
X18233643Y-13521205D01*
X18336363Y-13371186D01*
X18466262Y-13243980D01*
X18618398Y-13144425D01*
X18786977Y-13076314D01*
X18965567Y-13042247D01*
X19147376Y-13043516D01*
X19147376Y-13043516D01*
G37*
G36*
X3907376Y-13043516D02*
X4085479Y-13080075D01*
X4253087Y-13150531D01*
X4403812Y-13252196D01*
X4531931Y-13381214D01*
X4632542Y-13532645D01*
X4701827Y-13700744D01*
X4737089Y-13878828D01*
X4737089Y-13878835D01*
X4737140Y-13879093D01*
X4734240Y-14086759D01*
X4734182Y-14087014D01*
X4734182Y-14087021D01*
X4693961Y-14264054D01*
X4620010Y-14430151D01*
X4515209Y-14578716D01*
X4383541Y-14704102D01*
X4230034Y-14801520D01*
X4060519Y-14867270D01*
X3881473Y-14898842D01*
X3699694Y-14895033D01*
X3522123Y-14855992D01*
X3355519Y-14783205D01*
X3206221Y-14679440D01*
X3079921Y-14548653D01*
X2981430Y-14395824D01*
X2914501Y-14226781D01*
X2881679Y-14047952D01*
X2884218Y-13866157D01*
X2922019Y-13688317D01*
X2993643Y-13521205D01*
X3096363Y-13371186D01*
X3226262Y-13243980D01*
X3378398Y-13144425D01*
X3546977Y-13076314D01*
X3725567Y-13042247D01*
X3907376Y-13043516D01*
X3907376Y-13043516D01*
G37*
G36*
X24227376Y-13043516D02*
X24405479Y-13080075D01*
X24573087Y-13150531D01*
X24723812Y-13252196D01*
X24851931Y-13381214D01*
X24952542Y-13532645D01*
X25021827Y-13700744D01*
X25057089Y-13878828D01*
X25057089Y-13878835D01*
X25057140Y-13879093D01*
X25054240Y-14086759D01*
X25054182Y-14087014D01*
X25054182Y-14087021D01*
X25013961Y-14264054D01*
X24940010Y-14430151D01*
X24835209Y-14578716D01*
X24703541Y-14704102D01*
X24550034Y-14801520D01*
X24380519Y-14867270D01*
X24201473Y-14898842D01*
X24019694Y-14895033D01*
X23842123Y-14855992D01*
X23675519Y-14783205D01*
X23526221Y-14679440D01*
X23399921Y-14548653D01*
X23301430Y-14395824D01*
X23234501Y-14226781D01*
X23201679Y-14047952D01*
X23204218Y-13866157D01*
X23242019Y-13688317D01*
X23313643Y-13521205D01*
X23416363Y-13371186D01*
X23546262Y-13243980D01*
X23698398Y-13144425D01*
X23866977Y-13076314D01*
X24045567Y-13042247D01*
X24227376Y-13043516D01*
X24227376Y-13043516D01*
G37*
G36*
X14067376Y-13043516D02*
X14245479Y-13080075D01*
X14413087Y-13150531D01*
X14563812Y-13252196D01*
X14691931Y-13381214D01*
X14792542Y-13532645D01*
X14861827Y-13700744D01*
X14897089Y-13878828D01*
X14897089Y-13878835D01*
X14897140Y-13879093D01*
X14894240Y-14086759D01*
X14894182Y-14087014D01*
X14894182Y-14087021D01*
X14853961Y-14264054D01*
X14780010Y-14430151D01*
X14675209Y-14578716D01*
X14543541Y-14704102D01*
X14390034Y-14801520D01*
X14220519Y-14867270D01*
X14041473Y-14898842D01*
X13859694Y-14895033D01*
X13682123Y-14855992D01*
X13515519Y-14783205D01*
X13366221Y-14679440D01*
X13239921Y-14548653D01*
X13141430Y-14395824D01*
X13074501Y-14226781D01*
X13041679Y-14047952D01*
X13044218Y-13866157D01*
X13082019Y-13688317D01*
X13153643Y-13521205D01*
X13256363Y-13371186D01*
X13386262Y-13243980D01*
X13538398Y-13144425D01*
X13706977Y-13076314D01*
X13885567Y-13042247D01*
X14067376Y-13043516D01*
X14067376Y-13043516D01*
G37*
G36*
X14067376Y-10503516D02*
X14245479Y-10540075D01*
X14413087Y-10610531D01*
X14563812Y-10712196D01*
X14691931Y-10841214D01*
X14792542Y-10992645D01*
X14861827Y-11160744D01*
X14897089Y-11338828D01*
X14897089Y-11338835D01*
X14897140Y-11339093D01*
X14894240Y-11546759D01*
X14894182Y-11547014D01*
X14894182Y-11547021D01*
X14853961Y-11724054D01*
X14780010Y-11890151D01*
X14675209Y-12038716D01*
X14543541Y-12164102D01*
X14390034Y-12261520D01*
X14220519Y-12327270D01*
X14041473Y-12358842D01*
X13859694Y-12355033D01*
X13682123Y-12315992D01*
X13515519Y-12243205D01*
X13366221Y-12139440D01*
X13239921Y-12008653D01*
X13141430Y-11855824D01*
X13074501Y-11686781D01*
X13041679Y-11507952D01*
X13044218Y-11326157D01*
X13082019Y-11148317D01*
X13153643Y-10981205D01*
X13256363Y-10831186D01*
X13386262Y-10703980D01*
X13538398Y-10604425D01*
X13706977Y-10536314D01*
X13885567Y-10502247D01*
X14067376Y-10503516D01*
X14067376Y-10503516D01*
G37*
G36*
X3907376Y-10503516D02*
X4085479Y-10540075D01*
X4253087Y-10610531D01*
X4403812Y-10712196D01*
X4531931Y-10841214D01*
X4632542Y-10992645D01*
X4701827Y-11160744D01*
X4737089Y-11338828D01*
X4737089Y-11338835D01*
X4737140Y-11339093D01*
X4734240Y-11546759D01*
X4734182Y-11547014D01*
X4734182Y-11547021D01*
X4693961Y-11724054D01*
X4620010Y-11890151D01*
X4515209Y-12038716D01*
X4383541Y-12164102D01*
X4230034Y-12261520D01*
X4060519Y-12327270D01*
X3881473Y-12358842D01*
X3699694Y-12355033D01*
X3522123Y-12315992D01*
X3355519Y-12243205D01*
X3206221Y-12139440D01*
X3079921Y-12008653D01*
X2981430Y-11855824D01*
X2914501Y-11686781D01*
X2881679Y-11507952D01*
X2884218Y-11326157D01*
X2922019Y-11148317D01*
X2993643Y-10981205D01*
X3096363Y-10831186D01*
X3226262Y-10703980D01*
X3378398Y-10604425D01*
X3546977Y-10536314D01*
X3725567Y-10502247D01*
X3907376Y-10503516D01*
X3907376Y-10503516D01*
G37*
G36*
X6447376Y-10503516D02*
X6625479Y-10540075D01*
X6793087Y-10610531D01*
X6943812Y-10712196D01*
X7071931Y-10841214D01*
X7172542Y-10992645D01*
X7241827Y-11160744D01*
X7277089Y-11338828D01*
X7277089Y-11338835D01*
X7277140Y-11339093D01*
X7274240Y-11546759D01*
X7274182Y-11547014D01*
X7274182Y-11547021D01*
X7233961Y-11724054D01*
X7160010Y-11890151D01*
X7055209Y-12038716D01*
X6923541Y-12164102D01*
X6770034Y-12261520D01*
X6600519Y-12327270D01*
X6421473Y-12358842D01*
X6239694Y-12355033D01*
X6062123Y-12315992D01*
X5895519Y-12243205D01*
X5746221Y-12139440D01*
X5619921Y-12008653D01*
X5521430Y-11855824D01*
X5454501Y-11686781D01*
X5421679Y-11507952D01*
X5424218Y-11326157D01*
X5462019Y-11148317D01*
X5533643Y-10981205D01*
X5636363Y-10831186D01*
X5766262Y-10703980D01*
X5918398Y-10604425D01*
X6086977Y-10536314D01*
X6265567Y-10502247D01*
X6447376Y-10503516D01*
X6447376Y-10503516D01*
G37*
G36*
X8987376Y-10503516D02*
X9165479Y-10540075D01*
X9333087Y-10610531D01*
X9483812Y-10712196D01*
X9611931Y-10841214D01*
X9712542Y-10992645D01*
X9781827Y-11160744D01*
X9817089Y-11338828D01*
X9817089Y-11338835D01*
X9817140Y-11339093D01*
X9814240Y-11546759D01*
X9814182Y-11547014D01*
X9814182Y-11547021D01*
X9773961Y-11724054D01*
X9700010Y-11890151D01*
X9595209Y-12038716D01*
X9463541Y-12164102D01*
X9310034Y-12261520D01*
X9140519Y-12327270D01*
X8961473Y-12358842D01*
X8779694Y-12355033D01*
X8602123Y-12315992D01*
X8435519Y-12243205D01*
X8286221Y-12139440D01*
X8159921Y-12008653D01*
X8061430Y-11855824D01*
X7994501Y-11686781D01*
X7961679Y-11507952D01*
X7964218Y-11326157D01*
X8002019Y-11148317D01*
X8073643Y-10981205D01*
X8176363Y-10831186D01*
X8306262Y-10703980D01*
X8458398Y-10604425D01*
X8626977Y-10536314D01*
X8805567Y-10502247D01*
X8987376Y-10503516D01*
X8987376Y-10503516D01*
G37*
G36*
X11527376Y-10503516D02*
X11705479Y-10540075D01*
X11873087Y-10610531D01*
X12023812Y-10712196D01*
X12151931Y-10841214D01*
X12252542Y-10992645D01*
X12321827Y-11160744D01*
X12357089Y-11338828D01*
X12357089Y-11338835D01*
X12357140Y-11339093D01*
X12354240Y-11546759D01*
X12354182Y-11547014D01*
X12354182Y-11547021D01*
X12313961Y-11724054D01*
X12240010Y-11890151D01*
X12135209Y-12038716D01*
X12003541Y-12164102D01*
X11850034Y-12261520D01*
X11680519Y-12327270D01*
X11501473Y-12358842D01*
X11319694Y-12355033D01*
X11142123Y-12315992D01*
X10975519Y-12243205D01*
X10826221Y-12139440D01*
X10699921Y-12008653D01*
X10601430Y-11855824D01*
X10534501Y-11686781D01*
X10501679Y-11507952D01*
X10504218Y-11326157D01*
X10542019Y-11148317D01*
X10613643Y-10981205D01*
X10716363Y-10831186D01*
X10846262Y-10703980D01*
X10998398Y-10604425D01*
X11166977Y-10536314D01*
X11345567Y-10502247D01*
X11527376Y-10503516D01*
X11527376Y-10503516D01*
G37*
G36*
X16607376Y-10503516D02*
X16785479Y-10540075D01*
X16953087Y-10610531D01*
X17103812Y-10712196D01*
X17231931Y-10841214D01*
X17332542Y-10992645D01*
X17401827Y-11160744D01*
X17437089Y-11338828D01*
X17437089Y-11338835D01*
X17437140Y-11339093D01*
X17434240Y-11546759D01*
X17434182Y-11547014D01*
X17434182Y-11547021D01*
X17393961Y-11724054D01*
X17320010Y-11890151D01*
X17215209Y-12038716D01*
X17083541Y-12164102D01*
X16930034Y-12261520D01*
X16760519Y-12327270D01*
X16581473Y-12358842D01*
X16399694Y-12355033D01*
X16222123Y-12315992D01*
X16055519Y-12243205D01*
X15906221Y-12139440D01*
X15779921Y-12008653D01*
X15681430Y-11855824D01*
X15614501Y-11686781D01*
X15581679Y-11507952D01*
X15584218Y-11326157D01*
X15622019Y-11148317D01*
X15693643Y-10981205D01*
X15796363Y-10831186D01*
X15926262Y-10703980D01*
X16078398Y-10604425D01*
X16246977Y-10536314D01*
X16425567Y-10502247D01*
X16607376Y-10503516D01*
X16607376Y-10503516D01*
G37*
G36*
X19147376Y-10503516D02*
X19325479Y-10540075D01*
X19493087Y-10610531D01*
X19643812Y-10712196D01*
X19771931Y-10841214D01*
X19872542Y-10992645D01*
X19941827Y-11160744D01*
X19977089Y-11338828D01*
X19977089Y-11338835D01*
X19977140Y-11339093D01*
X19974240Y-11546759D01*
X19974182Y-11547014D01*
X19974182Y-11547021D01*
X19933961Y-11724054D01*
X19860010Y-11890151D01*
X19755209Y-12038716D01*
X19623541Y-12164102D01*
X19470034Y-12261520D01*
X19300519Y-12327270D01*
X19121473Y-12358842D01*
X18939694Y-12355033D01*
X18762123Y-12315992D01*
X18595519Y-12243205D01*
X18446221Y-12139440D01*
X18319921Y-12008653D01*
X18221430Y-11855824D01*
X18154501Y-11686781D01*
X18121679Y-11507952D01*
X18124218Y-11326157D01*
X18162019Y-11148317D01*
X18233643Y-10981205D01*
X18336363Y-10831186D01*
X18466262Y-10703980D01*
X18618398Y-10604425D01*
X18786977Y-10536314D01*
X18965567Y-10502247D01*
X19147376Y-10503516D01*
X19147376Y-10503516D01*
G37*
G36*
X21687376Y-10503516D02*
X21865479Y-10540075D01*
X22033087Y-10610531D01*
X22183812Y-10712196D01*
X22311931Y-10841214D01*
X22412542Y-10992645D01*
X22481827Y-11160744D01*
X22517089Y-11338828D01*
X22517089Y-11338835D01*
X22517140Y-11339093D01*
X22514240Y-11546759D01*
X22514182Y-11547014D01*
X22514182Y-11547021D01*
X22473961Y-11724054D01*
X22400010Y-11890151D01*
X22295209Y-12038716D01*
X22163541Y-12164102D01*
X22010034Y-12261520D01*
X21840519Y-12327270D01*
X21661473Y-12358842D01*
X21479694Y-12355033D01*
X21302123Y-12315992D01*
X21135519Y-12243205D01*
X20986221Y-12139440D01*
X20859921Y-12008653D01*
X20761430Y-11855824D01*
X20694501Y-11686781D01*
X20661679Y-11507952D01*
X20664218Y-11326157D01*
X20702019Y-11148317D01*
X20773643Y-10981205D01*
X20876363Y-10831186D01*
X21006262Y-10703980D01*
X21158398Y-10604425D01*
X21326977Y-10536314D01*
X21505567Y-10502247D01*
X21687376Y-10503516D01*
X21687376Y-10503516D01*
G37*
G36*
X24227376Y-10503516D02*
X24405479Y-10540075D01*
X24573087Y-10610531D01*
X24723812Y-10712196D01*
X24851931Y-10841214D01*
X24952542Y-10992645D01*
X25021827Y-11160744D01*
X25057089Y-11338828D01*
X25057089Y-11338835D01*
X25057140Y-11339093D01*
X25054240Y-11546759D01*
X25054182Y-11547014D01*
X25054182Y-11547021D01*
X25013961Y-11724054D01*
X24940010Y-11890151D01*
X24835209Y-12038716D01*
X24703541Y-12164102D01*
X24550034Y-12261520D01*
X24380519Y-12327270D01*
X24201473Y-12358842D01*
X24019694Y-12355033D01*
X23842123Y-12315992D01*
X23675519Y-12243205D01*
X23526221Y-12139440D01*
X23399921Y-12008653D01*
X23301430Y-11855824D01*
X23234501Y-11686781D01*
X23201679Y-11507952D01*
X23204218Y-11326157D01*
X23242019Y-11148317D01*
X23313643Y-10981205D01*
X23416363Y-10831186D01*
X23546262Y-10703980D01*
X23698398Y-10604425D01*
X23866977Y-10536314D01*
X24045567Y-10502247D01*
X24227376Y-10503516D01*
X24227376Y-10503516D01*
G37*
G36*
X1367376Y-10503516D02*
X1545479Y-10540075D01*
X1713087Y-10610531D01*
X1863812Y-10712196D01*
X1991931Y-10841214D01*
X2092542Y-10992645D01*
X2161827Y-11160744D01*
X2197089Y-11338828D01*
X2197089Y-11338835D01*
X2197140Y-11339093D01*
X2194240Y-11546759D01*
X2194182Y-11547014D01*
X2194182Y-11547021D01*
X2153961Y-11724054D01*
X2080010Y-11890151D01*
X1975209Y-12038716D01*
X1843541Y-12164102D01*
X1690034Y-12261520D01*
X1520519Y-12327270D01*
X1341473Y-12358842D01*
X1159694Y-12355033D01*
X982123Y-12315992D01*
X815519Y-12243205D01*
X666221Y-12139440D01*
X539921Y-12008653D01*
X441430Y-11855824D01*
X374501Y-11686781D01*
X341679Y-11507952D01*
X344218Y-11326157D01*
X382019Y-11148317D01*
X453643Y-10981205D01*
X556363Y-10831186D01*
X686262Y-10703980D01*
X838398Y-10604425D01*
X1006977Y-10536314D01*
X1185567Y-10502247D01*
X1367376Y-10503516D01*
X1367376Y-10503516D01*
G37*
G36*
X3907376Y-7963516D02*
X4085479Y-8000075D01*
X4253087Y-8070531D01*
X4403812Y-8172196D01*
X4531931Y-8301214D01*
X4632542Y-8452645D01*
X4701827Y-8620744D01*
X4737089Y-8798828D01*
X4737089Y-8798835D01*
X4737140Y-8799093D01*
X4734240Y-9006759D01*
X4734182Y-9007014D01*
X4734182Y-9007021D01*
X4693961Y-9184054D01*
X4620010Y-9350151D01*
X4515209Y-9498716D01*
X4383541Y-9624102D01*
X4230034Y-9721520D01*
X4060519Y-9787270D01*
X3881473Y-9818842D01*
X3699694Y-9815033D01*
X3522123Y-9775992D01*
X3355519Y-9703205D01*
X3206221Y-9599440D01*
X3079921Y-9468653D01*
X2981430Y-9315824D01*
X2914501Y-9146781D01*
X2881679Y-8967952D01*
X2884218Y-8786157D01*
X2922019Y-8608317D01*
X2993643Y-8441205D01*
X3096363Y-8291186D01*
X3226262Y-8163980D01*
X3378398Y-8064425D01*
X3546977Y-7996314D01*
X3725567Y-7962247D01*
X3907376Y-7963516D01*
X3907376Y-7963516D01*
G37*
G36*
X6447376Y-7963516D02*
X6625479Y-8000075D01*
X6793087Y-8070531D01*
X6943812Y-8172196D01*
X7071931Y-8301214D01*
X7172542Y-8452645D01*
X7241827Y-8620744D01*
X7277089Y-8798828D01*
X7277089Y-8798835D01*
X7277140Y-8799093D01*
X7274240Y-9006759D01*
X7274182Y-9007014D01*
X7274182Y-9007021D01*
X7233961Y-9184054D01*
X7160010Y-9350151D01*
X7055209Y-9498716D01*
X6923541Y-9624102D01*
X6770034Y-9721520D01*
X6600519Y-9787270D01*
X6421473Y-9818842D01*
X6239694Y-9815033D01*
X6062123Y-9775992D01*
X5895519Y-9703205D01*
X5746221Y-9599440D01*
X5619921Y-9468653D01*
X5521430Y-9315824D01*
X5454501Y-9146781D01*
X5421679Y-8967952D01*
X5424218Y-8786157D01*
X5462019Y-8608317D01*
X5533643Y-8441205D01*
X5636363Y-8291186D01*
X5766262Y-8163980D01*
X5918398Y-8064425D01*
X6086977Y-7996314D01*
X6265567Y-7962247D01*
X6447376Y-7963516D01*
X6447376Y-7963516D01*
G37*
G36*
X14067376Y-7963516D02*
X14245479Y-8000075D01*
X14413087Y-8070531D01*
X14563812Y-8172196D01*
X14691931Y-8301214D01*
X14792542Y-8452645D01*
X14861827Y-8620744D01*
X14897089Y-8798828D01*
X14897089Y-8798835D01*
X14897140Y-8799093D01*
X14894240Y-9006759D01*
X14894182Y-9007014D01*
X14894182Y-9007021D01*
X14853961Y-9184054D01*
X14780010Y-9350151D01*
X14675209Y-9498716D01*
X14543541Y-9624102D01*
X14390034Y-9721520D01*
X14220519Y-9787270D01*
X14041473Y-9818842D01*
X13859694Y-9815033D01*
X13682123Y-9775992D01*
X13515519Y-9703205D01*
X13366221Y-9599440D01*
X13239921Y-9468653D01*
X13141430Y-9315824D01*
X13074501Y-9146781D01*
X13041679Y-8967952D01*
X13044218Y-8786157D01*
X13082019Y-8608317D01*
X13153643Y-8441205D01*
X13256363Y-8291186D01*
X13386262Y-8163980D01*
X13538398Y-8064425D01*
X13706977Y-7996314D01*
X13885567Y-7962247D01*
X14067376Y-7963516D01*
X14067376Y-7963516D01*
G37*
G36*
X8987376Y-7963516D02*
X9165479Y-8000075D01*
X9333087Y-8070531D01*
X9483812Y-8172196D01*
X9611931Y-8301214D01*
X9712542Y-8452645D01*
X9781827Y-8620744D01*
X9817089Y-8798828D01*
X9817089Y-8798835D01*
X9817140Y-8799093D01*
X9814240Y-9006759D01*
X9814182Y-9007014D01*
X9814182Y-9007021D01*
X9773961Y-9184054D01*
X9700010Y-9350151D01*
X9595209Y-9498716D01*
X9463541Y-9624102D01*
X9310034Y-9721520D01*
X9140519Y-9787270D01*
X8961473Y-9818842D01*
X8779694Y-9815033D01*
X8602123Y-9775992D01*
X8435519Y-9703205D01*
X8286221Y-9599440D01*
X8159921Y-9468653D01*
X8061430Y-9315824D01*
X7994501Y-9146781D01*
X7961679Y-8967952D01*
X7964218Y-8786157D01*
X8002019Y-8608317D01*
X8073643Y-8441205D01*
X8176363Y-8291186D01*
X8306262Y-8163980D01*
X8458398Y-8064425D01*
X8626977Y-7996314D01*
X8805567Y-7962247D01*
X8987376Y-7963516D01*
X8987376Y-7963516D01*
G37*
G36*
X11527376Y-7963516D02*
X11705479Y-8000075D01*
X11873087Y-8070531D01*
X12023812Y-8172196D01*
X12151931Y-8301214D01*
X12252542Y-8452645D01*
X12321827Y-8620744D01*
X12357089Y-8798828D01*
X12357089Y-8798835D01*
X12357140Y-8799093D01*
X12354240Y-9006759D01*
X12354182Y-9007014D01*
X12354182Y-9007021D01*
X12313961Y-9184054D01*
X12240010Y-9350151D01*
X12135209Y-9498716D01*
X12003541Y-9624102D01*
X11850034Y-9721520D01*
X11680519Y-9787270D01*
X11501473Y-9818842D01*
X11319694Y-9815033D01*
X11142123Y-9775992D01*
X10975519Y-9703205D01*
X10826221Y-9599440D01*
X10699921Y-9468653D01*
X10601430Y-9315824D01*
X10534501Y-9146781D01*
X10501679Y-8967952D01*
X10504218Y-8786157D01*
X10542019Y-8608317D01*
X10613643Y-8441205D01*
X10716363Y-8291186D01*
X10846262Y-8163980D01*
X10998398Y-8064425D01*
X11166977Y-7996314D01*
X11345567Y-7962247D01*
X11527376Y-7963516D01*
X11527376Y-7963516D01*
G37*
G36*
X19147376Y-7963516D02*
X19325479Y-8000075D01*
X19493087Y-8070531D01*
X19643812Y-8172196D01*
X19771931Y-8301214D01*
X19872542Y-8452645D01*
X19941827Y-8620744D01*
X19977089Y-8798828D01*
X19977089Y-8798835D01*
X19977140Y-8799093D01*
X19974240Y-9006759D01*
X19974182Y-9007014D01*
X19974182Y-9007021D01*
X19933961Y-9184054D01*
X19860010Y-9350151D01*
X19755209Y-9498716D01*
X19623541Y-9624102D01*
X19470034Y-9721520D01*
X19300519Y-9787270D01*
X19121473Y-9818842D01*
X18939694Y-9815033D01*
X18762123Y-9775992D01*
X18595519Y-9703205D01*
X18446221Y-9599440D01*
X18319921Y-9468653D01*
X18221430Y-9315824D01*
X18154501Y-9146781D01*
X18121679Y-8967952D01*
X18124218Y-8786157D01*
X18162019Y-8608317D01*
X18233643Y-8441205D01*
X18336363Y-8291186D01*
X18466262Y-8163980D01*
X18618398Y-8064425D01*
X18786977Y-7996314D01*
X18965567Y-7962247D01*
X19147376Y-7963516D01*
X19147376Y-7963516D01*
G37*
G36*
X21687376Y-7963516D02*
X21865479Y-8000075D01*
X22033087Y-8070531D01*
X22183812Y-8172196D01*
X22311931Y-8301214D01*
X22412542Y-8452645D01*
X22481827Y-8620744D01*
X22517089Y-8798828D01*
X22517089Y-8798835D01*
X22517140Y-8799093D01*
X22514240Y-9006759D01*
X22514182Y-9007014D01*
X22514182Y-9007021D01*
X22473961Y-9184054D01*
X22400010Y-9350151D01*
X22295209Y-9498716D01*
X22163541Y-9624102D01*
X22010034Y-9721520D01*
X21840519Y-9787270D01*
X21661473Y-9818842D01*
X21479694Y-9815033D01*
X21302123Y-9775992D01*
X21135519Y-9703205D01*
X20986221Y-9599440D01*
X20859921Y-9468653D01*
X20761430Y-9315824D01*
X20694501Y-9146781D01*
X20661679Y-8967952D01*
X20664218Y-8786157D01*
X20702019Y-8608317D01*
X20773643Y-8441205D01*
X20876363Y-8291186D01*
X21006262Y-8163980D01*
X21158398Y-8064425D01*
X21326977Y-7996314D01*
X21505567Y-7962247D01*
X21687376Y-7963516D01*
X21687376Y-7963516D01*
G37*
G36*
X24227376Y-7963516D02*
X24405479Y-8000075D01*
X24573087Y-8070531D01*
X24723812Y-8172196D01*
X24851931Y-8301214D01*
X24952542Y-8452645D01*
X25021827Y-8620744D01*
X25057089Y-8798828D01*
X25057089Y-8798835D01*
X25057140Y-8799093D01*
X25054240Y-9006759D01*
X25054182Y-9007014D01*
X25054182Y-9007021D01*
X25013961Y-9184054D01*
X24940010Y-9350151D01*
X24835209Y-9498716D01*
X24703541Y-9624102D01*
X24550034Y-9721520D01*
X24380519Y-9787270D01*
X24201473Y-9818842D01*
X24019694Y-9815033D01*
X23842123Y-9775992D01*
X23675519Y-9703205D01*
X23526221Y-9599440D01*
X23399921Y-9468653D01*
X23301430Y-9315824D01*
X23234501Y-9146781D01*
X23201679Y-8967952D01*
X23204218Y-8786157D01*
X23242019Y-8608317D01*
X23313643Y-8441205D01*
X23416363Y-8291186D01*
X23546262Y-8163980D01*
X23698398Y-8064425D01*
X23866977Y-7996314D01*
X24045567Y-7962247D01*
X24227376Y-7963516D01*
X24227376Y-7963516D01*
G37*
G36*
X1367376Y-7963516D02*
X1545479Y-8000075D01*
X1713087Y-8070531D01*
X1863812Y-8172196D01*
X1991931Y-8301214D01*
X2092542Y-8452645D01*
X2161827Y-8620744D01*
X2197089Y-8798828D01*
X2197089Y-8798835D01*
X2197140Y-8799093D01*
X2194240Y-9006759D01*
X2194182Y-9007014D01*
X2194182Y-9007021D01*
X2153961Y-9184054D01*
X2080010Y-9350151D01*
X1975209Y-9498716D01*
X1843541Y-9624102D01*
X1690034Y-9721520D01*
X1520519Y-9787270D01*
X1341473Y-9818842D01*
X1159694Y-9815033D01*
X982123Y-9775992D01*
X815519Y-9703205D01*
X666221Y-9599440D01*
X539921Y-9468653D01*
X441430Y-9315824D01*
X374501Y-9146781D01*
X341679Y-8967952D01*
X344218Y-8786157D01*
X382019Y-8608317D01*
X453643Y-8441205D01*
X556363Y-8291186D01*
X686262Y-8163980D01*
X838398Y-8064425D01*
X1006977Y-7996314D01*
X1185567Y-7962247D01*
X1367376Y-7963516D01*
X1367376Y-7963516D01*
G37*
G36*
X16607376Y-7963516D02*
X16785479Y-8000075D01*
X16953087Y-8070531D01*
X17103812Y-8172196D01*
X17231931Y-8301214D01*
X17332542Y-8452645D01*
X17401827Y-8620744D01*
X17437089Y-8798828D01*
X17437089Y-8798835D01*
X17437140Y-8799093D01*
X17434240Y-9006759D01*
X17434182Y-9007014D01*
X17434182Y-9007021D01*
X17393961Y-9184054D01*
X17320010Y-9350151D01*
X17215209Y-9498716D01*
X17083541Y-9624102D01*
X16930034Y-9721520D01*
X16760519Y-9787270D01*
X16581473Y-9818842D01*
X16399694Y-9815033D01*
X16222123Y-9775992D01*
X16055519Y-9703205D01*
X15906221Y-9599440D01*
X15779921Y-9468653D01*
X15681430Y-9315824D01*
X15614501Y-9146781D01*
X15581679Y-8967952D01*
X15584218Y-8786157D01*
X15622019Y-8608317D01*
X15693643Y-8441205D01*
X15796363Y-8291186D01*
X15926262Y-8163980D01*
X16078398Y-8064425D01*
X16246977Y-7996314D01*
X16425567Y-7962247D01*
X16607376Y-7963516D01*
X16607376Y-7963516D01*
G37*
G36*
X14067376Y-5423516D02*
X14245479Y-5460075D01*
X14413087Y-5530531D01*
X14563812Y-5632196D01*
X14691931Y-5761214D01*
X14792542Y-5912645D01*
X14861827Y-6080744D01*
X14897089Y-6258828D01*
X14897089Y-6258835D01*
X14897140Y-6259093D01*
X14894240Y-6466759D01*
X14894182Y-6467014D01*
X14894182Y-6467021D01*
X14853961Y-6644054D01*
X14780010Y-6810151D01*
X14675209Y-6958716D01*
X14543541Y-7084102D01*
X14390034Y-7181520D01*
X14220519Y-7247270D01*
X14041473Y-7278842D01*
X13859694Y-7275033D01*
X13682123Y-7235992D01*
X13515519Y-7163205D01*
X13366221Y-7059440D01*
X13239921Y-6928653D01*
X13141430Y-6775824D01*
X13074501Y-6606781D01*
X13041679Y-6427952D01*
X13044218Y-6246157D01*
X13082019Y-6068317D01*
X13153643Y-5901205D01*
X13256363Y-5751186D01*
X13386262Y-5623980D01*
X13538398Y-5524425D01*
X13706977Y-5456314D01*
X13885567Y-5422247D01*
X14067376Y-5423516D01*
X14067376Y-5423516D01*
G37*
G36*
X1367376Y-5423516D02*
X1545479Y-5460075D01*
X1713087Y-5530531D01*
X1863812Y-5632196D01*
X1991931Y-5761214D01*
X2092542Y-5912645D01*
X2161827Y-6080744D01*
X2197089Y-6258828D01*
X2197089Y-6258835D01*
X2197140Y-6259093D01*
X2194240Y-6466759D01*
X2194182Y-6467014D01*
X2194182Y-6467021D01*
X2153961Y-6644054D01*
X2080010Y-6810151D01*
X1975209Y-6958716D01*
X1843541Y-7084102D01*
X1690034Y-7181520D01*
X1520519Y-7247270D01*
X1341473Y-7278842D01*
X1159694Y-7275033D01*
X982123Y-7235992D01*
X815519Y-7163205D01*
X666221Y-7059440D01*
X539921Y-6928653D01*
X441430Y-6775824D01*
X374501Y-6606781D01*
X341679Y-6427952D01*
X344218Y-6246157D01*
X382019Y-6068317D01*
X453643Y-5901205D01*
X556363Y-5751186D01*
X686262Y-5623980D01*
X838398Y-5524425D01*
X1006977Y-5456314D01*
X1185567Y-5422247D01*
X1367376Y-5423516D01*
X1367376Y-5423516D01*
G37*
G36*
X3907376Y-5423516D02*
X4085479Y-5460075D01*
X4253087Y-5530531D01*
X4403812Y-5632196D01*
X4531931Y-5761214D01*
X4632542Y-5912645D01*
X4701827Y-6080744D01*
X4737089Y-6258828D01*
X4737089Y-6258835D01*
X4737140Y-6259093D01*
X4734240Y-6466759D01*
X4734182Y-6467014D01*
X4734182Y-6467021D01*
X4693961Y-6644054D01*
X4620010Y-6810151D01*
X4515209Y-6958716D01*
X4383541Y-7084102D01*
X4230034Y-7181520D01*
X4060519Y-7247270D01*
X3881473Y-7278842D01*
X3699694Y-7275033D01*
X3522123Y-7235992D01*
X3355519Y-7163205D01*
X3206221Y-7059440D01*
X3079921Y-6928653D01*
X2981430Y-6775824D01*
X2914501Y-6606781D01*
X2881679Y-6427952D01*
X2884218Y-6246157D01*
X2922019Y-6068317D01*
X2993643Y-5901205D01*
X3096363Y-5751186D01*
X3226262Y-5623980D01*
X3378398Y-5524425D01*
X3546977Y-5456314D01*
X3725567Y-5422247D01*
X3907376Y-5423516D01*
X3907376Y-5423516D01*
G37*
G36*
X8987376Y-5423516D02*
X9165479Y-5460075D01*
X9333087Y-5530531D01*
X9483812Y-5632196D01*
X9611931Y-5761214D01*
X9712542Y-5912645D01*
X9781827Y-6080744D01*
X9817089Y-6258828D01*
X9817089Y-6258835D01*
X9817140Y-6259093D01*
X9814240Y-6466759D01*
X9814182Y-6467014D01*
X9814182Y-6467021D01*
X9773961Y-6644054D01*
X9700010Y-6810151D01*
X9595209Y-6958716D01*
X9463541Y-7084102D01*
X9310034Y-7181520D01*
X9140519Y-7247270D01*
X8961473Y-7278842D01*
X8779694Y-7275033D01*
X8602123Y-7235992D01*
X8435519Y-7163205D01*
X8286221Y-7059440D01*
X8159921Y-6928653D01*
X8061430Y-6775824D01*
X7994501Y-6606781D01*
X7961679Y-6427952D01*
X7964218Y-6246157D01*
X8002019Y-6068317D01*
X8073643Y-5901205D01*
X8176363Y-5751186D01*
X8306262Y-5623980D01*
X8458398Y-5524425D01*
X8626977Y-5456314D01*
X8805567Y-5422247D01*
X8987376Y-5423516D01*
X8987376Y-5423516D01*
G37*
G36*
X11527376Y-5423516D02*
X11705479Y-5460075D01*
X11873087Y-5530531D01*
X12023812Y-5632196D01*
X12151931Y-5761214D01*
X12252542Y-5912645D01*
X12321827Y-6080744D01*
X12357089Y-6258828D01*
X12357089Y-6258835D01*
X12357140Y-6259093D01*
X12354240Y-6466759D01*
X12354182Y-6467014D01*
X12354182Y-6467021D01*
X12313961Y-6644054D01*
X12240010Y-6810151D01*
X12135209Y-6958716D01*
X12003541Y-7084102D01*
X11850034Y-7181520D01*
X11680519Y-7247270D01*
X11501473Y-7278842D01*
X11319694Y-7275033D01*
X11142123Y-7235992D01*
X10975519Y-7163205D01*
X10826221Y-7059440D01*
X10699921Y-6928653D01*
X10601430Y-6775824D01*
X10534501Y-6606781D01*
X10501679Y-6427952D01*
X10504218Y-6246157D01*
X10542019Y-6068317D01*
X10613643Y-5901205D01*
X10716363Y-5751186D01*
X10846262Y-5623980D01*
X10998398Y-5524425D01*
X11166977Y-5456314D01*
X11345567Y-5422247D01*
X11527376Y-5423516D01*
X11527376Y-5423516D01*
G37*
G36*
X16607376Y-5423516D02*
X16785479Y-5460075D01*
X16953087Y-5530531D01*
X17103812Y-5632196D01*
X17231931Y-5761214D01*
X17332542Y-5912645D01*
X17401827Y-6080744D01*
X17437089Y-6258828D01*
X17437089Y-6258835D01*
X17437140Y-6259093D01*
X17434240Y-6466759D01*
X17434182Y-6467014D01*
X17434182Y-6467021D01*
X17393961Y-6644054D01*
X17320010Y-6810151D01*
X17215209Y-6958716D01*
X17083541Y-7084102D01*
X16930034Y-7181520D01*
X16760519Y-7247270D01*
X16581473Y-7278842D01*
X16399694Y-7275033D01*
X16222123Y-7235992D01*
X16055519Y-7163205D01*
X15906221Y-7059440D01*
X15779921Y-6928653D01*
X15681430Y-6775824D01*
X15614501Y-6606781D01*
X15581679Y-6427952D01*
X15584218Y-6246157D01*
X15622019Y-6068317D01*
X15693643Y-5901205D01*
X15796363Y-5751186D01*
X15926262Y-5623980D01*
X16078398Y-5524425D01*
X16246977Y-5456314D01*
X16425567Y-5422247D01*
X16607376Y-5423516D01*
X16607376Y-5423516D01*
G37*
G36*
X19147376Y-5423516D02*
X19325479Y-5460075D01*
X19493087Y-5530531D01*
X19643812Y-5632196D01*
X19771931Y-5761214D01*
X19872542Y-5912645D01*
X19941827Y-6080744D01*
X19977089Y-6258828D01*
X19977089Y-6258835D01*
X19977140Y-6259093D01*
X19974240Y-6466759D01*
X19974182Y-6467014D01*
X19974182Y-6467021D01*
X19933961Y-6644054D01*
X19860010Y-6810151D01*
X19755209Y-6958716D01*
X19623541Y-7084102D01*
X19470034Y-7181520D01*
X19300519Y-7247270D01*
X19121473Y-7278842D01*
X18939694Y-7275033D01*
X18762123Y-7235992D01*
X18595519Y-7163205D01*
X18446221Y-7059440D01*
X18319921Y-6928653D01*
X18221430Y-6775824D01*
X18154501Y-6606781D01*
X18121679Y-6427952D01*
X18124218Y-6246157D01*
X18162019Y-6068317D01*
X18233643Y-5901205D01*
X18336363Y-5751186D01*
X18466262Y-5623980D01*
X18618398Y-5524425D01*
X18786977Y-5456314D01*
X18965567Y-5422247D01*
X19147376Y-5423516D01*
X19147376Y-5423516D01*
G37*
G36*
X21687376Y-5423516D02*
X21865479Y-5460075D01*
X22033087Y-5530531D01*
X22183812Y-5632196D01*
X22311931Y-5761214D01*
X22412542Y-5912645D01*
X22481827Y-6080744D01*
X22517089Y-6258828D01*
X22517089Y-6258835D01*
X22517140Y-6259093D01*
X22514240Y-6466759D01*
X22514182Y-6467014D01*
X22514182Y-6467021D01*
X22473961Y-6644054D01*
X22400010Y-6810151D01*
X22295209Y-6958716D01*
X22163541Y-7084102D01*
X22010034Y-7181520D01*
X21840519Y-7247270D01*
X21661473Y-7278842D01*
X21479694Y-7275033D01*
X21302123Y-7235992D01*
X21135519Y-7163205D01*
X20986221Y-7059440D01*
X20859921Y-6928653D01*
X20761430Y-6775824D01*
X20694501Y-6606781D01*
X20661679Y-6427952D01*
X20664218Y-6246157D01*
X20702019Y-6068317D01*
X20773643Y-5901205D01*
X20876363Y-5751186D01*
X21006262Y-5623980D01*
X21158398Y-5524425D01*
X21326977Y-5456314D01*
X21505567Y-5422247D01*
X21687376Y-5423516D01*
X21687376Y-5423516D01*
G37*
G36*
X24227376Y-5423516D02*
X24405479Y-5460075D01*
X24573087Y-5530531D01*
X24723812Y-5632196D01*
X24851931Y-5761214D01*
X24952542Y-5912645D01*
X25021827Y-6080744D01*
X25057089Y-6258828D01*
X25057089Y-6258835D01*
X25057140Y-6259093D01*
X25054240Y-6466759D01*
X25054182Y-6467014D01*
X25054182Y-6467021D01*
X25013961Y-6644054D01*
X24940010Y-6810151D01*
X24835209Y-6958716D01*
X24703541Y-7084102D01*
X24550034Y-7181520D01*
X24380519Y-7247270D01*
X24201473Y-7278842D01*
X24019694Y-7275033D01*
X23842123Y-7235992D01*
X23675519Y-7163205D01*
X23526221Y-7059440D01*
X23399921Y-6928653D01*
X23301430Y-6775824D01*
X23234501Y-6606781D01*
X23201679Y-6427952D01*
X23204218Y-6246157D01*
X23242019Y-6068317D01*
X23313643Y-5901205D01*
X23416363Y-5751186D01*
X23546262Y-5623980D01*
X23698398Y-5524425D01*
X23866977Y-5456314D01*
X24045567Y-5422247D01*
X24227376Y-5423516D01*
X24227376Y-5423516D01*
G37*
G36*
X6447376Y-5423516D02*
X6625479Y-5460075D01*
X6793087Y-5530531D01*
X6943812Y-5632196D01*
X7071931Y-5761214D01*
X7172542Y-5912645D01*
X7241827Y-6080744D01*
X7277089Y-6258828D01*
X7277089Y-6258835D01*
X7277140Y-6259093D01*
X7274240Y-6466759D01*
X7274182Y-6467014D01*
X7274182Y-6467021D01*
X7233961Y-6644054D01*
X7160010Y-6810151D01*
X7055209Y-6958716D01*
X6923541Y-7084102D01*
X6770034Y-7181520D01*
X6600519Y-7247270D01*
X6421473Y-7278842D01*
X6239694Y-7275033D01*
X6062123Y-7235992D01*
X5895519Y-7163205D01*
X5746221Y-7059440D01*
X5619921Y-6928653D01*
X5521430Y-6775824D01*
X5454501Y-6606781D01*
X5421679Y-6427952D01*
X5424218Y-6246157D01*
X5462019Y-6068317D01*
X5533643Y-5901205D01*
X5636363Y-5751186D01*
X5766262Y-5623980D01*
X5918398Y-5524425D01*
X6086977Y-5456314D01*
X6265567Y-5422247D01*
X6447376Y-5423516D01*
X6447376Y-5423516D01*
G37*
G36*
X1367376Y-2883516D02*
X1545479Y-2920075D01*
X1713087Y-2990531D01*
X1863812Y-3092196D01*
X1991931Y-3221214D01*
X2092542Y-3372645D01*
X2161827Y-3540744D01*
X2197089Y-3718828D01*
X2197089Y-3718835D01*
X2197140Y-3719093D01*
X2194240Y-3926759D01*
X2194182Y-3927014D01*
X2194182Y-3927021D01*
X2153961Y-4104054D01*
X2080010Y-4270151D01*
X1975209Y-4418716D01*
X1843541Y-4544102D01*
X1690034Y-4641520D01*
X1520519Y-4707270D01*
X1341473Y-4738842D01*
X1159694Y-4735033D01*
X982123Y-4695992D01*
X815519Y-4623205D01*
X666221Y-4519440D01*
X539921Y-4388653D01*
X441430Y-4235824D01*
X374501Y-4066781D01*
X341679Y-3887952D01*
X344218Y-3706157D01*
X382019Y-3528317D01*
X453643Y-3361205D01*
X556363Y-3211186D01*
X686262Y-3083980D01*
X838398Y-2984425D01*
X1006977Y-2916314D01*
X1185567Y-2882247D01*
X1367376Y-2883516D01*
X1367376Y-2883516D01*
G37*
G36*
X14067376Y-2883516D02*
X14245479Y-2920075D01*
X14413087Y-2990531D01*
X14563812Y-3092196D01*
X14691931Y-3221214D01*
X14792542Y-3372645D01*
X14861827Y-3540744D01*
X14897089Y-3718828D01*
X14897089Y-3718835D01*
X14897140Y-3719093D01*
X14894240Y-3926759D01*
X14894182Y-3927014D01*
X14894182Y-3927021D01*
X14853961Y-4104054D01*
X14780010Y-4270151D01*
X14675209Y-4418716D01*
X14543541Y-4544102D01*
X14390034Y-4641520D01*
X14220519Y-4707270D01*
X14041473Y-4738842D01*
X13859694Y-4735033D01*
X13682123Y-4695992D01*
X13515519Y-4623205D01*
X13366221Y-4519440D01*
X13239921Y-4388653D01*
X13141430Y-4235824D01*
X13074501Y-4066781D01*
X13041679Y-3887952D01*
X13044218Y-3706157D01*
X13082019Y-3528317D01*
X13153643Y-3361205D01*
X13256363Y-3211186D01*
X13386262Y-3083980D01*
X13538398Y-2984425D01*
X13706977Y-2916314D01*
X13885567Y-2882247D01*
X14067376Y-2883516D01*
X14067376Y-2883516D01*
G37*
G36*
X16607376Y-2883516D02*
X16785479Y-2920075D01*
X16953087Y-2990531D01*
X17103812Y-3092196D01*
X17231931Y-3221214D01*
X17332542Y-3372645D01*
X17401827Y-3540744D01*
X17437089Y-3718828D01*
X17437089Y-3718835D01*
X17437140Y-3719093D01*
X17434240Y-3926759D01*
X17434182Y-3927014D01*
X17434182Y-3927021D01*
X17393961Y-4104054D01*
X17320010Y-4270151D01*
X17215209Y-4418716D01*
X17083541Y-4544102D01*
X16930034Y-4641520D01*
X16760519Y-4707270D01*
X16581473Y-4738842D01*
X16399694Y-4735033D01*
X16222123Y-4695992D01*
X16055519Y-4623205D01*
X15906221Y-4519440D01*
X15779921Y-4388653D01*
X15681430Y-4235824D01*
X15614501Y-4066781D01*
X15581679Y-3887952D01*
X15584218Y-3706157D01*
X15622019Y-3528317D01*
X15693643Y-3361205D01*
X15796363Y-3211186D01*
X15926262Y-3083980D01*
X16078398Y-2984425D01*
X16246977Y-2916314D01*
X16425567Y-2882247D01*
X16607376Y-2883516D01*
X16607376Y-2883516D01*
G37*
G36*
X8987376Y-2883516D02*
X9165479Y-2920075D01*
X9333087Y-2990531D01*
X9483812Y-3092196D01*
X9611931Y-3221214D01*
X9712542Y-3372645D01*
X9781827Y-3540744D01*
X9817089Y-3718828D01*
X9817089Y-3718835D01*
X9817140Y-3719093D01*
X9814240Y-3926759D01*
X9814182Y-3927014D01*
X9814182Y-3927021D01*
X9773961Y-4104054D01*
X9700010Y-4270151D01*
X9595209Y-4418716D01*
X9463541Y-4544102D01*
X9310034Y-4641520D01*
X9140519Y-4707270D01*
X8961473Y-4738842D01*
X8779694Y-4735033D01*
X8602123Y-4695992D01*
X8435519Y-4623205D01*
X8286221Y-4519440D01*
X8159921Y-4388653D01*
X8061430Y-4235824D01*
X7994501Y-4066781D01*
X7961679Y-3887952D01*
X7964218Y-3706157D01*
X8002019Y-3528317D01*
X8073643Y-3361205D01*
X8176363Y-3211186D01*
X8306262Y-3083980D01*
X8458398Y-2984425D01*
X8626977Y-2916314D01*
X8805567Y-2882247D01*
X8987376Y-2883516D01*
X8987376Y-2883516D01*
G37*
G36*
X19147376Y-2883516D02*
X19325479Y-2920075D01*
X19493087Y-2990531D01*
X19643812Y-3092196D01*
X19771931Y-3221214D01*
X19872542Y-3372645D01*
X19941827Y-3540744D01*
X19977089Y-3718828D01*
X19977089Y-3718835D01*
X19977140Y-3719093D01*
X19974240Y-3926759D01*
X19974182Y-3927014D01*
X19974182Y-3927021D01*
X19933961Y-4104054D01*
X19860010Y-4270151D01*
X19755209Y-4418716D01*
X19623541Y-4544102D01*
X19470034Y-4641520D01*
X19300519Y-4707270D01*
X19121473Y-4738842D01*
X18939694Y-4735033D01*
X18762123Y-4695992D01*
X18595519Y-4623205D01*
X18446221Y-4519440D01*
X18319921Y-4388653D01*
X18221430Y-4235824D01*
X18154501Y-4066781D01*
X18121679Y-3887952D01*
X18124218Y-3706157D01*
X18162019Y-3528317D01*
X18233643Y-3361205D01*
X18336363Y-3211186D01*
X18466262Y-3083980D01*
X18618398Y-2984425D01*
X18786977Y-2916314D01*
X18965567Y-2882247D01*
X19147376Y-2883516D01*
X19147376Y-2883516D01*
G37*
G36*
X21687376Y-2883516D02*
X21865479Y-2920075D01*
X22033087Y-2990531D01*
X22183812Y-3092196D01*
X22311931Y-3221214D01*
X22412542Y-3372645D01*
X22481827Y-3540744D01*
X22517089Y-3718828D01*
X22517089Y-3718835D01*
X22517140Y-3719093D01*
X22514240Y-3926759D01*
X22514182Y-3927014D01*
X22514182Y-3927021D01*
X22473961Y-4104054D01*
X22400010Y-4270151D01*
X22295209Y-4418716D01*
X22163541Y-4544102D01*
X22010034Y-4641520D01*
X21840519Y-4707270D01*
X21661473Y-4738842D01*
X21479694Y-4735033D01*
X21302123Y-4695992D01*
X21135519Y-4623205D01*
X20986221Y-4519440D01*
X20859921Y-4388653D01*
X20761430Y-4235824D01*
X20694501Y-4066781D01*
X20661679Y-3887952D01*
X20664218Y-3706157D01*
X20702019Y-3528317D01*
X20773643Y-3361205D01*
X20876363Y-3211186D01*
X21006262Y-3083980D01*
X21158398Y-2984425D01*
X21326977Y-2916314D01*
X21505567Y-2882247D01*
X21687376Y-2883516D01*
X21687376Y-2883516D01*
G37*
G36*
X6447376Y-2883516D02*
X6625479Y-2920075D01*
X6793087Y-2990531D01*
X6943812Y-3092196D01*
X7071931Y-3221214D01*
X7172542Y-3372645D01*
X7241827Y-3540744D01*
X7277089Y-3718828D01*
X7277089Y-3718835D01*
X7277140Y-3719093D01*
X7274240Y-3926759D01*
X7274182Y-3927014D01*
X7274182Y-3927021D01*
X7233961Y-4104054D01*
X7160010Y-4270151D01*
X7055209Y-4418716D01*
X6923541Y-4544102D01*
X6770034Y-4641520D01*
X6600519Y-4707270D01*
X6421473Y-4738842D01*
X6239694Y-4735033D01*
X6062123Y-4695992D01*
X5895519Y-4623205D01*
X5746221Y-4519440D01*
X5619921Y-4388653D01*
X5521430Y-4235824D01*
X5454501Y-4066781D01*
X5421679Y-3887952D01*
X5424218Y-3706157D01*
X5462019Y-3528317D01*
X5533643Y-3361205D01*
X5636363Y-3211186D01*
X5766262Y-3083980D01*
X5918398Y-2984425D01*
X6086977Y-2916314D01*
X6265567Y-2882247D01*
X6447376Y-2883516D01*
X6447376Y-2883516D01*
G37*
G36*
X3907376Y-2883516D02*
X4085479Y-2920075D01*
X4253087Y-2990531D01*
X4403812Y-3092196D01*
X4531931Y-3221214D01*
X4632542Y-3372645D01*
X4701827Y-3540744D01*
X4737089Y-3718828D01*
X4737089Y-3718835D01*
X4737140Y-3719093D01*
X4734240Y-3926759D01*
X4734182Y-3927014D01*
X4734182Y-3927021D01*
X4693961Y-4104054D01*
X4620010Y-4270151D01*
X4515209Y-4418716D01*
X4383541Y-4544102D01*
X4230034Y-4641520D01*
X4060519Y-4707270D01*
X3881473Y-4738842D01*
X3699694Y-4735033D01*
X3522123Y-4695992D01*
X3355519Y-4623205D01*
X3206221Y-4519440D01*
X3079921Y-4388653D01*
X2981430Y-4235824D01*
X2914501Y-4066781D01*
X2881679Y-3887952D01*
X2884218Y-3706157D01*
X2922019Y-3528317D01*
X2993643Y-3361205D01*
X3096363Y-3211186D01*
X3226262Y-3083980D01*
X3378398Y-2984425D01*
X3546977Y-2916314D01*
X3725567Y-2882247D01*
X3907376Y-2883516D01*
X3907376Y-2883516D01*
G37*
G36*
X24227376Y-2883516D02*
X24405479Y-2920075D01*
X24573087Y-2990531D01*
X24723812Y-3092196D01*
X24851931Y-3221214D01*
X24952542Y-3372645D01*
X25021827Y-3540744D01*
X25057089Y-3718828D01*
X25057089Y-3718835D01*
X25057140Y-3719093D01*
X25054240Y-3926759D01*
X25054182Y-3927014D01*
X25054182Y-3927021D01*
X25013961Y-4104054D01*
X24940010Y-4270151D01*
X24835209Y-4418716D01*
X24703541Y-4544102D01*
X24550034Y-4641520D01*
X24380519Y-4707270D01*
X24201473Y-4738842D01*
X24019694Y-4735033D01*
X23842123Y-4695992D01*
X23675519Y-4623205D01*
X23526221Y-4519440D01*
X23399921Y-4388653D01*
X23301430Y-4235824D01*
X23234501Y-4066781D01*
X23201679Y-3887952D01*
X23204218Y-3706157D01*
X23242019Y-3528317D01*
X23313643Y-3361205D01*
X23416363Y-3211186D01*
X23546262Y-3083980D01*
X23698398Y-2984425D01*
X23866977Y-2916314D01*
X24045567Y-2882247D01*
X24227376Y-2883516D01*
X24227376Y-2883516D01*
G37*
G36*
X11527376Y-2883516D02*
X11705479Y-2920075D01*
X11873087Y-2990531D01*
X12023812Y-3092196D01*
X12151931Y-3221214D01*
X12252542Y-3372645D01*
X12321827Y-3540744D01*
X12357089Y-3718828D01*
X12357089Y-3718835D01*
X12357140Y-3719093D01*
X12354240Y-3926759D01*
X12354182Y-3927014D01*
X12354182Y-3927021D01*
X12313961Y-4104054D01*
X12240010Y-4270151D01*
X12135209Y-4418716D01*
X12003541Y-4544102D01*
X11850034Y-4641520D01*
X11680519Y-4707270D01*
X11501473Y-4738842D01*
X11319694Y-4735033D01*
X11142123Y-4695992D01*
X10975519Y-4623205D01*
X10826221Y-4519440D01*
X10699921Y-4388653D01*
X10601430Y-4235824D01*
X10534501Y-4066781D01*
X10501679Y-3887952D01*
X10504218Y-3706157D01*
X10542019Y-3528317D01*
X10613643Y-3361205D01*
X10716363Y-3211186D01*
X10846262Y-3083980D01*
X10998398Y-2984425D01*
X11166977Y-2916314D01*
X11345567Y-2882247D01*
X11527376Y-2883516D01*
X11527376Y-2883516D01*
G37*
G36*
X19977100Y-2197100D02*
X18122900Y-2197100D01*
X18122900Y-342900D01*
X19977100Y-342900D01*
X19977100Y-2197100D01*
X19977100Y-2197100D01*
G37*
G36*
X22517100Y-2197100D02*
X20662900Y-2197100D01*
X20662900Y-342900D01*
X22517100Y-342900D01*
X22517100Y-2197100D01*
X22517100Y-2197100D01*
G37*
G36*
X17437100Y-2197100D02*
X15582900Y-2197100D01*
X15582900Y-342900D01*
X17437100Y-342900D01*
X17437100Y-2197100D01*
X17437100Y-2197100D01*
G37*
G36*
X25057100Y-2197100D02*
X23202900Y-2197100D01*
X23202900Y-342900D01*
X25057100Y-342900D01*
X25057100Y-2197100D01*
X25057100Y-2197100D01*
G37*
G36*
X2197100Y-2197100D02*
X342900Y-2197100D01*
X342900Y-342900D01*
X2197100Y-342900D01*
X2197100Y-2197100D01*
X2197100Y-2197100D01*
G37*
G36*
X14897100Y-2197100D02*
X13042900Y-2197100D01*
X13042900Y-342900D01*
X14897100Y-342900D01*
X14897100Y-2197100D01*
X14897100Y-2197100D01*
G37*
G36*
X12357100Y-2197100D02*
X10502900Y-2197100D01*
X10502900Y-342900D01*
X12357100Y-342900D01*
X12357100Y-2197100D01*
X12357100Y-2197100D01*
G37*
G36*
X9817100Y-2197100D02*
X7962900Y-2197100D01*
X7962900Y-342900D01*
X9817100Y-342900D01*
X9817100Y-2197100D01*
X9817100Y-2197100D01*
G37*
G36*
X7277100Y-2197100D02*
X5422900Y-2197100D01*
X5422900Y-342900D01*
X7277100Y-342900D01*
X7277100Y-2197100D01*
X7277100Y-2197100D01*
G37*
G36*
X4737100Y-2197100D02*
X2882900Y-2197100D01*
X2882900Y-342900D01*
X4737100Y-342900D01*
X4737100Y-2197100D01*
X4737100Y-2197100D01*
G37*
M02*
