G04 #@! TF.FileFunction,Legend,Top*
%FSLAX46Y46*%
G04 Gerber Fmt 4.6, Leading zero omitted, Abs format (unit mm)*
G04 Created by KiCad (PCBNEW 4.0.1-stable) date 2016-02-27 01:30:11*
%MOMM*%
G01*
G04 APERTURE LIST*
%ADD10C,0.050800*%
%ADD11C,0.152400*%
%ADD12C,0.203200*%
%ADD13C,0.190500*%
%ADD14C,0.208280*%
%ADD15C,0.158750*%
%ADD16C,0.076200*%
%ADD17R,0.914400X1.193800*%
%ADD18R,0.609600X1.727200*%
%ADD19R,1.193800X0.914400*%
%ADD20C,1.854200*%
%ADD21R,1.854200X1.854200*%
%ADD22R,1.054000X0.954000*%
G04 APERTURE END LIST*
D10*
D11*
X4064000Y-25298400D02*
X4064000Y-24282400D01*
X3175000Y-18440400D02*
X3175000Y-22199600D01*
X8255000Y-22199600D02*
X8255000Y-20624800D01*
X8255000Y-20624800D02*
X8255000Y-20015200D01*
X8255000Y-20015200D02*
X8255000Y-18440400D01*
X8255000Y-20015200D02*
G75*
G03X8255000Y-20624800I0J-304800D01*
G01*
X21336000Y-16332200D02*
X21336000Y-15316200D01*
X22250400Y-22199600D02*
X22250400Y-18440400D01*
X17170400Y-18440400D02*
X17170400Y-20015200D01*
X17170400Y-20015200D02*
X17170400Y-20624800D01*
X17170400Y-20624800D02*
X17170400Y-22199600D01*
X17170400Y-20624800D02*
G75*
G03X17170400Y-20015200I0J304800D01*
G01*
D12*
X2514600Y-17754600D02*
X25400Y-17754600D01*
X1524000Y508000D02*
G75*
G03X1524000Y508000I-254000J0D01*
G01*
X2514600Y-25400D02*
X2514600Y-17754600D01*
X25400Y-17754600D02*
X25400Y-25400D01*
X25400Y-25400D02*
X2514600Y-25400D01*
X25374600Y-17754600D02*
X22885400Y-17754600D01*
X24384000Y508000D02*
G75*
G03X24384000Y508000I-254000J0D01*
G01*
X25374600Y-25400D02*
X25374600Y-17754600D01*
X22885400Y-17754600D02*
X22885400Y-25400D01*
X22885400Y-25400D02*
X25374600Y-25400D01*
D11*
X13106400Y-16383000D02*
X11023600Y-16383000D01*
X13106400Y-22987000D02*
X11023600Y-22987000D01*
D12*
X4064000Y508000D02*
G75*
G03X4064000Y508000I-254000J0D01*
G01*
X5054600Y-25400D02*
X5054600Y-15214600D01*
X5054600Y-15214600D02*
X2565400Y-15214600D01*
X2565400Y-15214600D02*
X2565400Y-25400D01*
X2565400Y-25400D02*
X5054600Y-25400D01*
X6604000Y508000D02*
G75*
G03X6604000Y508000I-254000J0D01*
G01*
X7594600Y-25400D02*
X7594600Y-15214600D01*
X7594600Y-15214600D02*
X5105400Y-15214600D01*
X5105400Y-15214600D02*
X5105400Y-25400D01*
X5105400Y-25400D02*
X7594600Y-25400D01*
X9144000Y508000D02*
G75*
G03X9144000Y508000I-254000J0D01*
G01*
X10134600Y-25400D02*
X10134600Y-15214600D01*
X10134600Y-15214600D02*
X7645400Y-15214600D01*
X7645400Y-15214600D02*
X7645400Y-25400D01*
X7645400Y-25400D02*
X10134600Y-25400D01*
X11684000Y508000D02*
G75*
G03X11684000Y508000I-254000J0D01*
G01*
X12674600Y-25400D02*
X12674600Y-15214600D01*
X12674600Y-15214600D02*
X10185400Y-15214600D01*
X10185400Y-15214600D02*
X10185400Y-25400D01*
X10185400Y-25400D02*
X12674600Y-25400D01*
X14224000Y508000D02*
G75*
G03X14224000Y508000I-254000J0D01*
G01*
X15214600Y-25400D02*
X15214600Y-15214600D01*
X15214600Y-15214600D02*
X12725400Y-15214600D01*
X12725400Y-15214600D02*
X12725400Y-25400D01*
X12725400Y-25400D02*
X15214600Y-25400D01*
X16764000Y508000D02*
G75*
G03X16764000Y508000I-254000J0D01*
G01*
X17754600Y-25400D02*
X17754600Y-15214600D01*
X17754600Y-15214600D02*
X15265400Y-15214600D01*
X15265400Y-15214600D02*
X15265400Y-25400D01*
X15265400Y-25400D02*
X17754600Y-25400D01*
X19304000Y508000D02*
G75*
G03X19304000Y508000I-254000J0D01*
G01*
X20294600Y-25400D02*
X20294600Y-15214600D01*
X20294600Y-15214600D02*
X17805400Y-15214600D01*
X17805400Y-15214600D02*
X17805400Y-25400D01*
X17805400Y-25400D02*
X20294600Y-25400D01*
X21844000Y508000D02*
G75*
G03X21844000Y508000I-254000J0D01*
G01*
X22834600Y-25400D02*
X22834600Y-15214600D01*
X22834600Y-15214600D02*
X20345400Y-15214600D01*
X20345400Y-15214600D02*
X20345400Y-25400D01*
X20345400Y-25400D02*
X22834600Y-25400D01*
D13*
X9506857Y-23386143D02*
X9470571Y-23422429D01*
X9361714Y-23458714D01*
X9289143Y-23458714D01*
X9180286Y-23422429D01*
X9107714Y-23349857D01*
X9071429Y-23277286D01*
X9035143Y-23132143D01*
X9035143Y-23023286D01*
X9071429Y-22878143D01*
X9107714Y-22805571D01*
X9180286Y-22733000D01*
X9289143Y-22696714D01*
X9361714Y-22696714D01*
X9470571Y-22733000D01*
X9506857Y-22769286D01*
X10232571Y-23458714D02*
X9797143Y-23458714D01*
X10014857Y-23458714D02*
X10014857Y-22696714D01*
X9942286Y-22805571D01*
X9869714Y-22878143D01*
X9797143Y-22914429D01*
D14*
X6591905Y-18620619D02*
X6591905Y-19443095D01*
X6640286Y-19539857D01*
X6688667Y-19588238D01*
X6785429Y-19636619D01*
X6978952Y-19636619D01*
X7075714Y-19588238D01*
X7124095Y-19539857D01*
X7172476Y-19443095D01*
X7172476Y-18620619D01*
X8188476Y-19636619D02*
X7607905Y-19636619D01*
X7898191Y-19636619D02*
X7898191Y-18620619D01*
X7801429Y-18765762D01*
X7704667Y-18862524D01*
X7607905Y-18910905D01*
D15*
X3265714Y-21135219D02*
X3689048Y-21135219D01*
X3416905Y-22151219D01*
X4203095Y-21473886D02*
X4203095Y-22151219D01*
X4051905Y-21086838D02*
X3900714Y-21812552D01*
X4293810Y-21812552D01*
X4535714Y-22151219D02*
X4535714Y-21135219D01*
X4535714Y-21619029D02*
X4898572Y-21619029D01*
X4898572Y-22151219D02*
X4898572Y-21135219D01*
X5563810Y-22054457D02*
X5533572Y-22102838D01*
X5442857Y-22151219D01*
X5382381Y-22151219D01*
X5291667Y-22102838D01*
X5231191Y-22006076D01*
X5200952Y-21909314D01*
X5170714Y-21715790D01*
X5170714Y-21570648D01*
X5200952Y-21377124D01*
X5231191Y-21280362D01*
X5291667Y-21183600D01*
X5382381Y-21135219D01*
X5442857Y-21135219D01*
X5533572Y-21183600D01*
X5563810Y-21231981D01*
X6138333Y-21135219D02*
X5835952Y-21135219D01*
X5805714Y-21619029D01*
X5835952Y-21570648D01*
X5896429Y-21522267D01*
X6047619Y-21522267D01*
X6108095Y-21570648D01*
X6138333Y-21619029D01*
X6168572Y-21715790D01*
X6168572Y-21957695D01*
X6138333Y-22054457D01*
X6108095Y-22102838D01*
X6047619Y-22151219D01*
X5896429Y-22151219D01*
X5835952Y-22102838D01*
X5805714Y-22054457D01*
X6470953Y-22151219D02*
X6591905Y-22151219D01*
X6652381Y-22102838D01*
X6682619Y-22054457D01*
X6743095Y-21909314D01*
X6773334Y-21715790D01*
X6773334Y-21328743D01*
X6743095Y-21231981D01*
X6712857Y-21183600D01*
X6652381Y-21135219D01*
X6531429Y-21135219D01*
X6470953Y-21183600D01*
X6440714Y-21231981D01*
X6410476Y-21328743D01*
X6410476Y-21570648D01*
X6440714Y-21667410D01*
X6470953Y-21715790D01*
X6531429Y-21764171D01*
X6652381Y-21764171D01*
X6712857Y-21715790D01*
X6743095Y-21667410D01*
X6773334Y-21570648D01*
X7347857Y-21135219D02*
X7045476Y-21135219D01*
X7015238Y-21619029D01*
X7045476Y-21570648D01*
X7105953Y-21522267D01*
X7257143Y-21522267D01*
X7317619Y-21570648D01*
X7347857Y-21619029D01*
X7378096Y-21715790D01*
X7378096Y-21957695D01*
X7347857Y-22054457D01*
X7317619Y-22102838D01*
X7257143Y-22151219D01*
X7105953Y-22151219D01*
X7045476Y-22102838D01*
X7015238Y-22054457D01*
D16*
X8864298Y-16560800D02*
X9151560Y-16560800D01*
X9036655Y-16848062D02*
X9151560Y-16560800D01*
X9036655Y-16273538D01*
X9381369Y-16733157D02*
X9151560Y-16560800D01*
X9381369Y-16388443D01*
D13*
X15856857Y-16401143D02*
X15820571Y-16437429D01*
X15711714Y-16473714D01*
X15639143Y-16473714D01*
X15530286Y-16437429D01*
X15457714Y-16364857D01*
X15421429Y-16292286D01*
X15385143Y-16147143D01*
X15385143Y-16038286D01*
X15421429Y-15893143D01*
X15457714Y-15820571D01*
X15530286Y-15748000D01*
X15639143Y-15711714D01*
X15711714Y-15711714D01*
X15820571Y-15748000D01*
X15856857Y-15784286D01*
X16147143Y-15784286D02*
X16183429Y-15748000D01*
X16256000Y-15711714D01*
X16437429Y-15711714D01*
X16510000Y-15748000D01*
X16546286Y-15784286D01*
X16582571Y-15856857D01*
X16582571Y-15929429D01*
X16546286Y-16038286D01*
X16110857Y-16473714D01*
X16582571Y-16473714D01*
D14*
X17412305Y-21135219D02*
X17412305Y-21957695D01*
X17460686Y-22054457D01*
X17509067Y-22102838D01*
X17605829Y-22151219D01*
X17799352Y-22151219D01*
X17896114Y-22102838D01*
X17944495Y-22054457D01*
X17992876Y-21957695D01*
X17992876Y-21135219D01*
X18428305Y-21231981D02*
X18476686Y-21183600D01*
X18573448Y-21135219D01*
X18815352Y-21135219D01*
X18912114Y-21183600D01*
X18960495Y-21231981D01*
X19008876Y-21328743D01*
X19008876Y-21425505D01*
X18960495Y-21570648D01*
X18379924Y-22151219D01*
X19008876Y-22151219D01*
D15*
X17896114Y-18620619D02*
X18319448Y-18620619D01*
X18047305Y-19636619D01*
X18833495Y-18959286D02*
X18833495Y-19636619D01*
X18682305Y-18572238D02*
X18531114Y-19297952D01*
X18924210Y-19297952D01*
X19166114Y-19636619D02*
X19166114Y-18620619D01*
X19166114Y-19104429D02*
X19528972Y-19104429D01*
X19528972Y-19636619D02*
X19528972Y-18620619D01*
X20194210Y-19539857D02*
X20163972Y-19588238D01*
X20073257Y-19636619D01*
X20012781Y-19636619D01*
X19922067Y-19588238D01*
X19861591Y-19491476D01*
X19831352Y-19394714D01*
X19801114Y-19201190D01*
X19801114Y-19056048D01*
X19831352Y-18862524D01*
X19861591Y-18765762D01*
X19922067Y-18669000D01*
X20012781Y-18620619D01*
X20073257Y-18620619D01*
X20163972Y-18669000D01*
X20194210Y-18717381D01*
X20436114Y-18717381D02*
X20466352Y-18669000D01*
X20526829Y-18620619D01*
X20678019Y-18620619D01*
X20738495Y-18669000D01*
X20768733Y-18717381D01*
X20798972Y-18814143D01*
X20798972Y-18910905D01*
X20768733Y-19056048D01*
X20405876Y-19636619D01*
X20798972Y-19636619D01*
X21373495Y-18620619D02*
X21071114Y-18620619D01*
X21040876Y-19104429D01*
X21071114Y-19056048D01*
X21131591Y-19007667D01*
X21282781Y-19007667D01*
X21343257Y-19056048D01*
X21373495Y-19104429D01*
X21403734Y-19201190D01*
X21403734Y-19443095D01*
X21373495Y-19539857D01*
X21343257Y-19588238D01*
X21282781Y-19636619D01*
X21131591Y-19636619D01*
X21071114Y-19588238D01*
X21040876Y-19539857D01*
X21615400Y-18620619D02*
X22038734Y-18620619D01*
X21766591Y-19636619D01*
D16*
X16560498Y-24079200D02*
X16847760Y-24079200D01*
X16732855Y-24366462D02*
X16847760Y-24079200D01*
X16732855Y-23791938D01*
X17077569Y-24251557D02*
X16847760Y-24079200D01*
X17077569Y-23906843D01*
D14*
X13058019Y-22164524D02*
X12574210Y-22503190D01*
X13058019Y-22745095D02*
X12042019Y-22745095D01*
X12042019Y-22358048D01*
X12090400Y-22261286D01*
X12138781Y-22212905D01*
X12235543Y-22164524D01*
X12380686Y-22164524D01*
X12477448Y-22212905D01*
X12525829Y-22261286D01*
X12574210Y-22358048D01*
X12574210Y-22745095D01*
X13058019Y-21729095D02*
X12042019Y-21729095D01*
X13058019Y-21148524D01*
X12042019Y-21148524D01*
X13058019Y-20132524D02*
X13058019Y-20713095D01*
X13058019Y-20422809D02*
X12042019Y-20422809D01*
X12187162Y-20519571D01*
X12283924Y-20616333D01*
X12332305Y-20713095D01*
D15*
X12016619Y-18566190D02*
X12016619Y-18929048D01*
X12016619Y-18747619D02*
X11000619Y-18747619D01*
X11145762Y-18808095D01*
X11242524Y-18868571D01*
X11290905Y-18929048D01*
X11000619Y-18173095D02*
X11000619Y-18112619D01*
X11049000Y-18052143D01*
X11097381Y-18021905D01*
X11194143Y-17991667D01*
X11387667Y-17961428D01*
X11629571Y-17961428D01*
X11823095Y-17991667D01*
X11919857Y-18021905D01*
X11968238Y-18052143D01*
X12016619Y-18112619D01*
X12016619Y-18173095D01*
X11968238Y-18233571D01*
X11919857Y-18263809D01*
X11823095Y-18294048D01*
X11629571Y-18324286D01*
X11387667Y-18324286D01*
X11194143Y-18294048D01*
X11097381Y-18263809D01*
X11049000Y-18233571D01*
X11000619Y-18173095D01*
X12016619Y-17689286D02*
X11000619Y-17689286D01*
X11629571Y-17628809D02*
X12016619Y-17447381D01*
X11339286Y-17447381D02*
X11726333Y-17689286D01*
X12016619Y-17205476D02*
X12016619Y-17054285D01*
X11823095Y-17054285D01*
X11774714Y-17114761D01*
X11677952Y-17175238D01*
X11532810Y-17205476D01*
X11290905Y-17205476D01*
X11145762Y-17175238D01*
X11049000Y-17114761D01*
X11000619Y-17024047D01*
X11000619Y-16903095D01*
X11049000Y-16812380D01*
X11145762Y-16751904D01*
X11290905Y-16721666D01*
X11532810Y-16721666D01*
X11677952Y-16751904D01*
X11774714Y-16812380D01*
X11823095Y-16872857D01*
X12016619Y-16872857D01*
X12016619Y-16721666D01*
D16*
X14935200Y-21894498D02*
X14935200Y-22181760D01*
X14647938Y-22066855D02*
X14935200Y-22181760D01*
X15222462Y-22066855D01*
X14762843Y-22411569D02*
X14935200Y-22181760D01*
X15107557Y-22411569D01*
%LPC*%
D17*
X9448800Y-24130000D03*
X10871200Y-24130000D03*
D18*
X8001000Y-17399000D03*
X7340600Y-17399000D03*
X6680200Y-17399000D03*
X6045200Y-17399000D03*
X5384800Y-17399000D03*
X4749800Y-17399000D03*
X4089400Y-17399000D03*
X3429000Y-17399000D03*
X3429000Y-23241000D03*
X4089400Y-23241000D03*
X4749800Y-23241000D03*
X5384800Y-23241000D03*
X6045200Y-23241000D03*
X6680200Y-23241000D03*
X7340600Y-23241000D03*
X8001000Y-23241000D03*
D19*
X15875000Y-17068800D03*
X15875000Y-18491200D03*
D18*
X17424400Y-23241000D03*
X18084800Y-23241000D03*
X18745200Y-23241000D03*
X19380200Y-23241000D03*
X20040600Y-23241000D03*
X20675600Y-23241000D03*
X21336000Y-23241000D03*
X21996400Y-23241000D03*
X21996400Y-17399000D03*
X21336000Y-17399000D03*
X20675600Y-17399000D03*
X20040600Y-17399000D03*
X19380200Y-17399000D03*
X18745200Y-17399000D03*
X18084800Y-17399000D03*
X17424400Y-17399000D03*
D20*
X1270000Y-16510000D03*
D21*
X1270000Y-1270000D03*
D20*
X1270000Y-3810000D03*
X1270000Y-6350000D03*
X1270000Y-8890000D03*
X1270000Y-11430000D03*
X1270000Y-13970000D03*
X24130000Y-16510000D03*
D21*
X24130000Y-1270000D03*
D20*
X24130000Y-3810000D03*
X24130000Y-6350000D03*
X24130000Y-8890000D03*
X24130000Y-11430000D03*
X24130000Y-13970000D03*
D22*
X10415000Y-22225000D03*
X10415000Y-20955000D03*
X10415000Y-19685000D03*
X10415000Y-18415000D03*
X10415000Y-17145000D03*
X13715000Y-17145000D03*
X13715000Y-18415000D03*
X13715000Y-19685000D03*
X13715000Y-20955000D03*
X13715000Y-22225000D03*
D21*
X3810000Y-1270000D03*
D20*
X3810000Y-3810000D03*
X3810000Y-6350000D03*
X3810000Y-8890000D03*
X3810000Y-11430000D03*
X3810000Y-13970000D03*
D21*
X6350000Y-1270000D03*
D20*
X6350000Y-3810000D03*
X6350000Y-6350000D03*
X6350000Y-8890000D03*
X6350000Y-11430000D03*
X6350000Y-13970000D03*
D21*
X8890000Y-1270000D03*
D20*
X8890000Y-3810000D03*
X8890000Y-6350000D03*
X8890000Y-8890000D03*
X8890000Y-11430000D03*
X8890000Y-13970000D03*
D21*
X11430000Y-1270000D03*
D20*
X11430000Y-3810000D03*
X11430000Y-6350000D03*
X11430000Y-8890000D03*
X11430000Y-11430000D03*
X11430000Y-13970000D03*
D21*
X13970000Y-1270000D03*
D20*
X13970000Y-3810000D03*
X13970000Y-6350000D03*
X13970000Y-8890000D03*
X13970000Y-11430000D03*
X13970000Y-13970000D03*
D21*
X16510000Y-1270000D03*
D20*
X16510000Y-3810000D03*
X16510000Y-6350000D03*
X16510000Y-8890000D03*
X16510000Y-11430000D03*
X16510000Y-13970000D03*
D21*
X19050000Y-1270000D03*
D20*
X19050000Y-3810000D03*
X19050000Y-6350000D03*
X19050000Y-8890000D03*
X19050000Y-11430000D03*
X19050000Y-13970000D03*
D21*
X21590000Y-1270000D03*
D20*
X21590000Y-3810000D03*
X21590000Y-6350000D03*
X21590000Y-8890000D03*
X21590000Y-11430000D03*
X21590000Y-13970000D03*
M02*
