M48
;DRILL file {KiCad (2015-07-26 BZR 5996)-product} date 2015-09-04 23:49:18
;FORMAT={2:4/ absolute / inch / keep zeros}
FMAT,2
INCH,TZ
T1C0.015
T2C0.020
T3C0.026
T4C0.028
T5C0.028
T6C0.041
T7C0.096
%
G90
G05
M72
T1
X006000Y-009800
X006400Y-009200
X008500Y-005000
X011500Y-003000
X026000Y-009800
X026500Y-009350
X027000Y-008900
X034000Y-011100
X035000Y-011100
X036000Y-005000
X037000Y-011100
X038000Y-003000
X038000Y-011100
X039000Y-003000
T2
X001900Y-000400
X001900Y-001500
X001900Y-002600
X003000Y-000400
X003000Y-002600
X004100Y-000400
X004100Y-001500
X004100Y-002600
T3
X006500Y-007500
X006500Y-010500
X007500Y-007500
X007500Y-010500
X008500Y-007500
X008500Y-010500
X009500Y-007500
X009500Y-010500
X010500Y-007500
X010500Y-010500
X011500Y-007500
X011500Y-010500
X012500Y-007500
X012500Y-010500
X013500Y-007500
X013500Y-010500
X033000Y-007500
X033000Y-010500
X034000Y-007500
X034000Y-010500
X035000Y-007500
X035000Y-010500
X036000Y-007500
X036000Y-010500
X037000Y-007500
X037000Y-010500
X038000Y-007500
X038000Y-010500
X039000Y-007500
X039000Y-010500
X040000Y-007500
X040000Y-010500
T4
X018000Y-007500
X019000Y-007500
X020000Y-007500
X021000Y-007500
X022000Y-007500
X023000Y-007500
X024000Y-007500
X025000Y-007500
X026000Y-007500
T5
X005500Y-007500
X005500Y-008500
X032000Y-007500
X032000Y-008500
T6
X001000Y-002000
X001000Y-003000
X001000Y-004000
X001000Y-005000
X001000Y-006000
X001000Y-007000
X001000Y-008000
X005000Y-001000
X005000Y-002000
X005000Y-003000
X005000Y-004000
X005000Y-005000
X005000Y-006000
X010000Y-001000
X010000Y-002000
X010000Y-003000
X010000Y-004000
X010000Y-005000
X010000Y-006000
X015000Y-001000
X015000Y-002000
X015000Y-003000
X015000Y-004000
X015000Y-005000
X015000Y-006000
X020000Y-001000
X020000Y-002000
X020000Y-003000
X020000Y-004000
X020000Y-005000
X020000Y-006000
X025000Y-001000
X025000Y-002000
X025000Y-003000
X025000Y-004000
X025000Y-005000
X025000Y-006000
X030000Y-001000
X030000Y-002000
X030000Y-003000
X030000Y-004000
X030000Y-005000
X030000Y-006000
X035000Y-001000
X035000Y-002000
X035000Y-003000
X035000Y-004000
X035000Y-005000
X035000Y-006000
X040000Y-001000
X040000Y-002000
X040000Y-003000
X040000Y-004000
X040000Y-005000
X040000Y-006000
X044000Y-002000
X044000Y-003000
X044000Y-004000
X044000Y-005000
X044000Y-006000
X044000Y-007000
X044000Y-008000
T7
X003000Y-001500
T0
M30
