M48
;DRILL file {KiCad 4.0.1-stable} date 2016-02-27 01:29:29
;FORMAT={-:-/ absolute / inch / decimal}
FMAT,2
INCH,TZ
T1C0.013
T2C0.015
T3C0.041
%
G90
G05
M72
T1
X0.09Y-0.5914
X0.1025Y-0.5
X0.1261Y-0.7653
X0.1265Y-0.8353
X0.185Y-0.815
X0.207Y-0.6291
X0.2298Y-0.9635
X0.274Y-0.629
X0.686Y-0.8503
X0.691Y-0.746
X0.7014Y-0.5737
X0.765Y-0.63
X0.8Y-0.4825
X0.8Y-0.5825
X0.8339Y-0.6138
T2
X0.15Y-0.625
X0.16Y-0.86
X0.34Y-0.94
X0.45Y-0.875
X0.475Y-0.95
X0.495Y-0.675
X0.625Y-0.765
X0.66Y-0.672
X0.7104Y-0.6334
X0.725Y-0.975
X0.8Y-0.975
X0.865Y-0.975
T3
X0.05Y-0.05
X0.05Y-0.15
X0.05Y-0.25
X0.05Y-0.35
X0.05Y-0.45
X0.05Y-0.55
X0.05Y-0.65
X0.15Y-0.05
X0.15Y-0.15
X0.15Y-0.25
X0.15Y-0.35
X0.15Y-0.45
X0.15Y-0.55
X0.25Y-0.05
X0.25Y-0.15
X0.25Y-0.25
X0.25Y-0.35
X0.25Y-0.45
X0.25Y-0.55
X0.35Y-0.05
X0.35Y-0.15
X0.35Y-0.25
X0.35Y-0.35
X0.35Y-0.45
X0.35Y-0.55
X0.45Y-0.05
X0.45Y-0.15
X0.45Y-0.25
X0.45Y-0.35
X0.45Y-0.45
X0.45Y-0.55
X0.55Y-0.05
X0.55Y-0.15
X0.55Y-0.25
X0.55Y-0.35
X0.55Y-0.45
X0.55Y-0.55
X0.65Y-0.05
X0.65Y-0.15
X0.65Y-0.25
X0.65Y-0.35
X0.65Y-0.45
X0.65Y-0.55
X0.75Y-0.05
X0.75Y-0.15
X0.75Y-0.25
X0.75Y-0.35
X0.75Y-0.45
X0.75Y-0.55
X0.85Y-0.05
X0.85Y-0.15
X0.85Y-0.25
X0.85Y-0.35
X0.85Y-0.45
X0.85Y-0.55
X0.95Y-0.05
X0.95Y-0.15
X0.95Y-0.25
X0.95Y-0.35
X0.95Y-0.45
X0.95Y-0.55
X0.95Y-0.65
T0
M30
