%FSLAX45Y45*%
G04 Gerber Fmt 4.5, Leading zero omitted, Abs format (unit mm)*
G04 Created by KiCad (PCBNEW (2015-07-26 BZR 5996)-product) date 2015-09-04 23:49:22*
%MOMM*%
G01*
G04 APERTURE LIST*
%ADD10C,0.127000*%
%ADD11C,0.100000*%
%ADD12C,0.200000*%
%ADD13C,0.300000*%
G04 APERTURE END LIST*
D10*
D11*
X0Y-2921000D02*
X0Y0D01*
X11430000Y-2921000D02*
X0Y-2921000D01*
X11430000Y0D02*
X11430000Y-2921000D01*
X11430000Y0D02*
X0Y0D01*
D12*
X1504950Y-2470150D02*
X1543050Y-2508250D01*
X1543050Y-2470150D02*
X1504950Y-2508250D01*
X1606550Y-2317750D02*
X1644650Y-2355850D01*
X1644650Y-2317750D02*
X1606550Y-2355850D01*
X2139950Y-1250950D02*
X2178050Y-1289050D01*
X2178050Y-1250950D02*
X2139950Y-1289050D01*
X2901950Y-742950D02*
X2940050Y-781050D01*
X2940050Y-742950D02*
X2901950Y-781050D01*
X6584950Y-2470150D02*
X6623050Y-2508250D01*
X6623050Y-2470150D02*
X6584950Y-2508250D01*
X6711950Y-2355850D02*
X6750050Y-2393950D01*
X6750050Y-2355850D02*
X6711950Y-2393950D01*
X6838950Y-2241550D02*
X6877050Y-2279650D01*
X6877050Y-2241550D02*
X6838950Y-2279650D01*
X8616950Y-2800350D02*
X8655050Y-2838450D01*
X8655050Y-2800350D02*
X8616950Y-2838450D01*
X8870950Y-2800350D02*
X8909050Y-2838450D01*
X8909050Y-2800350D02*
X8870950Y-2838450D01*
X9124950Y-1250950D02*
X9163050Y-1289050D01*
X9163050Y-1250950D02*
X9124950Y-1289050D01*
X9378950Y-2800350D02*
X9417050Y-2838450D01*
X9417050Y-2800350D02*
X9378950Y-2838450D01*
X9632950Y-742950D02*
X9671050Y-781050D01*
X9671050Y-742950D02*
X9632950Y-781050D01*
X9632950Y-2800350D02*
X9671050Y-2838450D01*
X9671050Y-2800350D02*
X9632950Y-2838450D01*
X9886950Y-742950D02*
X9925050Y-781050D01*
X9925050Y-742950D02*
X9886950Y-781050D01*
X508000Y-101600D02*
G75*
G03X508000Y-101600I-25400J0D01*
G01*
X508000Y-381000D02*
G75*
G03X508000Y-381000I-25400J0D01*
G01*
X508000Y-660400D02*
G75*
G03X508000Y-660400I-25400J0D01*
G01*
X787400Y-101600D02*
G75*
G03X787400Y-101600I-25400J0D01*
G01*
X787400Y-660400D02*
G75*
G03X787400Y-660400I-25400J0D01*
G01*
X1066800Y-101600D02*
G75*
G03X1066800Y-101600I-25400J0D01*
G01*
X1066800Y-381000D02*
G75*
G03X1066800Y-381000I-25400J0D01*
G01*
X1066800Y-660400D02*
G75*
G03X1066800Y-660400I-25400J0D01*
G01*
X1651000Y-1871500D02*
X1651000Y-1938500D01*
X1617500Y-1905000D02*
X1684500Y-1905000D01*
X1651000Y-2633500D02*
X1651000Y-2700500D01*
X1617500Y-2667000D02*
X1684500Y-2667000D01*
X1905000Y-1871500D02*
X1905000Y-1938500D01*
X1871500Y-1905000D02*
X1938500Y-1905000D01*
X1905000Y-2633500D02*
X1905000Y-2700500D01*
X1871500Y-2667000D02*
X1938500Y-2667000D01*
X2159000Y-1871500D02*
X2159000Y-1938500D01*
X2125500Y-1905000D02*
X2192500Y-1905000D01*
X2159000Y-2633500D02*
X2159000Y-2700500D01*
X2125500Y-2667000D02*
X2192500Y-2667000D01*
X2413000Y-1871500D02*
X2413000Y-1938500D01*
X2379500Y-1905000D02*
X2446500Y-1905000D01*
X2413000Y-2633500D02*
X2413000Y-2700500D01*
X2379500Y-2667000D02*
X2446500Y-2667000D01*
X2667000Y-1871500D02*
X2667000Y-1938500D01*
X2633500Y-1905000D02*
X2700500Y-1905000D01*
X2667000Y-2633500D02*
X2667000Y-2700500D01*
X2633500Y-2667000D02*
X2700500Y-2667000D01*
X2921000Y-1871500D02*
X2921000Y-1938500D01*
X2887500Y-1905000D02*
X2954500Y-1905000D01*
X2921000Y-2633500D02*
X2921000Y-2700500D01*
X2887500Y-2667000D02*
X2954500Y-2667000D01*
X3175000Y-1871500D02*
X3175000Y-1938500D01*
X3141500Y-1905000D02*
X3208500Y-1905000D01*
X3175000Y-2633500D02*
X3175000Y-2700500D01*
X3141500Y-2667000D02*
X3208500Y-2667000D01*
X3429000Y-1871500D02*
X3429000Y-1938500D01*
X3395500Y-1905000D02*
X3462500Y-1905000D01*
X3429000Y-2633500D02*
X3429000Y-2700500D01*
X3395500Y-2667000D02*
X3462500Y-2667000D01*
X8382000Y-1871500D02*
X8382000Y-1938500D01*
X8348500Y-1905000D02*
X8415500Y-1905000D01*
X8382000Y-2633500D02*
X8382000Y-2700500D01*
X8348500Y-2667000D02*
X8415500Y-2667000D01*
X8636000Y-1871500D02*
X8636000Y-1938500D01*
X8602500Y-1905000D02*
X8669500Y-1905000D01*
X8636000Y-2633500D02*
X8636000Y-2700500D01*
X8602500Y-2667000D02*
X8669500Y-2667000D01*
X8890000Y-1871500D02*
X8890000Y-1938500D01*
X8856500Y-1905000D02*
X8923500Y-1905000D01*
X8890000Y-2633500D02*
X8890000Y-2700500D01*
X8856500Y-2667000D02*
X8923500Y-2667000D01*
X9144000Y-1871500D02*
X9144000Y-1938500D01*
X9110500Y-1905000D02*
X9177500Y-1905000D01*
X9144000Y-2633500D02*
X9144000Y-2700500D01*
X9110500Y-2667000D02*
X9177500Y-2667000D01*
X9398000Y-1871500D02*
X9398000Y-1938500D01*
X9364500Y-1905000D02*
X9431500Y-1905000D01*
X9398000Y-2633500D02*
X9398000Y-2700500D01*
X9364500Y-2667000D02*
X9431500Y-2667000D01*
X9652000Y-1871500D02*
X9652000Y-1938500D01*
X9618500Y-1905000D02*
X9685500Y-1905000D01*
X9652000Y-2633500D02*
X9652000Y-2700500D01*
X9618500Y-2667000D02*
X9685500Y-2667000D01*
X9906000Y-1871500D02*
X9906000Y-1938500D01*
X9872500Y-1905000D02*
X9939500Y-1905000D01*
X9906000Y-2633500D02*
X9906000Y-2700500D01*
X9872500Y-2667000D02*
X9939500Y-2667000D01*
X10160000Y-1871500D02*
X10160000Y-1938500D01*
X10126500Y-1905000D02*
X10193500Y-1905000D01*
X10160000Y-2633500D02*
X10160000Y-2700500D01*
X10126500Y-2667000D02*
X10193500Y-2667000D01*
X4596749Y-1929749D02*
X4596749Y-1880251D01*
X4547251Y-1880251D01*
X4547251Y-1929749D01*
X4596749Y-1929749D01*
X4850749Y-1929749D02*
X4850749Y-1880251D01*
X4801251Y-1880251D01*
X4801251Y-1929749D01*
X4850749Y-1929749D01*
X5104749Y-1929749D02*
X5104749Y-1880251D01*
X5055251Y-1880251D01*
X5055251Y-1929749D01*
X5104749Y-1929749D01*
X5358749Y-1929749D02*
X5358749Y-1880251D01*
X5309251Y-1880251D01*
X5309251Y-1929749D01*
X5358749Y-1929749D01*
X5612749Y-1929749D02*
X5612749Y-1880251D01*
X5563251Y-1880251D01*
X5563251Y-1929749D01*
X5612749Y-1929749D01*
X5866749Y-1929749D02*
X5866749Y-1880251D01*
X5817251Y-1880251D01*
X5817251Y-1929749D01*
X5866749Y-1929749D01*
X6120749Y-1929749D02*
X6120749Y-1880251D01*
X6071251Y-1880251D01*
X6071251Y-1929749D01*
X6120749Y-1929749D01*
X6374749Y-1929749D02*
X6374749Y-1880251D01*
X6325251Y-1880251D01*
X6325251Y-1929749D01*
X6374749Y-1929749D01*
X6628749Y-1929749D02*
X6628749Y-1880251D01*
X6579251Y-1880251D01*
X6579251Y-1929749D01*
X6628749Y-1929749D01*
X1397000Y-1940052D02*
X1432052Y-1905000D01*
X1397000Y-1869948D01*
X1361948Y-1905000D01*
X1397000Y-1940052D01*
X1397000Y-2194052D02*
X1432052Y-2159000D01*
X1397000Y-2123948D01*
X1361948Y-2159000D01*
X1397000Y-2194052D01*
X8128000Y-1940052D02*
X8163052Y-1905000D01*
X8128000Y-1869948D01*
X8092948Y-1905000D01*
X8128000Y-1940052D01*
X8128000Y-2194052D02*
X8163052Y-2159000D01*
X8128000Y-2123948D01*
X8092948Y-2159000D01*
X8128000Y-2194052D01*
X201549Y-455549D02*
X306451Y-560451D01*
X306451Y-455549D02*
X201549Y-560451D01*
X306451Y-508000D02*
G75*
G03X306451Y-508000I-52451J0D01*
G01*
X201549Y-709549D02*
X306451Y-814451D01*
X306451Y-709549D02*
X201549Y-814451D01*
X306451Y-762000D02*
G75*
G03X306451Y-762000I-52451J0D01*
G01*
X201549Y-963549D02*
X306451Y-1068451D01*
X306451Y-963549D02*
X201549Y-1068451D01*
X306451Y-1016000D02*
G75*
G03X306451Y-1016000I-52451J0D01*
G01*
X201549Y-1217549D02*
X306451Y-1322451D01*
X306451Y-1217549D02*
X201549Y-1322451D01*
X306451Y-1270000D02*
G75*
G03X306451Y-1270000I-52451J0D01*
G01*
X201549Y-1471549D02*
X306451Y-1576451D01*
X306451Y-1471549D02*
X201549Y-1576451D01*
X306451Y-1524000D02*
G75*
G03X306451Y-1524000I-52451J0D01*
G01*
X201549Y-1725549D02*
X306451Y-1830451D01*
X306451Y-1725549D02*
X201549Y-1830451D01*
X306451Y-1778000D02*
G75*
G03X306451Y-1778000I-52451J0D01*
G01*
X201549Y-1979549D02*
X306451Y-2084451D01*
X306451Y-1979549D02*
X201549Y-2084451D01*
X306451Y-2032000D02*
G75*
G03X306451Y-2032000I-52451J0D01*
G01*
X1217549Y-201549D02*
X1322451Y-306451D01*
X1322451Y-201549D02*
X1217549Y-306451D01*
X1322451Y-254000D02*
G75*
G03X1322451Y-254000I-52451J0D01*
G01*
X1217549Y-455549D02*
X1322451Y-560451D01*
X1322451Y-455549D02*
X1217549Y-560451D01*
X1322451Y-508000D02*
G75*
G03X1322451Y-508000I-52451J0D01*
G01*
X1217549Y-709549D02*
X1322451Y-814451D01*
X1322451Y-709549D02*
X1217549Y-814451D01*
X1322451Y-762000D02*
G75*
G03X1322451Y-762000I-52451J0D01*
G01*
X1217549Y-963549D02*
X1322451Y-1068451D01*
X1322451Y-963549D02*
X1217549Y-1068451D01*
X1322451Y-1016000D02*
G75*
G03X1322451Y-1016000I-52451J0D01*
G01*
X1217549Y-1217549D02*
X1322451Y-1322451D01*
X1322451Y-1217549D02*
X1217549Y-1322451D01*
X1322451Y-1270000D02*
G75*
G03X1322451Y-1270000I-52451J0D01*
G01*
X1217549Y-1471549D02*
X1322451Y-1576451D01*
X1322451Y-1471549D02*
X1217549Y-1576451D01*
X1322451Y-1524000D02*
G75*
G03X1322451Y-1524000I-52451J0D01*
G01*
X2487549Y-201549D02*
X2592451Y-306451D01*
X2592451Y-201549D02*
X2487549Y-306451D01*
X2592451Y-254000D02*
G75*
G03X2592451Y-254000I-52451J0D01*
G01*
X2487549Y-455549D02*
X2592451Y-560451D01*
X2592451Y-455549D02*
X2487549Y-560451D01*
X2592451Y-508000D02*
G75*
G03X2592451Y-508000I-52451J0D01*
G01*
X2487549Y-709549D02*
X2592451Y-814451D01*
X2592451Y-709549D02*
X2487549Y-814451D01*
X2592451Y-762000D02*
G75*
G03X2592451Y-762000I-52451J0D01*
G01*
X2487549Y-963549D02*
X2592451Y-1068451D01*
X2592451Y-963549D02*
X2487549Y-1068451D01*
X2592451Y-1016000D02*
G75*
G03X2592451Y-1016000I-52451J0D01*
G01*
X2487549Y-1217549D02*
X2592451Y-1322451D01*
X2592451Y-1217549D02*
X2487549Y-1322451D01*
X2592451Y-1270000D02*
G75*
G03X2592451Y-1270000I-52451J0D01*
G01*
X2487549Y-1471549D02*
X2592451Y-1576451D01*
X2592451Y-1471549D02*
X2487549Y-1576451D01*
X2592451Y-1524000D02*
G75*
G03X2592451Y-1524000I-52451J0D01*
G01*
X3757549Y-201549D02*
X3862451Y-306451D01*
X3862451Y-201549D02*
X3757549Y-306451D01*
X3862451Y-254000D02*
G75*
G03X3862451Y-254000I-52451J0D01*
G01*
X3757549Y-455549D02*
X3862451Y-560451D01*
X3862451Y-455549D02*
X3757549Y-560451D01*
X3862451Y-508000D02*
G75*
G03X3862451Y-508000I-52451J0D01*
G01*
X3757549Y-709549D02*
X3862451Y-814451D01*
X3862451Y-709549D02*
X3757549Y-814451D01*
X3862451Y-762000D02*
G75*
G03X3862451Y-762000I-52451J0D01*
G01*
X3757549Y-963549D02*
X3862451Y-1068451D01*
X3862451Y-963549D02*
X3757549Y-1068451D01*
X3862451Y-1016000D02*
G75*
G03X3862451Y-1016000I-52451J0D01*
G01*
X3757549Y-1217549D02*
X3862451Y-1322451D01*
X3862451Y-1217549D02*
X3757549Y-1322451D01*
X3862451Y-1270000D02*
G75*
G03X3862451Y-1270000I-52451J0D01*
G01*
X3757549Y-1471549D02*
X3862451Y-1576451D01*
X3862451Y-1471549D02*
X3757549Y-1576451D01*
X3862451Y-1524000D02*
G75*
G03X3862451Y-1524000I-52451J0D01*
G01*
X5027549Y-201549D02*
X5132451Y-306451D01*
X5132451Y-201549D02*
X5027549Y-306451D01*
X5132451Y-254000D02*
G75*
G03X5132451Y-254000I-52451J0D01*
G01*
X5027549Y-455549D02*
X5132451Y-560451D01*
X5132451Y-455549D02*
X5027549Y-560451D01*
X5132451Y-508000D02*
G75*
G03X5132451Y-508000I-52451J0D01*
G01*
X5027549Y-709549D02*
X5132451Y-814451D01*
X5132451Y-709549D02*
X5027549Y-814451D01*
X5132451Y-762000D02*
G75*
G03X5132451Y-762000I-52451J0D01*
G01*
X5027549Y-963549D02*
X5132451Y-1068451D01*
X5132451Y-963549D02*
X5027549Y-1068451D01*
X5132451Y-1016000D02*
G75*
G03X5132451Y-1016000I-52451J0D01*
G01*
X5027549Y-1217549D02*
X5132451Y-1322451D01*
X5132451Y-1217549D02*
X5027549Y-1322451D01*
X5132451Y-1270000D02*
G75*
G03X5132451Y-1270000I-52451J0D01*
G01*
X5027549Y-1471549D02*
X5132451Y-1576451D01*
X5132451Y-1471549D02*
X5027549Y-1576451D01*
X5132451Y-1524000D02*
G75*
G03X5132451Y-1524000I-52451J0D01*
G01*
X6297549Y-201549D02*
X6402451Y-306451D01*
X6402451Y-201549D02*
X6297549Y-306451D01*
X6402451Y-254000D02*
G75*
G03X6402451Y-254000I-52451J0D01*
G01*
X6297549Y-455549D02*
X6402451Y-560451D01*
X6402451Y-455549D02*
X6297549Y-560451D01*
X6402451Y-508000D02*
G75*
G03X6402451Y-508000I-52451J0D01*
G01*
X6297549Y-709549D02*
X6402451Y-814451D01*
X6402451Y-709549D02*
X6297549Y-814451D01*
X6402451Y-762000D02*
G75*
G03X6402451Y-762000I-52451J0D01*
G01*
X6297549Y-963549D02*
X6402451Y-1068451D01*
X6402451Y-963549D02*
X6297549Y-1068451D01*
X6402451Y-1016000D02*
G75*
G03X6402451Y-1016000I-52451J0D01*
G01*
X6297549Y-1217549D02*
X6402451Y-1322451D01*
X6402451Y-1217549D02*
X6297549Y-1322451D01*
X6402451Y-1270000D02*
G75*
G03X6402451Y-1270000I-52451J0D01*
G01*
X6297549Y-1471549D02*
X6402451Y-1576451D01*
X6402451Y-1471549D02*
X6297549Y-1576451D01*
X6402451Y-1524000D02*
G75*
G03X6402451Y-1524000I-52451J0D01*
G01*
X7567549Y-201549D02*
X7672451Y-306451D01*
X7672451Y-201549D02*
X7567549Y-306451D01*
X7672451Y-254000D02*
G75*
G03X7672451Y-254000I-52451J0D01*
G01*
X7567549Y-455549D02*
X7672451Y-560451D01*
X7672451Y-455549D02*
X7567549Y-560451D01*
X7672451Y-508000D02*
G75*
G03X7672451Y-508000I-52451J0D01*
G01*
X7567549Y-709549D02*
X7672451Y-814451D01*
X7672451Y-709549D02*
X7567549Y-814451D01*
X7672451Y-762000D02*
G75*
G03X7672451Y-762000I-52451J0D01*
G01*
X7567549Y-963549D02*
X7672451Y-1068451D01*
X7672451Y-963549D02*
X7567549Y-1068451D01*
X7672451Y-1016000D02*
G75*
G03X7672451Y-1016000I-52451J0D01*
G01*
X7567549Y-1217549D02*
X7672451Y-1322451D01*
X7672451Y-1217549D02*
X7567549Y-1322451D01*
X7672451Y-1270000D02*
G75*
G03X7672451Y-1270000I-52451J0D01*
G01*
X7567549Y-1471549D02*
X7672451Y-1576451D01*
X7672451Y-1471549D02*
X7567549Y-1576451D01*
X7672451Y-1524000D02*
G75*
G03X7672451Y-1524000I-52451J0D01*
G01*
X8837549Y-201549D02*
X8942451Y-306451D01*
X8942451Y-201549D02*
X8837549Y-306451D01*
X8942451Y-254000D02*
G75*
G03X8942451Y-254000I-52451J0D01*
G01*
X8837549Y-455549D02*
X8942451Y-560451D01*
X8942451Y-455549D02*
X8837549Y-560451D01*
X8942451Y-508000D02*
G75*
G03X8942451Y-508000I-52451J0D01*
G01*
X8837549Y-709549D02*
X8942451Y-814451D01*
X8942451Y-709549D02*
X8837549Y-814451D01*
X8942451Y-762000D02*
G75*
G03X8942451Y-762000I-52451J0D01*
G01*
X8837549Y-963549D02*
X8942451Y-1068451D01*
X8942451Y-963549D02*
X8837549Y-1068451D01*
X8942451Y-1016000D02*
G75*
G03X8942451Y-1016000I-52451J0D01*
G01*
X8837549Y-1217549D02*
X8942451Y-1322451D01*
X8942451Y-1217549D02*
X8837549Y-1322451D01*
X8942451Y-1270000D02*
G75*
G03X8942451Y-1270000I-52451J0D01*
G01*
X8837549Y-1471549D02*
X8942451Y-1576451D01*
X8942451Y-1471549D02*
X8837549Y-1576451D01*
X8942451Y-1524000D02*
G75*
G03X8942451Y-1524000I-52451J0D01*
G01*
X10107549Y-201549D02*
X10212451Y-306451D01*
X10212451Y-201549D02*
X10107549Y-306451D01*
X10212451Y-254000D02*
G75*
G03X10212451Y-254000I-52451J0D01*
G01*
X10107549Y-455549D02*
X10212451Y-560451D01*
X10212451Y-455549D02*
X10107549Y-560451D01*
X10212451Y-508000D02*
G75*
G03X10212451Y-508000I-52451J0D01*
G01*
X10107549Y-709549D02*
X10212451Y-814451D01*
X10212451Y-709549D02*
X10107549Y-814451D01*
X10212451Y-762000D02*
G75*
G03X10212451Y-762000I-52451J0D01*
G01*
X10107549Y-963549D02*
X10212451Y-1068451D01*
X10212451Y-963549D02*
X10107549Y-1068451D01*
X10212451Y-1016000D02*
G75*
G03X10212451Y-1016000I-52451J0D01*
G01*
X10107549Y-1217549D02*
X10212451Y-1322451D01*
X10212451Y-1217549D02*
X10107549Y-1322451D01*
X10212451Y-1270000D02*
G75*
G03X10212451Y-1270000I-52451J0D01*
G01*
X10107549Y-1471549D02*
X10212451Y-1576451D01*
X10212451Y-1471549D02*
X10107549Y-1576451D01*
X10212451Y-1524000D02*
G75*
G03X10212451Y-1524000I-52451J0D01*
G01*
X11123549Y-455549D02*
X11228451Y-560451D01*
X11228451Y-455549D02*
X11123549Y-560451D01*
X11228451Y-508000D02*
G75*
G03X11228451Y-508000I-52451J0D01*
G01*
X11123549Y-709549D02*
X11228451Y-814451D01*
X11228451Y-709549D02*
X11123549Y-814451D01*
X11228451Y-762000D02*
G75*
G03X11228451Y-762000I-52451J0D01*
G01*
X11123549Y-963549D02*
X11228451Y-1068451D01*
X11228451Y-963549D02*
X11123549Y-1068451D01*
X11228451Y-1016000D02*
G75*
G03X11228451Y-1016000I-52451J0D01*
G01*
X11123549Y-1217549D02*
X11228451Y-1322451D01*
X11228451Y-1217549D02*
X11123549Y-1322451D01*
X11228451Y-1270000D02*
G75*
G03X11228451Y-1270000I-52451J0D01*
G01*
X11123549Y-1471549D02*
X11228451Y-1576451D01*
X11228451Y-1471549D02*
X11123549Y-1576451D01*
X11228451Y-1524000D02*
G75*
G03X11228451Y-1524000I-52451J0D01*
G01*
X11123549Y-1725549D02*
X11228451Y-1830451D01*
X11228451Y-1725549D02*
X11123549Y-1830451D01*
X11228451Y-1778000D02*
G75*
G03X11228451Y-1778000I-52451J0D01*
G01*
X11123549Y-1979549D02*
X11228451Y-2084451D01*
X11228451Y-1979549D02*
X11123549Y-2084451D01*
X11228451Y-2032000D02*
G75*
G03X11228451Y-2032000I-52451J0D01*
G01*
X640080Y-259080D02*
X883920Y-502920D01*
X883920Y-259080D02*
X640080Y-502920D01*
X762000Y-259080D02*
X762000Y-502920D01*
X640080Y-381000D02*
X883920Y-381000D01*
D13*
X266429Y-3391714D02*
X266429Y-3091714D01*
X337857Y-3091714D01*
X380714Y-3106000D01*
X409286Y-3134571D01*
X423571Y-3163143D01*
X437857Y-3220286D01*
X437857Y-3263143D01*
X423571Y-3320286D01*
X409286Y-3348857D01*
X380714Y-3377429D01*
X337857Y-3391714D01*
X266429Y-3391714D01*
X566429Y-3391714D02*
X566429Y-3191714D01*
X566429Y-3248857D02*
X580714Y-3220286D01*
X595000Y-3206000D01*
X623571Y-3191714D01*
X652143Y-3191714D01*
X752143Y-3391714D02*
X752143Y-3191714D01*
X752143Y-3091714D02*
X737857Y-3106000D01*
X752143Y-3120286D01*
X766428Y-3106000D01*
X752143Y-3091714D01*
X752143Y-3120286D01*
X937857Y-3391714D02*
X909286Y-3377429D01*
X895000Y-3348857D01*
X895000Y-3091714D01*
X1095000Y-3391714D02*
X1066429Y-3377429D01*
X1052143Y-3348857D01*
X1052143Y-3091714D01*
X1437857Y-3391714D02*
X1437857Y-3091714D01*
X1537857Y-3306000D01*
X1637857Y-3091714D01*
X1637857Y-3391714D01*
X1909286Y-3391714D02*
X1909286Y-3234571D01*
X1895000Y-3206000D01*
X1866428Y-3191714D01*
X1809286Y-3191714D01*
X1780714Y-3206000D01*
X1909286Y-3377429D02*
X1880714Y-3391714D01*
X1809286Y-3391714D01*
X1780714Y-3377429D01*
X1766428Y-3348857D01*
X1766428Y-3320286D01*
X1780714Y-3291714D01*
X1809286Y-3277429D01*
X1880714Y-3277429D01*
X1909286Y-3263143D01*
X2052143Y-3191714D02*
X2052143Y-3491714D01*
X2052143Y-3206000D02*
X2080714Y-3191714D01*
X2137857Y-3191714D01*
X2166429Y-3206000D01*
X2180714Y-3220286D01*
X2195000Y-3248857D01*
X2195000Y-3334571D01*
X2180714Y-3363143D01*
X2166429Y-3377429D01*
X2137857Y-3391714D01*
X2080714Y-3391714D01*
X2052143Y-3377429D01*
X2323571Y-3363143D02*
X2337857Y-3377429D01*
X2323571Y-3391714D01*
X2309286Y-3377429D01*
X2323571Y-3363143D01*
X2323571Y-3391714D01*
X2323571Y-3206000D02*
X2337857Y-3220286D01*
X2323571Y-3234571D01*
X2309286Y-3220286D01*
X2323571Y-3206000D01*
X2323571Y-3234571D01*
X-43100Y-3866950D02*
X-5000Y-3905050D01*
X-5000Y-3866950D02*
X-43100Y-3905050D01*
X323571Y-3721714D02*
X352143Y-3721714D01*
X380714Y-3736000D01*
X395000Y-3750286D01*
X409286Y-3778857D01*
X423571Y-3836000D01*
X423571Y-3907429D01*
X409286Y-3964571D01*
X395000Y-3993143D01*
X380714Y-4007429D01*
X352143Y-4021714D01*
X323571Y-4021714D01*
X295000Y-4007429D01*
X280714Y-3993143D01*
X266429Y-3964571D01*
X252143Y-3907429D01*
X252143Y-3836000D01*
X266429Y-3778857D01*
X280714Y-3750286D01*
X295000Y-3736000D01*
X323571Y-3721714D01*
X552143Y-3993143D02*
X566429Y-4007429D01*
X552143Y-4021714D01*
X537857Y-4007429D01*
X552143Y-3993143D01*
X552143Y-4021714D01*
X666428Y-3721714D02*
X852143Y-3721714D01*
X752143Y-3836000D01*
X795000Y-3836000D01*
X823571Y-3850286D01*
X837857Y-3864571D01*
X852143Y-3893143D01*
X852143Y-3964571D01*
X837857Y-3993143D01*
X823571Y-4007429D01*
X795000Y-4021714D01*
X709286Y-4021714D01*
X680714Y-4007429D01*
X666428Y-3993143D01*
X1023571Y-3850286D02*
X995000Y-3836000D01*
X980714Y-3821714D01*
X966428Y-3793143D01*
X966428Y-3778857D01*
X980714Y-3750286D01*
X995000Y-3736000D01*
X1023571Y-3721714D01*
X1080714Y-3721714D01*
X1109286Y-3736000D01*
X1123571Y-3750286D01*
X1137857Y-3778857D01*
X1137857Y-3793143D01*
X1123571Y-3821714D01*
X1109286Y-3836000D01*
X1080714Y-3850286D01*
X1023571Y-3850286D01*
X995000Y-3864571D01*
X980714Y-3878857D01*
X966428Y-3907429D01*
X966428Y-3964571D01*
X980714Y-3993143D01*
X995000Y-4007429D01*
X1023571Y-4021714D01*
X1080714Y-4021714D01*
X1109286Y-4007429D01*
X1123571Y-3993143D01*
X1137857Y-3964571D01*
X1137857Y-3907429D01*
X1123571Y-3878857D01*
X1109286Y-3864571D01*
X1080714Y-3850286D01*
X1266429Y-4021714D02*
X1266429Y-3821714D01*
X1266429Y-3850286D02*
X1280714Y-3836000D01*
X1309286Y-3821714D01*
X1352143Y-3821714D01*
X1380714Y-3836000D01*
X1395000Y-3864571D01*
X1395000Y-4021714D01*
X1395000Y-3864571D02*
X1409286Y-3836000D01*
X1437857Y-3821714D01*
X1480714Y-3821714D01*
X1509286Y-3836000D01*
X1523571Y-3864571D01*
X1523571Y-4021714D01*
X1666428Y-4021714D02*
X1666428Y-3821714D01*
X1666428Y-3850286D02*
X1680714Y-3836000D01*
X1709286Y-3821714D01*
X1752143Y-3821714D01*
X1780714Y-3836000D01*
X1795000Y-3864571D01*
X1795000Y-4021714D01*
X1795000Y-3864571D02*
X1809286Y-3836000D01*
X1837857Y-3821714D01*
X1880714Y-3821714D01*
X1909286Y-3836000D01*
X1923571Y-3864571D01*
X1923571Y-4021714D01*
X2509286Y-3707429D02*
X2252143Y-4093143D01*
X2895000Y-3721714D02*
X2923571Y-3721714D01*
X2952143Y-3736000D01*
X2966428Y-3750286D01*
X2980714Y-3778857D01*
X2995000Y-3836000D01*
X2995000Y-3907429D01*
X2980714Y-3964571D01*
X2966428Y-3993143D01*
X2952143Y-4007429D01*
X2923571Y-4021714D01*
X2895000Y-4021714D01*
X2866428Y-4007429D01*
X2852143Y-3993143D01*
X2837857Y-3964571D01*
X2823571Y-3907429D01*
X2823571Y-3836000D01*
X2837857Y-3778857D01*
X2852143Y-3750286D01*
X2866428Y-3736000D01*
X2895000Y-3721714D01*
X3123571Y-3993143D02*
X3137857Y-4007429D01*
X3123571Y-4021714D01*
X3109286Y-4007429D01*
X3123571Y-3993143D01*
X3123571Y-4021714D01*
X3323571Y-3721714D02*
X3352143Y-3721714D01*
X3380714Y-3736000D01*
X3395000Y-3750286D01*
X3409285Y-3778857D01*
X3423571Y-3836000D01*
X3423571Y-3907429D01*
X3409285Y-3964571D01*
X3395000Y-3993143D01*
X3380714Y-4007429D01*
X3352143Y-4021714D01*
X3323571Y-4021714D01*
X3295000Y-4007429D01*
X3280714Y-3993143D01*
X3266428Y-3964571D01*
X3252143Y-3907429D01*
X3252143Y-3836000D01*
X3266428Y-3778857D01*
X3280714Y-3750286D01*
X3295000Y-3736000D01*
X3323571Y-3721714D01*
X3709285Y-4021714D02*
X3537857Y-4021714D01*
X3623571Y-4021714D02*
X3623571Y-3721714D01*
X3595000Y-3764571D01*
X3566428Y-3793143D01*
X3537857Y-3807429D01*
X3980714Y-3721714D02*
X3837857Y-3721714D01*
X3823571Y-3864571D01*
X3837857Y-3850286D01*
X3866428Y-3836000D01*
X3937857Y-3836000D01*
X3966428Y-3850286D01*
X3980714Y-3864571D01*
X3995000Y-3893143D01*
X3995000Y-3964571D01*
X3980714Y-3993143D01*
X3966428Y-4007429D01*
X3937857Y-4021714D01*
X3866428Y-4021714D01*
X3837857Y-4007429D01*
X3823571Y-3993143D01*
X4109286Y-3721714D02*
X4109286Y-3778857D01*
X4223571Y-3721714D02*
X4223571Y-3778857D01*
X4666428Y-4136000D02*
X4652143Y-4121714D01*
X4623571Y-4078857D01*
X4609286Y-4050286D01*
X4595000Y-4007429D01*
X4580714Y-3936000D01*
X4580714Y-3878857D01*
X4595000Y-3807429D01*
X4609286Y-3764571D01*
X4623571Y-3736000D01*
X4652143Y-3693143D01*
X4666428Y-3678857D01*
X4937857Y-4021714D02*
X4766428Y-4021714D01*
X4852143Y-4021714D02*
X4852143Y-3721714D01*
X4823571Y-3764571D01*
X4795000Y-3793143D01*
X4766428Y-3807429D01*
X5195000Y-3821714D02*
X5195000Y-4021714D01*
X5123571Y-3707429D02*
X5052143Y-3921714D01*
X5237857Y-3921714D01*
X5580714Y-4021714D02*
X5580714Y-3721714D01*
X5709285Y-4021714D02*
X5709285Y-3864571D01*
X5695000Y-3836000D01*
X5666428Y-3821714D01*
X5623571Y-3821714D01*
X5595000Y-3836000D01*
X5580714Y-3850286D01*
X5895000Y-4021714D02*
X5866428Y-4007429D01*
X5852143Y-3993143D01*
X5837857Y-3964571D01*
X5837857Y-3878857D01*
X5852143Y-3850286D01*
X5866428Y-3836000D01*
X5895000Y-3821714D01*
X5937857Y-3821714D01*
X5966428Y-3836000D01*
X5980714Y-3850286D01*
X5995000Y-3878857D01*
X5995000Y-3964571D01*
X5980714Y-3993143D01*
X5966428Y-4007429D01*
X5937857Y-4021714D01*
X5895000Y-4021714D01*
X6166428Y-4021714D02*
X6137857Y-4007429D01*
X6123571Y-3978857D01*
X6123571Y-3721714D01*
X6395000Y-4007429D02*
X6366428Y-4021714D01*
X6309286Y-4021714D01*
X6280714Y-4007429D01*
X6266428Y-3978857D01*
X6266428Y-3864571D01*
X6280714Y-3836000D01*
X6309286Y-3821714D01*
X6366428Y-3821714D01*
X6395000Y-3836000D01*
X6409286Y-3864571D01*
X6409286Y-3893143D01*
X6266428Y-3921714D01*
X6523571Y-4007429D02*
X6552143Y-4021714D01*
X6609286Y-4021714D01*
X6637857Y-4007429D01*
X6652143Y-3978857D01*
X6652143Y-3964571D01*
X6637857Y-3936000D01*
X6609286Y-3921714D01*
X6566428Y-3921714D01*
X6537857Y-3907429D01*
X6523571Y-3878857D01*
X6523571Y-3864571D01*
X6537857Y-3836000D01*
X6566428Y-3821714D01*
X6609286Y-3821714D01*
X6637857Y-3836000D01*
X6752143Y-4136000D02*
X6766428Y-4121714D01*
X6795000Y-4078857D01*
X6809286Y-4050286D01*
X6823571Y-4007429D01*
X6837857Y-3936000D01*
X6837857Y-3878857D01*
X6823571Y-3807429D01*
X6809286Y-3764571D01*
X6795000Y-3736000D01*
X6766428Y-3693143D01*
X6752143Y-3678857D01*
X-5000Y-4282000D02*
G75*
G03X-5000Y-4282000I-25400J0D01*
G01*
X323571Y-4117714D02*
X352143Y-4117714D01*
X380714Y-4132000D01*
X395000Y-4146286D01*
X409286Y-4174857D01*
X423571Y-4232000D01*
X423571Y-4303429D01*
X409286Y-4360572D01*
X395000Y-4389143D01*
X380714Y-4403429D01*
X352143Y-4417714D01*
X323571Y-4417714D01*
X295000Y-4403429D01*
X280714Y-4389143D01*
X266429Y-4360572D01*
X252143Y-4303429D01*
X252143Y-4232000D01*
X266429Y-4174857D01*
X280714Y-4146286D01*
X295000Y-4132000D01*
X323571Y-4117714D01*
X552143Y-4389143D02*
X566429Y-4403429D01*
X552143Y-4417714D01*
X537857Y-4403429D01*
X552143Y-4389143D01*
X552143Y-4417714D01*
X837857Y-4117714D02*
X695000Y-4117714D01*
X680714Y-4260572D01*
X695000Y-4246286D01*
X723571Y-4232000D01*
X795000Y-4232000D01*
X823571Y-4246286D01*
X837857Y-4260572D01*
X852143Y-4289143D01*
X852143Y-4360572D01*
X837857Y-4389143D01*
X823571Y-4403429D01*
X795000Y-4417714D01*
X723571Y-4417714D01*
X695000Y-4403429D01*
X680714Y-4389143D01*
X1137857Y-4417714D02*
X966428Y-4417714D01*
X1052143Y-4417714D02*
X1052143Y-4117714D01*
X1023571Y-4160571D01*
X995000Y-4189143D01*
X966428Y-4203429D01*
X1266429Y-4417714D02*
X1266429Y-4217714D01*
X1266429Y-4246286D02*
X1280714Y-4232000D01*
X1309286Y-4217714D01*
X1352143Y-4217714D01*
X1380714Y-4232000D01*
X1395000Y-4260572D01*
X1395000Y-4417714D01*
X1395000Y-4260572D02*
X1409286Y-4232000D01*
X1437857Y-4217714D01*
X1480714Y-4217714D01*
X1509286Y-4232000D01*
X1523571Y-4260572D01*
X1523571Y-4417714D01*
X1666428Y-4417714D02*
X1666428Y-4217714D01*
X1666428Y-4246286D02*
X1680714Y-4232000D01*
X1709286Y-4217714D01*
X1752143Y-4217714D01*
X1780714Y-4232000D01*
X1795000Y-4260572D01*
X1795000Y-4417714D01*
X1795000Y-4260572D02*
X1809286Y-4232000D01*
X1837857Y-4217714D01*
X1880714Y-4217714D01*
X1909286Y-4232000D01*
X1923571Y-4260572D01*
X1923571Y-4417714D01*
X2509286Y-4103429D02*
X2252143Y-4489143D01*
X2895000Y-4117714D02*
X2923571Y-4117714D01*
X2952143Y-4132000D01*
X2966428Y-4146286D01*
X2980714Y-4174857D01*
X2995000Y-4232000D01*
X2995000Y-4303429D01*
X2980714Y-4360572D01*
X2966428Y-4389143D01*
X2952143Y-4403429D01*
X2923571Y-4417714D01*
X2895000Y-4417714D01*
X2866428Y-4403429D01*
X2852143Y-4389143D01*
X2837857Y-4360572D01*
X2823571Y-4303429D01*
X2823571Y-4232000D01*
X2837857Y-4174857D01*
X2852143Y-4146286D01*
X2866428Y-4132000D01*
X2895000Y-4117714D01*
X3123571Y-4389143D02*
X3137857Y-4403429D01*
X3123571Y-4417714D01*
X3109286Y-4403429D01*
X3123571Y-4389143D01*
X3123571Y-4417714D01*
X3323571Y-4117714D02*
X3352143Y-4117714D01*
X3380714Y-4132000D01*
X3395000Y-4146286D01*
X3409285Y-4174857D01*
X3423571Y-4232000D01*
X3423571Y-4303429D01*
X3409285Y-4360572D01*
X3395000Y-4389143D01*
X3380714Y-4403429D01*
X3352143Y-4417714D01*
X3323571Y-4417714D01*
X3295000Y-4403429D01*
X3280714Y-4389143D01*
X3266428Y-4360572D01*
X3252143Y-4303429D01*
X3252143Y-4232000D01*
X3266428Y-4174857D01*
X3280714Y-4146286D01*
X3295000Y-4132000D01*
X3323571Y-4117714D01*
X3537857Y-4146286D02*
X3552143Y-4132000D01*
X3580714Y-4117714D01*
X3652143Y-4117714D01*
X3680714Y-4132000D01*
X3695000Y-4146286D01*
X3709285Y-4174857D01*
X3709285Y-4203429D01*
X3695000Y-4246286D01*
X3523571Y-4417714D01*
X3709285Y-4417714D01*
X3895000Y-4117714D02*
X3923571Y-4117714D01*
X3952143Y-4132000D01*
X3966428Y-4146286D01*
X3980714Y-4174857D01*
X3995000Y-4232000D01*
X3995000Y-4303429D01*
X3980714Y-4360572D01*
X3966428Y-4389143D01*
X3952143Y-4403429D01*
X3923571Y-4417714D01*
X3895000Y-4417714D01*
X3866428Y-4403429D01*
X3852143Y-4389143D01*
X3837857Y-4360572D01*
X3823571Y-4303429D01*
X3823571Y-4232000D01*
X3837857Y-4174857D01*
X3852143Y-4146286D01*
X3866428Y-4132000D01*
X3895000Y-4117714D01*
X4109286Y-4117714D02*
X4109286Y-4174857D01*
X4223571Y-4117714D02*
X4223571Y-4174857D01*
X4666428Y-4532000D02*
X4652143Y-4517714D01*
X4623571Y-4474857D01*
X4609286Y-4446286D01*
X4595000Y-4403429D01*
X4580714Y-4332000D01*
X4580714Y-4274857D01*
X4595000Y-4203429D01*
X4609286Y-4160571D01*
X4623571Y-4132000D01*
X4652143Y-4089143D01*
X4666428Y-4074857D01*
X4823571Y-4246286D02*
X4795000Y-4232000D01*
X4780714Y-4217714D01*
X4766428Y-4189143D01*
X4766428Y-4174857D01*
X4780714Y-4146286D01*
X4795000Y-4132000D01*
X4823571Y-4117714D01*
X4880714Y-4117714D01*
X4909286Y-4132000D01*
X4923571Y-4146286D01*
X4937857Y-4174857D01*
X4937857Y-4189143D01*
X4923571Y-4217714D01*
X4909286Y-4232000D01*
X4880714Y-4246286D01*
X4823571Y-4246286D01*
X4795000Y-4260572D01*
X4780714Y-4274857D01*
X4766428Y-4303429D01*
X4766428Y-4360572D01*
X4780714Y-4389143D01*
X4795000Y-4403429D01*
X4823571Y-4417714D01*
X4880714Y-4417714D01*
X4909286Y-4403429D01*
X4923571Y-4389143D01*
X4937857Y-4360572D01*
X4937857Y-4303429D01*
X4923571Y-4274857D01*
X4909286Y-4260572D01*
X4880714Y-4246286D01*
X5295000Y-4417714D02*
X5295000Y-4117714D01*
X5423571Y-4417714D02*
X5423571Y-4260572D01*
X5409286Y-4232000D01*
X5380714Y-4217714D01*
X5337857Y-4217714D01*
X5309286Y-4232000D01*
X5295000Y-4246286D01*
X5609285Y-4417714D02*
X5580714Y-4403429D01*
X5566428Y-4389143D01*
X5552143Y-4360572D01*
X5552143Y-4274857D01*
X5566428Y-4246286D01*
X5580714Y-4232000D01*
X5609285Y-4217714D01*
X5652143Y-4217714D01*
X5680714Y-4232000D01*
X5695000Y-4246286D01*
X5709285Y-4274857D01*
X5709285Y-4360572D01*
X5695000Y-4389143D01*
X5680714Y-4403429D01*
X5652143Y-4417714D01*
X5609285Y-4417714D01*
X5880714Y-4417714D02*
X5852143Y-4403429D01*
X5837857Y-4374857D01*
X5837857Y-4117714D01*
X6109286Y-4403429D02*
X6080714Y-4417714D01*
X6023571Y-4417714D01*
X5995000Y-4403429D01*
X5980714Y-4374857D01*
X5980714Y-4260572D01*
X5995000Y-4232000D01*
X6023571Y-4217714D01*
X6080714Y-4217714D01*
X6109286Y-4232000D01*
X6123571Y-4260572D01*
X6123571Y-4289143D01*
X5980714Y-4317714D01*
X6237857Y-4403429D02*
X6266428Y-4417714D01*
X6323571Y-4417714D01*
X6352143Y-4403429D01*
X6366428Y-4374857D01*
X6366428Y-4360572D01*
X6352143Y-4332000D01*
X6323571Y-4317714D01*
X6280714Y-4317714D01*
X6252143Y-4303429D01*
X6237857Y-4274857D01*
X6237857Y-4260572D01*
X6252143Y-4232000D01*
X6280714Y-4217714D01*
X6323571Y-4217714D01*
X6352143Y-4232000D01*
X6466428Y-4532000D02*
X6480714Y-4517714D01*
X6509286Y-4474857D01*
X6523571Y-4446286D01*
X6537857Y-4403429D01*
X6552143Y-4332000D01*
X6552143Y-4274857D01*
X6537857Y-4203429D01*
X6523571Y-4160571D01*
X6509286Y-4132000D01*
X6480714Y-4089143D01*
X6466428Y-4074857D01*
X-38500Y-4644500D02*
X-38500Y-4711500D01*
X-72000Y-4678000D02*
X-5000Y-4678000D01*
X323571Y-4513714D02*
X352143Y-4513714D01*
X380714Y-4528000D01*
X395000Y-4542286D01*
X409286Y-4570857D01*
X423571Y-4628000D01*
X423571Y-4699429D01*
X409286Y-4756572D01*
X395000Y-4785143D01*
X380714Y-4799429D01*
X352143Y-4813714D01*
X323571Y-4813714D01*
X295000Y-4799429D01*
X280714Y-4785143D01*
X266429Y-4756572D01*
X252143Y-4699429D01*
X252143Y-4628000D01*
X266429Y-4570857D01*
X280714Y-4542286D01*
X295000Y-4528000D01*
X323571Y-4513714D01*
X552143Y-4785143D02*
X566429Y-4799429D01*
X552143Y-4813714D01*
X537857Y-4799429D01*
X552143Y-4785143D01*
X552143Y-4813714D01*
X823571Y-4513714D02*
X766428Y-4513714D01*
X737857Y-4528000D01*
X723571Y-4542286D01*
X695000Y-4585143D01*
X680714Y-4642286D01*
X680714Y-4756572D01*
X695000Y-4785143D01*
X709286Y-4799429D01*
X737857Y-4813714D01*
X795000Y-4813714D01*
X823571Y-4799429D01*
X837857Y-4785143D01*
X852143Y-4756572D01*
X852143Y-4685143D01*
X837857Y-4656572D01*
X823571Y-4642286D01*
X795000Y-4628000D01*
X737857Y-4628000D01*
X709286Y-4642286D01*
X695000Y-4656572D01*
X680714Y-4685143D01*
X952143Y-4513714D02*
X1152143Y-4513714D01*
X1023571Y-4813714D01*
X1266429Y-4813714D02*
X1266429Y-4613714D01*
X1266429Y-4642286D02*
X1280714Y-4628000D01*
X1309286Y-4613714D01*
X1352143Y-4613714D01*
X1380714Y-4628000D01*
X1395000Y-4656572D01*
X1395000Y-4813714D01*
X1395000Y-4656572D02*
X1409286Y-4628000D01*
X1437857Y-4613714D01*
X1480714Y-4613714D01*
X1509286Y-4628000D01*
X1523571Y-4656572D01*
X1523571Y-4813714D01*
X1666428Y-4813714D02*
X1666428Y-4613714D01*
X1666428Y-4642286D02*
X1680714Y-4628000D01*
X1709286Y-4613714D01*
X1752143Y-4613714D01*
X1780714Y-4628000D01*
X1795000Y-4656572D01*
X1795000Y-4813714D01*
X1795000Y-4656572D02*
X1809286Y-4628000D01*
X1837857Y-4613714D01*
X1880714Y-4613714D01*
X1909286Y-4628000D01*
X1923571Y-4656572D01*
X1923571Y-4813714D01*
X2509286Y-4499429D02*
X2252143Y-4885143D01*
X2895000Y-4513714D02*
X2923571Y-4513714D01*
X2952143Y-4528000D01*
X2966428Y-4542286D01*
X2980714Y-4570857D01*
X2995000Y-4628000D01*
X2995000Y-4699429D01*
X2980714Y-4756572D01*
X2966428Y-4785143D01*
X2952143Y-4799429D01*
X2923571Y-4813714D01*
X2895000Y-4813714D01*
X2866428Y-4799429D01*
X2852143Y-4785143D01*
X2837857Y-4756572D01*
X2823571Y-4699429D01*
X2823571Y-4628000D01*
X2837857Y-4570857D01*
X2852143Y-4542286D01*
X2866428Y-4528000D01*
X2895000Y-4513714D01*
X3123571Y-4785143D02*
X3137857Y-4799429D01*
X3123571Y-4813714D01*
X3109286Y-4799429D01*
X3123571Y-4785143D01*
X3123571Y-4813714D01*
X3323571Y-4513714D02*
X3352143Y-4513714D01*
X3380714Y-4528000D01*
X3395000Y-4542286D01*
X3409285Y-4570857D01*
X3423571Y-4628000D01*
X3423571Y-4699429D01*
X3409285Y-4756572D01*
X3395000Y-4785143D01*
X3380714Y-4799429D01*
X3352143Y-4813714D01*
X3323571Y-4813714D01*
X3295000Y-4799429D01*
X3280714Y-4785143D01*
X3266428Y-4756572D01*
X3252143Y-4699429D01*
X3252143Y-4628000D01*
X3266428Y-4570857D01*
X3280714Y-4542286D01*
X3295000Y-4528000D01*
X3323571Y-4513714D01*
X3537857Y-4542286D02*
X3552143Y-4528000D01*
X3580714Y-4513714D01*
X3652143Y-4513714D01*
X3680714Y-4528000D01*
X3695000Y-4542286D01*
X3709285Y-4570857D01*
X3709285Y-4599429D01*
X3695000Y-4642286D01*
X3523571Y-4813714D01*
X3709285Y-4813714D01*
X3966428Y-4513714D02*
X3909285Y-4513714D01*
X3880714Y-4528000D01*
X3866428Y-4542286D01*
X3837857Y-4585143D01*
X3823571Y-4642286D01*
X3823571Y-4756572D01*
X3837857Y-4785143D01*
X3852143Y-4799429D01*
X3880714Y-4813714D01*
X3937857Y-4813714D01*
X3966428Y-4799429D01*
X3980714Y-4785143D01*
X3995000Y-4756572D01*
X3995000Y-4685143D01*
X3980714Y-4656572D01*
X3966428Y-4642286D01*
X3937857Y-4628000D01*
X3880714Y-4628000D01*
X3852143Y-4642286D01*
X3837857Y-4656572D01*
X3823571Y-4685143D01*
X4109286Y-4513714D02*
X4109286Y-4570857D01*
X4223571Y-4513714D02*
X4223571Y-4570857D01*
X4666428Y-4928000D02*
X4652143Y-4913714D01*
X4623571Y-4870857D01*
X4609286Y-4842286D01*
X4595000Y-4799429D01*
X4580714Y-4728000D01*
X4580714Y-4670857D01*
X4595000Y-4599429D01*
X4609286Y-4556572D01*
X4623571Y-4528000D01*
X4652143Y-4485143D01*
X4666428Y-4470857D01*
X4752143Y-4513714D02*
X4937857Y-4513714D01*
X4837857Y-4628000D01*
X4880714Y-4628000D01*
X4909286Y-4642286D01*
X4923571Y-4656572D01*
X4937857Y-4685143D01*
X4937857Y-4756572D01*
X4923571Y-4785143D01*
X4909286Y-4799429D01*
X4880714Y-4813714D01*
X4795000Y-4813714D01*
X4766428Y-4799429D01*
X4752143Y-4785143D01*
X5052143Y-4542286D02*
X5066428Y-4528000D01*
X5095000Y-4513714D01*
X5166428Y-4513714D01*
X5195000Y-4528000D01*
X5209286Y-4542286D01*
X5223571Y-4570857D01*
X5223571Y-4599429D01*
X5209286Y-4642286D01*
X5037857Y-4813714D01*
X5223571Y-4813714D01*
X5580714Y-4813714D02*
X5580714Y-4513714D01*
X5709285Y-4813714D02*
X5709285Y-4656572D01*
X5695000Y-4628000D01*
X5666428Y-4613714D01*
X5623571Y-4613714D01*
X5595000Y-4628000D01*
X5580714Y-4642286D01*
X5895000Y-4813714D02*
X5866428Y-4799429D01*
X5852143Y-4785143D01*
X5837857Y-4756572D01*
X5837857Y-4670857D01*
X5852143Y-4642286D01*
X5866428Y-4628000D01*
X5895000Y-4613714D01*
X5937857Y-4613714D01*
X5966428Y-4628000D01*
X5980714Y-4642286D01*
X5995000Y-4670857D01*
X5995000Y-4756572D01*
X5980714Y-4785143D01*
X5966428Y-4799429D01*
X5937857Y-4813714D01*
X5895000Y-4813714D01*
X6166428Y-4813714D02*
X6137857Y-4799429D01*
X6123571Y-4770857D01*
X6123571Y-4513714D01*
X6395000Y-4799429D02*
X6366428Y-4813714D01*
X6309286Y-4813714D01*
X6280714Y-4799429D01*
X6266428Y-4770857D01*
X6266428Y-4656572D01*
X6280714Y-4628000D01*
X6309286Y-4613714D01*
X6366428Y-4613714D01*
X6395000Y-4628000D01*
X6409286Y-4656572D01*
X6409286Y-4685143D01*
X6266428Y-4713714D01*
X6523571Y-4799429D02*
X6552143Y-4813714D01*
X6609286Y-4813714D01*
X6637857Y-4799429D01*
X6652143Y-4770857D01*
X6652143Y-4756572D01*
X6637857Y-4728000D01*
X6609286Y-4713714D01*
X6566428Y-4713714D01*
X6537857Y-4699429D01*
X6523571Y-4670857D01*
X6523571Y-4656572D01*
X6537857Y-4628000D01*
X6566428Y-4613714D01*
X6609286Y-4613714D01*
X6637857Y-4628000D01*
X6752143Y-4928000D02*
X6766428Y-4913714D01*
X6795000Y-4870857D01*
X6809286Y-4842286D01*
X6823571Y-4799429D01*
X6837857Y-4728000D01*
X6837857Y-4670857D01*
X6823571Y-4599429D01*
X6809286Y-4556572D01*
X6795000Y-4528000D01*
X6766428Y-4485143D01*
X6752143Y-4470857D01*
X-15251Y-5098749D02*
X-15251Y-5049251D01*
X-64749Y-5049251D01*
X-64749Y-5098749D01*
X-15251Y-5098749D01*
X323571Y-4909714D02*
X352143Y-4909714D01*
X380714Y-4924000D01*
X395000Y-4938286D01*
X409286Y-4966857D01*
X423571Y-5024000D01*
X423571Y-5095429D01*
X409286Y-5152572D01*
X395000Y-5181143D01*
X380714Y-5195429D01*
X352143Y-5209714D01*
X323571Y-5209714D01*
X295000Y-5195429D01*
X280714Y-5181143D01*
X266429Y-5152572D01*
X252143Y-5095429D01*
X252143Y-5024000D01*
X266429Y-4966857D01*
X280714Y-4938286D01*
X295000Y-4924000D01*
X323571Y-4909714D01*
X552143Y-5181143D02*
X566429Y-5195429D01*
X552143Y-5209714D01*
X537857Y-5195429D01*
X552143Y-5181143D01*
X552143Y-5209714D01*
X666428Y-4909714D02*
X866428Y-4909714D01*
X737857Y-5209714D01*
X1037857Y-4909714D02*
X1066429Y-4909714D01*
X1095000Y-4924000D01*
X1109286Y-4938286D01*
X1123571Y-4966857D01*
X1137857Y-5024000D01*
X1137857Y-5095429D01*
X1123571Y-5152572D01*
X1109286Y-5181143D01*
X1095000Y-5195429D01*
X1066429Y-5209714D01*
X1037857Y-5209714D01*
X1009286Y-5195429D01*
X995000Y-5181143D01*
X980714Y-5152572D01*
X966428Y-5095429D01*
X966428Y-5024000D01*
X980714Y-4966857D01*
X995000Y-4938286D01*
X1009286Y-4924000D01*
X1037857Y-4909714D01*
X1266429Y-5209714D02*
X1266429Y-5009714D01*
X1266429Y-5038286D02*
X1280714Y-5024000D01*
X1309286Y-5009714D01*
X1352143Y-5009714D01*
X1380714Y-5024000D01*
X1395000Y-5052572D01*
X1395000Y-5209714D01*
X1395000Y-5052572D02*
X1409286Y-5024000D01*
X1437857Y-5009714D01*
X1480714Y-5009714D01*
X1509286Y-5024000D01*
X1523571Y-5052572D01*
X1523571Y-5209714D01*
X1666428Y-5209714D02*
X1666428Y-5009714D01*
X1666428Y-5038286D02*
X1680714Y-5024000D01*
X1709286Y-5009714D01*
X1752143Y-5009714D01*
X1780714Y-5024000D01*
X1795000Y-5052572D01*
X1795000Y-5209714D01*
X1795000Y-5052572D02*
X1809286Y-5024000D01*
X1837857Y-5009714D01*
X1880714Y-5009714D01*
X1909286Y-5024000D01*
X1923571Y-5052572D01*
X1923571Y-5209714D01*
X2509286Y-4895429D02*
X2252143Y-5281143D01*
X2895000Y-4909714D02*
X2923571Y-4909714D01*
X2952143Y-4924000D01*
X2966428Y-4938286D01*
X2980714Y-4966857D01*
X2995000Y-5024000D01*
X2995000Y-5095429D01*
X2980714Y-5152572D01*
X2966428Y-5181143D01*
X2952143Y-5195429D01*
X2923571Y-5209714D01*
X2895000Y-5209714D01*
X2866428Y-5195429D01*
X2852143Y-5181143D01*
X2837857Y-5152572D01*
X2823571Y-5095429D01*
X2823571Y-5024000D01*
X2837857Y-4966857D01*
X2852143Y-4938286D01*
X2866428Y-4924000D01*
X2895000Y-4909714D01*
X3123571Y-5181143D02*
X3137857Y-5195429D01*
X3123571Y-5209714D01*
X3109286Y-5195429D01*
X3123571Y-5181143D01*
X3123571Y-5209714D01*
X3323571Y-4909714D02*
X3352143Y-4909714D01*
X3380714Y-4924000D01*
X3395000Y-4938286D01*
X3409285Y-4966857D01*
X3423571Y-5024000D01*
X3423571Y-5095429D01*
X3409285Y-5152572D01*
X3395000Y-5181143D01*
X3380714Y-5195429D01*
X3352143Y-5209714D01*
X3323571Y-5209714D01*
X3295000Y-5195429D01*
X3280714Y-5181143D01*
X3266428Y-5152572D01*
X3252143Y-5095429D01*
X3252143Y-5024000D01*
X3266428Y-4966857D01*
X3280714Y-4938286D01*
X3295000Y-4924000D01*
X3323571Y-4909714D01*
X3537857Y-4938286D02*
X3552143Y-4924000D01*
X3580714Y-4909714D01*
X3652143Y-4909714D01*
X3680714Y-4924000D01*
X3695000Y-4938286D01*
X3709285Y-4966857D01*
X3709285Y-4995429D01*
X3695000Y-5038286D01*
X3523571Y-5209714D01*
X3709285Y-5209714D01*
X3880714Y-5038286D02*
X3852143Y-5024000D01*
X3837857Y-5009714D01*
X3823571Y-4981143D01*
X3823571Y-4966857D01*
X3837857Y-4938286D01*
X3852143Y-4924000D01*
X3880714Y-4909714D01*
X3937857Y-4909714D01*
X3966428Y-4924000D01*
X3980714Y-4938286D01*
X3995000Y-4966857D01*
X3995000Y-4981143D01*
X3980714Y-5009714D01*
X3966428Y-5024000D01*
X3937857Y-5038286D01*
X3880714Y-5038286D01*
X3852143Y-5052572D01*
X3837857Y-5066857D01*
X3823571Y-5095429D01*
X3823571Y-5152572D01*
X3837857Y-5181143D01*
X3852143Y-5195429D01*
X3880714Y-5209714D01*
X3937857Y-5209714D01*
X3966428Y-5195429D01*
X3980714Y-5181143D01*
X3995000Y-5152572D01*
X3995000Y-5095429D01*
X3980714Y-5066857D01*
X3966428Y-5052572D01*
X3937857Y-5038286D01*
X4109286Y-4909714D02*
X4109286Y-4966857D01*
X4223571Y-4909714D02*
X4223571Y-4966857D01*
X4666428Y-5324000D02*
X4652143Y-5309714D01*
X4623571Y-5266857D01*
X4609286Y-5238286D01*
X4595000Y-5195429D01*
X4580714Y-5124000D01*
X4580714Y-5066857D01*
X4595000Y-4995429D01*
X4609286Y-4952572D01*
X4623571Y-4924000D01*
X4652143Y-4881143D01*
X4666428Y-4866857D01*
X4795000Y-5209714D02*
X4852143Y-5209714D01*
X4880714Y-5195429D01*
X4895000Y-5181143D01*
X4923571Y-5138286D01*
X4937857Y-5081143D01*
X4937857Y-4966857D01*
X4923571Y-4938286D01*
X4909286Y-4924000D01*
X4880714Y-4909714D01*
X4823571Y-4909714D01*
X4795000Y-4924000D01*
X4780714Y-4938286D01*
X4766428Y-4966857D01*
X4766428Y-5038286D01*
X4780714Y-5066857D01*
X4795000Y-5081143D01*
X4823571Y-5095429D01*
X4880714Y-5095429D01*
X4909286Y-5081143D01*
X4923571Y-5066857D01*
X4937857Y-5038286D01*
X5295000Y-5209714D02*
X5295000Y-4909714D01*
X5423571Y-5209714D02*
X5423571Y-5052572D01*
X5409286Y-5024000D01*
X5380714Y-5009714D01*
X5337857Y-5009714D01*
X5309286Y-5024000D01*
X5295000Y-5038286D01*
X5609285Y-5209714D02*
X5580714Y-5195429D01*
X5566428Y-5181143D01*
X5552143Y-5152572D01*
X5552143Y-5066857D01*
X5566428Y-5038286D01*
X5580714Y-5024000D01*
X5609285Y-5009714D01*
X5652143Y-5009714D01*
X5680714Y-5024000D01*
X5695000Y-5038286D01*
X5709285Y-5066857D01*
X5709285Y-5152572D01*
X5695000Y-5181143D01*
X5680714Y-5195429D01*
X5652143Y-5209714D01*
X5609285Y-5209714D01*
X5880714Y-5209714D02*
X5852143Y-5195429D01*
X5837857Y-5166857D01*
X5837857Y-4909714D01*
X6109286Y-5195429D02*
X6080714Y-5209714D01*
X6023571Y-5209714D01*
X5995000Y-5195429D01*
X5980714Y-5166857D01*
X5980714Y-5052572D01*
X5995000Y-5024000D01*
X6023571Y-5009714D01*
X6080714Y-5009714D01*
X6109286Y-5024000D01*
X6123571Y-5052572D01*
X6123571Y-5081143D01*
X5980714Y-5109714D01*
X6237857Y-5195429D02*
X6266428Y-5209714D01*
X6323571Y-5209714D01*
X6352143Y-5195429D01*
X6366428Y-5166857D01*
X6366428Y-5152572D01*
X6352143Y-5124000D01*
X6323571Y-5109714D01*
X6280714Y-5109714D01*
X6252143Y-5095429D01*
X6237857Y-5066857D01*
X6237857Y-5052572D01*
X6252143Y-5024000D01*
X6280714Y-5009714D01*
X6323571Y-5009714D01*
X6352143Y-5024000D01*
X6466428Y-5324000D02*
X6480714Y-5309714D01*
X6509286Y-5266857D01*
X6523571Y-5238286D01*
X6537857Y-5195429D01*
X6552143Y-5124000D01*
X6552143Y-5066857D01*
X6537857Y-4995429D01*
X6523571Y-4952572D01*
X6509286Y-4924000D01*
X6480714Y-4881143D01*
X6466428Y-4866857D01*
X-40052Y-5505052D02*
X-5000Y-5470000D01*
X-40052Y-5434948D01*
X-75104Y-5470000D01*
X-40052Y-5505052D01*
X323571Y-5305714D02*
X352143Y-5305714D01*
X380714Y-5320000D01*
X395000Y-5334286D01*
X409286Y-5362857D01*
X423571Y-5420000D01*
X423571Y-5491429D01*
X409286Y-5548572D01*
X395000Y-5577143D01*
X380714Y-5591429D01*
X352143Y-5605714D01*
X323571Y-5605714D01*
X295000Y-5591429D01*
X280714Y-5577143D01*
X266429Y-5548572D01*
X252143Y-5491429D01*
X252143Y-5420000D01*
X266429Y-5362857D01*
X280714Y-5334286D01*
X295000Y-5320000D01*
X323571Y-5305714D01*
X552143Y-5577143D02*
X566429Y-5591429D01*
X552143Y-5605714D01*
X537857Y-5591429D01*
X552143Y-5577143D01*
X552143Y-5605714D01*
X666428Y-5305714D02*
X866428Y-5305714D01*
X737857Y-5605714D01*
X1037857Y-5305714D02*
X1066429Y-5305714D01*
X1095000Y-5320000D01*
X1109286Y-5334286D01*
X1123571Y-5362857D01*
X1137857Y-5420000D01*
X1137857Y-5491429D01*
X1123571Y-5548572D01*
X1109286Y-5577143D01*
X1095000Y-5591429D01*
X1066429Y-5605714D01*
X1037857Y-5605714D01*
X1009286Y-5591429D01*
X995000Y-5577143D01*
X980714Y-5548572D01*
X966428Y-5491429D01*
X966428Y-5420000D01*
X980714Y-5362857D01*
X995000Y-5334286D01*
X1009286Y-5320000D01*
X1037857Y-5305714D01*
X1266429Y-5605714D02*
X1266429Y-5405714D01*
X1266429Y-5434286D02*
X1280714Y-5420000D01*
X1309286Y-5405714D01*
X1352143Y-5405714D01*
X1380714Y-5420000D01*
X1395000Y-5448572D01*
X1395000Y-5605714D01*
X1395000Y-5448572D02*
X1409286Y-5420000D01*
X1437857Y-5405714D01*
X1480714Y-5405714D01*
X1509286Y-5420000D01*
X1523571Y-5448572D01*
X1523571Y-5605714D01*
X1666428Y-5605714D02*
X1666428Y-5405714D01*
X1666428Y-5434286D02*
X1680714Y-5420000D01*
X1709286Y-5405714D01*
X1752143Y-5405714D01*
X1780714Y-5420000D01*
X1795000Y-5448572D01*
X1795000Y-5605714D01*
X1795000Y-5448572D02*
X1809286Y-5420000D01*
X1837857Y-5405714D01*
X1880714Y-5405714D01*
X1909286Y-5420000D01*
X1923571Y-5448572D01*
X1923571Y-5605714D01*
X2509286Y-5291429D02*
X2252143Y-5677143D01*
X2895000Y-5305714D02*
X2923571Y-5305714D01*
X2952143Y-5320000D01*
X2966428Y-5334286D01*
X2980714Y-5362857D01*
X2995000Y-5420000D01*
X2995000Y-5491429D01*
X2980714Y-5548572D01*
X2966428Y-5577143D01*
X2952143Y-5591429D01*
X2923571Y-5605714D01*
X2895000Y-5605714D01*
X2866428Y-5591429D01*
X2852143Y-5577143D01*
X2837857Y-5548572D01*
X2823571Y-5491429D01*
X2823571Y-5420000D01*
X2837857Y-5362857D01*
X2852143Y-5334286D01*
X2866428Y-5320000D01*
X2895000Y-5305714D01*
X3123571Y-5577143D02*
X3137857Y-5591429D01*
X3123571Y-5605714D01*
X3109286Y-5591429D01*
X3123571Y-5577143D01*
X3123571Y-5605714D01*
X3323571Y-5305714D02*
X3352143Y-5305714D01*
X3380714Y-5320000D01*
X3395000Y-5334286D01*
X3409285Y-5362857D01*
X3423571Y-5420000D01*
X3423571Y-5491429D01*
X3409285Y-5548572D01*
X3395000Y-5577143D01*
X3380714Y-5591429D01*
X3352143Y-5605714D01*
X3323571Y-5605714D01*
X3295000Y-5591429D01*
X3280714Y-5577143D01*
X3266428Y-5548572D01*
X3252143Y-5491429D01*
X3252143Y-5420000D01*
X3266428Y-5362857D01*
X3280714Y-5334286D01*
X3295000Y-5320000D01*
X3323571Y-5305714D01*
X3537857Y-5334286D02*
X3552143Y-5320000D01*
X3580714Y-5305714D01*
X3652143Y-5305714D01*
X3680714Y-5320000D01*
X3695000Y-5334286D01*
X3709285Y-5362857D01*
X3709285Y-5391429D01*
X3695000Y-5434286D01*
X3523571Y-5605714D01*
X3709285Y-5605714D01*
X3880714Y-5434286D02*
X3852143Y-5420000D01*
X3837857Y-5405714D01*
X3823571Y-5377143D01*
X3823571Y-5362857D01*
X3837857Y-5334286D01*
X3852143Y-5320000D01*
X3880714Y-5305714D01*
X3937857Y-5305714D01*
X3966428Y-5320000D01*
X3980714Y-5334286D01*
X3995000Y-5362857D01*
X3995000Y-5377143D01*
X3980714Y-5405714D01*
X3966428Y-5420000D01*
X3937857Y-5434286D01*
X3880714Y-5434286D01*
X3852143Y-5448572D01*
X3837857Y-5462857D01*
X3823571Y-5491429D01*
X3823571Y-5548572D01*
X3837857Y-5577143D01*
X3852143Y-5591429D01*
X3880714Y-5605714D01*
X3937857Y-5605714D01*
X3966428Y-5591429D01*
X3980714Y-5577143D01*
X3995000Y-5548572D01*
X3995000Y-5491429D01*
X3980714Y-5462857D01*
X3966428Y-5448572D01*
X3937857Y-5434286D01*
X4109286Y-5305714D02*
X4109286Y-5362857D01*
X4223571Y-5305714D02*
X4223571Y-5362857D01*
X4666428Y-5720000D02*
X4652143Y-5705714D01*
X4623571Y-5662857D01*
X4609286Y-5634286D01*
X4595000Y-5591429D01*
X4580714Y-5520000D01*
X4580714Y-5462857D01*
X4595000Y-5391429D01*
X4609286Y-5348572D01*
X4623571Y-5320000D01*
X4652143Y-5277143D01*
X4666428Y-5262857D01*
X4909286Y-5405714D02*
X4909286Y-5605714D01*
X4837857Y-5291429D02*
X4766428Y-5505714D01*
X4952143Y-5505714D01*
X5295000Y-5605714D02*
X5295000Y-5305714D01*
X5423571Y-5605714D02*
X5423571Y-5448572D01*
X5409286Y-5420000D01*
X5380714Y-5405714D01*
X5337857Y-5405714D01*
X5309286Y-5420000D01*
X5295000Y-5434286D01*
X5609285Y-5605714D02*
X5580714Y-5591429D01*
X5566428Y-5577143D01*
X5552143Y-5548572D01*
X5552143Y-5462857D01*
X5566428Y-5434286D01*
X5580714Y-5420000D01*
X5609285Y-5405714D01*
X5652143Y-5405714D01*
X5680714Y-5420000D01*
X5695000Y-5434286D01*
X5709285Y-5462857D01*
X5709285Y-5548572D01*
X5695000Y-5577143D01*
X5680714Y-5591429D01*
X5652143Y-5605714D01*
X5609285Y-5605714D01*
X5880714Y-5605714D02*
X5852143Y-5591429D01*
X5837857Y-5562857D01*
X5837857Y-5305714D01*
X6109286Y-5591429D02*
X6080714Y-5605714D01*
X6023571Y-5605714D01*
X5995000Y-5591429D01*
X5980714Y-5562857D01*
X5980714Y-5448572D01*
X5995000Y-5420000D01*
X6023571Y-5405714D01*
X6080714Y-5405714D01*
X6109286Y-5420000D01*
X6123571Y-5448572D01*
X6123571Y-5477143D01*
X5980714Y-5505714D01*
X6237857Y-5591429D02*
X6266428Y-5605714D01*
X6323571Y-5605714D01*
X6352143Y-5591429D01*
X6366428Y-5562857D01*
X6366428Y-5548572D01*
X6352143Y-5520000D01*
X6323571Y-5505714D01*
X6280714Y-5505714D01*
X6252143Y-5491429D01*
X6237857Y-5462857D01*
X6237857Y-5448572D01*
X6252143Y-5420000D01*
X6280714Y-5405714D01*
X6323571Y-5405714D01*
X6352143Y-5420000D01*
X6466428Y-5720000D02*
X6480714Y-5705714D01*
X6509286Y-5662857D01*
X6523571Y-5634286D01*
X6537857Y-5591429D01*
X6552143Y-5520000D01*
X6552143Y-5462857D01*
X6537857Y-5391429D01*
X6523571Y-5348572D01*
X6509286Y-5320000D01*
X6480714Y-5277143D01*
X6466428Y-5262857D01*
X-109902Y-5813549D02*
X-5000Y-5918451D01*
X-5000Y-5813549D02*
X-109902Y-5918451D01*
X-5000Y-5866000D02*
G75*
G03X-5000Y-5866000I-52451J0D01*
G01*
X423571Y-6001714D02*
X252143Y-6001714D01*
X337857Y-6001714D02*
X337857Y-5701714D01*
X309286Y-5744571D01*
X280714Y-5773143D01*
X252143Y-5787429D01*
X552143Y-5973143D02*
X566429Y-5987429D01*
X552143Y-6001714D01*
X537857Y-5987429D01*
X552143Y-5973143D01*
X552143Y-6001714D01*
X752143Y-5701714D02*
X780714Y-5701714D01*
X809286Y-5716000D01*
X823571Y-5730286D01*
X837857Y-5758857D01*
X852143Y-5816000D01*
X852143Y-5887429D01*
X837857Y-5944571D01*
X823571Y-5973143D01*
X809286Y-5987429D01*
X780714Y-6001714D01*
X752143Y-6001714D01*
X723571Y-5987429D01*
X709286Y-5973143D01*
X695000Y-5944571D01*
X680714Y-5887429D01*
X680714Y-5816000D01*
X695000Y-5758857D01*
X709286Y-5730286D01*
X723571Y-5716000D01*
X752143Y-5701714D01*
X1123571Y-5701714D02*
X980714Y-5701714D01*
X966428Y-5844571D01*
X980714Y-5830286D01*
X1009286Y-5816000D01*
X1080714Y-5816000D01*
X1109286Y-5830286D01*
X1123571Y-5844571D01*
X1137857Y-5873143D01*
X1137857Y-5944571D01*
X1123571Y-5973143D01*
X1109286Y-5987429D01*
X1080714Y-6001714D01*
X1009286Y-6001714D01*
X980714Y-5987429D01*
X966428Y-5973143D01*
X1266429Y-6001714D02*
X1266429Y-5801714D01*
X1266429Y-5830286D02*
X1280714Y-5816000D01*
X1309286Y-5801714D01*
X1352143Y-5801714D01*
X1380714Y-5816000D01*
X1395000Y-5844571D01*
X1395000Y-6001714D01*
X1395000Y-5844571D02*
X1409286Y-5816000D01*
X1437857Y-5801714D01*
X1480714Y-5801714D01*
X1509286Y-5816000D01*
X1523571Y-5844571D01*
X1523571Y-6001714D01*
X1666428Y-6001714D02*
X1666428Y-5801714D01*
X1666428Y-5830286D02*
X1680714Y-5816000D01*
X1709286Y-5801714D01*
X1752143Y-5801714D01*
X1780714Y-5816000D01*
X1795000Y-5844571D01*
X1795000Y-6001714D01*
X1795000Y-5844571D02*
X1809286Y-5816000D01*
X1837857Y-5801714D01*
X1880714Y-5801714D01*
X1909286Y-5816000D01*
X1923571Y-5844571D01*
X1923571Y-6001714D01*
X2509286Y-5687429D02*
X2252143Y-6073143D01*
X2895000Y-5701714D02*
X2923571Y-5701714D01*
X2952143Y-5716000D01*
X2966428Y-5730286D01*
X2980714Y-5758857D01*
X2995000Y-5816000D01*
X2995000Y-5887429D01*
X2980714Y-5944571D01*
X2966428Y-5973143D01*
X2952143Y-5987429D01*
X2923571Y-6001714D01*
X2895000Y-6001714D01*
X2866428Y-5987429D01*
X2852143Y-5973143D01*
X2837857Y-5944571D01*
X2823571Y-5887429D01*
X2823571Y-5816000D01*
X2837857Y-5758857D01*
X2852143Y-5730286D01*
X2866428Y-5716000D01*
X2895000Y-5701714D01*
X3123571Y-5973143D02*
X3137857Y-5987429D01*
X3123571Y-6001714D01*
X3109286Y-5987429D01*
X3123571Y-5973143D01*
X3123571Y-6001714D01*
X3323571Y-5701714D02*
X3352143Y-5701714D01*
X3380714Y-5716000D01*
X3395000Y-5730286D01*
X3409285Y-5758857D01*
X3423571Y-5816000D01*
X3423571Y-5887429D01*
X3409285Y-5944571D01*
X3395000Y-5973143D01*
X3380714Y-5987429D01*
X3352143Y-6001714D01*
X3323571Y-6001714D01*
X3295000Y-5987429D01*
X3280714Y-5973143D01*
X3266428Y-5944571D01*
X3252143Y-5887429D01*
X3252143Y-5816000D01*
X3266428Y-5758857D01*
X3280714Y-5730286D01*
X3295000Y-5716000D01*
X3323571Y-5701714D01*
X3680714Y-5801714D02*
X3680714Y-6001714D01*
X3609285Y-5687429D02*
X3537857Y-5901714D01*
X3723571Y-5901714D01*
X3995000Y-6001714D02*
X3823571Y-6001714D01*
X3909285Y-6001714D02*
X3909285Y-5701714D01*
X3880714Y-5744571D01*
X3852143Y-5773143D01*
X3823571Y-5787429D01*
X4109286Y-5701714D02*
X4109286Y-5758857D01*
X4223571Y-5701714D02*
X4223571Y-5758857D01*
X4666428Y-6116000D02*
X4652143Y-6101714D01*
X4623571Y-6058857D01*
X4609286Y-6030286D01*
X4595000Y-5987429D01*
X4580714Y-5916000D01*
X4580714Y-5858857D01*
X4595000Y-5787429D01*
X4609286Y-5744571D01*
X4623571Y-5716000D01*
X4652143Y-5673143D01*
X4666428Y-5658857D01*
X4909286Y-5701714D02*
X4852143Y-5701714D01*
X4823571Y-5716000D01*
X4809286Y-5730286D01*
X4780714Y-5773143D01*
X4766428Y-5830286D01*
X4766428Y-5944571D01*
X4780714Y-5973143D01*
X4795000Y-5987429D01*
X4823571Y-6001714D01*
X4880714Y-6001714D01*
X4909286Y-5987429D01*
X4923571Y-5973143D01*
X4937857Y-5944571D01*
X4937857Y-5873143D01*
X4923571Y-5844571D01*
X4909286Y-5830286D01*
X4880714Y-5816000D01*
X4823571Y-5816000D01*
X4795000Y-5830286D01*
X4780714Y-5844571D01*
X4766428Y-5873143D01*
X5052143Y-5730286D02*
X5066428Y-5716000D01*
X5095000Y-5701714D01*
X5166428Y-5701714D01*
X5195000Y-5716000D01*
X5209286Y-5730286D01*
X5223571Y-5758857D01*
X5223571Y-5787429D01*
X5209286Y-5830286D01*
X5037857Y-6001714D01*
X5223571Y-6001714D01*
X5580714Y-6001714D02*
X5580714Y-5701714D01*
X5709285Y-6001714D02*
X5709285Y-5844571D01*
X5695000Y-5816000D01*
X5666428Y-5801714D01*
X5623571Y-5801714D01*
X5595000Y-5816000D01*
X5580714Y-5830286D01*
X5895000Y-6001714D02*
X5866428Y-5987429D01*
X5852143Y-5973143D01*
X5837857Y-5944571D01*
X5837857Y-5858857D01*
X5852143Y-5830286D01*
X5866428Y-5816000D01*
X5895000Y-5801714D01*
X5937857Y-5801714D01*
X5966428Y-5816000D01*
X5980714Y-5830286D01*
X5995000Y-5858857D01*
X5995000Y-5944571D01*
X5980714Y-5973143D01*
X5966428Y-5987429D01*
X5937857Y-6001714D01*
X5895000Y-6001714D01*
X6166428Y-6001714D02*
X6137857Y-5987429D01*
X6123571Y-5958857D01*
X6123571Y-5701714D01*
X6395000Y-5987429D02*
X6366428Y-6001714D01*
X6309286Y-6001714D01*
X6280714Y-5987429D01*
X6266428Y-5958857D01*
X6266428Y-5844571D01*
X6280714Y-5816000D01*
X6309286Y-5801714D01*
X6366428Y-5801714D01*
X6395000Y-5816000D01*
X6409286Y-5844571D01*
X6409286Y-5873143D01*
X6266428Y-5901714D01*
X6523571Y-5987429D02*
X6552143Y-6001714D01*
X6609286Y-6001714D01*
X6637857Y-5987429D01*
X6652143Y-5958857D01*
X6652143Y-5944571D01*
X6637857Y-5916000D01*
X6609286Y-5901714D01*
X6566428Y-5901714D01*
X6537857Y-5887429D01*
X6523571Y-5858857D01*
X6523571Y-5844571D01*
X6537857Y-5816000D01*
X6566428Y-5801714D01*
X6609286Y-5801714D01*
X6637857Y-5816000D01*
X6752143Y-6116000D02*
X6766428Y-6101714D01*
X6795000Y-6058857D01*
X6809286Y-6030286D01*
X6823571Y-5987429D01*
X6837857Y-5916000D01*
X6837857Y-5858857D01*
X6823571Y-5787429D01*
X6809286Y-5744571D01*
X6795000Y-5716000D01*
X6766428Y-5673143D01*
X6752143Y-5658857D01*
X-248840Y-6140080D02*
X-5000Y-6383920D01*
X-5000Y-6140080D02*
X-248840Y-6383920D01*
X-126920Y-6140080D02*
X-126920Y-6383920D01*
X-248840Y-6262000D02*
X-5000Y-6262000D01*
X252143Y-6126286D02*
X266429Y-6112000D01*
X295000Y-6097714D01*
X366428Y-6097714D01*
X395000Y-6112000D01*
X409286Y-6126286D01*
X423571Y-6154857D01*
X423571Y-6183429D01*
X409286Y-6226286D01*
X237857Y-6397714D01*
X423571Y-6397714D01*
X552143Y-6369143D02*
X566429Y-6383429D01*
X552143Y-6397714D01*
X537857Y-6383429D01*
X552143Y-6369143D01*
X552143Y-6397714D01*
X823571Y-6197714D02*
X823571Y-6397714D01*
X752143Y-6083429D02*
X680714Y-6297714D01*
X866428Y-6297714D01*
X1109286Y-6197714D02*
X1109286Y-6397714D01*
X1037857Y-6083429D02*
X966428Y-6297714D01*
X1152143Y-6297714D01*
X1266429Y-6397714D02*
X1266429Y-6197714D01*
X1266429Y-6226286D02*
X1280714Y-6212000D01*
X1309286Y-6197714D01*
X1352143Y-6197714D01*
X1380714Y-6212000D01*
X1395000Y-6240571D01*
X1395000Y-6397714D01*
X1395000Y-6240571D02*
X1409286Y-6212000D01*
X1437857Y-6197714D01*
X1480714Y-6197714D01*
X1509286Y-6212000D01*
X1523571Y-6240571D01*
X1523571Y-6397714D01*
X1666428Y-6397714D02*
X1666428Y-6197714D01*
X1666428Y-6226286D02*
X1680714Y-6212000D01*
X1709286Y-6197714D01*
X1752143Y-6197714D01*
X1780714Y-6212000D01*
X1795000Y-6240571D01*
X1795000Y-6397714D01*
X1795000Y-6240571D02*
X1809286Y-6212000D01*
X1837857Y-6197714D01*
X1880714Y-6197714D01*
X1909286Y-6212000D01*
X1923571Y-6240571D01*
X1923571Y-6397714D01*
X2509286Y-6083429D02*
X2252143Y-6469143D01*
X2895000Y-6097714D02*
X2923571Y-6097714D01*
X2952143Y-6112000D01*
X2966428Y-6126286D01*
X2980714Y-6154857D01*
X2995000Y-6212000D01*
X2995000Y-6283429D01*
X2980714Y-6340571D01*
X2966428Y-6369143D01*
X2952143Y-6383429D01*
X2923571Y-6397714D01*
X2895000Y-6397714D01*
X2866428Y-6383429D01*
X2852143Y-6369143D01*
X2837857Y-6340571D01*
X2823571Y-6283429D01*
X2823571Y-6212000D01*
X2837857Y-6154857D01*
X2852143Y-6126286D01*
X2866428Y-6112000D01*
X2895000Y-6097714D01*
X3123571Y-6369143D02*
X3137857Y-6383429D01*
X3123571Y-6397714D01*
X3109286Y-6383429D01*
X3123571Y-6369143D01*
X3123571Y-6397714D01*
X3323571Y-6097714D02*
X3352143Y-6097714D01*
X3380714Y-6112000D01*
X3395000Y-6126286D01*
X3409285Y-6154857D01*
X3423571Y-6212000D01*
X3423571Y-6283429D01*
X3409285Y-6340571D01*
X3395000Y-6369143D01*
X3380714Y-6383429D01*
X3352143Y-6397714D01*
X3323571Y-6397714D01*
X3295000Y-6383429D01*
X3280714Y-6369143D01*
X3266428Y-6340571D01*
X3252143Y-6283429D01*
X3252143Y-6212000D01*
X3266428Y-6154857D01*
X3280714Y-6126286D01*
X3295000Y-6112000D01*
X3323571Y-6097714D01*
X3566428Y-6397714D02*
X3623571Y-6397714D01*
X3652143Y-6383429D01*
X3666428Y-6369143D01*
X3695000Y-6326286D01*
X3709285Y-6269143D01*
X3709285Y-6154857D01*
X3695000Y-6126286D01*
X3680714Y-6112000D01*
X3652143Y-6097714D01*
X3595000Y-6097714D01*
X3566428Y-6112000D01*
X3552143Y-6126286D01*
X3537857Y-6154857D01*
X3537857Y-6226286D01*
X3552143Y-6254857D01*
X3566428Y-6269143D01*
X3595000Y-6283429D01*
X3652143Y-6283429D01*
X3680714Y-6269143D01*
X3695000Y-6254857D01*
X3709285Y-6226286D01*
X3966428Y-6097714D02*
X3909285Y-6097714D01*
X3880714Y-6112000D01*
X3866428Y-6126286D01*
X3837857Y-6169143D01*
X3823571Y-6226286D01*
X3823571Y-6340571D01*
X3837857Y-6369143D01*
X3852143Y-6383429D01*
X3880714Y-6397714D01*
X3937857Y-6397714D01*
X3966428Y-6383429D01*
X3980714Y-6369143D01*
X3995000Y-6340571D01*
X3995000Y-6269143D01*
X3980714Y-6240571D01*
X3966428Y-6226286D01*
X3937857Y-6212000D01*
X3880714Y-6212000D01*
X3852143Y-6226286D01*
X3837857Y-6240571D01*
X3823571Y-6269143D01*
X4109286Y-6097714D02*
X4109286Y-6154857D01*
X4223571Y-6097714D02*
X4223571Y-6154857D01*
X4666428Y-6512000D02*
X4652143Y-6497714D01*
X4623571Y-6454857D01*
X4609286Y-6426286D01*
X4595000Y-6383429D01*
X4580714Y-6312000D01*
X4580714Y-6254857D01*
X4595000Y-6183429D01*
X4609286Y-6140571D01*
X4623571Y-6112000D01*
X4652143Y-6069143D01*
X4666428Y-6054857D01*
X4937857Y-6397714D02*
X4766428Y-6397714D01*
X4852143Y-6397714D02*
X4852143Y-6097714D01*
X4823571Y-6140571D01*
X4795000Y-6169143D01*
X4766428Y-6183429D01*
X5295000Y-6397714D02*
X5295000Y-6097714D01*
X5423571Y-6397714D02*
X5423571Y-6240571D01*
X5409286Y-6212000D01*
X5380714Y-6197714D01*
X5337857Y-6197714D01*
X5309286Y-6212000D01*
X5295000Y-6226286D01*
X5609285Y-6397714D02*
X5580714Y-6383429D01*
X5566428Y-6369143D01*
X5552143Y-6340571D01*
X5552143Y-6254857D01*
X5566428Y-6226286D01*
X5580714Y-6212000D01*
X5609285Y-6197714D01*
X5652143Y-6197714D01*
X5680714Y-6212000D01*
X5695000Y-6226286D01*
X5709285Y-6254857D01*
X5709285Y-6340571D01*
X5695000Y-6369143D01*
X5680714Y-6383429D01*
X5652143Y-6397714D01*
X5609285Y-6397714D01*
X5880714Y-6397714D02*
X5852143Y-6383429D01*
X5837857Y-6354857D01*
X5837857Y-6097714D01*
X6109286Y-6383429D02*
X6080714Y-6397714D01*
X6023571Y-6397714D01*
X5995000Y-6383429D01*
X5980714Y-6354857D01*
X5980714Y-6240571D01*
X5995000Y-6212000D01*
X6023571Y-6197714D01*
X6080714Y-6197714D01*
X6109286Y-6212000D01*
X6123571Y-6240571D01*
X6123571Y-6269143D01*
X5980714Y-6297714D01*
X6223571Y-6512000D02*
X6237857Y-6497714D01*
X6266428Y-6454857D01*
X6280714Y-6426286D01*
X6295000Y-6383429D01*
X6309286Y-6312000D01*
X6309286Y-6254857D01*
X6295000Y-6183429D01*
X6280714Y-6140571D01*
X6266428Y-6112000D01*
X6237857Y-6069143D01*
X6223571Y-6054857D01*
M02*
