M48
;DRILL file {kicad (2015-01-30 BZR 5397)-product} date 2015-02-25 23:45:26
;FORMAT={3:3/ absolute / metric / keep zeros}
FMAT,2
METRIC,TZ
T1C0.381
T2C0.508
T3C0.670
T4C0.700
T5C0.701
T6C1.049
T7C2.438
%
G90
G05
M71
T1
X015240Y-024892
X016256Y-023368
X021590Y-012700
X029210Y-007620
X066040Y-024892
X067310Y-023749
X068580Y-022606
X086360Y-028194
X088900Y-028194
X091440Y-012700
X093980Y-028194
X096520Y-007620
X096520Y-028194
X099060Y-007620
T2
X004826Y-001016
X004826Y-003810
X004826Y-006604
X007620Y-001016
X007620Y-006604
X010414Y-001016
X010414Y-003810
X010414Y-006604
T3
X016510Y-019050
X016510Y-026670
X019050Y-019050
X019050Y-026670
X021590Y-019050
X021590Y-026670
X024130Y-019050
X024130Y-026670
X026670Y-019050
X026670Y-026670
X029210Y-019050
X029210Y-026670
X031750Y-019050
X031750Y-026670
X034290Y-019050
X034290Y-026670
X083820Y-019050
X083820Y-026670
X086360Y-019050
X086360Y-026670
X088900Y-019050
X088900Y-026670
X091440Y-019050
X091440Y-026670
X093980Y-019050
X093980Y-026670
X096520Y-019050
X096520Y-026670
X099060Y-019050
X099060Y-026670
X101600Y-019050
X101600Y-026670
T4
X045720Y-019050
X048260Y-019050
X050800Y-019050
X053340Y-019050
X055880Y-019050
X058420Y-019050
X060960Y-019050
X063500Y-019050
X066040Y-019050
T5
X012700Y-019050
X012700Y-021590
X080010Y-019050
X080010Y-021590
T6
X002540Y-005080
X002540Y-007620
X002540Y-010160
X002540Y-012700
X002540Y-015240
X002540Y-017780
X002540Y-020320
X012700Y-002540
X012700Y-005080
X012700Y-007620
X012700Y-010160
X012700Y-012700
X012700Y-015240
X025400Y-002540
X025400Y-005080
X025400Y-007620
X025400Y-010160
X025400Y-012700
X025400Y-015240
X038100Y-002540
X038100Y-005080
X038100Y-007620
X038100Y-010160
X038100Y-012700
X038100Y-015240
X050800Y-002540
X050800Y-005080
X050800Y-007620
X050800Y-010160
X050800Y-012700
X050800Y-015240
X063500Y-002540
X063500Y-005080
X063500Y-007620
X063500Y-010160
X063500Y-012700
X063500Y-015240
X076200Y-002540
X076200Y-005080
X076200Y-007620
X076200Y-010160
X076200Y-012700
X076200Y-015240
X088900Y-002540
X088900Y-005080
X088900Y-007620
X088900Y-010160
X088900Y-012700
X088900Y-015240
X101600Y-002540
X101600Y-005080
X101600Y-007620
X101600Y-010160
X101600Y-012700
X101600Y-015240
X111760Y-005080
X111760Y-007620
X111760Y-010160
X111760Y-012700
X111760Y-015240
X111760Y-017780
X111760Y-020320
T7
X007620Y-003810
T0
M30
